G04 #@! TF.GenerationSoftware,KiCad,Pcbnew,(5.1.2-1)-1*
G04 #@! TF.CreationDate,2020-06-30T21:23:12-05:00*
G04 #@! TF.ProjectId,therick48.16SP,74686572-6963-46b3-9438-2e313653502e,rev?*
G04 #@! TF.SameCoordinates,Original*
G04 #@! TF.FileFunction,Legend,Top*
G04 #@! TF.FilePolarity,Positive*
%FSLAX46Y46*%
G04 Gerber Fmt 4.6, Leading zero omitted, Abs format (unit mm)*
G04 Created by KiCad (PCBNEW (5.1.2-1)-1) date 2020-06-30 21:23:12*
%MOMM*%
%LPD*%
G04 APERTURE LIST*
%ADD10C,0.150000*%
%ADD11C,0.120000*%
%ADD12C,0.010000*%
%ADD13R,2.102000X2.102000*%
%ADD14C,2.102000*%
%ADD15R,2.102000X3.302000*%
%ADD16C,0.100000*%
%ADD17C,1.803400*%
%ADD18C,3.602000*%
%ADD19C,0.902000*%
%ADD20C,2.642000*%
%ADD21C,1.803800*%
%ADD22C,4.089800*%
%ADD23O,1.402000X2.002000*%
%ADD24C,0.752000*%
%ADD25O,1.402000X2.502000*%
G04 APERTURE END LIST*
D10*
X137139379Y-104559047D02*
X137853665Y-104559047D01*
X137996522Y-104606666D01*
X138091760Y-104701904D01*
X138139379Y-104844761D01*
X138139379Y-104940000D01*
X138139379Y-103606666D02*
X138139379Y-104082857D01*
X137139379Y-104082857D01*
X138044141Y-102701904D02*
X138091760Y-102749523D01*
X138139379Y-102892380D01*
X138139379Y-102987619D01*
X138091760Y-103130476D01*
X137996522Y-103225714D01*
X137901284Y-103273333D01*
X137710808Y-103320952D01*
X137567951Y-103320952D01*
X137377475Y-103273333D01*
X137282237Y-103225714D01*
X137186999Y-103130476D01*
X137139379Y-102987619D01*
X137139379Y-102892380D01*
X137186999Y-102749523D01*
X137234618Y-102701904D01*
X137139379Y-101987619D02*
X137853665Y-101987619D01*
X137996522Y-102035238D01*
X138091760Y-102130476D01*
X138139379Y-102273333D01*
X138139379Y-102368571D01*
X138139379Y-101035238D02*
X138139379Y-101511428D01*
X137139379Y-101511428D01*
X138044141Y-100130476D02*
X138091760Y-100178095D01*
X138139379Y-100320952D01*
X138139379Y-100416190D01*
X138091760Y-100559047D01*
X137996522Y-100654285D01*
X137901284Y-100701904D01*
X137710808Y-100749523D01*
X137567951Y-100749523D01*
X137377475Y-100701904D01*
X137282237Y-100654285D01*
X137186999Y-100559047D01*
X137139379Y-100416190D01*
X137139379Y-100320952D01*
X137186999Y-100178095D01*
X137234618Y-100130476D01*
X137139379Y-99416190D02*
X137853665Y-99416190D01*
X137996522Y-99463809D01*
X138091760Y-99559047D01*
X138139379Y-99701904D01*
X138139379Y-99797142D01*
X138139379Y-98463809D02*
X138139379Y-98940000D01*
X137139379Y-98940000D01*
X138044141Y-97559047D02*
X138091760Y-97606666D01*
X138139379Y-97749523D01*
X138139379Y-97844761D01*
X138091760Y-97987619D01*
X137996522Y-98082857D01*
X137901284Y-98130476D01*
X137710808Y-98178095D01*
X137567951Y-98178095D01*
X137377475Y-98130476D01*
X137282237Y-98082857D01*
X137186999Y-97987619D01*
X137139379Y-97844761D01*
X137139379Y-97749523D01*
X137186999Y-97606666D01*
X137234618Y-97559047D01*
X137139379Y-96844761D02*
X137853665Y-96844761D01*
X137996522Y-96892380D01*
X138091760Y-96987619D01*
X138139379Y-97130476D01*
X138139379Y-97225714D01*
X138139379Y-95892380D02*
X138139379Y-96368571D01*
X137139379Y-96368571D01*
X138044141Y-94987619D02*
X138091760Y-95035238D01*
X138139379Y-95178095D01*
X138139379Y-95273333D01*
X138091760Y-95416190D01*
X137996522Y-95511428D01*
X137901284Y-95559047D01*
X137710808Y-95606666D01*
X137567951Y-95606666D01*
X137377475Y-95559047D01*
X137282237Y-95511428D01*
X137186999Y-95416190D01*
X137139379Y-95273333D01*
X137139379Y-95178095D01*
X137186999Y-95035238D01*
X137234618Y-94987619D01*
D11*
X147805399Y-52427302D02*
G75*
G03X147805399Y-52427302I-3000000J0D01*
G01*
X150705399Y-54427302D02*
X150705399Y-58527302D01*
X138905399Y-58527302D02*
X138905399Y-54427302D01*
X138905399Y-50427302D02*
X138905399Y-46327302D01*
X150705399Y-50427302D02*
X150705399Y-46327302D01*
X150705399Y-46327302D02*
X138905399Y-46327302D01*
X148605399Y-44927302D02*
X148905399Y-44627302D01*
X148905399Y-44627302D02*
X148905399Y-45227302D01*
X148905399Y-45227302D02*
X148605399Y-44927302D01*
X150705399Y-58527302D02*
X148305399Y-58527302D01*
X146105399Y-58527302D02*
X143505399Y-58527302D01*
X141305399Y-58527302D02*
X138905399Y-58527302D01*
X145305399Y-52427302D02*
X144305399Y-52427302D01*
X144805399Y-51927302D02*
X144805399Y-52927302D01*
X119845086Y-52427162D02*
X118845086Y-52427162D01*
X119345086Y-51927162D02*
X119345086Y-52927162D01*
X125245086Y-46327162D02*
X113445086Y-46327162D01*
X125245086Y-50427162D02*
X125245086Y-46327162D01*
X113445086Y-50427162D02*
X113445086Y-46327162D01*
X125245086Y-58527162D02*
X122845086Y-58527162D01*
X125245086Y-54427162D02*
X125245086Y-58527162D01*
X120645086Y-58527162D02*
X118045086Y-58527162D01*
X115845086Y-58527162D02*
X113445086Y-58527162D01*
X113445086Y-58527162D02*
X113445086Y-54427162D01*
X122345086Y-52427162D02*
G75*
G03X122345086Y-52427162I-3000000J0D01*
G01*
X123445086Y-45227162D02*
X123145086Y-44927162D01*
X123445086Y-44627162D02*
X123445086Y-45227162D01*
X123145086Y-44927162D02*
X123445086Y-44627162D01*
D12*
G36*
X335821429Y-67786428D02*
G01*
X335824383Y-69458072D01*
X335832837Y-71012105D01*
X335846177Y-72412210D01*
X335863790Y-73622067D01*
X335885064Y-74605357D01*
X335909383Y-75325760D01*
X335936136Y-75746957D01*
X335957500Y-75844645D01*
X336104557Y-75715144D01*
X336481854Y-75347063D01*
X337067423Y-74762698D01*
X337839299Y-73984348D01*
X338775516Y-73034310D01*
X339854106Y-71934882D01*
X341053104Y-70708361D01*
X342350542Y-69377045D01*
X343724456Y-67963231D01*
X343895000Y-67787461D01*
X351696429Y-59745632D01*
X355868619Y-59729244D01*
X360040809Y-59712857D01*
X350801567Y-68953431D01*
X349033816Y-70722420D01*
X347506687Y-72253443D01*
X346203440Y-73564331D01*
X345107337Y-74672913D01*
X344201638Y-75597019D01*
X343469605Y-76354478D01*
X342894499Y-76963120D01*
X342459580Y-77440775D01*
X342148110Y-77805271D01*
X341943350Y-78074440D01*
X341828561Y-78266109D01*
X341787003Y-78398109D01*
X341801938Y-78488270D01*
X341821520Y-78518564D01*
X341976489Y-78707180D01*
X342344894Y-79152760D01*
X342908341Y-79833126D01*
X343648438Y-80726099D01*
X344546789Y-81809502D01*
X345585002Y-83061157D01*
X346744682Y-84458884D01*
X348007436Y-85980507D01*
X349354870Y-87603848D01*
X350768591Y-89306727D01*
X350990637Y-89574161D01*
X352409267Y-91283415D01*
X353761451Y-92913908D01*
X355029138Y-94443793D01*
X356194276Y-95851226D01*
X357238814Y-97114360D01*
X358144700Y-98211349D01*
X358893883Y-99120346D01*
X359468310Y-99819507D01*
X359849931Y-100286985D01*
X360020694Y-100500934D01*
X360027416Y-100510456D01*
X359964449Y-100581034D01*
X359660363Y-100635196D01*
X359089268Y-100674258D01*
X358225277Y-100699539D01*
X357042501Y-100712356D01*
X356016065Y-100714619D01*
X351877857Y-100713523D01*
X344539568Y-91643190D01*
X343266099Y-90071205D01*
X342059362Y-88585585D01*
X340938732Y-87209925D01*
X339923586Y-85967819D01*
X339033298Y-84882863D01*
X338287244Y-83978651D01*
X337704799Y-83278777D01*
X337305338Y-82806836D01*
X337108238Y-82586423D01*
X337091230Y-82572857D01*
X336910246Y-82691834D01*
X336579160Y-82992818D01*
X336401305Y-83171137D01*
X335821429Y-83769417D01*
X335821429Y-100715714D01*
X329652857Y-100715714D01*
X329652857Y-59712857D01*
X335821429Y-59712857D01*
X335821429Y-67786428D01*
X335821429Y-67786428D01*
G37*
X335821429Y-67786428D02*
X335824383Y-69458072D01*
X335832837Y-71012105D01*
X335846177Y-72412210D01*
X335863790Y-73622067D01*
X335885064Y-74605357D01*
X335909383Y-75325760D01*
X335936136Y-75746957D01*
X335957500Y-75844645D01*
X336104557Y-75715144D01*
X336481854Y-75347063D01*
X337067423Y-74762698D01*
X337839299Y-73984348D01*
X338775516Y-73034310D01*
X339854106Y-71934882D01*
X341053104Y-70708361D01*
X342350542Y-69377045D01*
X343724456Y-67963231D01*
X343895000Y-67787461D01*
X351696429Y-59745632D01*
X355868619Y-59729244D01*
X360040809Y-59712857D01*
X350801567Y-68953431D01*
X349033816Y-70722420D01*
X347506687Y-72253443D01*
X346203440Y-73564331D01*
X345107337Y-74672913D01*
X344201638Y-75597019D01*
X343469605Y-76354478D01*
X342894499Y-76963120D01*
X342459580Y-77440775D01*
X342148110Y-77805271D01*
X341943350Y-78074440D01*
X341828561Y-78266109D01*
X341787003Y-78398109D01*
X341801938Y-78488270D01*
X341821520Y-78518564D01*
X341976489Y-78707180D01*
X342344894Y-79152760D01*
X342908341Y-79833126D01*
X343648438Y-80726099D01*
X344546789Y-81809502D01*
X345585002Y-83061157D01*
X346744682Y-84458884D01*
X348007436Y-85980507D01*
X349354870Y-87603848D01*
X350768591Y-89306727D01*
X350990637Y-89574161D01*
X352409267Y-91283415D01*
X353761451Y-92913908D01*
X355029138Y-94443793D01*
X356194276Y-95851226D01*
X357238814Y-97114360D01*
X358144700Y-98211349D01*
X358893883Y-99120346D01*
X359468310Y-99819507D01*
X359849931Y-100286985D01*
X360020694Y-100500934D01*
X360027416Y-100510456D01*
X359964449Y-100581034D01*
X359660363Y-100635196D01*
X359089268Y-100674258D01*
X358225277Y-100699539D01*
X357042501Y-100712356D01*
X356016065Y-100714619D01*
X351877857Y-100713523D01*
X344539568Y-91643190D01*
X343266099Y-90071205D01*
X342059362Y-88585585D01*
X340938732Y-87209925D01*
X339923586Y-85967819D01*
X339033298Y-84882863D01*
X338287244Y-83978651D01*
X337704799Y-83278777D01*
X337305338Y-82806836D01*
X337108238Y-82586423D01*
X337091230Y-82572857D01*
X336910246Y-82691834D01*
X336579160Y-82992818D01*
X336401305Y-83171137D01*
X335821429Y-83769417D01*
X335821429Y-100715714D01*
X329652857Y-100715714D01*
X329652857Y-59712857D01*
X335821429Y-59712857D01*
X335821429Y-67786428D01*
G36*
X280485714Y-100715714D02*
G01*
X274317143Y-100715714D01*
X274317143Y-59712857D01*
X280485714Y-59712857D01*
X280485714Y-100715714D01*
X280485714Y-100715714D01*
G37*
X280485714Y-100715714D02*
X274317143Y-100715714D01*
X274317143Y-59712857D01*
X280485714Y-59712857D01*
X280485714Y-100715714D01*
G36*
X246422500Y-59713368D02*
G01*
X248411420Y-59723496D01*
X250090534Y-59756475D01*
X251512432Y-59816871D01*
X252729703Y-59909249D01*
X253794938Y-60038172D01*
X254760726Y-60208207D01*
X255679657Y-60423917D01*
X256169408Y-60559405D01*
X258162546Y-61304894D01*
X259902015Y-62306749D01*
X261377926Y-63552572D01*
X262580389Y-65029960D01*
X263499516Y-66726512D01*
X264125416Y-68629828D01*
X264448200Y-70727505D01*
X264464266Y-70961156D01*
X264427829Y-73063491D01*
X264068165Y-75057798D01*
X263402034Y-76914212D01*
X262446193Y-78602868D01*
X261217404Y-80093898D01*
X259732426Y-81357438D01*
X258086709Y-82326127D01*
X257386551Y-82640047D01*
X256730292Y-82895484D01*
X256252174Y-83040505D01*
X256227066Y-83045515D01*
X255823507Y-83167169D01*
X255632377Y-83315195D01*
X255630000Y-83331142D01*
X255733811Y-83505574D01*
X256032762Y-83946838D01*
X256508126Y-84628631D01*
X257141178Y-85524653D01*
X257913193Y-86608600D01*
X258805445Y-87854172D01*
X259799208Y-89235066D01*
X260875758Y-90724980D01*
X261880244Y-92110237D01*
X268130489Y-100715714D01*
X264284173Y-100706417D01*
X260437857Y-100697119D01*
X254645321Y-92360702D01*
X253403640Y-90574461D01*
X252351038Y-89063419D01*
X251469863Y-87804566D01*
X250742464Y-86774894D01*
X250151190Y-85951394D01*
X249678388Y-85311057D01*
X249306408Y-84830874D01*
X249017598Y-84487836D01*
X248794306Y-84258933D01*
X248618880Y-84121158D01*
X248473670Y-84051501D01*
X248341024Y-84026953D01*
X248249964Y-84024286D01*
X247647143Y-84024286D01*
X247647143Y-100715714D01*
X241478572Y-100715714D01*
X241478572Y-71929047D01*
X247647143Y-71929047D01*
X247650867Y-73420646D01*
X247661457Y-74797056D01*
X247678038Y-76016229D01*
X247699738Y-77036115D01*
X247725683Y-77814667D01*
X247754998Y-78309835D01*
X247783214Y-78478125D01*
X248025184Y-78532914D01*
X248549783Y-78548276D01*
X249279533Y-78529359D01*
X250136954Y-78481313D01*
X251044568Y-78409288D01*
X251924896Y-78318432D01*
X252700458Y-78213895D01*
X253227692Y-78116276D01*
X254802941Y-77610647D01*
X256110792Y-76866237D01*
X257146184Y-75886686D01*
X257847093Y-74794521D01*
X258032644Y-74370784D01*
X258153658Y-73939714D01*
X258223241Y-73408615D01*
X258254495Y-72684793D01*
X258260714Y-71868571D01*
X258253839Y-70940644D01*
X258223020Y-70281379D01*
X258152966Y-69796686D01*
X258028387Y-69392475D01*
X257833993Y-68974654D01*
X257770705Y-68853276D01*
X257025203Y-67799015D01*
X256004784Y-66948558D01*
X254702313Y-66299032D01*
X253110659Y-65847565D01*
X251222686Y-65591283D01*
X249506786Y-65524901D01*
X247647143Y-65518571D01*
X247647143Y-71929047D01*
X241478572Y-71929047D01*
X241478572Y-59712857D01*
X246422500Y-59713368D01*
X246422500Y-59713368D01*
G37*
X246422500Y-59713368D02*
X248411420Y-59723496D01*
X250090534Y-59756475D01*
X251512432Y-59816871D01*
X252729703Y-59909249D01*
X253794938Y-60038172D01*
X254760726Y-60208207D01*
X255679657Y-60423917D01*
X256169408Y-60559405D01*
X258162546Y-61304894D01*
X259902015Y-62306749D01*
X261377926Y-63552572D01*
X262580389Y-65029960D01*
X263499516Y-66726512D01*
X264125416Y-68629828D01*
X264448200Y-70727505D01*
X264464266Y-70961156D01*
X264427829Y-73063491D01*
X264068165Y-75057798D01*
X263402034Y-76914212D01*
X262446193Y-78602868D01*
X261217404Y-80093898D01*
X259732426Y-81357438D01*
X258086709Y-82326127D01*
X257386551Y-82640047D01*
X256730292Y-82895484D01*
X256252174Y-83040505D01*
X256227066Y-83045515D01*
X255823507Y-83167169D01*
X255632377Y-83315195D01*
X255630000Y-83331142D01*
X255733811Y-83505574D01*
X256032762Y-83946838D01*
X256508126Y-84628631D01*
X257141178Y-85524653D01*
X257913193Y-86608600D01*
X258805445Y-87854172D01*
X259799208Y-89235066D01*
X260875758Y-90724980D01*
X261880244Y-92110237D01*
X268130489Y-100715714D01*
X264284173Y-100706417D01*
X260437857Y-100697119D01*
X254645321Y-92360702D01*
X253403640Y-90574461D01*
X252351038Y-89063419D01*
X251469863Y-87804566D01*
X250742464Y-86774894D01*
X250151190Y-85951394D01*
X249678388Y-85311057D01*
X249306408Y-84830874D01*
X249017598Y-84487836D01*
X248794306Y-84258933D01*
X248618880Y-84121158D01*
X248473670Y-84051501D01*
X248341024Y-84026953D01*
X248249964Y-84024286D01*
X247647143Y-84024286D01*
X247647143Y-100715714D01*
X241478572Y-100715714D01*
X241478572Y-71929047D01*
X247647143Y-71929047D01*
X247650867Y-73420646D01*
X247661457Y-74797056D01*
X247678038Y-76016229D01*
X247699738Y-77036115D01*
X247725683Y-77814667D01*
X247754998Y-78309835D01*
X247783214Y-78478125D01*
X248025184Y-78532914D01*
X248549783Y-78548276D01*
X249279533Y-78529359D01*
X250136954Y-78481313D01*
X251044568Y-78409288D01*
X251924896Y-78318432D01*
X252700458Y-78213895D01*
X253227692Y-78116276D01*
X254802941Y-77610647D01*
X256110792Y-76866237D01*
X257146184Y-75886686D01*
X257847093Y-74794521D01*
X258032644Y-74370784D01*
X258153658Y-73939714D01*
X258223241Y-73408615D01*
X258254495Y-72684793D01*
X258260714Y-71868571D01*
X258253839Y-70940644D01*
X258223020Y-70281379D01*
X258152966Y-69796686D01*
X258028387Y-69392475D01*
X257833993Y-68974654D01*
X257770705Y-68853276D01*
X257025203Y-67799015D01*
X256004784Y-66948558D01*
X254702313Y-66299032D01*
X253110659Y-65847565D01*
X251222686Y-65591283D01*
X249506786Y-65524901D01*
X247647143Y-65518571D01*
X247647143Y-71929047D01*
X241478572Y-71929047D01*
X241478572Y-59712857D01*
X246422500Y-59713368D01*
G36*
X233495714Y-65518571D02*
G01*
X216985714Y-65518571D01*
X216985714Y-75315714D01*
X232951429Y-75315714D01*
X232951429Y-81117614D01*
X225013929Y-81164878D01*
X217076429Y-81212143D01*
X217028890Y-88061071D01*
X216981351Y-94910000D01*
X233495714Y-94910000D01*
X233495714Y-100715714D01*
X210817143Y-100715714D01*
X210817143Y-59712857D01*
X233495714Y-59712857D01*
X233495714Y-65518571D01*
X233495714Y-65518571D01*
G37*
X233495714Y-65518571D02*
X216985714Y-65518571D01*
X216985714Y-75315714D01*
X232951429Y-75315714D01*
X232951429Y-81117614D01*
X225013929Y-81164878D01*
X217076429Y-81212143D01*
X217028890Y-88061071D01*
X216981351Y-94910000D01*
X233495714Y-94910000D01*
X233495714Y-100715714D01*
X210817143Y-100715714D01*
X210817143Y-59712857D01*
X233495714Y-59712857D01*
X233495714Y-65518571D01*
G36*
X177071429Y-75678571D02*
G01*
X194851429Y-75678571D01*
X194851429Y-59712857D01*
X201020000Y-59712857D01*
X201020000Y-100715714D01*
X194851429Y-100715714D01*
X194851429Y-81665714D01*
X177071429Y-81665714D01*
X177071429Y-100715714D01*
X170902857Y-100715714D01*
X170902857Y-59712857D01*
X177071429Y-59712857D01*
X177071429Y-75678571D01*
X177071429Y-75678571D01*
G37*
X177071429Y-75678571D02*
X194851429Y-75678571D01*
X194851429Y-59712857D01*
X201020000Y-59712857D01*
X201020000Y-100715714D01*
X194851429Y-100715714D01*
X194851429Y-81665714D01*
X177071429Y-81665714D01*
X177071429Y-100715714D01*
X170902857Y-100715714D01*
X170902857Y-59712857D01*
X177071429Y-59712857D01*
X177071429Y-75678571D01*
G36*
X165278572Y-65518571D02*
G01*
X156025714Y-65518571D01*
X156025714Y-100715714D01*
X149675714Y-100715714D01*
X149675714Y-65518571D01*
X140241429Y-65518571D01*
X140241429Y-59712857D01*
X165278572Y-59712857D01*
X165278572Y-65518571D01*
X165278572Y-65518571D01*
G37*
X165278572Y-65518571D02*
X156025714Y-65518571D01*
X156025714Y-100715714D01*
X149675714Y-100715714D01*
X149675714Y-65518571D01*
X140241429Y-65518571D01*
X140241429Y-59712857D01*
X165278572Y-59712857D01*
X165278572Y-65518571D01*
G36*
X313242095Y-59114986D02*
G01*
X315798146Y-59670919D01*
X316317857Y-59828559D01*
X316876927Y-60031896D01*
X317642120Y-60343197D01*
X318492931Y-60712384D01*
X318993929Y-60940637D01*
X320762857Y-61763317D01*
X320762857Y-69181908D01*
X319901072Y-68531043D01*
X317771907Y-67116255D01*
X315582874Y-66032660D01*
X313357020Y-65282484D01*
X311117395Y-64867953D01*
X308887048Y-64791292D01*
X306689029Y-65054727D01*
X304546387Y-65660482D01*
X302482172Y-66610784D01*
X302126880Y-66814949D01*
X300795120Y-67752582D01*
X299464707Y-68959887D01*
X298212844Y-70351695D01*
X297116738Y-71842841D01*
X296312218Y-73229286D01*
X295526289Y-75173891D01*
X295004895Y-77294256D01*
X294754187Y-79511379D01*
X294780317Y-81746261D01*
X295089435Y-83919900D01*
X295389253Y-85083607D01*
X296173011Y-87069148D01*
X297266788Y-88956141D01*
X298624306Y-90690948D01*
X300199284Y-92219932D01*
X301945441Y-93489454D01*
X303255000Y-94199797D01*
X304407526Y-94708710D01*
X305426615Y-95073244D01*
X306418750Y-95315393D01*
X307490416Y-95457148D01*
X308748094Y-95520504D01*
X309695714Y-95530065D01*
X311075621Y-95501868D01*
X312294037Y-95402424D01*
X313407531Y-95209453D01*
X314472670Y-94900677D01*
X315546022Y-94453817D01*
X316684153Y-93846594D01*
X317943632Y-93056729D01*
X319381026Y-92061943D01*
X320424250Y-91304656D01*
X320537479Y-91235330D01*
X320622181Y-91245341D01*
X320682489Y-91377472D01*
X320722537Y-91674505D01*
X320746460Y-92179221D01*
X320758392Y-92934403D01*
X320762465Y-93982833D01*
X320762857Y-94808925D01*
X320762857Y-98562109D01*
X319266072Y-99263291D01*
X316629545Y-100304294D01*
X313888863Y-101016038D01*
X311090333Y-101392061D01*
X308280262Y-101425899D01*
X305738626Y-101151609D01*
X303164965Y-100537764D01*
X300701177Y-99580603D01*
X298358218Y-98285923D01*
X296147046Y-96659523D01*
X294629170Y-95272857D01*
X292865845Y-93326523D01*
X291427019Y-91302462D01*
X290274532Y-89134971D01*
X289370226Y-86758350D01*
X289052152Y-85670527D01*
X288884268Y-85016090D01*
X288761464Y-84432591D01*
X288676576Y-83842316D01*
X288622441Y-83167552D01*
X288591895Y-82330583D01*
X288577774Y-81253697D01*
X288574280Y-80486428D01*
X288589993Y-78848251D01*
X288657840Y-77479903D01*
X288793188Y-76290225D01*
X289011400Y-75188057D01*
X289327841Y-74082239D01*
X289757878Y-72881613D01*
X289930189Y-72441902D01*
X290942083Y-70312171D01*
X292247155Y-68217255D01*
X293785564Y-66231207D01*
X295497466Y-64428079D01*
X297323018Y-62881926D01*
X298098214Y-62334312D01*
X300346376Y-61052193D01*
X302772308Y-60059024D01*
X305325429Y-59361762D01*
X307955155Y-58967364D01*
X310610904Y-58882787D01*
X313242095Y-59114986D01*
X313242095Y-59114986D01*
G37*
X313242095Y-59114986D02*
X315798146Y-59670919D01*
X316317857Y-59828559D01*
X316876927Y-60031896D01*
X317642120Y-60343197D01*
X318492931Y-60712384D01*
X318993929Y-60940637D01*
X320762857Y-61763317D01*
X320762857Y-69181908D01*
X319901072Y-68531043D01*
X317771907Y-67116255D01*
X315582874Y-66032660D01*
X313357020Y-65282484D01*
X311117395Y-64867953D01*
X308887048Y-64791292D01*
X306689029Y-65054727D01*
X304546387Y-65660482D01*
X302482172Y-66610784D01*
X302126880Y-66814949D01*
X300795120Y-67752582D01*
X299464707Y-68959887D01*
X298212844Y-70351695D01*
X297116738Y-71842841D01*
X296312218Y-73229286D01*
X295526289Y-75173891D01*
X295004895Y-77294256D01*
X294754187Y-79511379D01*
X294780317Y-81746261D01*
X295089435Y-83919900D01*
X295389253Y-85083607D01*
X296173011Y-87069148D01*
X297266788Y-88956141D01*
X298624306Y-90690948D01*
X300199284Y-92219932D01*
X301945441Y-93489454D01*
X303255000Y-94199797D01*
X304407526Y-94708710D01*
X305426615Y-95073244D01*
X306418750Y-95315393D01*
X307490416Y-95457148D01*
X308748094Y-95520504D01*
X309695714Y-95530065D01*
X311075621Y-95501868D01*
X312294037Y-95402424D01*
X313407531Y-95209453D01*
X314472670Y-94900677D01*
X315546022Y-94453817D01*
X316684153Y-93846594D01*
X317943632Y-93056729D01*
X319381026Y-92061943D01*
X320424250Y-91304656D01*
X320537479Y-91235330D01*
X320622181Y-91245341D01*
X320682489Y-91377472D01*
X320722537Y-91674505D01*
X320746460Y-92179221D01*
X320758392Y-92934403D01*
X320762465Y-93982833D01*
X320762857Y-94808925D01*
X320762857Y-98562109D01*
X319266072Y-99263291D01*
X316629545Y-100304294D01*
X313888863Y-101016038D01*
X311090333Y-101392061D01*
X308280262Y-101425899D01*
X305738626Y-101151609D01*
X303164965Y-100537764D01*
X300701177Y-99580603D01*
X298358218Y-98285923D01*
X296147046Y-96659523D01*
X294629170Y-95272857D01*
X292865845Y-93326523D01*
X291427019Y-91302462D01*
X290274532Y-89134971D01*
X289370226Y-86758350D01*
X289052152Y-85670527D01*
X288884268Y-85016090D01*
X288761464Y-84432591D01*
X288676576Y-83842316D01*
X288622441Y-83167552D01*
X288591895Y-82330583D01*
X288577774Y-81253697D01*
X288574280Y-80486428D01*
X288589993Y-78848251D01*
X288657840Y-77479903D01*
X288793188Y-76290225D01*
X289011400Y-75188057D01*
X289327841Y-74082239D01*
X289757878Y-72881613D01*
X289930189Y-72441902D01*
X290942083Y-70312171D01*
X292247155Y-68217255D01*
X293785564Y-66231207D01*
X295497466Y-64428079D01*
X297323018Y-62881926D01*
X298098214Y-62334312D01*
X300346376Y-61052193D01*
X302772308Y-60059024D01*
X305325429Y-59361762D01*
X307955155Y-58967364D01*
X310610904Y-58882787D01*
X313242095Y-59114986D01*
%LPC*%
D13*
X147305399Y-44927302D03*
D14*
X144805399Y-44927302D03*
X142305399Y-44927302D03*
D15*
X150405399Y-52427302D03*
X139205399Y-52427302D03*
D14*
X147305399Y-59427302D03*
X142305399Y-59427302D03*
D16*
G36*
X249801441Y-54440471D02*
G01*
X249845206Y-54446963D01*
X249888125Y-54457713D01*
X249929783Y-54472619D01*
X249969779Y-54491536D01*
X250007729Y-54514282D01*
X250043266Y-54540638D01*
X250076049Y-54570351D01*
X250105762Y-54603134D01*
X250132118Y-54638671D01*
X250154864Y-54676621D01*
X250173781Y-54716617D01*
X250188687Y-54758275D01*
X250199437Y-54801194D01*
X250205929Y-54844959D01*
X250208100Y-54889150D01*
X250208100Y-55790850D01*
X250205929Y-55835041D01*
X250199437Y-55878806D01*
X250188687Y-55921725D01*
X250173781Y-55963383D01*
X250154864Y-56003379D01*
X250132118Y-56041329D01*
X250105762Y-56076866D01*
X250076049Y-56109649D01*
X250043266Y-56139362D01*
X250007729Y-56165718D01*
X249969779Y-56188464D01*
X249929783Y-56207381D01*
X249888125Y-56222287D01*
X249845206Y-56233037D01*
X249801441Y-56239529D01*
X249757250Y-56241700D01*
X248855550Y-56241700D01*
X248811359Y-56239529D01*
X248767594Y-56233037D01*
X248724675Y-56222287D01*
X248683017Y-56207381D01*
X248643021Y-56188464D01*
X248605071Y-56165718D01*
X248569534Y-56139362D01*
X248536751Y-56109649D01*
X248507038Y-56076866D01*
X248480682Y-56041329D01*
X248457936Y-56003379D01*
X248439019Y-55963383D01*
X248424113Y-55921725D01*
X248413363Y-55878806D01*
X248406871Y-55835041D01*
X248404700Y-55790850D01*
X248404700Y-54889150D01*
X248406871Y-54844959D01*
X248413363Y-54801194D01*
X248424113Y-54758275D01*
X248439019Y-54716617D01*
X248457936Y-54676621D01*
X248480682Y-54638671D01*
X248507038Y-54603134D01*
X248536751Y-54570351D01*
X248569534Y-54540638D01*
X248605071Y-54514282D01*
X248643021Y-54491536D01*
X248683017Y-54472619D01*
X248724675Y-54457713D01*
X248767594Y-54446963D01*
X248811359Y-54440471D01*
X248855550Y-54438300D01*
X249757250Y-54438300D01*
X249801441Y-54440471D01*
X249801441Y-54440471D01*
G37*
D17*
X249306400Y-55340000D03*
X248900000Y-57880000D03*
X249306400Y-60420000D03*
X248900000Y-62960000D03*
X249306400Y-65500000D03*
X248900000Y-68040000D03*
D13*
X121845086Y-44927162D03*
D14*
X119345086Y-44927162D03*
X116845086Y-44927162D03*
D15*
X124945086Y-52427162D03*
X113745086Y-52427162D03*
D14*
X121845086Y-59427162D03*
X116845086Y-59427162D03*
D18*
X109819711Y-61939837D03*
X109819711Y-99939737D03*
D19*
X110199710Y-86885764D03*
X110199710Y-88282764D03*
X110199710Y-92473764D03*
X110199710Y-91076764D03*
X110199710Y-89679764D03*
X110199710Y-69405810D03*
X110199710Y-70802810D03*
X110199710Y-74993810D03*
X110199710Y-73596810D03*
X110199710Y-72199810D03*
D20*
X123129686Y-111979712D03*
X116779686Y-114519712D03*
D21*
X114239686Y-109439712D03*
X124399686Y-109439712D03*
D22*
X119319686Y-109439712D03*
D19*
X135659643Y-64733837D03*
X135659643Y-63336837D03*
X135659643Y-59145837D03*
X135659643Y-60542837D03*
X135659643Y-61939837D03*
X135659643Y-57748837D03*
X135659643Y-66130837D03*
X91199760Y-102733737D03*
X91199760Y-101336737D03*
X91199760Y-97145737D03*
X91199760Y-98542737D03*
X91199760Y-99939737D03*
X91199760Y-64733837D03*
X91199760Y-63336837D03*
X91199760Y-59018837D03*
X91199760Y-60542837D03*
X91199760Y-61939837D03*
X135659643Y-102733737D03*
X135659643Y-101336737D03*
X135659643Y-97145737D03*
X135659643Y-98542737D03*
X135659643Y-99939737D03*
D23*
X168979999Y-43448627D03*
D24*
X170389999Y-47097627D03*
X176169999Y-47097627D03*
D23*
X177579999Y-43448627D03*
D25*
X177579999Y-47648627D03*
X168979999Y-47648627D03*
D20*
X66129836Y-54979862D03*
X59779836Y-57519862D03*
D21*
X57239836Y-52439862D03*
X67399836Y-52439862D03*
D22*
X62319836Y-52439862D03*
D20*
X85129786Y-54979862D03*
X78779786Y-57519862D03*
D21*
X76239786Y-52439862D03*
X86399786Y-52439862D03*
D22*
X81319786Y-52439862D03*
D20*
X104129736Y-54979862D03*
X97779736Y-57519862D03*
D21*
X95239736Y-52439862D03*
X105399736Y-52439862D03*
D22*
X100319736Y-52439862D03*
D20*
X123129686Y-54979862D03*
X116779686Y-57519862D03*
D21*
X114239686Y-52439862D03*
X124399686Y-52439862D03*
D22*
X119319686Y-52439862D03*
D20*
X66129836Y-73979812D03*
X59779836Y-76519812D03*
D21*
X57239836Y-71439812D03*
X67399836Y-71439812D03*
D22*
X62319836Y-71439812D03*
D20*
X85129786Y-73979812D03*
X78779786Y-76519812D03*
D21*
X76239786Y-71439812D03*
X86399786Y-71439812D03*
D22*
X81319786Y-71439812D03*
D20*
X104129736Y-73979812D03*
X97779736Y-76519812D03*
D21*
X95239736Y-71439812D03*
X105399736Y-71439812D03*
D22*
X100319736Y-71439812D03*
D20*
X123129686Y-73979812D03*
X116779686Y-76519812D03*
D21*
X114239686Y-71439812D03*
X124399686Y-71439812D03*
D22*
X119319686Y-71439812D03*
D20*
X66129836Y-92979762D03*
X59779836Y-95519762D03*
D21*
X57239836Y-90439762D03*
X67399836Y-90439762D03*
D22*
X62319836Y-90439762D03*
D20*
X85104386Y-92992462D03*
X78754386Y-95532462D03*
D21*
X76214386Y-90452462D03*
X86374386Y-90452462D03*
D22*
X81294386Y-90452462D03*
D20*
X104129736Y-92979762D03*
X97779736Y-95519762D03*
D21*
X95239736Y-90439762D03*
X105399736Y-90439762D03*
D22*
X100319736Y-90439762D03*
D20*
X123129686Y-92979762D03*
X116779686Y-95519762D03*
D21*
X114239686Y-90439762D03*
X124399686Y-90439762D03*
D22*
X119319686Y-90439762D03*
D20*
X66129836Y-111979712D03*
X59779836Y-114519712D03*
D21*
X57239836Y-109439712D03*
X67399836Y-109439712D03*
D22*
X62319836Y-109439712D03*
D20*
X85129786Y-111979712D03*
X78779786Y-114519712D03*
D21*
X76239786Y-109439712D03*
X86399786Y-109439712D03*
D22*
X81319786Y-109439712D03*
D20*
X104129736Y-111979712D03*
X97779736Y-114519712D03*
D21*
X95239736Y-109439712D03*
X105399736Y-109439712D03*
D22*
X100319736Y-109439712D03*
D20*
X148589999Y-54980002D03*
X142239999Y-57520002D03*
D21*
X139699999Y-52440002D03*
X149859999Y-52440002D03*
D22*
X144779999Y-52440002D03*
D20*
X167589999Y-54980002D03*
X161239999Y-57520002D03*
D21*
X158699999Y-52440002D03*
X168859999Y-52440002D03*
D22*
X163779999Y-52440002D03*
D20*
X186589999Y-54980002D03*
X180239999Y-57520002D03*
D21*
X177699999Y-52440002D03*
X187859999Y-52440002D03*
D22*
X182779999Y-52440002D03*
X201779999Y-52440002D03*
D21*
X206859999Y-52440002D03*
X196699999Y-52440002D03*
D20*
X199239999Y-57520002D03*
X205589999Y-54980002D03*
X224589419Y-54979862D03*
X218239419Y-57519862D03*
D21*
X215699419Y-52439862D03*
X225859419Y-52439862D03*
D22*
X220779419Y-52439862D03*
D20*
X243589369Y-54979862D03*
X237239369Y-57519862D03*
D21*
X234699369Y-52439862D03*
X244859369Y-52439862D03*
D22*
X239779369Y-52439862D03*
D20*
X262589319Y-54980002D03*
X256239319Y-57520002D03*
D21*
X253699319Y-52440002D03*
X263859319Y-52440002D03*
D22*
X258779319Y-52440002D03*
D20*
X281589999Y-54980002D03*
X275239999Y-57520002D03*
D21*
X272699999Y-52440002D03*
X282859999Y-52440002D03*
D22*
X277779999Y-52440002D03*
D20*
X300589999Y-54980002D03*
X294239999Y-57520002D03*
D21*
X291699999Y-52440002D03*
X301859999Y-52440002D03*
D22*
X296779999Y-52440002D03*
D20*
X319589169Y-54979862D03*
X313239169Y-57519862D03*
D21*
X310699169Y-52439862D03*
X320859169Y-52439862D03*
D22*
X315779169Y-52439862D03*
D20*
X338589119Y-54979862D03*
X332239119Y-57519862D03*
D21*
X329699119Y-52439862D03*
X339859119Y-52439862D03*
D22*
X334779119Y-52439862D03*
D20*
X357589069Y-54979862D03*
X351239069Y-57519862D03*
D21*
X348699069Y-52439862D03*
X358859069Y-52439862D03*
D22*
X353779069Y-52439862D03*
D20*
X148589999Y-73980002D03*
X142239999Y-76520002D03*
D21*
X139699999Y-71440002D03*
X149859999Y-71440002D03*
D22*
X144779999Y-71440002D03*
D20*
X167589999Y-73980002D03*
X161239999Y-76520002D03*
D21*
X158699999Y-71440002D03*
X168859999Y-71440002D03*
D22*
X163779999Y-71440002D03*
D20*
X186589999Y-73980002D03*
X180239999Y-76520002D03*
D21*
X177699999Y-71440002D03*
X187859999Y-71440002D03*
D22*
X182779999Y-71440002D03*
D20*
X205589999Y-73980002D03*
X199239999Y-76520002D03*
D21*
X196699999Y-71440002D03*
X206859999Y-71440002D03*
D22*
X201779999Y-71440002D03*
D20*
X224589999Y-73980002D03*
X218239999Y-76520002D03*
D21*
X215699999Y-71440002D03*
X225859999Y-71440002D03*
D22*
X220779999Y-71440002D03*
D20*
X243589999Y-73980002D03*
X237239999Y-76520002D03*
D21*
X234699999Y-71440002D03*
X244859999Y-71440002D03*
D22*
X239779999Y-71440002D03*
D20*
X262589319Y-73980002D03*
X256239319Y-76520002D03*
D21*
X253699319Y-71440002D03*
X263859319Y-71440002D03*
D22*
X258779319Y-71440002D03*
D20*
X281564600Y-73992700D03*
X275214600Y-76532700D03*
D21*
X272674600Y-71452700D03*
X282834600Y-71452700D03*
D22*
X277754600Y-71452700D03*
D20*
X300589999Y-73980002D03*
X294239999Y-76520002D03*
D21*
X291699999Y-71440002D03*
X301859999Y-71440002D03*
D22*
X296779999Y-71440002D03*
D20*
X319589169Y-73979812D03*
X313239169Y-76519812D03*
D21*
X310699169Y-71439812D03*
X320859169Y-71439812D03*
D22*
X315779169Y-71439812D03*
D20*
X338589119Y-73979812D03*
X332239119Y-76519812D03*
D21*
X329699119Y-71439812D03*
X339859119Y-71439812D03*
D22*
X334779119Y-71439812D03*
D20*
X357589069Y-73979812D03*
X351239069Y-76519812D03*
D21*
X348699069Y-71439812D03*
X358859069Y-71439812D03*
D22*
X353779069Y-71439812D03*
D20*
X148589999Y-92980002D03*
X142239999Y-95520002D03*
D21*
X139699999Y-90440002D03*
X149859999Y-90440002D03*
D22*
X144779999Y-90440002D03*
D20*
X167589999Y-92980002D03*
X161239999Y-95520002D03*
D21*
X158699999Y-90440002D03*
X168859999Y-90440002D03*
D22*
X163779999Y-90440002D03*
D20*
X186589999Y-92980002D03*
X180239999Y-95520002D03*
D21*
X177699999Y-90440002D03*
X187859999Y-90440002D03*
D22*
X182779999Y-90440002D03*
D20*
X205589469Y-92979762D03*
X199239469Y-95519762D03*
D21*
X196699469Y-90439762D03*
X206859469Y-90439762D03*
D22*
X201779469Y-90439762D03*
D20*
X224589419Y-92979762D03*
X218239419Y-95519762D03*
D21*
X215699419Y-90439762D03*
X225859419Y-90439762D03*
D22*
X220779419Y-90439762D03*
D20*
X243589369Y-92979762D03*
X237239369Y-95519762D03*
D21*
X234699369Y-90439762D03*
X244859369Y-90439762D03*
D22*
X239779369Y-90439762D03*
D20*
X281589269Y-92980002D03*
X275239269Y-95520002D03*
D21*
X272699269Y-90440002D03*
X282859269Y-90440002D03*
D22*
X277779269Y-90440002D03*
D20*
X300589219Y-92979762D03*
X294239219Y-95519762D03*
D21*
X291699219Y-90439762D03*
X301859219Y-90439762D03*
D22*
X296779219Y-90439762D03*
D20*
X319589169Y-92979762D03*
X313239169Y-95519762D03*
D21*
X310699169Y-90439762D03*
X320859169Y-90439762D03*
D22*
X315779169Y-90439762D03*
D20*
X338589119Y-92979762D03*
X332239119Y-95519762D03*
D21*
X329699119Y-90439762D03*
X339859119Y-90439762D03*
D22*
X334779119Y-90439762D03*
D20*
X148589619Y-111980002D03*
X142239619Y-114520002D03*
D21*
X139699619Y-109440002D03*
X149859619Y-109440002D03*
D22*
X144779619Y-109440002D03*
D20*
X167589999Y-111980002D03*
X161239999Y-114520002D03*
D21*
X158699999Y-109440002D03*
X168859999Y-109440002D03*
D22*
X163779999Y-109440002D03*
D20*
X186589999Y-111980002D03*
X180239999Y-114520002D03*
D21*
X177699999Y-109440002D03*
X187859999Y-109440002D03*
D22*
X182779999Y-109440002D03*
D20*
X205589469Y-111979712D03*
X199239469Y-114519712D03*
D21*
X196699469Y-109439712D03*
X206859469Y-109439712D03*
D22*
X201779469Y-109439712D03*
D20*
X224589999Y-111980002D03*
X218239999Y-114520002D03*
D21*
X215699999Y-109440002D03*
X225859999Y-109440002D03*
D22*
X220779999Y-109440002D03*
D20*
X243589369Y-111979712D03*
X237239369Y-114519712D03*
D21*
X234699369Y-109439712D03*
X244859369Y-109439712D03*
D22*
X239779369Y-109439712D03*
D20*
X281589269Y-111979712D03*
X275239269Y-114519712D03*
D21*
X272699269Y-109439712D03*
X282859269Y-109439712D03*
D22*
X277779269Y-109439712D03*
D20*
X300589219Y-111979712D03*
X294239219Y-114519712D03*
D21*
X291699219Y-109439712D03*
X301859219Y-109439712D03*
D22*
X296779219Y-109439712D03*
D20*
X319589169Y-111979712D03*
X313239169Y-114519712D03*
D21*
X310699169Y-109439712D03*
X320859169Y-109439712D03*
D22*
X315779169Y-109439712D03*
D20*
X338589119Y-111979712D03*
X332239119Y-114519712D03*
D21*
X329699119Y-109439712D03*
X339859119Y-109439712D03*
D22*
X334779119Y-109439712D03*
D20*
X262589319Y-92979762D03*
X256239319Y-95519762D03*
D21*
X253699319Y-90439762D03*
X263859319Y-90439762D03*
D22*
X258779319Y-90439762D03*
D20*
X262589319Y-111979712D03*
X256239319Y-114519712D03*
D21*
X253699319Y-109439712D03*
X263859319Y-109439712D03*
D22*
X258779319Y-109439712D03*
D20*
X357589069Y-92979762D03*
X351239069Y-95519762D03*
D21*
X348699069Y-90439762D03*
X358859069Y-90439762D03*
D22*
X353779069Y-90439762D03*
D20*
X357589999Y-111980002D03*
X351239999Y-114520002D03*
D21*
X348699999Y-109440002D03*
X358859999Y-109440002D03*
D22*
X353779999Y-109440002D03*
D18*
X154279999Y-80940000D03*
X192280000Y-61940000D03*
X192280000Y-99940000D03*
X306280000Y-61940000D03*
X306280000Y-99940000D03*
X344280000Y-80940000D03*
X71819991Y-61940000D03*
X128819661Y-61939837D03*
X71819991Y-99940000D03*
X128819661Y-99939737D03*
X154280000Y-61940000D03*
X154280000Y-99940000D03*
X287280000Y-99940000D03*
X211280000Y-99940000D03*
X211280000Y-61940000D03*
X287280000Y-61940000D03*
X344280000Y-99940000D03*
X344280000Y-61940000D03*
M02*
