G04 #@! TF.GenerationSoftware,KiCad,Pcbnew,(5.1.2-1)-1*
G04 #@! TF.CreationDate,2020-02-22T14:07:28-06:00*
G04 #@! TF.ProjectId,therick64BASP_top_plate,74686572-6963-46b3-9634-424153505f74,rev?*
G04 #@! TF.SameCoordinates,Original*
G04 #@! TF.FileFunction,Legend,Bot*
G04 #@! TF.FilePolarity,Positive*
%FSLAX46Y46*%
G04 Gerber Fmt 4.6, Leading zero omitted, Abs format (unit mm)*
G04 Created by KiCad (PCBNEW (5.1.2-1)-1) date 2020-02-22 14:07:28*
%MOMM*%
%LPD*%
G04 APERTURE LIST*
%ADD10C,0.200000*%
%ADD11C,0.150000*%
G04 APERTURE END LIST*
D10*
X352957142Y-98858571D02*
X352385714Y-98858571D01*
X352742857Y-98358571D02*
X352742857Y-99644285D01*
X352671428Y-99787142D01*
X352528571Y-99858571D01*
X352385714Y-99858571D01*
X351885714Y-99858571D02*
X351885714Y-98358571D01*
X351242857Y-99858571D02*
X351242857Y-99072857D01*
X351314285Y-98930000D01*
X351457142Y-98858571D01*
X351671428Y-98858571D01*
X351814285Y-98930000D01*
X351885714Y-99001428D01*
X349957142Y-99787142D02*
X350100000Y-99858571D01*
X350385714Y-99858571D01*
X350528571Y-99787142D01*
X350600000Y-99644285D01*
X350600000Y-99072857D01*
X350528571Y-98930000D01*
X350385714Y-98858571D01*
X350100000Y-98858571D01*
X349957142Y-98930000D01*
X349885714Y-99072857D01*
X349885714Y-99215714D01*
X350600000Y-99358571D01*
X349242857Y-99858571D02*
X349242857Y-98858571D01*
X349242857Y-99144285D02*
X349171428Y-99001428D01*
X349100000Y-98930000D01*
X348957142Y-98858571D01*
X348814285Y-98858571D01*
X348314285Y-99858571D02*
X348314285Y-98858571D01*
X348314285Y-98358571D02*
X348385714Y-98430000D01*
X348314285Y-98501428D01*
X348242857Y-98430000D01*
X348314285Y-98358571D01*
X348314285Y-98501428D01*
X346957142Y-99787142D02*
X347100000Y-99858571D01*
X347385714Y-99858571D01*
X347528571Y-99787142D01*
X347600000Y-99715714D01*
X347671428Y-99572857D01*
X347671428Y-99144285D01*
X347600000Y-99001428D01*
X347528571Y-98930000D01*
X347385714Y-98858571D01*
X347100000Y-98858571D01*
X346957142Y-98930000D01*
X346314285Y-99858571D02*
X346314285Y-98358571D01*
X346171428Y-99287142D02*
X345742857Y-99858571D01*
X345742857Y-98858571D02*
X346314285Y-99430000D01*
X344457142Y-98358571D02*
X344742857Y-98358571D01*
X344885714Y-98430000D01*
X344957142Y-98501428D01*
X345100000Y-98715714D01*
X345171428Y-99001428D01*
X345171428Y-99572857D01*
X345100000Y-99715714D01*
X345028571Y-99787142D01*
X344885714Y-99858571D01*
X344600000Y-99858571D01*
X344457142Y-99787142D01*
X344385714Y-99715714D01*
X344314285Y-99572857D01*
X344314285Y-99215714D01*
X344385714Y-99072857D01*
X344457142Y-99001428D01*
X344600000Y-98930000D01*
X344885714Y-98930000D01*
X345028571Y-99001428D01*
X345100000Y-99072857D01*
X345171428Y-99215714D01*
X343028571Y-98858571D02*
X343028571Y-99858571D01*
X343385714Y-98287142D02*
X343742857Y-99358571D01*
X342814285Y-99358571D01*
X341742857Y-99072857D02*
X341528571Y-99144285D01*
X341457142Y-99215714D01*
X341385714Y-99358571D01*
X341385714Y-99572857D01*
X341457142Y-99715714D01*
X341528571Y-99787142D01*
X341671428Y-99858571D01*
X342242857Y-99858571D01*
X342242857Y-98358571D01*
X341742857Y-98358571D01*
X341600000Y-98430000D01*
X341528571Y-98501428D01*
X341457142Y-98644285D01*
X341457142Y-98787142D01*
X341528571Y-98930000D01*
X341600000Y-99001428D01*
X341742857Y-99072857D01*
X342242857Y-99072857D01*
X340814285Y-99430000D02*
X340100000Y-99430000D01*
X340957142Y-99858571D02*
X340457142Y-98358571D01*
X339957142Y-99858571D01*
X339528571Y-99787142D02*
X339314285Y-99858571D01*
X338957142Y-99858571D01*
X338814285Y-99787142D01*
X338742857Y-99715714D01*
X338671428Y-99572857D01*
X338671428Y-99430000D01*
X338742857Y-99287142D01*
X338814285Y-99215714D01*
X338957142Y-99144285D01*
X339242857Y-99072857D01*
X339385714Y-99001428D01*
X339457142Y-98930000D01*
X339528571Y-98787142D01*
X339528571Y-98644285D01*
X339457142Y-98501428D01*
X339385714Y-98430000D01*
X339242857Y-98358571D01*
X338885714Y-98358571D01*
X338671428Y-98430000D01*
X338028571Y-99858571D02*
X338028571Y-98358571D01*
X337457142Y-98358571D01*
X337314285Y-98430000D01*
X337242857Y-98501428D01*
X337171428Y-98644285D01*
X337171428Y-98858571D01*
X337242857Y-99001428D01*
X337314285Y-99072857D01*
X337457142Y-99144285D01*
X338028571Y-99144285D01*
X334528571Y-99858571D02*
X335028571Y-99144285D01*
X335385714Y-99858571D02*
X335385714Y-98358571D01*
X334814285Y-98358571D01*
X334671428Y-98430000D01*
X334600000Y-98501428D01*
X334528571Y-98644285D01*
X334528571Y-98858571D01*
X334600000Y-99001428D01*
X334671428Y-99072857D01*
X334814285Y-99144285D01*
X335385714Y-99144285D01*
X333314285Y-99787142D02*
X333457142Y-99858571D01*
X333742857Y-99858571D01*
X333885714Y-99787142D01*
X333957142Y-99644285D01*
X333957142Y-99072857D01*
X333885714Y-98930000D01*
X333742857Y-98858571D01*
X333457142Y-98858571D01*
X333314285Y-98930000D01*
X333242857Y-99072857D01*
X333242857Y-99215714D01*
X333957142Y-99358571D01*
X332742857Y-98858571D02*
X332385714Y-99858571D01*
X332028571Y-98858571D01*
X329528571Y-99858571D02*
X330385714Y-99858571D01*
X329957142Y-99858571D02*
X329957142Y-98358571D01*
X330100000Y-98572857D01*
X330242857Y-98715714D01*
X330385714Y-98787142D01*
X328885714Y-99715714D02*
X328814285Y-99787142D01*
X328885714Y-99858571D01*
X328957142Y-99787142D01*
X328885714Y-99715714D01*
X328885714Y-99858571D01*
X327885714Y-98358571D02*
X327742857Y-98358571D01*
X327600000Y-98430000D01*
X327528571Y-98501428D01*
X327457142Y-98644285D01*
X327385714Y-98930000D01*
X327385714Y-99287142D01*
X327457142Y-99572857D01*
X327528571Y-99715714D01*
X327600000Y-99787142D01*
X327742857Y-99858571D01*
X327885714Y-99858571D01*
X328028571Y-99787142D01*
X328100000Y-99715714D01*
X328171428Y-99572857D01*
X328242857Y-99287142D01*
X328242857Y-98930000D01*
X328171428Y-98644285D01*
X328100000Y-98501428D01*
X328028571Y-98430000D01*
X327885714Y-98358571D01*
D11*
X154719047Y-98632380D02*
X154719047Y-99346666D01*
X154766666Y-99489523D01*
X154861904Y-99584761D01*
X155004761Y-99632380D01*
X155100000Y-99632380D01*
X153766666Y-99632380D02*
X154242857Y-99632380D01*
X154242857Y-98632380D01*
X152861904Y-99537142D02*
X152909523Y-99584761D01*
X153052380Y-99632380D01*
X153147619Y-99632380D01*
X153290476Y-99584761D01*
X153385714Y-99489523D01*
X153433333Y-99394285D01*
X153480952Y-99203809D01*
X153480952Y-99060952D01*
X153433333Y-98870476D01*
X153385714Y-98775238D01*
X153290476Y-98680000D01*
X153147619Y-98632380D01*
X153052380Y-98632380D01*
X152909523Y-98680000D01*
X152861904Y-98727619D01*
X152147619Y-98632380D02*
X152147619Y-99346666D01*
X152195238Y-99489523D01*
X152290476Y-99584761D01*
X152433333Y-99632380D01*
X152528571Y-99632380D01*
X151195238Y-99632380D02*
X151671428Y-99632380D01*
X151671428Y-98632380D01*
X150290476Y-99537142D02*
X150338095Y-99584761D01*
X150480952Y-99632380D01*
X150576190Y-99632380D01*
X150719047Y-99584761D01*
X150814285Y-99489523D01*
X150861904Y-99394285D01*
X150909523Y-99203809D01*
X150909523Y-99060952D01*
X150861904Y-98870476D01*
X150814285Y-98775238D01*
X150719047Y-98680000D01*
X150576190Y-98632380D01*
X150480952Y-98632380D01*
X150338095Y-98680000D01*
X150290476Y-98727619D01*
X149576190Y-98632380D02*
X149576190Y-99346666D01*
X149623809Y-99489523D01*
X149719047Y-99584761D01*
X149861904Y-99632380D01*
X149957142Y-99632380D01*
X148623809Y-99632380D02*
X149100000Y-99632380D01*
X149100000Y-98632380D01*
X147719047Y-99537142D02*
X147766666Y-99584761D01*
X147909523Y-99632380D01*
X148004761Y-99632380D01*
X148147619Y-99584761D01*
X148242857Y-99489523D01*
X148290476Y-99394285D01*
X148338095Y-99203809D01*
X148338095Y-99060952D01*
X148290476Y-98870476D01*
X148242857Y-98775238D01*
X148147619Y-98680000D01*
X148004761Y-98632380D01*
X147909523Y-98632380D01*
X147766666Y-98680000D01*
X147719047Y-98727619D01*
X147004761Y-98632380D02*
X147004761Y-99346666D01*
X147052380Y-99489523D01*
X147147619Y-99584761D01*
X147290476Y-99632380D01*
X147385714Y-99632380D01*
X146052380Y-99632380D02*
X146528571Y-99632380D01*
X146528571Y-98632380D01*
X145147619Y-99537142D02*
X145195238Y-99584761D01*
X145338095Y-99632380D01*
X145433333Y-99632380D01*
X145576190Y-99584761D01*
X145671428Y-99489523D01*
X145719047Y-99394285D01*
X145766666Y-99203809D01*
X145766666Y-99060952D01*
X145719047Y-98870476D01*
X145671428Y-98775238D01*
X145576190Y-98680000D01*
X145433333Y-98632380D01*
X145338095Y-98632380D01*
X145195238Y-98680000D01*
X145147619Y-98727619D01*
M02*
