G04 #@! TF.GenerationSoftware,KiCad,Pcbnew,(5.1.2-1)-1*
G04 #@! TF.CreationDate,2020-05-23T12:01:39-05:00*
G04 #@! TF.ProjectId,therick48.16SP_top_plate,74686572-6963-46b3-9438-2e313653505f,rev?*
G04 #@! TF.SameCoordinates,Original*
G04 #@! TF.FileFunction,Profile,NP*
%FSLAX46Y46*%
G04 Gerber Fmt 4.6, Leading zero omitted, Abs format (unit mm)*
G04 Created by KiCad (PCBNEW (5.1.2-1)-1) date 2020-05-23 12:01:39*
%MOMM*%
%LPD*%
G04 APERTURE LIST*
%ADD10C,0.050000*%
%ADD11C,0.100000*%
G04 APERTURE END LIST*
D10*
X358720000Y-114380000D02*
X358720000Y-45980000D01*
X131480000Y-57000000D02*
G75*
G02X129200000Y-57000000I-1140000J0D01*
G01*
X129200000Y-65360000D02*
G75*
G02X131480000Y-65360000I1140000J0D01*
G01*
X131479657Y-75999800D02*
G75*
G02X129199657Y-75999800I-1140000J0D01*
G01*
X129199657Y-84359778D02*
G75*
G02X131479657Y-84359778I1140000J0D01*
G01*
X131480000Y-95000000D02*
G75*
G02X129200000Y-95000000I-1140000J0D01*
G01*
X129200000Y-103360000D02*
G75*
G02X131480000Y-103360000I1140000J0D01*
G01*
X131480000Y-65360000D02*
X131479657Y-75999800D01*
X131480000Y-103360000D02*
X131480000Y-114380000D01*
X129200000Y-103360000D02*
X129200000Y-114380000D01*
X131479657Y-84359778D02*
X131480000Y-95000000D01*
X129199657Y-84359778D02*
X129200000Y-95000000D01*
X129200000Y-65360000D02*
X129199657Y-75999800D01*
X129200000Y-45980000D02*
X129200000Y-57000000D01*
X131480000Y-45980000D02*
X131480000Y-57000000D01*
X125780000Y-42560000D02*
X49020000Y-42560000D01*
X45600000Y-114380000D02*
X45600000Y-45980000D01*
X49020000Y-117800000D02*
X125780000Y-117800000D01*
X49020000Y-117800000D02*
G75*
G02X45600000Y-114380000I0J3420000D01*
G01*
X45600000Y-45980000D02*
G75*
G02X49020000Y-42560000I3420000J0D01*
G01*
X125780000Y-42560000D02*
G75*
G02X129200000Y-45980000I0J-3420000D01*
G01*
X129200000Y-114380000D02*
G75*
G02X125780000Y-117800000I-3420000J0D01*
G01*
X355300000Y-117800000D02*
X134900000Y-117800000D01*
X134900000Y-42560000D02*
X355300000Y-42560000D01*
X134900000Y-117800000D02*
G75*
G02X131480000Y-114380000I0J3420000D01*
G01*
X131480000Y-45980000D02*
G75*
G02X134900000Y-42560000I3420000J0D01*
G01*
X355300000Y-42560000D02*
G75*
G02X358720000Y-45980000I0J-3420000D01*
G01*
X358720000Y-114380000D02*
G75*
G02X355300000Y-117800000I-3420000J0D01*
G01*
D11*
X119179704Y-115679714D02*
X105779704Y-115679714D01*
X105779704Y-115679714D02*
G75*
G02X105479704Y-115379714I0J300000D01*
G01*
X105479704Y-115379714D02*
X105479704Y-114979714D01*
X105479704Y-101979714D02*
G75*
G02X105779704Y-101679714I300000J0D01*
G01*
X119179704Y-101679714D02*
X105779704Y-101679714D01*
X105479704Y-106079714D02*
X105479704Y-111279714D01*
X105479704Y-102379714D02*
X105479704Y-101979714D01*
X119479704Y-114979714D02*
X119479704Y-115379714D01*
X119179704Y-101679714D02*
G75*
G02X119479704Y-101979714I0J-300000D01*
G01*
X120479704Y-105579714D02*
G75*
G02X120279704Y-105779714I-200000J0D01*
G01*
X119479704Y-106079714D02*
G75*
G02X119779704Y-105779714I300000J0D01*
G01*
X119779704Y-102679714D02*
X120179704Y-102679714D01*
X120479704Y-105579714D02*
X120479704Y-102979714D01*
X120279704Y-105779714D02*
X119779704Y-105779714D01*
X119479704Y-111279714D02*
X119479704Y-106079714D01*
X119479704Y-115379714D02*
G75*
G02X119179704Y-115679714I-300000J0D01*
G01*
X119779704Y-102679714D02*
G75*
G02X119479704Y-102379714I0J300000D01*
G01*
X120179704Y-102679714D02*
G75*
G02X120479704Y-102979714I0J-300000D01*
G01*
X119479704Y-101979714D02*
X119479704Y-102379714D01*
X119779704Y-111579714D02*
G75*
G02X119479704Y-111279714I0J300000D01*
G01*
X120179704Y-111579714D02*
G75*
G02X120479704Y-111879714I0J-300000D01*
G01*
X120279704Y-114679714D02*
X119779704Y-114679714D01*
X120479704Y-114479714D02*
X120479704Y-111879714D01*
X119779704Y-111579714D02*
X120179704Y-111579714D01*
X119479704Y-114979714D02*
G75*
G02X119779704Y-114679714I300000J0D01*
G01*
X120479704Y-114479714D02*
G75*
G02X120279704Y-114679714I-200000J0D01*
G01*
X104479704Y-111779714D02*
G75*
G02X104679704Y-111579714I200000J0D01*
G01*
X105479704Y-111279714D02*
G75*
G02X105179704Y-111579714I-300000J0D01*
G01*
X105179704Y-114679714D02*
X104779704Y-114679714D01*
X104479704Y-111779714D02*
X104479704Y-114379714D01*
X104679704Y-111579714D02*
X105179704Y-111579714D01*
X104779704Y-114679714D02*
G75*
G02X104479704Y-114379714I0J300000D01*
G01*
X105179704Y-114679714D02*
G75*
G02X105479704Y-114979714I0J-300000D01*
G01*
X104679704Y-102679714D02*
X105179704Y-102679714D01*
X105179704Y-105779714D02*
X104779704Y-105779714D01*
X104479704Y-102879714D02*
X104479704Y-105479714D01*
X105479704Y-102379714D02*
G75*
G02X105179704Y-102679714I-300000J0D01*
G01*
X105179704Y-105779714D02*
G75*
G02X105479704Y-106079714I0J-300000D01*
G01*
X104779704Y-105779714D02*
G75*
G02X104479704Y-105479714I0J300000D01*
G01*
X104479704Y-102879714D02*
G75*
G02X104679704Y-102679714I200000J0D01*
G01*
X100179754Y-115679714D02*
X86779754Y-115679714D01*
X86779754Y-115679714D02*
G75*
G02X86479754Y-115379714I0J300000D01*
G01*
X86479754Y-115379714D02*
X86479754Y-114979714D01*
X86479754Y-101979714D02*
G75*
G02X86779754Y-101679714I300000J0D01*
G01*
X100179754Y-101679714D02*
X86779754Y-101679714D01*
X86479754Y-106079714D02*
X86479754Y-111279714D01*
X86479754Y-102379714D02*
X86479754Y-101979714D01*
X100479754Y-114979714D02*
X100479754Y-115379714D01*
X100179754Y-101679714D02*
G75*
G02X100479754Y-101979714I0J-300000D01*
G01*
X101479754Y-105579714D02*
G75*
G02X101279754Y-105779714I-200000J0D01*
G01*
X100479754Y-106079714D02*
G75*
G02X100779754Y-105779714I300000J0D01*
G01*
X100779754Y-102679714D02*
X101179754Y-102679714D01*
X101479754Y-105579714D02*
X101479754Y-102979714D01*
X101279754Y-105779714D02*
X100779754Y-105779714D01*
X100479754Y-111279714D02*
X100479754Y-106079714D01*
X100479754Y-115379714D02*
G75*
G02X100179754Y-115679714I-300000J0D01*
G01*
X100779754Y-102679714D02*
G75*
G02X100479754Y-102379714I0J300000D01*
G01*
X101179754Y-102679714D02*
G75*
G02X101479754Y-102979714I0J-300000D01*
G01*
X100479754Y-101979714D02*
X100479754Y-102379714D01*
X100779754Y-111579714D02*
G75*
G02X100479754Y-111279714I0J300000D01*
G01*
X101179754Y-111579714D02*
G75*
G02X101479754Y-111879714I0J-300000D01*
G01*
X101279754Y-114679714D02*
X100779754Y-114679714D01*
X101479754Y-114479714D02*
X101479754Y-111879714D01*
X100779754Y-111579714D02*
X101179754Y-111579714D01*
X100479754Y-114979714D02*
G75*
G02X100779754Y-114679714I300000J0D01*
G01*
X101479754Y-114479714D02*
G75*
G02X101279754Y-114679714I-200000J0D01*
G01*
X85479754Y-111779714D02*
G75*
G02X85679754Y-111579714I200000J0D01*
G01*
X86479754Y-111279714D02*
G75*
G02X86179754Y-111579714I-300000J0D01*
G01*
X86179754Y-114679714D02*
X85779754Y-114679714D01*
X85479754Y-111779714D02*
X85479754Y-114379714D01*
X85679754Y-111579714D02*
X86179754Y-111579714D01*
X85779754Y-114679714D02*
G75*
G02X85479754Y-114379714I0J300000D01*
G01*
X86179754Y-114679714D02*
G75*
G02X86479754Y-114979714I0J-300000D01*
G01*
X85679754Y-102679714D02*
X86179754Y-102679714D01*
X86179754Y-105779714D02*
X85779754Y-105779714D01*
X85479754Y-102879714D02*
X85479754Y-105479714D01*
X86479754Y-102379714D02*
G75*
G02X86179754Y-102679714I-300000J0D01*
G01*
X86179754Y-105779714D02*
G75*
G02X86479754Y-106079714I0J-300000D01*
G01*
X85779754Y-105779714D02*
G75*
G02X85479754Y-105479714I0J300000D01*
G01*
X85479754Y-102879714D02*
G75*
G02X85679754Y-102679714I200000J0D01*
G01*
X81179804Y-115679714D02*
X67779804Y-115679714D01*
X67779804Y-115679714D02*
G75*
G02X67479804Y-115379714I0J300000D01*
G01*
X67479804Y-115379714D02*
X67479804Y-114979714D01*
X67479804Y-101979714D02*
G75*
G02X67779804Y-101679714I300000J0D01*
G01*
X81179804Y-101679714D02*
X67779804Y-101679714D01*
X67479804Y-106079714D02*
X67479804Y-111279714D01*
X67479804Y-102379714D02*
X67479804Y-101979714D01*
X81479804Y-114979714D02*
X81479804Y-115379714D01*
X81179804Y-101679714D02*
G75*
G02X81479804Y-101979714I0J-300000D01*
G01*
X82479804Y-105579714D02*
G75*
G02X82279804Y-105779714I-200000J0D01*
G01*
X81479804Y-106079714D02*
G75*
G02X81779804Y-105779714I300000J0D01*
G01*
X81779804Y-102679714D02*
X82179804Y-102679714D01*
X82479804Y-105579714D02*
X82479804Y-102979714D01*
X82279804Y-105779714D02*
X81779804Y-105779714D01*
X81479804Y-111279714D02*
X81479804Y-106079714D01*
X81479804Y-115379714D02*
G75*
G02X81179804Y-115679714I-300000J0D01*
G01*
X81779804Y-102679714D02*
G75*
G02X81479804Y-102379714I0J300000D01*
G01*
X82179804Y-102679714D02*
G75*
G02X82479804Y-102979714I0J-300000D01*
G01*
X81479804Y-101979714D02*
X81479804Y-102379714D01*
X81779804Y-111579714D02*
G75*
G02X81479804Y-111279714I0J300000D01*
G01*
X82179804Y-111579714D02*
G75*
G02X82479804Y-111879714I0J-300000D01*
G01*
X82279804Y-114679714D02*
X81779804Y-114679714D01*
X82479804Y-114479714D02*
X82479804Y-111879714D01*
X81779804Y-111579714D02*
X82179804Y-111579714D01*
X81479804Y-114979714D02*
G75*
G02X81779804Y-114679714I300000J0D01*
G01*
X82479804Y-114479714D02*
G75*
G02X82279804Y-114679714I-200000J0D01*
G01*
X66479804Y-111779714D02*
G75*
G02X66679804Y-111579714I200000J0D01*
G01*
X67479804Y-111279714D02*
G75*
G02X67179804Y-111579714I-300000J0D01*
G01*
X67179804Y-114679714D02*
X66779804Y-114679714D01*
X66479804Y-111779714D02*
X66479804Y-114379714D01*
X66679804Y-111579714D02*
X67179804Y-111579714D01*
X66779804Y-114679714D02*
G75*
G02X66479804Y-114379714I0J300000D01*
G01*
X67179804Y-114679714D02*
G75*
G02X67479804Y-114979714I0J-300000D01*
G01*
X66679804Y-102679714D02*
X67179804Y-102679714D01*
X67179804Y-105779714D02*
X66779804Y-105779714D01*
X66479804Y-102879714D02*
X66479804Y-105479714D01*
X67479804Y-102379714D02*
G75*
G02X67179804Y-102679714I-300000J0D01*
G01*
X67179804Y-105779714D02*
G75*
G02X67479804Y-106079714I0J-300000D01*
G01*
X66779804Y-105779714D02*
G75*
G02X66479804Y-105479714I0J300000D01*
G01*
X66479804Y-102879714D02*
G75*
G02X66679804Y-102679714I200000J0D01*
G01*
X62179854Y-115679714D02*
X48779854Y-115679714D01*
X48779854Y-115679714D02*
G75*
G02X48479854Y-115379714I0J300000D01*
G01*
X48479854Y-115379714D02*
X48479854Y-114979714D01*
X48479854Y-101979714D02*
G75*
G02X48779854Y-101679714I300000J0D01*
G01*
X62179854Y-101679714D02*
X48779854Y-101679714D01*
X48479854Y-106079714D02*
X48479854Y-111279714D01*
X48479854Y-102379714D02*
X48479854Y-101979714D01*
X62479854Y-114979714D02*
X62479854Y-115379714D01*
X62179854Y-101679714D02*
G75*
G02X62479854Y-101979714I0J-300000D01*
G01*
X63479854Y-105579714D02*
G75*
G02X63279854Y-105779714I-200000J0D01*
G01*
X62479854Y-106079714D02*
G75*
G02X62779854Y-105779714I300000J0D01*
G01*
X62779854Y-102679714D02*
X63179854Y-102679714D01*
X63479854Y-105579714D02*
X63479854Y-102979714D01*
X63279854Y-105779714D02*
X62779854Y-105779714D01*
X62479854Y-111279714D02*
X62479854Y-106079714D01*
X62479854Y-115379714D02*
G75*
G02X62179854Y-115679714I-300000J0D01*
G01*
X62779854Y-102679714D02*
G75*
G02X62479854Y-102379714I0J300000D01*
G01*
X63179854Y-102679714D02*
G75*
G02X63479854Y-102979714I0J-300000D01*
G01*
X62479854Y-101979714D02*
X62479854Y-102379714D01*
X62779854Y-111579714D02*
G75*
G02X62479854Y-111279714I0J300000D01*
G01*
X63179854Y-111579714D02*
G75*
G02X63479854Y-111879714I0J-300000D01*
G01*
X63279854Y-114679714D02*
X62779854Y-114679714D01*
X63479854Y-114479714D02*
X63479854Y-111879714D01*
X62779854Y-111579714D02*
X63179854Y-111579714D01*
X62479854Y-114979714D02*
G75*
G02X62779854Y-114679714I300000J0D01*
G01*
X63479854Y-114479714D02*
G75*
G02X63279854Y-114679714I-200000J0D01*
G01*
X47479854Y-111779714D02*
G75*
G02X47679854Y-111579714I200000J0D01*
G01*
X48479854Y-111279714D02*
G75*
G02X48179854Y-111579714I-300000J0D01*
G01*
X48179854Y-114679714D02*
X47779854Y-114679714D01*
X47479854Y-111779714D02*
X47479854Y-114379714D01*
X47679854Y-111579714D02*
X48179854Y-111579714D01*
X47779854Y-114679714D02*
G75*
G02X47479854Y-114379714I0J300000D01*
G01*
X48179854Y-114679714D02*
G75*
G02X48479854Y-114979714I0J-300000D01*
G01*
X47679854Y-102679714D02*
X48179854Y-102679714D01*
X48179854Y-105779714D02*
X47779854Y-105779714D01*
X47479854Y-102879714D02*
X47479854Y-105479714D01*
X48479854Y-102379714D02*
G75*
G02X48179854Y-102679714I-300000J0D01*
G01*
X48179854Y-105779714D02*
G75*
G02X48479854Y-106079714I0J-300000D01*
G01*
X47779854Y-105779714D02*
G75*
G02X47479854Y-105479714I0J300000D01*
G01*
X47479854Y-102879714D02*
G75*
G02X47679854Y-102679714I200000J0D01*
G01*
X119179704Y-96679764D02*
X105779704Y-96679764D01*
X105779704Y-96679764D02*
G75*
G02X105479704Y-96379764I0J300000D01*
G01*
X105479704Y-96379764D02*
X105479704Y-95979764D01*
X105479704Y-82979764D02*
G75*
G02X105779704Y-82679764I300000J0D01*
G01*
X119179704Y-82679764D02*
X105779704Y-82679764D01*
X105479704Y-87079764D02*
X105479704Y-92279764D01*
X105479704Y-83379764D02*
X105479704Y-82979764D01*
X119479704Y-95979764D02*
X119479704Y-96379764D01*
X119179704Y-82679764D02*
G75*
G02X119479704Y-82979764I0J-300000D01*
G01*
X120479704Y-86579764D02*
G75*
G02X120279704Y-86779764I-200000J0D01*
G01*
X119479704Y-87079764D02*
G75*
G02X119779704Y-86779764I300000J0D01*
G01*
X119779704Y-83679764D02*
X120179704Y-83679764D01*
X120479704Y-86579764D02*
X120479704Y-83979764D01*
X120279704Y-86779764D02*
X119779704Y-86779764D01*
X119479704Y-92279764D02*
X119479704Y-87079764D01*
X119479704Y-96379764D02*
G75*
G02X119179704Y-96679764I-300000J0D01*
G01*
X119779704Y-83679764D02*
G75*
G02X119479704Y-83379764I0J300000D01*
G01*
X120179704Y-83679764D02*
G75*
G02X120479704Y-83979764I0J-300000D01*
G01*
X119479704Y-82979764D02*
X119479704Y-83379764D01*
X119779704Y-92579764D02*
G75*
G02X119479704Y-92279764I0J300000D01*
G01*
X120179704Y-92579764D02*
G75*
G02X120479704Y-92879764I0J-300000D01*
G01*
X120279704Y-95679764D02*
X119779704Y-95679764D01*
X120479704Y-95479764D02*
X120479704Y-92879764D01*
X119779704Y-92579764D02*
X120179704Y-92579764D01*
X119479704Y-95979764D02*
G75*
G02X119779704Y-95679764I300000J0D01*
G01*
X120479704Y-95479764D02*
G75*
G02X120279704Y-95679764I-200000J0D01*
G01*
X104479704Y-92779764D02*
G75*
G02X104679704Y-92579764I200000J0D01*
G01*
X105479704Y-92279764D02*
G75*
G02X105179704Y-92579764I-300000J0D01*
G01*
X105179704Y-95679764D02*
X104779704Y-95679764D01*
X104479704Y-92779764D02*
X104479704Y-95379764D01*
X104679704Y-92579764D02*
X105179704Y-92579764D01*
X104779704Y-95679764D02*
G75*
G02X104479704Y-95379764I0J300000D01*
G01*
X105179704Y-95679764D02*
G75*
G02X105479704Y-95979764I0J-300000D01*
G01*
X104679704Y-83679764D02*
X105179704Y-83679764D01*
X105179704Y-86779764D02*
X104779704Y-86779764D01*
X104479704Y-83879764D02*
X104479704Y-86479764D01*
X105479704Y-83379764D02*
G75*
G02X105179704Y-83679764I-300000J0D01*
G01*
X105179704Y-86779764D02*
G75*
G02X105479704Y-87079764I0J-300000D01*
G01*
X104779704Y-86779764D02*
G75*
G02X104479704Y-86479764I0J300000D01*
G01*
X104479704Y-83879764D02*
G75*
G02X104679704Y-83679764I200000J0D01*
G01*
X100179754Y-96679764D02*
X86779754Y-96679764D01*
X86779754Y-96679764D02*
G75*
G02X86479754Y-96379764I0J300000D01*
G01*
X86479754Y-96379764D02*
X86479754Y-95979764D01*
X86479754Y-82979764D02*
G75*
G02X86779754Y-82679764I300000J0D01*
G01*
X100179754Y-82679764D02*
X86779754Y-82679764D01*
X86479754Y-87079764D02*
X86479754Y-92279764D01*
X86479754Y-83379764D02*
X86479754Y-82979764D01*
X100479754Y-95979764D02*
X100479754Y-96379764D01*
X100179754Y-82679764D02*
G75*
G02X100479754Y-82979764I0J-300000D01*
G01*
X101479754Y-86579764D02*
G75*
G02X101279754Y-86779764I-200000J0D01*
G01*
X100479754Y-87079764D02*
G75*
G02X100779754Y-86779764I300000J0D01*
G01*
X100779754Y-83679764D02*
X101179754Y-83679764D01*
X101479754Y-86579764D02*
X101479754Y-83979764D01*
X101279754Y-86779764D02*
X100779754Y-86779764D01*
X100479754Y-92279764D02*
X100479754Y-87079764D01*
X100479754Y-96379764D02*
G75*
G02X100179754Y-96679764I-300000J0D01*
G01*
X100779754Y-83679764D02*
G75*
G02X100479754Y-83379764I0J300000D01*
G01*
X101179754Y-83679764D02*
G75*
G02X101479754Y-83979764I0J-300000D01*
G01*
X100479754Y-82979764D02*
X100479754Y-83379764D01*
X100779754Y-92579764D02*
G75*
G02X100479754Y-92279764I0J300000D01*
G01*
X101179754Y-92579764D02*
G75*
G02X101479754Y-92879764I0J-300000D01*
G01*
X101279754Y-95679764D02*
X100779754Y-95679764D01*
X101479754Y-95479764D02*
X101479754Y-92879764D01*
X100779754Y-92579764D02*
X101179754Y-92579764D01*
X100479754Y-95979764D02*
G75*
G02X100779754Y-95679764I300000J0D01*
G01*
X101479754Y-95479764D02*
G75*
G02X101279754Y-95679764I-200000J0D01*
G01*
X85479754Y-92779764D02*
G75*
G02X85679754Y-92579764I200000J0D01*
G01*
X86479754Y-92279764D02*
G75*
G02X86179754Y-92579764I-300000J0D01*
G01*
X86179754Y-95679764D02*
X85779754Y-95679764D01*
X85479754Y-92779764D02*
X85479754Y-95379764D01*
X85679754Y-92579764D02*
X86179754Y-92579764D01*
X85779754Y-95679764D02*
G75*
G02X85479754Y-95379764I0J300000D01*
G01*
X86179754Y-95679764D02*
G75*
G02X86479754Y-95979764I0J-300000D01*
G01*
X85679754Y-83679764D02*
X86179754Y-83679764D01*
X86179754Y-86779764D02*
X85779754Y-86779764D01*
X85479754Y-83879764D02*
X85479754Y-86479764D01*
X86479754Y-83379764D02*
G75*
G02X86179754Y-83679764I-300000J0D01*
G01*
X86179754Y-86779764D02*
G75*
G02X86479754Y-87079764I0J-300000D01*
G01*
X85779754Y-86779764D02*
G75*
G02X85479754Y-86479764I0J300000D01*
G01*
X85479754Y-83879764D02*
G75*
G02X85679754Y-83679764I200000J0D01*
G01*
X81179804Y-96679764D02*
X67779804Y-96679764D01*
X67779804Y-96679764D02*
G75*
G02X67479804Y-96379764I0J300000D01*
G01*
X67479804Y-96379764D02*
X67479804Y-95979764D01*
X67479804Y-82979764D02*
G75*
G02X67779804Y-82679764I300000J0D01*
G01*
X81179804Y-82679764D02*
X67779804Y-82679764D01*
X67479804Y-87079764D02*
X67479804Y-92279764D01*
X67479804Y-83379764D02*
X67479804Y-82979764D01*
X81479804Y-95979764D02*
X81479804Y-96379764D01*
X81179804Y-82679764D02*
G75*
G02X81479804Y-82979764I0J-300000D01*
G01*
X82479804Y-86579764D02*
G75*
G02X82279804Y-86779764I-200000J0D01*
G01*
X81479804Y-87079764D02*
G75*
G02X81779804Y-86779764I300000J0D01*
G01*
X81779804Y-83679764D02*
X82179804Y-83679764D01*
X82479804Y-86579764D02*
X82479804Y-83979764D01*
X82279804Y-86779764D02*
X81779804Y-86779764D01*
X81479804Y-92279764D02*
X81479804Y-87079764D01*
X81479804Y-96379764D02*
G75*
G02X81179804Y-96679764I-300000J0D01*
G01*
X81779804Y-83679764D02*
G75*
G02X81479804Y-83379764I0J300000D01*
G01*
X82179804Y-83679764D02*
G75*
G02X82479804Y-83979764I0J-300000D01*
G01*
X81479804Y-82979764D02*
X81479804Y-83379764D01*
X81779804Y-92579764D02*
G75*
G02X81479804Y-92279764I0J300000D01*
G01*
X82179804Y-92579764D02*
G75*
G02X82479804Y-92879764I0J-300000D01*
G01*
X82279804Y-95679764D02*
X81779804Y-95679764D01*
X82479804Y-95479764D02*
X82479804Y-92879764D01*
X81779804Y-92579764D02*
X82179804Y-92579764D01*
X81479804Y-95979764D02*
G75*
G02X81779804Y-95679764I300000J0D01*
G01*
X82479804Y-95479764D02*
G75*
G02X82279804Y-95679764I-200000J0D01*
G01*
X66479804Y-92779764D02*
G75*
G02X66679804Y-92579764I200000J0D01*
G01*
X67479804Y-92279764D02*
G75*
G02X67179804Y-92579764I-300000J0D01*
G01*
X67179804Y-95679764D02*
X66779804Y-95679764D01*
X66479804Y-92779764D02*
X66479804Y-95379764D01*
X66679804Y-92579764D02*
X67179804Y-92579764D01*
X66779804Y-95679764D02*
G75*
G02X66479804Y-95379764I0J300000D01*
G01*
X67179804Y-95679764D02*
G75*
G02X67479804Y-95979764I0J-300000D01*
G01*
X66679804Y-83679764D02*
X67179804Y-83679764D01*
X67179804Y-86779764D02*
X66779804Y-86779764D01*
X66479804Y-83879764D02*
X66479804Y-86479764D01*
X67479804Y-83379764D02*
G75*
G02X67179804Y-83679764I-300000J0D01*
G01*
X67179804Y-86779764D02*
G75*
G02X67479804Y-87079764I0J-300000D01*
G01*
X66779804Y-86779764D02*
G75*
G02X66479804Y-86479764I0J300000D01*
G01*
X66479804Y-83879764D02*
G75*
G02X66679804Y-83679764I200000J0D01*
G01*
X62179854Y-96679764D02*
X48779854Y-96679764D01*
X48779854Y-96679764D02*
G75*
G02X48479854Y-96379764I0J300000D01*
G01*
X48479854Y-96379764D02*
X48479854Y-95979764D01*
X48479854Y-82979764D02*
G75*
G02X48779854Y-82679764I300000J0D01*
G01*
X62179854Y-82679764D02*
X48779854Y-82679764D01*
X48479854Y-87079764D02*
X48479854Y-92279764D01*
X48479854Y-83379764D02*
X48479854Y-82979764D01*
X62479854Y-95979764D02*
X62479854Y-96379764D01*
X62179854Y-82679764D02*
G75*
G02X62479854Y-82979764I0J-300000D01*
G01*
X63479854Y-86579764D02*
G75*
G02X63279854Y-86779764I-200000J0D01*
G01*
X62479854Y-87079764D02*
G75*
G02X62779854Y-86779764I300000J0D01*
G01*
X62779854Y-83679764D02*
X63179854Y-83679764D01*
X63479854Y-86579764D02*
X63479854Y-83979764D01*
X63279854Y-86779764D02*
X62779854Y-86779764D01*
X62479854Y-92279764D02*
X62479854Y-87079764D01*
X62479854Y-96379764D02*
G75*
G02X62179854Y-96679764I-300000J0D01*
G01*
X62779854Y-83679764D02*
G75*
G02X62479854Y-83379764I0J300000D01*
G01*
X63179854Y-83679764D02*
G75*
G02X63479854Y-83979764I0J-300000D01*
G01*
X62479854Y-82979764D02*
X62479854Y-83379764D01*
X62779854Y-92579764D02*
G75*
G02X62479854Y-92279764I0J300000D01*
G01*
X63179854Y-92579764D02*
G75*
G02X63479854Y-92879764I0J-300000D01*
G01*
X63279854Y-95679764D02*
X62779854Y-95679764D01*
X63479854Y-95479764D02*
X63479854Y-92879764D01*
X62779854Y-92579764D02*
X63179854Y-92579764D01*
X62479854Y-95979764D02*
G75*
G02X62779854Y-95679764I300000J0D01*
G01*
X63479854Y-95479764D02*
G75*
G02X63279854Y-95679764I-200000J0D01*
G01*
X47479854Y-92779764D02*
G75*
G02X47679854Y-92579764I200000J0D01*
G01*
X48479854Y-92279764D02*
G75*
G02X48179854Y-92579764I-300000J0D01*
G01*
X48179854Y-95679764D02*
X47779854Y-95679764D01*
X47479854Y-92779764D02*
X47479854Y-95379764D01*
X47679854Y-92579764D02*
X48179854Y-92579764D01*
X47779854Y-95679764D02*
G75*
G02X47479854Y-95379764I0J300000D01*
G01*
X48179854Y-95679764D02*
G75*
G02X48479854Y-95979764I0J-300000D01*
G01*
X47679854Y-83679764D02*
X48179854Y-83679764D01*
X48179854Y-86779764D02*
X47779854Y-86779764D01*
X47479854Y-83879764D02*
X47479854Y-86479764D01*
X48479854Y-83379764D02*
G75*
G02X48179854Y-83679764I-300000J0D01*
G01*
X48179854Y-86779764D02*
G75*
G02X48479854Y-87079764I0J-300000D01*
G01*
X47779854Y-86779764D02*
G75*
G02X47479854Y-86479764I0J300000D01*
G01*
X47479854Y-83879764D02*
G75*
G02X47679854Y-83679764I200000J0D01*
G01*
X119179704Y-77679814D02*
X105779704Y-77679814D01*
X105779704Y-77679814D02*
G75*
G02X105479704Y-77379814I0J300000D01*
G01*
X105479704Y-77379814D02*
X105479704Y-76979814D01*
X105479704Y-63979814D02*
G75*
G02X105779704Y-63679814I300000J0D01*
G01*
X119179704Y-63679814D02*
X105779704Y-63679814D01*
X105479704Y-68079814D02*
X105479704Y-73279814D01*
X105479704Y-64379814D02*
X105479704Y-63979814D01*
X119479704Y-76979814D02*
X119479704Y-77379814D01*
X119179704Y-63679814D02*
G75*
G02X119479704Y-63979814I0J-300000D01*
G01*
X120479704Y-67579814D02*
G75*
G02X120279704Y-67779814I-200000J0D01*
G01*
X119479704Y-68079814D02*
G75*
G02X119779704Y-67779814I300000J0D01*
G01*
X119779704Y-64679814D02*
X120179704Y-64679814D01*
X120479704Y-67579814D02*
X120479704Y-64979814D01*
X120279704Y-67779814D02*
X119779704Y-67779814D01*
X119479704Y-73279814D02*
X119479704Y-68079814D01*
X119479704Y-77379814D02*
G75*
G02X119179704Y-77679814I-300000J0D01*
G01*
X119779704Y-64679814D02*
G75*
G02X119479704Y-64379814I0J300000D01*
G01*
X120179704Y-64679814D02*
G75*
G02X120479704Y-64979814I0J-300000D01*
G01*
X119479704Y-63979814D02*
X119479704Y-64379814D01*
X119779704Y-73579814D02*
G75*
G02X119479704Y-73279814I0J300000D01*
G01*
X120179704Y-73579814D02*
G75*
G02X120479704Y-73879814I0J-300000D01*
G01*
X120279704Y-76679814D02*
X119779704Y-76679814D01*
X120479704Y-76479814D02*
X120479704Y-73879814D01*
X119779704Y-73579814D02*
X120179704Y-73579814D01*
X119479704Y-76979814D02*
G75*
G02X119779704Y-76679814I300000J0D01*
G01*
X120479704Y-76479814D02*
G75*
G02X120279704Y-76679814I-200000J0D01*
G01*
X104479704Y-73779814D02*
G75*
G02X104679704Y-73579814I200000J0D01*
G01*
X105479704Y-73279814D02*
G75*
G02X105179704Y-73579814I-300000J0D01*
G01*
X105179704Y-76679814D02*
X104779704Y-76679814D01*
X104479704Y-73779814D02*
X104479704Y-76379814D01*
X104679704Y-73579814D02*
X105179704Y-73579814D01*
X104779704Y-76679814D02*
G75*
G02X104479704Y-76379814I0J300000D01*
G01*
X105179704Y-76679814D02*
G75*
G02X105479704Y-76979814I0J-300000D01*
G01*
X104679704Y-64679814D02*
X105179704Y-64679814D01*
X105179704Y-67779814D02*
X104779704Y-67779814D01*
X104479704Y-64879814D02*
X104479704Y-67479814D01*
X105479704Y-64379814D02*
G75*
G02X105179704Y-64679814I-300000J0D01*
G01*
X105179704Y-67779814D02*
G75*
G02X105479704Y-68079814I0J-300000D01*
G01*
X104779704Y-67779814D02*
G75*
G02X104479704Y-67479814I0J300000D01*
G01*
X104479704Y-64879814D02*
G75*
G02X104679704Y-64679814I200000J0D01*
G01*
X100179754Y-77679814D02*
X86779754Y-77679814D01*
X86779754Y-77679814D02*
G75*
G02X86479754Y-77379814I0J300000D01*
G01*
X86479754Y-77379814D02*
X86479754Y-76979814D01*
X86479754Y-63979814D02*
G75*
G02X86779754Y-63679814I300000J0D01*
G01*
X100179754Y-63679814D02*
X86779754Y-63679814D01*
X86479754Y-68079814D02*
X86479754Y-73279814D01*
X86479754Y-64379814D02*
X86479754Y-63979814D01*
X100479754Y-76979814D02*
X100479754Y-77379814D01*
X100179754Y-63679814D02*
G75*
G02X100479754Y-63979814I0J-300000D01*
G01*
X101479754Y-67579814D02*
G75*
G02X101279754Y-67779814I-200000J0D01*
G01*
X100479754Y-68079814D02*
G75*
G02X100779754Y-67779814I300000J0D01*
G01*
X100779754Y-64679814D02*
X101179754Y-64679814D01*
X101479754Y-67579814D02*
X101479754Y-64979814D01*
X101279754Y-67779814D02*
X100779754Y-67779814D01*
X100479754Y-73279814D02*
X100479754Y-68079814D01*
X100479754Y-77379814D02*
G75*
G02X100179754Y-77679814I-300000J0D01*
G01*
X100779754Y-64679814D02*
G75*
G02X100479754Y-64379814I0J300000D01*
G01*
X101179754Y-64679814D02*
G75*
G02X101479754Y-64979814I0J-300000D01*
G01*
X100479754Y-63979814D02*
X100479754Y-64379814D01*
X100779754Y-73579814D02*
G75*
G02X100479754Y-73279814I0J300000D01*
G01*
X101179754Y-73579814D02*
G75*
G02X101479754Y-73879814I0J-300000D01*
G01*
X101279754Y-76679814D02*
X100779754Y-76679814D01*
X101479754Y-76479814D02*
X101479754Y-73879814D01*
X100779754Y-73579814D02*
X101179754Y-73579814D01*
X100479754Y-76979814D02*
G75*
G02X100779754Y-76679814I300000J0D01*
G01*
X101479754Y-76479814D02*
G75*
G02X101279754Y-76679814I-200000J0D01*
G01*
X85479754Y-73779814D02*
G75*
G02X85679754Y-73579814I200000J0D01*
G01*
X86479754Y-73279814D02*
G75*
G02X86179754Y-73579814I-300000J0D01*
G01*
X86179754Y-76679814D02*
X85779754Y-76679814D01*
X85479754Y-73779814D02*
X85479754Y-76379814D01*
X85679754Y-73579814D02*
X86179754Y-73579814D01*
X85779754Y-76679814D02*
G75*
G02X85479754Y-76379814I0J300000D01*
G01*
X86179754Y-76679814D02*
G75*
G02X86479754Y-76979814I0J-300000D01*
G01*
X85679754Y-64679814D02*
X86179754Y-64679814D01*
X86179754Y-67779814D02*
X85779754Y-67779814D01*
X85479754Y-64879814D02*
X85479754Y-67479814D01*
X86479754Y-64379814D02*
G75*
G02X86179754Y-64679814I-300000J0D01*
G01*
X86179754Y-67779814D02*
G75*
G02X86479754Y-68079814I0J-300000D01*
G01*
X85779754Y-67779814D02*
G75*
G02X85479754Y-67479814I0J300000D01*
G01*
X85479754Y-64879814D02*
G75*
G02X85679754Y-64679814I200000J0D01*
G01*
X81179804Y-77679814D02*
X67779804Y-77679814D01*
X67779804Y-77679814D02*
G75*
G02X67479804Y-77379814I0J300000D01*
G01*
X67479804Y-77379814D02*
X67479804Y-76979814D01*
X67479804Y-63979814D02*
G75*
G02X67779804Y-63679814I300000J0D01*
G01*
X81179804Y-63679814D02*
X67779804Y-63679814D01*
X67479804Y-68079814D02*
X67479804Y-73279814D01*
X67479804Y-64379814D02*
X67479804Y-63979814D01*
X81479804Y-76979814D02*
X81479804Y-77379814D01*
X81179804Y-63679814D02*
G75*
G02X81479804Y-63979814I0J-300000D01*
G01*
X82479804Y-67579814D02*
G75*
G02X82279804Y-67779814I-200000J0D01*
G01*
X81479804Y-68079814D02*
G75*
G02X81779804Y-67779814I300000J0D01*
G01*
X81779804Y-64679814D02*
X82179804Y-64679814D01*
X82479804Y-67579814D02*
X82479804Y-64979814D01*
X82279804Y-67779814D02*
X81779804Y-67779814D01*
X81479804Y-73279814D02*
X81479804Y-68079814D01*
X81479804Y-77379814D02*
G75*
G02X81179804Y-77679814I-300000J0D01*
G01*
X81779804Y-64679814D02*
G75*
G02X81479804Y-64379814I0J300000D01*
G01*
X82179804Y-64679814D02*
G75*
G02X82479804Y-64979814I0J-300000D01*
G01*
X81479804Y-63979814D02*
X81479804Y-64379814D01*
X81779804Y-73579814D02*
G75*
G02X81479804Y-73279814I0J300000D01*
G01*
X82179804Y-73579814D02*
G75*
G02X82479804Y-73879814I0J-300000D01*
G01*
X82279804Y-76679814D02*
X81779804Y-76679814D01*
X82479804Y-76479814D02*
X82479804Y-73879814D01*
X81779804Y-73579814D02*
X82179804Y-73579814D01*
X81479804Y-76979814D02*
G75*
G02X81779804Y-76679814I300000J0D01*
G01*
X82479804Y-76479814D02*
G75*
G02X82279804Y-76679814I-200000J0D01*
G01*
X66479804Y-73779814D02*
G75*
G02X66679804Y-73579814I200000J0D01*
G01*
X67479804Y-73279814D02*
G75*
G02X67179804Y-73579814I-300000J0D01*
G01*
X67179804Y-76679814D02*
X66779804Y-76679814D01*
X66479804Y-73779814D02*
X66479804Y-76379814D01*
X66679804Y-73579814D02*
X67179804Y-73579814D01*
X66779804Y-76679814D02*
G75*
G02X66479804Y-76379814I0J300000D01*
G01*
X67179804Y-76679814D02*
G75*
G02X67479804Y-76979814I0J-300000D01*
G01*
X66679804Y-64679814D02*
X67179804Y-64679814D01*
X67179804Y-67779814D02*
X66779804Y-67779814D01*
X66479804Y-64879814D02*
X66479804Y-67479814D01*
X67479804Y-64379814D02*
G75*
G02X67179804Y-64679814I-300000J0D01*
G01*
X67179804Y-67779814D02*
G75*
G02X67479804Y-68079814I0J-300000D01*
G01*
X66779804Y-67779814D02*
G75*
G02X66479804Y-67479814I0J300000D01*
G01*
X66479804Y-64879814D02*
G75*
G02X66679804Y-64679814I200000J0D01*
G01*
X62179854Y-77679814D02*
X48779854Y-77679814D01*
X48779854Y-77679814D02*
G75*
G02X48479854Y-77379814I0J300000D01*
G01*
X48479854Y-77379814D02*
X48479854Y-76979814D01*
X48479854Y-63979814D02*
G75*
G02X48779854Y-63679814I300000J0D01*
G01*
X62179854Y-63679814D02*
X48779854Y-63679814D01*
X48479854Y-68079814D02*
X48479854Y-73279814D01*
X48479854Y-64379814D02*
X48479854Y-63979814D01*
X62479854Y-76979814D02*
X62479854Y-77379814D01*
X62179854Y-63679814D02*
G75*
G02X62479854Y-63979814I0J-300000D01*
G01*
X63479854Y-67579814D02*
G75*
G02X63279854Y-67779814I-200000J0D01*
G01*
X62479854Y-68079814D02*
G75*
G02X62779854Y-67779814I300000J0D01*
G01*
X62779854Y-64679814D02*
X63179854Y-64679814D01*
X63479854Y-67579814D02*
X63479854Y-64979814D01*
X63279854Y-67779814D02*
X62779854Y-67779814D01*
X62479854Y-73279814D02*
X62479854Y-68079814D01*
X62479854Y-77379814D02*
G75*
G02X62179854Y-77679814I-300000J0D01*
G01*
X62779854Y-64679814D02*
G75*
G02X62479854Y-64379814I0J300000D01*
G01*
X63179854Y-64679814D02*
G75*
G02X63479854Y-64979814I0J-300000D01*
G01*
X62479854Y-63979814D02*
X62479854Y-64379814D01*
X62779854Y-73579814D02*
G75*
G02X62479854Y-73279814I0J300000D01*
G01*
X63179854Y-73579814D02*
G75*
G02X63479854Y-73879814I0J-300000D01*
G01*
X63279854Y-76679814D02*
X62779854Y-76679814D01*
X63479854Y-76479814D02*
X63479854Y-73879814D01*
X62779854Y-73579814D02*
X63179854Y-73579814D01*
X62479854Y-76979814D02*
G75*
G02X62779854Y-76679814I300000J0D01*
G01*
X63479854Y-76479814D02*
G75*
G02X63279854Y-76679814I-200000J0D01*
G01*
X47479854Y-73779814D02*
G75*
G02X47679854Y-73579814I200000J0D01*
G01*
X48479854Y-73279814D02*
G75*
G02X48179854Y-73579814I-300000J0D01*
G01*
X48179854Y-76679814D02*
X47779854Y-76679814D01*
X47479854Y-73779814D02*
X47479854Y-76379814D01*
X47679854Y-73579814D02*
X48179854Y-73579814D01*
X47779854Y-76679814D02*
G75*
G02X47479854Y-76379814I0J300000D01*
G01*
X48179854Y-76679814D02*
G75*
G02X48479854Y-76979814I0J-300000D01*
G01*
X47679854Y-64679814D02*
X48179854Y-64679814D01*
X48179854Y-67779814D02*
X47779854Y-67779814D01*
X47479854Y-64879814D02*
X47479854Y-67479814D01*
X48479854Y-64379814D02*
G75*
G02X48179854Y-64679814I-300000J0D01*
G01*
X48179854Y-67779814D02*
G75*
G02X48479854Y-68079814I0J-300000D01*
G01*
X47779854Y-67779814D02*
G75*
G02X47479854Y-67479814I0J300000D01*
G01*
X47479854Y-64879814D02*
G75*
G02X47679854Y-64679814I200000J0D01*
G01*
X119179704Y-58679864D02*
X105779704Y-58679864D01*
X105779704Y-58679864D02*
G75*
G02X105479704Y-58379864I0J300000D01*
G01*
X105479704Y-58379864D02*
X105479704Y-57979864D01*
X105479704Y-44979864D02*
G75*
G02X105779704Y-44679864I300000J0D01*
G01*
X119179704Y-44679864D02*
X105779704Y-44679864D01*
X105479704Y-49079864D02*
X105479704Y-54279864D01*
X105479704Y-45379864D02*
X105479704Y-44979864D01*
X119479704Y-57979864D02*
X119479704Y-58379864D01*
X119179704Y-44679864D02*
G75*
G02X119479704Y-44979864I0J-300000D01*
G01*
X120479704Y-48579864D02*
G75*
G02X120279704Y-48779864I-200000J0D01*
G01*
X119479704Y-49079864D02*
G75*
G02X119779704Y-48779864I300000J0D01*
G01*
X119779704Y-45679864D02*
X120179704Y-45679864D01*
X120479704Y-48579864D02*
X120479704Y-45979864D01*
X120279704Y-48779864D02*
X119779704Y-48779864D01*
X119479704Y-54279864D02*
X119479704Y-49079864D01*
X119479704Y-58379864D02*
G75*
G02X119179704Y-58679864I-300000J0D01*
G01*
X119779704Y-45679864D02*
G75*
G02X119479704Y-45379864I0J300000D01*
G01*
X120179704Y-45679864D02*
G75*
G02X120479704Y-45979864I0J-300000D01*
G01*
X119479704Y-44979864D02*
X119479704Y-45379864D01*
X119779704Y-54579864D02*
G75*
G02X119479704Y-54279864I0J300000D01*
G01*
X120179704Y-54579864D02*
G75*
G02X120479704Y-54879864I0J-300000D01*
G01*
X120279704Y-57679864D02*
X119779704Y-57679864D01*
X120479704Y-57479864D02*
X120479704Y-54879864D01*
X119779704Y-54579864D02*
X120179704Y-54579864D01*
X119479704Y-57979864D02*
G75*
G02X119779704Y-57679864I300000J0D01*
G01*
X120479704Y-57479864D02*
G75*
G02X120279704Y-57679864I-200000J0D01*
G01*
X104479704Y-54779864D02*
G75*
G02X104679704Y-54579864I200000J0D01*
G01*
X105479704Y-54279864D02*
G75*
G02X105179704Y-54579864I-300000J0D01*
G01*
X105179704Y-57679864D02*
X104779704Y-57679864D01*
X104479704Y-54779864D02*
X104479704Y-57379864D01*
X104679704Y-54579864D02*
X105179704Y-54579864D01*
X104779704Y-57679864D02*
G75*
G02X104479704Y-57379864I0J300000D01*
G01*
X105179704Y-57679864D02*
G75*
G02X105479704Y-57979864I0J-300000D01*
G01*
X104679704Y-45679864D02*
X105179704Y-45679864D01*
X105179704Y-48779864D02*
X104779704Y-48779864D01*
X104479704Y-45879864D02*
X104479704Y-48479864D01*
X105479704Y-45379864D02*
G75*
G02X105179704Y-45679864I-300000J0D01*
G01*
X105179704Y-48779864D02*
G75*
G02X105479704Y-49079864I0J-300000D01*
G01*
X104779704Y-48779864D02*
G75*
G02X104479704Y-48479864I0J300000D01*
G01*
X104479704Y-45879864D02*
G75*
G02X104679704Y-45679864I200000J0D01*
G01*
X100179754Y-58679864D02*
X86779754Y-58679864D01*
X86779754Y-58679864D02*
G75*
G02X86479754Y-58379864I0J300000D01*
G01*
X86479754Y-58379864D02*
X86479754Y-57979864D01*
X86479754Y-44979864D02*
G75*
G02X86779754Y-44679864I300000J0D01*
G01*
X100179754Y-44679864D02*
X86779754Y-44679864D01*
X86479754Y-49079864D02*
X86479754Y-54279864D01*
X86479754Y-45379864D02*
X86479754Y-44979864D01*
X100479754Y-57979864D02*
X100479754Y-58379864D01*
X100179754Y-44679864D02*
G75*
G02X100479754Y-44979864I0J-300000D01*
G01*
X101479754Y-48579864D02*
G75*
G02X101279754Y-48779864I-200000J0D01*
G01*
X100479754Y-49079864D02*
G75*
G02X100779754Y-48779864I300000J0D01*
G01*
X100779754Y-45679864D02*
X101179754Y-45679864D01*
X101479754Y-48579864D02*
X101479754Y-45979864D01*
X101279754Y-48779864D02*
X100779754Y-48779864D01*
X100479754Y-54279864D02*
X100479754Y-49079864D01*
X100479754Y-58379864D02*
G75*
G02X100179754Y-58679864I-300000J0D01*
G01*
X100779754Y-45679864D02*
G75*
G02X100479754Y-45379864I0J300000D01*
G01*
X101179754Y-45679864D02*
G75*
G02X101479754Y-45979864I0J-300000D01*
G01*
X100479754Y-44979864D02*
X100479754Y-45379864D01*
X100779754Y-54579864D02*
G75*
G02X100479754Y-54279864I0J300000D01*
G01*
X101179754Y-54579864D02*
G75*
G02X101479754Y-54879864I0J-300000D01*
G01*
X101279754Y-57679864D02*
X100779754Y-57679864D01*
X101479754Y-57479864D02*
X101479754Y-54879864D01*
X100779754Y-54579864D02*
X101179754Y-54579864D01*
X100479754Y-57979864D02*
G75*
G02X100779754Y-57679864I300000J0D01*
G01*
X101479754Y-57479864D02*
G75*
G02X101279754Y-57679864I-200000J0D01*
G01*
X85479754Y-54779864D02*
G75*
G02X85679754Y-54579864I200000J0D01*
G01*
X86479754Y-54279864D02*
G75*
G02X86179754Y-54579864I-300000J0D01*
G01*
X86179754Y-57679864D02*
X85779754Y-57679864D01*
X85479754Y-54779864D02*
X85479754Y-57379864D01*
X85679754Y-54579864D02*
X86179754Y-54579864D01*
X85779754Y-57679864D02*
G75*
G02X85479754Y-57379864I0J300000D01*
G01*
X86179754Y-57679864D02*
G75*
G02X86479754Y-57979864I0J-300000D01*
G01*
X85679754Y-45679864D02*
X86179754Y-45679864D01*
X86179754Y-48779864D02*
X85779754Y-48779864D01*
X85479754Y-45879864D02*
X85479754Y-48479864D01*
X86479754Y-45379864D02*
G75*
G02X86179754Y-45679864I-300000J0D01*
G01*
X86179754Y-48779864D02*
G75*
G02X86479754Y-49079864I0J-300000D01*
G01*
X85779754Y-48779864D02*
G75*
G02X85479754Y-48479864I0J300000D01*
G01*
X85479754Y-45879864D02*
G75*
G02X85679754Y-45679864I200000J0D01*
G01*
X66479804Y-45879864D02*
G75*
G02X66679804Y-45679864I200000J0D01*
G01*
X66779804Y-48779864D02*
G75*
G02X66479804Y-48479864I0J300000D01*
G01*
X67179804Y-48779864D02*
G75*
G02X67479804Y-49079864I0J-300000D01*
G01*
X67479804Y-45379864D02*
G75*
G02X67179804Y-45679864I-300000J0D01*
G01*
X66479804Y-45879864D02*
X66479804Y-48479864D01*
X67179804Y-48779864D02*
X66779804Y-48779864D01*
X66679804Y-45679864D02*
X67179804Y-45679864D01*
X67179804Y-57679864D02*
G75*
G02X67479804Y-57979864I0J-300000D01*
G01*
X66779804Y-57679864D02*
G75*
G02X66479804Y-57379864I0J300000D01*
G01*
X66679804Y-54579864D02*
X67179804Y-54579864D01*
X66479804Y-54779864D02*
X66479804Y-57379864D01*
X67179804Y-57679864D02*
X66779804Y-57679864D01*
X67479804Y-54279864D02*
G75*
G02X67179804Y-54579864I-300000J0D01*
G01*
X66479804Y-54779864D02*
G75*
G02X66679804Y-54579864I200000J0D01*
G01*
X82479804Y-57479864D02*
G75*
G02X82279804Y-57679864I-200000J0D01*
G01*
X81479804Y-57979864D02*
G75*
G02X81779804Y-57679864I300000J0D01*
G01*
X81779804Y-54579864D02*
X82179804Y-54579864D01*
X82479804Y-57479864D02*
X82479804Y-54879864D01*
X82279804Y-57679864D02*
X81779804Y-57679864D01*
X82179804Y-54579864D02*
G75*
G02X82479804Y-54879864I0J-300000D01*
G01*
X81779804Y-54579864D02*
G75*
G02X81479804Y-54279864I0J300000D01*
G01*
X81479804Y-44979864D02*
X81479804Y-45379864D01*
X82179804Y-45679864D02*
G75*
G02X82479804Y-45979864I0J-300000D01*
G01*
X81779804Y-45679864D02*
G75*
G02X81479804Y-45379864I0J300000D01*
G01*
X81479804Y-58379864D02*
G75*
G02X81179804Y-58679864I-300000J0D01*
G01*
X81479804Y-54279864D02*
X81479804Y-49079864D01*
X82279804Y-48779864D02*
X81779804Y-48779864D01*
X82479804Y-48579864D02*
X82479804Y-45979864D01*
X81779804Y-45679864D02*
X82179804Y-45679864D01*
X81479804Y-49079864D02*
G75*
G02X81779804Y-48779864I300000J0D01*
G01*
X82479804Y-48579864D02*
G75*
G02X82279804Y-48779864I-200000J0D01*
G01*
X81179804Y-44679864D02*
G75*
G02X81479804Y-44979864I0J-300000D01*
G01*
X81479804Y-57979864D02*
X81479804Y-58379864D01*
X67479804Y-45379864D02*
X67479804Y-44979864D01*
X67479804Y-49079864D02*
X67479804Y-54279864D01*
X81179804Y-44679864D02*
X67779804Y-44679864D01*
X67479804Y-44979864D02*
G75*
G02X67779804Y-44679864I300000J0D01*
G01*
X67479804Y-58379864D02*
X67479804Y-57979864D01*
X67779804Y-58679864D02*
G75*
G02X67479804Y-58379864I0J300000D01*
G01*
X81179804Y-58679864D02*
X67779804Y-58679864D01*
X47479854Y-45879864D02*
G75*
G02X47679854Y-45679864I200000J0D01*
G01*
X47779854Y-48779864D02*
G75*
G02X47479854Y-48479864I0J300000D01*
G01*
X48179854Y-48779864D02*
G75*
G02X48479854Y-49079864I0J-300000D01*
G01*
X48479854Y-45379864D02*
G75*
G02X48179854Y-45679864I-300000J0D01*
G01*
X47479854Y-45879864D02*
X47479854Y-48479864D01*
X48179854Y-48779864D02*
X47779854Y-48779864D01*
X47679854Y-45679864D02*
X48179854Y-45679864D01*
X48179854Y-57679864D02*
G75*
G02X48479854Y-57979864I0J-300000D01*
G01*
X47779854Y-57679864D02*
G75*
G02X47479854Y-57379864I0J300000D01*
G01*
X47679854Y-54579864D02*
X48179854Y-54579864D01*
X47479854Y-54779864D02*
X47479854Y-57379864D01*
X48179854Y-57679864D02*
X47779854Y-57679864D01*
X48479854Y-54279864D02*
G75*
G02X48179854Y-54579864I-300000J0D01*
G01*
X47479854Y-54779864D02*
G75*
G02X47679854Y-54579864I200000J0D01*
G01*
X63479854Y-57479864D02*
G75*
G02X63279854Y-57679864I-200000J0D01*
G01*
X62479854Y-57979864D02*
G75*
G02X62779854Y-57679864I300000J0D01*
G01*
X62779854Y-54579864D02*
X63179854Y-54579864D01*
X63479854Y-57479864D02*
X63479854Y-54879864D01*
X63279854Y-57679864D02*
X62779854Y-57679864D01*
X63179854Y-54579864D02*
G75*
G02X63479854Y-54879864I0J-300000D01*
G01*
X62779854Y-54579864D02*
G75*
G02X62479854Y-54279864I0J300000D01*
G01*
X62479854Y-44979864D02*
X62479854Y-45379864D01*
X63179854Y-45679864D02*
G75*
G02X63479854Y-45979864I0J-300000D01*
G01*
X62779854Y-45679864D02*
G75*
G02X62479854Y-45379864I0J300000D01*
G01*
X62479854Y-58379864D02*
G75*
G02X62179854Y-58679864I-300000J0D01*
G01*
X62479854Y-54279864D02*
X62479854Y-49079864D01*
X63279854Y-48779864D02*
X62779854Y-48779864D01*
X63479854Y-48579864D02*
X63479854Y-45979864D01*
X62779854Y-45679864D02*
X63179854Y-45679864D01*
X62479854Y-49079864D02*
G75*
G02X62779854Y-48779864I300000J0D01*
G01*
X63479854Y-48579864D02*
G75*
G02X63279854Y-48779864I-200000J0D01*
G01*
X62179854Y-44679864D02*
G75*
G02X62479854Y-44979864I0J-300000D01*
G01*
X62479854Y-57979864D02*
X62479854Y-58379864D01*
X48479854Y-45379864D02*
X48479854Y-44979864D01*
X48479854Y-49079864D02*
X48479854Y-54279864D01*
X62179854Y-44679864D02*
X48779854Y-44679864D01*
X48479854Y-44979864D02*
G75*
G02X48779854Y-44679864I300000J0D01*
G01*
X48479854Y-58379864D02*
X48479854Y-57979864D01*
X48779854Y-58679864D02*
G75*
G02X48479854Y-58379864I0J300000D01*
G01*
X62179854Y-58679864D02*
X48779854Y-58679864D01*
X147299630Y-58679864D02*
X133899630Y-58679864D01*
X133899630Y-58679864D02*
G75*
G02X133599630Y-58379864I0J300000D01*
G01*
X133599630Y-58379864D02*
X133599630Y-57979864D01*
X133599630Y-44979864D02*
G75*
G02X133899630Y-44679864I300000J0D01*
G01*
X147299630Y-44679864D02*
X133899630Y-44679864D01*
X133599630Y-49079864D02*
X133599630Y-54279864D01*
X133599630Y-45379864D02*
X133599630Y-44979864D01*
X147599630Y-57979864D02*
X147599630Y-58379864D01*
X147299630Y-44679864D02*
G75*
G02X147599630Y-44979864I0J-300000D01*
G01*
X148599630Y-48579864D02*
G75*
G02X148399630Y-48779864I-200000J0D01*
G01*
X147599630Y-49079864D02*
G75*
G02X147899630Y-48779864I300000J0D01*
G01*
X147899630Y-45679864D02*
X148299630Y-45679864D01*
X148599630Y-48579864D02*
X148599630Y-45979864D01*
X148399630Y-48779864D02*
X147899630Y-48779864D01*
X147599630Y-54279864D02*
X147599630Y-49079864D01*
X147599630Y-58379864D02*
G75*
G02X147299630Y-58679864I-300000J0D01*
G01*
X147899630Y-45679864D02*
G75*
G02X147599630Y-45379864I0J300000D01*
G01*
X148299630Y-45679864D02*
G75*
G02X148599630Y-45979864I0J-300000D01*
G01*
X147599630Y-44979864D02*
X147599630Y-45379864D01*
X147899630Y-54579864D02*
G75*
G02X147599630Y-54279864I0J300000D01*
G01*
X148299630Y-54579864D02*
G75*
G02X148599630Y-54879864I0J-300000D01*
G01*
X148399630Y-57679864D02*
X147899630Y-57679864D01*
X148599630Y-57479864D02*
X148599630Y-54879864D01*
X147899630Y-54579864D02*
X148299630Y-54579864D01*
X147599630Y-57979864D02*
G75*
G02X147899630Y-57679864I300000J0D01*
G01*
X148599630Y-57479864D02*
G75*
G02X148399630Y-57679864I-200000J0D01*
G01*
X132599630Y-54779864D02*
G75*
G02X132799630Y-54579864I200000J0D01*
G01*
X133599630Y-54279864D02*
G75*
G02X133299630Y-54579864I-300000J0D01*
G01*
X133299630Y-57679864D02*
X132899630Y-57679864D01*
X132599630Y-54779864D02*
X132599630Y-57379864D01*
X132799630Y-54579864D02*
X133299630Y-54579864D01*
X132899630Y-57679864D02*
G75*
G02X132599630Y-57379864I0J300000D01*
G01*
X133299630Y-57679864D02*
G75*
G02X133599630Y-57979864I0J-300000D01*
G01*
X132799630Y-45679864D02*
X133299630Y-45679864D01*
X133299630Y-48779864D02*
X132899630Y-48779864D01*
X132599630Y-45879864D02*
X132599630Y-48479864D01*
X133599630Y-45379864D02*
G75*
G02X133299630Y-45679864I-300000J0D01*
G01*
X133299630Y-48779864D02*
G75*
G02X133599630Y-49079864I0J-300000D01*
G01*
X132899630Y-48779864D02*
G75*
G02X132599630Y-48479864I0J300000D01*
G01*
X132599630Y-45879864D02*
G75*
G02X132799630Y-45679864I200000J0D01*
G01*
X166299580Y-58679864D02*
X152899580Y-58679864D01*
X152899580Y-58679864D02*
G75*
G02X152599580Y-58379864I0J300000D01*
G01*
X152599580Y-58379864D02*
X152599580Y-57979864D01*
X152599580Y-44979864D02*
G75*
G02X152899580Y-44679864I300000J0D01*
G01*
X166299580Y-44679864D02*
X152899580Y-44679864D01*
X152599580Y-49079864D02*
X152599580Y-54279864D01*
X152599580Y-45379864D02*
X152599580Y-44979864D01*
X166599580Y-57979864D02*
X166599580Y-58379864D01*
X166299580Y-44679864D02*
G75*
G02X166599580Y-44979864I0J-300000D01*
G01*
X167599580Y-48579864D02*
G75*
G02X167399580Y-48779864I-200000J0D01*
G01*
X166599580Y-49079864D02*
G75*
G02X166899580Y-48779864I300000J0D01*
G01*
X166899580Y-45679864D02*
X167299580Y-45679864D01*
X167599580Y-48579864D02*
X167599580Y-45979864D01*
X167399580Y-48779864D02*
X166899580Y-48779864D01*
X166599580Y-54279864D02*
X166599580Y-49079864D01*
X166599580Y-58379864D02*
G75*
G02X166299580Y-58679864I-300000J0D01*
G01*
X166899580Y-45679864D02*
G75*
G02X166599580Y-45379864I0J300000D01*
G01*
X167299580Y-45679864D02*
G75*
G02X167599580Y-45979864I0J-300000D01*
G01*
X166599580Y-44979864D02*
X166599580Y-45379864D01*
X166899580Y-54579864D02*
G75*
G02X166599580Y-54279864I0J300000D01*
G01*
X167299580Y-54579864D02*
G75*
G02X167599580Y-54879864I0J-300000D01*
G01*
X167399580Y-57679864D02*
X166899580Y-57679864D01*
X167599580Y-57479864D02*
X167599580Y-54879864D01*
X166899580Y-54579864D02*
X167299580Y-54579864D01*
X166599580Y-57979864D02*
G75*
G02X166899580Y-57679864I300000J0D01*
G01*
X167599580Y-57479864D02*
G75*
G02X167399580Y-57679864I-200000J0D01*
G01*
X151599580Y-54779864D02*
G75*
G02X151799580Y-54579864I200000J0D01*
G01*
X152599580Y-54279864D02*
G75*
G02X152299580Y-54579864I-300000J0D01*
G01*
X152299580Y-57679864D02*
X151899580Y-57679864D01*
X151599580Y-54779864D02*
X151599580Y-57379864D01*
X151799580Y-54579864D02*
X152299580Y-54579864D01*
X151899580Y-57679864D02*
G75*
G02X151599580Y-57379864I0J300000D01*
G01*
X152299580Y-57679864D02*
G75*
G02X152599580Y-57979864I0J-300000D01*
G01*
X151799580Y-45679864D02*
X152299580Y-45679864D01*
X152299580Y-48779864D02*
X151899580Y-48779864D01*
X151599580Y-45879864D02*
X151599580Y-48479864D01*
X152599580Y-45379864D02*
G75*
G02X152299580Y-45679864I-300000J0D01*
G01*
X152299580Y-48779864D02*
G75*
G02X152599580Y-49079864I0J-300000D01*
G01*
X151899580Y-48779864D02*
G75*
G02X151599580Y-48479864I0J300000D01*
G01*
X151599580Y-45879864D02*
G75*
G02X151799580Y-45679864I200000J0D01*
G01*
X185299530Y-58679864D02*
X171899530Y-58679864D01*
X171899530Y-58679864D02*
G75*
G02X171599530Y-58379864I0J300000D01*
G01*
X171599530Y-58379864D02*
X171599530Y-57979864D01*
X171599530Y-44979864D02*
G75*
G02X171899530Y-44679864I300000J0D01*
G01*
X185299530Y-44679864D02*
X171899530Y-44679864D01*
X171599530Y-49079864D02*
X171599530Y-54279864D01*
X171599530Y-45379864D02*
X171599530Y-44979864D01*
X185599530Y-57979864D02*
X185599530Y-58379864D01*
X185299530Y-44679864D02*
G75*
G02X185599530Y-44979864I0J-300000D01*
G01*
X186599530Y-48579864D02*
G75*
G02X186399530Y-48779864I-200000J0D01*
G01*
X185599530Y-49079864D02*
G75*
G02X185899530Y-48779864I300000J0D01*
G01*
X185899530Y-45679864D02*
X186299530Y-45679864D01*
X186599530Y-48579864D02*
X186599530Y-45979864D01*
X186399530Y-48779864D02*
X185899530Y-48779864D01*
X185599530Y-54279864D02*
X185599530Y-49079864D01*
X185599530Y-58379864D02*
G75*
G02X185299530Y-58679864I-300000J0D01*
G01*
X185899530Y-45679864D02*
G75*
G02X185599530Y-45379864I0J300000D01*
G01*
X186299530Y-45679864D02*
G75*
G02X186599530Y-45979864I0J-300000D01*
G01*
X185599530Y-44979864D02*
X185599530Y-45379864D01*
X185899530Y-54579864D02*
G75*
G02X185599530Y-54279864I0J300000D01*
G01*
X186299530Y-54579864D02*
G75*
G02X186599530Y-54879864I0J-300000D01*
G01*
X186399530Y-57679864D02*
X185899530Y-57679864D01*
X186599530Y-57479864D02*
X186599530Y-54879864D01*
X185899530Y-54579864D02*
X186299530Y-54579864D01*
X185599530Y-57979864D02*
G75*
G02X185899530Y-57679864I300000J0D01*
G01*
X186599530Y-57479864D02*
G75*
G02X186399530Y-57679864I-200000J0D01*
G01*
X170599530Y-54779864D02*
G75*
G02X170799530Y-54579864I200000J0D01*
G01*
X171599530Y-54279864D02*
G75*
G02X171299530Y-54579864I-300000J0D01*
G01*
X171299530Y-57679864D02*
X170899530Y-57679864D01*
X170599530Y-54779864D02*
X170599530Y-57379864D01*
X170799530Y-54579864D02*
X171299530Y-54579864D01*
X170899530Y-57679864D02*
G75*
G02X170599530Y-57379864I0J300000D01*
G01*
X171299530Y-57679864D02*
G75*
G02X171599530Y-57979864I0J-300000D01*
G01*
X170799530Y-45679864D02*
X171299530Y-45679864D01*
X171299530Y-48779864D02*
X170899530Y-48779864D01*
X170599530Y-45879864D02*
X170599530Y-48479864D01*
X171599530Y-45379864D02*
G75*
G02X171299530Y-45679864I-300000J0D01*
G01*
X171299530Y-48779864D02*
G75*
G02X171599530Y-49079864I0J-300000D01*
G01*
X170899530Y-48779864D02*
G75*
G02X170599530Y-48479864I0J300000D01*
G01*
X170599530Y-45879864D02*
G75*
G02X170799530Y-45679864I200000J0D01*
G01*
X204299480Y-58679864D02*
X190899480Y-58679864D01*
X190899480Y-58679864D02*
G75*
G02X190599480Y-58379864I0J300000D01*
G01*
X190599480Y-58379864D02*
X190599480Y-57979864D01*
X190599480Y-44979864D02*
G75*
G02X190899480Y-44679864I300000J0D01*
G01*
X204299480Y-44679864D02*
X190899480Y-44679864D01*
X190599480Y-49079864D02*
X190599480Y-54279864D01*
X190599480Y-45379864D02*
X190599480Y-44979864D01*
X204599480Y-57979864D02*
X204599480Y-58379864D01*
X204299480Y-44679864D02*
G75*
G02X204599480Y-44979864I0J-300000D01*
G01*
X205599480Y-48579864D02*
G75*
G02X205399480Y-48779864I-200000J0D01*
G01*
X204599480Y-49079864D02*
G75*
G02X204899480Y-48779864I300000J0D01*
G01*
X204899480Y-45679864D02*
X205299480Y-45679864D01*
X205599480Y-48579864D02*
X205599480Y-45979864D01*
X205399480Y-48779864D02*
X204899480Y-48779864D01*
X204599480Y-54279864D02*
X204599480Y-49079864D01*
X204599480Y-58379864D02*
G75*
G02X204299480Y-58679864I-300000J0D01*
G01*
X204899480Y-45679864D02*
G75*
G02X204599480Y-45379864I0J300000D01*
G01*
X205299480Y-45679864D02*
G75*
G02X205599480Y-45979864I0J-300000D01*
G01*
X204599480Y-44979864D02*
X204599480Y-45379864D01*
X204899480Y-54579864D02*
G75*
G02X204599480Y-54279864I0J300000D01*
G01*
X205299480Y-54579864D02*
G75*
G02X205599480Y-54879864I0J-300000D01*
G01*
X205399480Y-57679864D02*
X204899480Y-57679864D01*
X205599480Y-57479864D02*
X205599480Y-54879864D01*
X204899480Y-54579864D02*
X205299480Y-54579864D01*
X204599480Y-57979864D02*
G75*
G02X204899480Y-57679864I300000J0D01*
G01*
X205599480Y-57479864D02*
G75*
G02X205399480Y-57679864I-200000J0D01*
G01*
X189599480Y-54779864D02*
G75*
G02X189799480Y-54579864I200000J0D01*
G01*
X190599480Y-54279864D02*
G75*
G02X190299480Y-54579864I-300000J0D01*
G01*
X190299480Y-57679864D02*
X189899480Y-57679864D01*
X189599480Y-54779864D02*
X189599480Y-57379864D01*
X189799480Y-54579864D02*
X190299480Y-54579864D01*
X189899480Y-57679864D02*
G75*
G02X189599480Y-57379864I0J300000D01*
G01*
X190299480Y-57679864D02*
G75*
G02X190599480Y-57979864I0J-300000D01*
G01*
X189799480Y-45679864D02*
X190299480Y-45679864D01*
X190299480Y-48779864D02*
X189899480Y-48779864D01*
X189599480Y-45879864D02*
X189599480Y-48479864D01*
X190599480Y-45379864D02*
G75*
G02X190299480Y-45679864I-300000J0D01*
G01*
X190299480Y-48779864D02*
G75*
G02X190599480Y-49079864I0J-300000D01*
G01*
X189899480Y-48779864D02*
G75*
G02X189599480Y-48479864I0J300000D01*
G01*
X189599480Y-45879864D02*
G75*
G02X189799480Y-45679864I200000J0D01*
G01*
X223299430Y-58679864D02*
X209899430Y-58679864D01*
X209899430Y-58679864D02*
G75*
G02X209599430Y-58379864I0J300000D01*
G01*
X209599430Y-58379864D02*
X209599430Y-57979864D01*
X209599430Y-44979864D02*
G75*
G02X209899430Y-44679864I300000J0D01*
G01*
X223299430Y-44679864D02*
X209899430Y-44679864D01*
X209599430Y-49079864D02*
X209599430Y-54279864D01*
X209599430Y-45379864D02*
X209599430Y-44979864D01*
X223599430Y-57979864D02*
X223599430Y-58379864D01*
X223299430Y-44679864D02*
G75*
G02X223599430Y-44979864I0J-300000D01*
G01*
X224599430Y-48579864D02*
G75*
G02X224399430Y-48779864I-200000J0D01*
G01*
X223599430Y-49079864D02*
G75*
G02X223899430Y-48779864I300000J0D01*
G01*
X223899430Y-45679864D02*
X224299430Y-45679864D01*
X224599430Y-48579864D02*
X224599430Y-45979864D01*
X224399430Y-48779864D02*
X223899430Y-48779864D01*
X223599430Y-54279864D02*
X223599430Y-49079864D01*
X223599430Y-58379864D02*
G75*
G02X223299430Y-58679864I-300000J0D01*
G01*
X223899430Y-45679864D02*
G75*
G02X223599430Y-45379864I0J300000D01*
G01*
X224299430Y-45679864D02*
G75*
G02X224599430Y-45979864I0J-300000D01*
G01*
X223599430Y-44979864D02*
X223599430Y-45379864D01*
X223899430Y-54579864D02*
G75*
G02X223599430Y-54279864I0J300000D01*
G01*
X224299430Y-54579864D02*
G75*
G02X224599430Y-54879864I0J-300000D01*
G01*
X224399430Y-57679864D02*
X223899430Y-57679864D01*
X224599430Y-57479864D02*
X224599430Y-54879864D01*
X223899430Y-54579864D02*
X224299430Y-54579864D01*
X223599430Y-57979864D02*
G75*
G02X223899430Y-57679864I300000J0D01*
G01*
X224599430Y-57479864D02*
G75*
G02X224399430Y-57679864I-200000J0D01*
G01*
X208599430Y-54779864D02*
G75*
G02X208799430Y-54579864I200000J0D01*
G01*
X209599430Y-54279864D02*
G75*
G02X209299430Y-54579864I-300000J0D01*
G01*
X209299430Y-57679864D02*
X208899430Y-57679864D01*
X208599430Y-54779864D02*
X208599430Y-57379864D01*
X208799430Y-54579864D02*
X209299430Y-54579864D01*
X208899430Y-57679864D02*
G75*
G02X208599430Y-57379864I0J300000D01*
G01*
X209299430Y-57679864D02*
G75*
G02X209599430Y-57979864I0J-300000D01*
G01*
X208799430Y-45679864D02*
X209299430Y-45679864D01*
X209299430Y-48779864D02*
X208899430Y-48779864D01*
X208599430Y-45879864D02*
X208599430Y-48479864D01*
X209599430Y-45379864D02*
G75*
G02X209299430Y-45679864I-300000J0D01*
G01*
X209299430Y-48779864D02*
G75*
G02X209599430Y-49079864I0J-300000D01*
G01*
X208899430Y-48779864D02*
G75*
G02X208599430Y-48479864I0J300000D01*
G01*
X208599430Y-45879864D02*
G75*
G02X208799430Y-45679864I200000J0D01*
G01*
X242299380Y-58679864D02*
X228899380Y-58679864D01*
X228899380Y-58679864D02*
G75*
G02X228599380Y-58379864I0J300000D01*
G01*
X228599380Y-58379864D02*
X228599380Y-57979864D01*
X228599380Y-44979864D02*
G75*
G02X228899380Y-44679864I300000J0D01*
G01*
X242299380Y-44679864D02*
X228899380Y-44679864D01*
X228599380Y-49079864D02*
X228599380Y-54279864D01*
X228599380Y-45379864D02*
X228599380Y-44979864D01*
X242599380Y-57979864D02*
X242599380Y-58379864D01*
X242299380Y-44679864D02*
G75*
G02X242599380Y-44979864I0J-300000D01*
G01*
X243599380Y-48579864D02*
G75*
G02X243399380Y-48779864I-200000J0D01*
G01*
X242599380Y-49079864D02*
G75*
G02X242899380Y-48779864I300000J0D01*
G01*
X242899380Y-45679864D02*
X243299380Y-45679864D01*
X243599380Y-48579864D02*
X243599380Y-45979864D01*
X243399380Y-48779864D02*
X242899380Y-48779864D01*
X242599380Y-54279864D02*
X242599380Y-49079864D01*
X242599380Y-58379864D02*
G75*
G02X242299380Y-58679864I-300000J0D01*
G01*
X242899380Y-45679864D02*
G75*
G02X242599380Y-45379864I0J300000D01*
G01*
X243299380Y-45679864D02*
G75*
G02X243599380Y-45979864I0J-300000D01*
G01*
X242599380Y-44979864D02*
X242599380Y-45379864D01*
X242899380Y-54579864D02*
G75*
G02X242599380Y-54279864I0J300000D01*
G01*
X243299380Y-54579864D02*
G75*
G02X243599380Y-54879864I0J-300000D01*
G01*
X243399380Y-57679864D02*
X242899380Y-57679864D01*
X243599380Y-57479864D02*
X243599380Y-54879864D01*
X242899380Y-54579864D02*
X243299380Y-54579864D01*
X242599380Y-57979864D02*
G75*
G02X242899380Y-57679864I300000J0D01*
G01*
X243599380Y-57479864D02*
G75*
G02X243399380Y-57679864I-200000J0D01*
G01*
X227599380Y-54779864D02*
G75*
G02X227799380Y-54579864I200000J0D01*
G01*
X228599380Y-54279864D02*
G75*
G02X228299380Y-54579864I-300000J0D01*
G01*
X228299380Y-57679864D02*
X227899380Y-57679864D01*
X227599380Y-54779864D02*
X227599380Y-57379864D01*
X227799380Y-54579864D02*
X228299380Y-54579864D01*
X227899380Y-57679864D02*
G75*
G02X227599380Y-57379864I0J300000D01*
G01*
X228299380Y-57679864D02*
G75*
G02X228599380Y-57979864I0J-300000D01*
G01*
X227799380Y-45679864D02*
X228299380Y-45679864D01*
X228299380Y-48779864D02*
X227899380Y-48779864D01*
X227599380Y-45879864D02*
X227599380Y-48479864D01*
X228599380Y-45379864D02*
G75*
G02X228299380Y-45679864I-300000J0D01*
G01*
X228299380Y-48779864D02*
G75*
G02X228599380Y-49079864I0J-300000D01*
G01*
X227899380Y-48779864D02*
G75*
G02X227599380Y-48479864I0J300000D01*
G01*
X227599380Y-45879864D02*
G75*
G02X227799380Y-45679864I200000J0D01*
G01*
X261299330Y-58679864D02*
X247899330Y-58679864D01*
X247899330Y-58679864D02*
G75*
G02X247599330Y-58379864I0J300000D01*
G01*
X247599330Y-58379864D02*
X247599330Y-57979864D01*
X247599330Y-44979864D02*
G75*
G02X247899330Y-44679864I300000J0D01*
G01*
X261299330Y-44679864D02*
X247899330Y-44679864D01*
X247599330Y-49079864D02*
X247599330Y-54279864D01*
X247599330Y-45379864D02*
X247599330Y-44979864D01*
X261599330Y-57979864D02*
X261599330Y-58379864D01*
X261299330Y-44679864D02*
G75*
G02X261599330Y-44979864I0J-300000D01*
G01*
X262599330Y-48579864D02*
G75*
G02X262399330Y-48779864I-200000J0D01*
G01*
X261599330Y-49079864D02*
G75*
G02X261899330Y-48779864I300000J0D01*
G01*
X261899330Y-45679864D02*
X262299330Y-45679864D01*
X262599330Y-48579864D02*
X262599330Y-45979864D01*
X262399330Y-48779864D02*
X261899330Y-48779864D01*
X261599330Y-54279864D02*
X261599330Y-49079864D01*
X261599330Y-58379864D02*
G75*
G02X261299330Y-58679864I-300000J0D01*
G01*
X261899330Y-45679864D02*
G75*
G02X261599330Y-45379864I0J300000D01*
G01*
X262299330Y-45679864D02*
G75*
G02X262599330Y-45979864I0J-300000D01*
G01*
X261599330Y-44979864D02*
X261599330Y-45379864D01*
X261899330Y-54579864D02*
G75*
G02X261599330Y-54279864I0J300000D01*
G01*
X262299330Y-54579864D02*
G75*
G02X262599330Y-54879864I0J-300000D01*
G01*
X262399330Y-57679864D02*
X261899330Y-57679864D01*
X262599330Y-57479864D02*
X262599330Y-54879864D01*
X261899330Y-54579864D02*
X262299330Y-54579864D01*
X261599330Y-57979864D02*
G75*
G02X261899330Y-57679864I300000J0D01*
G01*
X262599330Y-57479864D02*
G75*
G02X262399330Y-57679864I-200000J0D01*
G01*
X246599330Y-54779864D02*
G75*
G02X246799330Y-54579864I200000J0D01*
G01*
X247599330Y-54279864D02*
G75*
G02X247299330Y-54579864I-300000J0D01*
G01*
X247299330Y-57679864D02*
X246899330Y-57679864D01*
X246599330Y-54779864D02*
X246599330Y-57379864D01*
X246799330Y-54579864D02*
X247299330Y-54579864D01*
X246899330Y-57679864D02*
G75*
G02X246599330Y-57379864I0J300000D01*
G01*
X247299330Y-57679864D02*
G75*
G02X247599330Y-57979864I0J-300000D01*
G01*
X246799330Y-45679864D02*
X247299330Y-45679864D01*
X247299330Y-48779864D02*
X246899330Y-48779864D01*
X246599330Y-45879864D02*
X246599330Y-48479864D01*
X247599330Y-45379864D02*
G75*
G02X247299330Y-45679864I-300000J0D01*
G01*
X247299330Y-48779864D02*
G75*
G02X247599330Y-49079864I0J-300000D01*
G01*
X246899330Y-48779864D02*
G75*
G02X246599330Y-48479864I0J300000D01*
G01*
X246599330Y-45879864D02*
G75*
G02X246799330Y-45679864I200000J0D01*
G01*
X280299280Y-58679864D02*
X266899280Y-58679864D01*
X266899280Y-58679864D02*
G75*
G02X266599280Y-58379864I0J300000D01*
G01*
X266599280Y-58379864D02*
X266599280Y-57979864D01*
X266599280Y-44979864D02*
G75*
G02X266899280Y-44679864I300000J0D01*
G01*
X280299280Y-44679864D02*
X266899280Y-44679864D01*
X266599280Y-49079864D02*
X266599280Y-54279864D01*
X266599280Y-45379864D02*
X266599280Y-44979864D01*
X280599280Y-57979864D02*
X280599280Y-58379864D01*
X280299280Y-44679864D02*
G75*
G02X280599280Y-44979864I0J-300000D01*
G01*
X281599280Y-48579864D02*
G75*
G02X281399280Y-48779864I-200000J0D01*
G01*
X280599280Y-49079864D02*
G75*
G02X280899280Y-48779864I300000J0D01*
G01*
X280899280Y-45679864D02*
X281299280Y-45679864D01*
X281599280Y-48579864D02*
X281599280Y-45979864D01*
X281399280Y-48779864D02*
X280899280Y-48779864D01*
X280599280Y-54279864D02*
X280599280Y-49079864D01*
X280599280Y-58379864D02*
G75*
G02X280299280Y-58679864I-300000J0D01*
G01*
X280899280Y-45679864D02*
G75*
G02X280599280Y-45379864I0J300000D01*
G01*
X281299280Y-45679864D02*
G75*
G02X281599280Y-45979864I0J-300000D01*
G01*
X280599280Y-44979864D02*
X280599280Y-45379864D01*
X280899280Y-54579864D02*
G75*
G02X280599280Y-54279864I0J300000D01*
G01*
X281299280Y-54579864D02*
G75*
G02X281599280Y-54879864I0J-300000D01*
G01*
X281399280Y-57679864D02*
X280899280Y-57679864D01*
X281599280Y-57479864D02*
X281599280Y-54879864D01*
X280899280Y-54579864D02*
X281299280Y-54579864D01*
X280599280Y-57979864D02*
G75*
G02X280899280Y-57679864I300000J0D01*
G01*
X281599280Y-57479864D02*
G75*
G02X281399280Y-57679864I-200000J0D01*
G01*
X265599280Y-54779864D02*
G75*
G02X265799280Y-54579864I200000J0D01*
G01*
X266599280Y-54279864D02*
G75*
G02X266299280Y-54579864I-300000J0D01*
G01*
X266299280Y-57679864D02*
X265899280Y-57679864D01*
X265599280Y-54779864D02*
X265599280Y-57379864D01*
X265799280Y-54579864D02*
X266299280Y-54579864D01*
X265899280Y-57679864D02*
G75*
G02X265599280Y-57379864I0J300000D01*
G01*
X266299280Y-57679864D02*
G75*
G02X266599280Y-57979864I0J-300000D01*
G01*
X265799280Y-45679864D02*
X266299280Y-45679864D01*
X266299280Y-48779864D02*
X265899280Y-48779864D01*
X265599280Y-45879864D02*
X265599280Y-48479864D01*
X266599280Y-45379864D02*
G75*
G02X266299280Y-45679864I-300000J0D01*
G01*
X266299280Y-48779864D02*
G75*
G02X266599280Y-49079864I0J-300000D01*
G01*
X265899280Y-48779864D02*
G75*
G02X265599280Y-48479864I0J300000D01*
G01*
X265599280Y-45879864D02*
G75*
G02X265799280Y-45679864I200000J0D01*
G01*
X299299230Y-58679864D02*
X285899230Y-58679864D01*
X285899230Y-58679864D02*
G75*
G02X285599230Y-58379864I0J300000D01*
G01*
X285599230Y-58379864D02*
X285599230Y-57979864D01*
X285599230Y-44979864D02*
G75*
G02X285899230Y-44679864I300000J0D01*
G01*
X299299230Y-44679864D02*
X285899230Y-44679864D01*
X285599230Y-49079864D02*
X285599230Y-54279864D01*
X285599230Y-45379864D02*
X285599230Y-44979864D01*
X299599230Y-57979864D02*
X299599230Y-58379864D01*
X299299230Y-44679864D02*
G75*
G02X299599230Y-44979864I0J-300000D01*
G01*
X300599230Y-48579864D02*
G75*
G02X300399230Y-48779864I-200000J0D01*
G01*
X299599230Y-49079864D02*
G75*
G02X299899230Y-48779864I300000J0D01*
G01*
X299899230Y-45679864D02*
X300299230Y-45679864D01*
X300599230Y-48579864D02*
X300599230Y-45979864D01*
X300399230Y-48779864D02*
X299899230Y-48779864D01*
X299599230Y-54279864D02*
X299599230Y-49079864D01*
X299599230Y-58379864D02*
G75*
G02X299299230Y-58679864I-300000J0D01*
G01*
X299899230Y-45679864D02*
G75*
G02X299599230Y-45379864I0J300000D01*
G01*
X300299230Y-45679864D02*
G75*
G02X300599230Y-45979864I0J-300000D01*
G01*
X299599230Y-44979864D02*
X299599230Y-45379864D01*
X299899230Y-54579864D02*
G75*
G02X299599230Y-54279864I0J300000D01*
G01*
X300299230Y-54579864D02*
G75*
G02X300599230Y-54879864I0J-300000D01*
G01*
X300399230Y-57679864D02*
X299899230Y-57679864D01*
X300599230Y-57479864D02*
X300599230Y-54879864D01*
X299899230Y-54579864D02*
X300299230Y-54579864D01*
X299599230Y-57979864D02*
G75*
G02X299899230Y-57679864I300000J0D01*
G01*
X300599230Y-57479864D02*
G75*
G02X300399230Y-57679864I-200000J0D01*
G01*
X284599230Y-54779864D02*
G75*
G02X284799230Y-54579864I200000J0D01*
G01*
X285599230Y-54279864D02*
G75*
G02X285299230Y-54579864I-300000J0D01*
G01*
X285299230Y-57679864D02*
X284899230Y-57679864D01*
X284599230Y-54779864D02*
X284599230Y-57379864D01*
X284799230Y-54579864D02*
X285299230Y-54579864D01*
X284899230Y-57679864D02*
G75*
G02X284599230Y-57379864I0J300000D01*
G01*
X285299230Y-57679864D02*
G75*
G02X285599230Y-57979864I0J-300000D01*
G01*
X284799230Y-45679864D02*
X285299230Y-45679864D01*
X285299230Y-48779864D02*
X284899230Y-48779864D01*
X284599230Y-45879864D02*
X284599230Y-48479864D01*
X285599230Y-45379864D02*
G75*
G02X285299230Y-45679864I-300000J0D01*
G01*
X285299230Y-48779864D02*
G75*
G02X285599230Y-49079864I0J-300000D01*
G01*
X284899230Y-48779864D02*
G75*
G02X284599230Y-48479864I0J300000D01*
G01*
X284599230Y-45879864D02*
G75*
G02X284799230Y-45679864I200000J0D01*
G01*
X318299180Y-58679864D02*
X304899180Y-58679864D01*
X304899180Y-58679864D02*
G75*
G02X304599180Y-58379864I0J300000D01*
G01*
X304599180Y-58379864D02*
X304599180Y-57979864D01*
X304599180Y-44979864D02*
G75*
G02X304899180Y-44679864I300000J0D01*
G01*
X318299180Y-44679864D02*
X304899180Y-44679864D01*
X304599180Y-49079864D02*
X304599180Y-54279864D01*
X304599180Y-45379864D02*
X304599180Y-44979864D01*
X318599180Y-57979864D02*
X318599180Y-58379864D01*
X318299180Y-44679864D02*
G75*
G02X318599180Y-44979864I0J-300000D01*
G01*
X319599180Y-48579864D02*
G75*
G02X319399180Y-48779864I-200000J0D01*
G01*
X318599180Y-49079864D02*
G75*
G02X318899180Y-48779864I300000J0D01*
G01*
X318899180Y-45679864D02*
X319299180Y-45679864D01*
X319599180Y-48579864D02*
X319599180Y-45979864D01*
X319399180Y-48779864D02*
X318899180Y-48779864D01*
X318599180Y-54279864D02*
X318599180Y-49079864D01*
X318599180Y-58379864D02*
G75*
G02X318299180Y-58679864I-300000J0D01*
G01*
X318899180Y-45679864D02*
G75*
G02X318599180Y-45379864I0J300000D01*
G01*
X319299180Y-45679864D02*
G75*
G02X319599180Y-45979864I0J-300000D01*
G01*
X318599180Y-44979864D02*
X318599180Y-45379864D01*
X318899180Y-54579864D02*
G75*
G02X318599180Y-54279864I0J300000D01*
G01*
X319299180Y-54579864D02*
G75*
G02X319599180Y-54879864I0J-300000D01*
G01*
X319399180Y-57679864D02*
X318899180Y-57679864D01*
X319599180Y-57479864D02*
X319599180Y-54879864D01*
X318899180Y-54579864D02*
X319299180Y-54579864D01*
X318599180Y-57979864D02*
G75*
G02X318899180Y-57679864I300000J0D01*
G01*
X319599180Y-57479864D02*
G75*
G02X319399180Y-57679864I-200000J0D01*
G01*
X303599180Y-54779864D02*
G75*
G02X303799180Y-54579864I200000J0D01*
G01*
X304599180Y-54279864D02*
G75*
G02X304299180Y-54579864I-300000J0D01*
G01*
X304299180Y-57679864D02*
X303899180Y-57679864D01*
X303599180Y-54779864D02*
X303599180Y-57379864D01*
X303799180Y-54579864D02*
X304299180Y-54579864D01*
X303899180Y-57679864D02*
G75*
G02X303599180Y-57379864I0J300000D01*
G01*
X304299180Y-57679864D02*
G75*
G02X304599180Y-57979864I0J-300000D01*
G01*
X303799180Y-45679864D02*
X304299180Y-45679864D01*
X304299180Y-48779864D02*
X303899180Y-48779864D01*
X303599180Y-45879864D02*
X303599180Y-48479864D01*
X304599180Y-45379864D02*
G75*
G02X304299180Y-45679864I-300000J0D01*
G01*
X304299180Y-48779864D02*
G75*
G02X304599180Y-49079864I0J-300000D01*
G01*
X303899180Y-48779864D02*
G75*
G02X303599180Y-48479864I0J300000D01*
G01*
X303599180Y-45879864D02*
G75*
G02X303799180Y-45679864I200000J0D01*
G01*
X337299130Y-58679864D02*
X323899130Y-58679864D01*
X323899130Y-58679864D02*
G75*
G02X323599130Y-58379864I0J300000D01*
G01*
X323599130Y-58379864D02*
X323599130Y-57979864D01*
X323599130Y-44979864D02*
G75*
G02X323899130Y-44679864I300000J0D01*
G01*
X337299130Y-44679864D02*
X323899130Y-44679864D01*
X323599130Y-49079864D02*
X323599130Y-54279864D01*
X323599130Y-45379864D02*
X323599130Y-44979864D01*
X337599130Y-57979864D02*
X337599130Y-58379864D01*
X337299130Y-44679864D02*
G75*
G02X337599130Y-44979864I0J-300000D01*
G01*
X338599130Y-48579864D02*
G75*
G02X338399130Y-48779864I-200000J0D01*
G01*
X337599130Y-49079864D02*
G75*
G02X337899130Y-48779864I300000J0D01*
G01*
X337899130Y-45679864D02*
X338299130Y-45679864D01*
X338599130Y-48579864D02*
X338599130Y-45979864D01*
X338399130Y-48779864D02*
X337899130Y-48779864D01*
X337599130Y-54279864D02*
X337599130Y-49079864D01*
X337599130Y-58379864D02*
G75*
G02X337299130Y-58679864I-300000J0D01*
G01*
X337899130Y-45679864D02*
G75*
G02X337599130Y-45379864I0J300000D01*
G01*
X338299130Y-45679864D02*
G75*
G02X338599130Y-45979864I0J-300000D01*
G01*
X337599130Y-44979864D02*
X337599130Y-45379864D01*
X337899130Y-54579864D02*
G75*
G02X337599130Y-54279864I0J300000D01*
G01*
X338299130Y-54579864D02*
G75*
G02X338599130Y-54879864I0J-300000D01*
G01*
X338399130Y-57679864D02*
X337899130Y-57679864D01*
X338599130Y-57479864D02*
X338599130Y-54879864D01*
X337899130Y-54579864D02*
X338299130Y-54579864D01*
X337599130Y-57979864D02*
G75*
G02X337899130Y-57679864I300000J0D01*
G01*
X338599130Y-57479864D02*
G75*
G02X338399130Y-57679864I-200000J0D01*
G01*
X322599130Y-54779864D02*
G75*
G02X322799130Y-54579864I200000J0D01*
G01*
X323599130Y-54279864D02*
G75*
G02X323299130Y-54579864I-300000J0D01*
G01*
X323299130Y-57679864D02*
X322899130Y-57679864D01*
X322599130Y-54779864D02*
X322599130Y-57379864D01*
X322799130Y-54579864D02*
X323299130Y-54579864D01*
X322899130Y-57679864D02*
G75*
G02X322599130Y-57379864I0J300000D01*
G01*
X323299130Y-57679864D02*
G75*
G02X323599130Y-57979864I0J-300000D01*
G01*
X322799130Y-45679864D02*
X323299130Y-45679864D01*
X323299130Y-48779864D02*
X322899130Y-48779864D01*
X322599130Y-45879864D02*
X322599130Y-48479864D01*
X323599130Y-45379864D02*
G75*
G02X323299130Y-45679864I-300000J0D01*
G01*
X323299130Y-48779864D02*
G75*
G02X323599130Y-49079864I0J-300000D01*
G01*
X322899130Y-48779864D02*
G75*
G02X322599130Y-48479864I0J300000D01*
G01*
X322599130Y-45879864D02*
G75*
G02X322799130Y-45679864I200000J0D01*
G01*
X356299080Y-58679864D02*
X342899080Y-58679864D01*
X342899080Y-58679864D02*
G75*
G02X342599080Y-58379864I0J300000D01*
G01*
X342599080Y-58379864D02*
X342599080Y-57979864D01*
X342599080Y-44979864D02*
G75*
G02X342899080Y-44679864I300000J0D01*
G01*
X356299080Y-44679864D02*
X342899080Y-44679864D01*
X342599080Y-49079864D02*
X342599080Y-54279864D01*
X342599080Y-45379864D02*
X342599080Y-44979864D01*
X356599080Y-57979864D02*
X356599080Y-58379864D01*
X356299080Y-44679864D02*
G75*
G02X356599080Y-44979864I0J-300000D01*
G01*
X357599080Y-48579864D02*
G75*
G02X357399080Y-48779864I-200000J0D01*
G01*
X356599080Y-49079864D02*
G75*
G02X356899080Y-48779864I300000J0D01*
G01*
X356899080Y-45679864D02*
X357299080Y-45679864D01*
X357599080Y-48579864D02*
X357599080Y-45979864D01*
X357399080Y-48779864D02*
X356899080Y-48779864D01*
X356599080Y-54279864D02*
X356599080Y-49079864D01*
X356599080Y-58379864D02*
G75*
G02X356299080Y-58679864I-300000J0D01*
G01*
X356899080Y-45679864D02*
G75*
G02X356599080Y-45379864I0J300000D01*
G01*
X357299080Y-45679864D02*
G75*
G02X357599080Y-45979864I0J-300000D01*
G01*
X356599080Y-44979864D02*
X356599080Y-45379864D01*
X356899080Y-54579864D02*
G75*
G02X356599080Y-54279864I0J300000D01*
G01*
X357299080Y-54579864D02*
G75*
G02X357599080Y-54879864I0J-300000D01*
G01*
X357399080Y-57679864D02*
X356899080Y-57679864D01*
X357599080Y-57479864D02*
X357599080Y-54879864D01*
X356899080Y-54579864D02*
X357299080Y-54579864D01*
X356599080Y-57979864D02*
G75*
G02X356899080Y-57679864I300000J0D01*
G01*
X357599080Y-57479864D02*
G75*
G02X357399080Y-57679864I-200000J0D01*
G01*
X341599080Y-54779864D02*
G75*
G02X341799080Y-54579864I200000J0D01*
G01*
X342599080Y-54279864D02*
G75*
G02X342299080Y-54579864I-300000J0D01*
G01*
X342299080Y-57679864D02*
X341899080Y-57679864D01*
X341599080Y-54779864D02*
X341599080Y-57379864D01*
X341799080Y-54579864D02*
X342299080Y-54579864D01*
X341899080Y-57679864D02*
G75*
G02X341599080Y-57379864I0J300000D01*
G01*
X342299080Y-57679864D02*
G75*
G02X342599080Y-57979864I0J-300000D01*
G01*
X341799080Y-45679864D02*
X342299080Y-45679864D01*
X342299080Y-48779864D02*
X341899080Y-48779864D01*
X341599080Y-45879864D02*
X341599080Y-48479864D01*
X342599080Y-45379864D02*
G75*
G02X342299080Y-45679864I-300000J0D01*
G01*
X342299080Y-48779864D02*
G75*
G02X342599080Y-49079864I0J-300000D01*
G01*
X341899080Y-48779864D02*
G75*
G02X341599080Y-48479864I0J300000D01*
G01*
X341599080Y-45879864D02*
G75*
G02X341799080Y-45679864I200000J0D01*
G01*
X147299630Y-77679814D02*
X133899630Y-77679814D01*
X133899630Y-77679814D02*
G75*
G02X133599630Y-77379814I0J300000D01*
G01*
X133599630Y-77379814D02*
X133599630Y-76979814D01*
X133599630Y-63979814D02*
G75*
G02X133899630Y-63679814I300000J0D01*
G01*
X147299630Y-63679814D02*
X133899630Y-63679814D01*
X133599630Y-68079814D02*
X133599630Y-73279814D01*
X133599630Y-64379814D02*
X133599630Y-63979814D01*
X147599630Y-76979814D02*
X147599630Y-77379814D01*
X147299630Y-63679814D02*
G75*
G02X147599630Y-63979814I0J-300000D01*
G01*
X148599630Y-67579814D02*
G75*
G02X148399630Y-67779814I-200000J0D01*
G01*
X147599630Y-68079814D02*
G75*
G02X147899630Y-67779814I300000J0D01*
G01*
X147899630Y-64679814D02*
X148299630Y-64679814D01*
X148599630Y-67579814D02*
X148599630Y-64979814D01*
X148399630Y-67779814D02*
X147899630Y-67779814D01*
X147599630Y-73279814D02*
X147599630Y-68079814D01*
X147599630Y-77379814D02*
G75*
G02X147299630Y-77679814I-300000J0D01*
G01*
X147899630Y-64679814D02*
G75*
G02X147599630Y-64379814I0J300000D01*
G01*
X148299630Y-64679814D02*
G75*
G02X148599630Y-64979814I0J-300000D01*
G01*
X147599630Y-63979814D02*
X147599630Y-64379814D01*
X147899630Y-73579814D02*
G75*
G02X147599630Y-73279814I0J300000D01*
G01*
X148299630Y-73579814D02*
G75*
G02X148599630Y-73879814I0J-300000D01*
G01*
X148399630Y-76679814D02*
X147899630Y-76679814D01*
X148599630Y-76479814D02*
X148599630Y-73879814D01*
X147899630Y-73579814D02*
X148299630Y-73579814D01*
X147599630Y-76979814D02*
G75*
G02X147899630Y-76679814I300000J0D01*
G01*
X148599630Y-76479814D02*
G75*
G02X148399630Y-76679814I-200000J0D01*
G01*
X132599630Y-73779814D02*
G75*
G02X132799630Y-73579814I200000J0D01*
G01*
X133599630Y-73279814D02*
G75*
G02X133299630Y-73579814I-300000J0D01*
G01*
X133299630Y-76679814D02*
X132899630Y-76679814D01*
X132599630Y-73779814D02*
X132599630Y-76379814D01*
X132799630Y-73579814D02*
X133299630Y-73579814D01*
X132899630Y-76679814D02*
G75*
G02X132599630Y-76379814I0J300000D01*
G01*
X133299630Y-76679814D02*
G75*
G02X133599630Y-76979814I0J-300000D01*
G01*
X132799630Y-64679814D02*
X133299630Y-64679814D01*
X133299630Y-67779814D02*
X132899630Y-67779814D01*
X132599630Y-64879814D02*
X132599630Y-67479814D01*
X133599630Y-64379814D02*
G75*
G02X133299630Y-64679814I-300000J0D01*
G01*
X133299630Y-67779814D02*
G75*
G02X133599630Y-68079814I0J-300000D01*
G01*
X132899630Y-67779814D02*
G75*
G02X132599630Y-67479814I0J300000D01*
G01*
X132599630Y-64879814D02*
G75*
G02X132799630Y-64679814I200000J0D01*
G01*
X166299580Y-77679814D02*
X152899580Y-77679814D01*
X152899580Y-77679814D02*
G75*
G02X152599580Y-77379814I0J300000D01*
G01*
X152599580Y-77379814D02*
X152599580Y-76979814D01*
X152599580Y-63979814D02*
G75*
G02X152899580Y-63679814I300000J0D01*
G01*
X166299580Y-63679814D02*
X152899580Y-63679814D01*
X152599580Y-68079814D02*
X152599580Y-73279814D01*
X152599580Y-64379814D02*
X152599580Y-63979814D01*
X166599580Y-76979814D02*
X166599580Y-77379814D01*
X166299580Y-63679814D02*
G75*
G02X166599580Y-63979814I0J-300000D01*
G01*
X167599580Y-67579814D02*
G75*
G02X167399580Y-67779814I-200000J0D01*
G01*
X166599580Y-68079814D02*
G75*
G02X166899580Y-67779814I300000J0D01*
G01*
X166899580Y-64679814D02*
X167299580Y-64679814D01*
X167599580Y-67579814D02*
X167599580Y-64979814D01*
X167399580Y-67779814D02*
X166899580Y-67779814D01*
X166599580Y-73279814D02*
X166599580Y-68079814D01*
X166599580Y-77379814D02*
G75*
G02X166299580Y-77679814I-300000J0D01*
G01*
X166899580Y-64679814D02*
G75*
G02X166599580Y-64379814I0J300000D01*
G01*
X167299580Y-64679814D02*
G75*
G02X167599580Y-64979814I0J-300000D01*
G01*
X166599580Y-63979814D02*
X166599580Y-64379814D01*
X166899580Y-73579814D02*
G75*
G02X166599580Y-73279814I0J300000D01*
G01*
X167299580Y-73579814D02*
G75*
G02X167599580Y-73879814I0J-300000D01*
G01*
X167399580Y-76679814D02*
X166899580Y-76679814D01*
X167599580Y-76479814D02*
X167599580Y-73879814D01*
X166899580Y-73579814D02*
X167299580Y-73579814D01*
X166599580Y-76979814D02*
G75*
G02X166899580Y-76679814I300000J0D01*
G01*
X167599580Y-76479814D02*
G75*
G02X167399580Y-76679814I-200000J0D01*
G01*
X151599580Y-73779814D02*
G75*
G02X151799580Y-73579814I200000J0D01*
G01*
X152599580Y-73279814D02*
G75*
G02X152299580Y-73579814I-300000J0D01*
G01*
X152299580Y-76679814D02*
X151899580Y-76679814D01*
X151599580Y-73779814D02*
X151599580Y-76379814D01*
X151799580Y-73579814D02*
X152299580Y-73579814D01*
X151899580Y-76679814D02*
G75*
G02X151599580Y-76379814I0J300000D01*
G01*
X152299580Y-76679814D02*
G75*
G02X152599580Y-76979814I0J-300000D01*
G01*
X151799580Y-64679814D02*
X152299580Y-64679814D01*
X152299580Y-67779814D02*
X151899580Y-67779814D01*
X151599580Y-64879814D02*
X151599580Y-67479814D01*
X152599580Y-64379814D02*
G75*
G02X152299580Y-64679814I-300000J0D01*
G01*
X152299580Y-67779814D02*
G75*
G02X152599580Y-68079814I0J-300000D01*
G01*
X151899580Y-67779814D02*
G75*
G02X151599580Y-67479814I0J300000D01*
G01*
X151599580Y-64879814D02*
G75*
G02X151799580Y-64679814I200000J0D01*
G01*
X185299530Y-77679814D02*
X171899530Y-77679814D01*
X171899530Y-77679814D02*
G75*
G02X171599530Y-77379814I0J300000D01*
G01*
X171599530Y-77379814D02*
X171599530Y-76979814D01*
X171599530Y-63979814D02*
G75*
G02X171899530Y-63679814I300000J0D01*
G01*
X185299530Y-63679814D02*
X171899530Y-63679814D01*
X171599530Y-68079814D02*
X171599530Y-73279814D01*
X171599530Y-64379814D02*
X171599530Y-63979814D01*
X185599530Y-76979814D02*
X185599530Y-77379814D01*
X185299530Y-63679814D02*
G75*
G02X185599530Y-63979814I0J-300000D01*
G01*
X186599530Y-67579814D02*
G75*
G02X186399530Y-67779814I-200000J0D01*
G01*
X185599530Y-68079814D02*
G75*
G02X185899530Y-67779814I300000J0D01*
G01*
X185899530Y-64679814D02*
X186299530Y-64679814D01*
X186599530Y-67579814D02*
X186599530Y-64979814D01*
X186399530Y-67779814D02*
X185899530Y-67779814D01*
X185599530Y-73279814D02*
X185599530Y-68079814D01*
X185599530Y-77379814D02*
G75*
G02X185299530Y-77679814I-300000J0D01*
G01*
X185899530Y-64679814D02*
G75*
G02X185599530Y-64379814I0J300000D01*
G01*
X186299530Y-64679814D02*
G75*
G02X186599530Y-64979814I0J-300000D01*
G01*
X185599530Y-63979814D02*
X185599530Y-64379814D01*
X185899530Y-73579814D02*
G75*
G02X185599530Y-73279814I0J300000D01*
G01*
X186299530Y-73579814D02*
G75*
G02X186599530Y-73879814I0J-300000D01*
G01*
X186399530Y-76679814D02*
X185899530Y-76679814D01*
X186599530Y-76479814D02*
X186599530Y-73879814D01*
X185899530Y-73579814D02*
X186299530Y-73579814D01*
X185599530Y-76979814D02*
G75*
G02X185899530Y-76679814I300000J0D01*
G01*
X186599530Y-76479814D02*
G75*
G02X186399530Y-76679814I-200000J0D01*
G01*
X170599530Y-73779814D02*
G75*
G02X170799530Y-73579814I200000J0D01*
G01*
X171599530Y-73279814D02*
G75*
G02X171299530Y-73579814I-300000J0D01*
G01*
X171299530Y-76679814D02*
X170899530Y-76679814D01*
X170599530Y-73779814D02*
X170599530Y-76379814D01*
X170799530Y-73579814D02*
X171299530Y-73579814D01*
X170899530Y-76679814D02*
G75*
G02X170599530Y-76379814I0J300000D01*
G01*
X171299530Y-76679814D02*
G75*
G02X171599530Y-76979814I0J-300000D01*
G01*
X170799530Y-64679814D02*
X171299530Y-64679814D01*
X171299530Y-67779814D02*
X170899530Y-67779814D01*
X170599530Y-64879814D02*
X170599530Y-67479814D01*
X171599530Y-64379814D02*
G75*
G02X171299530Y-64679814I-300000J0D01*
G01*
X171299530Y-67779814D02*
G75*
G02X171599530Y-68079814I0J-300000D01*
G01*
X170899530Y-67779814D02*
G75*
G02X170599530Y-67479814I0J300000D01*
G01*
X170599530Y-64879814D02*
G75*
G02X170799530Y-64679814I200000J0D01*
G01*
X204299480Y-77679814D02*
X190899480Y-77679814D01*
X190899480Y-77679814D02*
G75*
G02X190599480Y-77379814I0J300000D01*
G01*
X190599480Y-77379814D02*
X190599480Y-76979814D01*
X190599480Y-63979814D02*
G75*
G02X190899480Y-63679814I300000J0D01*
G01*
X204299480Y-63679814D02*
X190899480Y-63679814D01*
X190599480Y-68079814D02*
X190599480Y-73279814D01*
X190599480Y-64379814D02*
X190599480Y-63979814D01*
X204599480Y-76979814D02*
X204599480Y-77379814D01*
X204299480Y-63679814D02*
G75*
G02X204599480Y-63979814I0J-300000D01*
G01*
X205599480Y-67579814D02*
G75*
G02X205399480Y-67779814I-200000J0D01*
G01*
X204599480Y-68079814D02*
G75*
G02X204899480Y-67779814I300000J0D01*
G01*
X204899480Y-64679814D02*
X205299480Y-64679814D01*
X205599480Y-67579814D02*
X205599480Y-64979814D01*
X205399480Y-67779814D02*
X204899480Y-67779814D01*
X204599480Y-73279814D02*
X204599480Y-68079814D01*
X204599480Y-77379814D02*
G75*
G02X204299480Y-77679814I-300000J0D01*
G01*
X204899480Y-64679814D02*
G75*
G02X204599480Y-64379814I0J300000D01*
G01*
X205299480Y-64679814D02*
G75*
G02X205599480Y-64979814I0J-300000D01*
G01*
X204599480Y-63979814D02*
X204599480Y-64379814D01*
X204899480Y-73579814D02*
G75*
G02X204599480Y-73279814I0J300000D01*
G01*
X205299480Y-73579814D02*
G75*
G02X205599480Y-73879814I0J-300000D01*
G01*
X205399480Y-76679814D02*
X204899480Y-76679814D01*
X205599480Y-76479814D02*
X205599480Y-73879814D01*
X204899480Y-73579814D02*
X205299480Y-73579814D01*
X204599480Y-76979814D02*
G75*
G02X204899480Y-76679814I300000J0D01*
G01*
X205599480Y-76479814D02*
G75*
G02X205399480Y-76679814I-200000J0D01*
G01*
X189599480Y-73779814D02*
G75*
G02X189799480Y-73579814I200000J0D01*
G01*
X190599480Y-73279814D02*
G75*
G02X190299480Y-73579814I-300000J0D01*
G01*
X190299480Y-76679814D02*
X189899480Y-76679814D01*
X189599480Y-73779814D02*
X189599480Y-76379814D01*
X189799480Y-73579814D02*
X190299480Y-73579814D01*
X189899480Y-76679814D02*
G75*
G02X189599480Y-76379814I0J300000D01*
G01*
X190299480Y-76679814D02*
G75*
G02X190599480Y-76979814I0J-300000D01*
G01*
X189799480Y-64679814D02*
X190299480Y-64679814D01*
X190299480Y-67779814D02*
X189899480Y-67779814D01*
X189599480Y-64879814D02*
X189599480Y-67479814D01*
X190599480Y-64379814D02*
G75*
G02X190299480Y-64679814I-300000J0D01*
G01*
X190299480Y-67779814D02*
G75*
G02X190599480Y-68079814I0J-300000D01*
G01*
X189899480Y-67779814D02*
G75*
G02X189599480Y-67479814I0J300000D01*
G01*
X189599480Y-64879814D02*
G75*
G02X189799480Y-64679814I200000J0D01*
G01*
X223299430Y-77679814D02*
X209899430Y-77679814D01*
X209899430Y-77679814D02*
G75*
G02X209599430Y-77379814I0J300000D01*
G01*
X209599430Y-77379814D02*
X209599430Y-76979814D01*
X209599430Y-63979814D02*
G75*
G02X209899430Y-63679814I300000J0D01*
G01*
X223299430Y-63679814D02*
X209899430Y-63679814D01*
X209599430Y-68079814D02*
X209599430Y-73279814D01*
X209599430Y-64379814D02*
X209599430Y-63979814D01*
X223599430Y-76979814D02*
X223599430Y-77379814D01*
X223299430Y-63679814D02*
G75*
G02X223599430Y-63979814I0J-300000D01*
G01*
X224599430Y-67579814D02*
G75*
G02X224399430Y-67779814I-200000J0D01*
G01*
X223599430Y-68079814D02*
G75*
G02X223899430Y-67779814I300000J0D01*
G01*
X223899430Y-64679814D02*
X224299430Y-64679814D01*
X224599430Y-67579814D02*
X224599430Y-64979814D01*
X224399430Y-67779814D02*
X223899430Y-67779814D01*
X223599430Y-73279814D02*
X223599430Y-68079814D01*
X223599430Y-77379814D02*
G75*
G02X223299430Y-77679814I-300000J0D01*
G01*
X223899430Y-64679814D02*
G75*
G02X223599430Y-64379814I0J300000D01*
G01*
X224299430Y-64679814D02*
G75*
G02X224599430Y-64979814I0J-300000D01*
G01*
X223599430Y-63979814D02*
X223599430Y-64379814D01*
X223899430Y-73579814D02*
G75*
G02X223599430Y-73279814I0J300000D01*
G01*
X224299430Y-73579814D02*
G75*
G02X224599430Y-73879814I0J-300000D01*
G01*
X224399430Y-76679814D02*
X223899430Y-76679814D01*
X224599430Y-76479814D02*
X224599430Y-73879814D01*
X223899430Y-73579814D02*
X224299430Y-73579814D01*
X223599430Y-76979814D02*
G75*
G02X223899430Y-76679814I300000J0D01*
G01*
X224599430Y-76479814D02*
G75*
G02X224399430Y-76679814I-200000J0D01*
G01*
X208599430Y-73779814D02*
G75*
G02X208799430Y-73579814I200000J0D01*
G01*
X209599430Y-73279814D02*
G75*
G02X209299430Y-73579814I-300000J0D01*
G01*
X209299430Y-76679814D02*
X208899430Y-76679814D01*
X208599430Y-73779814D02*
X208599430Y-76379814D01*
X208799430Y-73579814D02*
X209299430Y-73579814D01*
X208899430Y-76679814D02*
G75*
G02X208599430Y-76379814I0J300000D01*
G01*
X209299430Y-76679814D02*
G75*
G02X209599430Y-76979814I0J-300000D01*
G01*
X208799430Y-64679814D02*
X209299430Y-64679814D01*
X209299430Y-67779814D02*
X208899430Y-67779814D01*
X208599430Y-64879814D02*
X208599430Y-67479814D01*
X209599430Y-64379814D02*
G75*
G02X209299430Y-64679814I-300000J0D01*
G01*
X209299430Y-67779814D02*
G75*
G02X209599430Y-68079814I0J-300000D01*
G01*
X208899430Y-67779814D02*
G75*
G02X208599430Y-67479814I0J300000D01*
G01*
X208599430Y-64879814D02*
G75*
G02X208799430Y-64679814I200000J0D01*
G01*
X242299380Y-77679814D02*
X228899380Y-77679814D01*
X228899380Y-77679814D02*
G75*
G02X228599380Y-77379814I0J300000D01*
G01*
X228599380Y-77379814D02*
X228599380Y-76979814D01*
X228599380Y-63979814D02*
G75*
G02X228899380Y-63679814I300000J0D01*
G01*
X242299380Y-63679814D02*
X228899380Y-63679814D01*
X228599380Y-68079814D02*
X228599380Y-73279814D01*
X228599380Y-64379814D02*
X228599380Y-63979814D01*
X242599380Y-76979814D02*
X242599380Y-77379814D01*
X242299380Y-63679814D02*
G75*
G02X242599380Y-63979814I0J-300000D01*
G01*
X243599380Y-67579814D02*
G75*
G02X243399380Y-67779814I-200000J0D01*
G01*
X242599380Y-68079814D02*
G75*
G02X242899380Y-67779814I300000J0D01*
G01*
X242899380Y-64679814D02*
X243299380Y-64679814D01*
X243599380Y-67579814D02*
X243599380Y-64979814D01*
X243399380Y-67779814D02*
X242899380Y-67779814D01*
X242599380Y-73279814D02*
X242599380Y-68079814D01*
X242599380Y-77379814D02*
G75*
G02X242299380Y-77679814I-300000J0D01*
G01*
X242899380Y-64679814D02*
G75*
G02X242599380Y-64379814I0J300000D01*
G01*
X243299380Y-64679814D02*
G75*
G02X243599380Y-64979814I0J-300000D01*
G01*
X242599380Y-63979814D02*
X242599380Y-64379814D01*
X242899380Y-73579814D02*
G75*
G02X242599380Y-73279814I0J300000D01*
G01*
X243299380Y-73579814D02*
G75*
G02X243599380Y-73879814I0J-300000D01*
G01*
X243399380Y-76679814D02*
X242899380Y-76679814D01*
X243599380Y-76479814D02*
X243599380Y-73879814D01*
X242899380Y-73579814D02*
X243299380Y-73579814D01*
X242599380Y-76979814D02*
G75*
G02X242899380Y-76679814I300000J0D01*
G01*
X243599380Y-76479814D02*
G75*
G02X243399380Y-76679814I-200000J0D01*
G01*
X227599380Y-73779814D02*
G75*
G02X227799380Y-73579814I200000J0D01*
G01*
X228599380Y-73279814D02*
G75*
G02X228299380Y-73579814I-300000J0D01*
G01*
X228299380Y-76679814D02*
X227899380Y-76679814D01*
X227599380Y-73779814D02*
X227599380Y-76379814D01*
X227799380Y-73579814D02*
X228299380Y-73579814D01*
X227899380Y-76679814D02*
G75*
G02X227599380Y-76379814I0J300000D01*
G01*
X228299380Y-76679814D02*
G75*
G02X228599380Y-76979814I0J-300000D01*
G01*
X227799380Y-64679814D02*
X228299380Y-64679814D01*
X228299380Y-67779814D02*
X227899380Y-67779814D01*
X227599380Y-64879814D02*
X227599380Y-67479814D01*
X228599380Y-64379814D02*
G75*
G02X228299380Y-64679814I-300000J0D01*
G01*
X228299380Y-67779814D02*
G75*
G02X228599380Y-68079814I0J-300000D01*
G01*
X227899380Y-67779814D02*
G75*
G02X227599380Y-67479814I0J300000D01*
G01*
X227599380Y-64879814D02*
G75*
G02X227799380Y-64679814I200000J0D01*
G01*
X261299330Y-77679814D02*
X247899330Y-77679814D01*
X247899330Y-77679814D02*
G75*
G02X247599330Y-77379814I0J300000D01*
G01*
X247599330Y-77379814D02*
X247599330Y-76979814D01*
X247599330Y-63979814D02*
G75*
G02X247899330Y-63679814I300000J0D01*
G01*
X261299330Y-63679814D02*
X247899330Y-63679814D01*
X247599330Y-68079814D02*
X247599330Y-73279814D01*
X247599330Y-64379814D02*
X247599330Y-63979814D01*
X261599330Y-76979814D02*
X261599330Y-77379814D01*
X261299330Y-63679814D02*
G75*
G02X261599330Y-63979814I0J-300000D01*
G01*
X262599330Y-67579814D02*
G75*
G02X262399330Y-67779814I-200000J0D01*
G01*
X261599330Y-68079814D02*
G75*
G02X261899330Y-67779814I300000J0D01*
G01*
X261899330Y-64679814D02*
X262299330Y-64679814D01*
X262599330Y-67579814D02*
X262599330Y-64979814D01*
X262399330Y-67779814D02*
X261899330Y-67779814D01*
X261599330Y-73279814D02*
X261599330Y-68079814D01*
X261599330Y-77379814D02*
G75*
G02X261299330Y-77679814I-300000J0D01*
G01*
X261899330Y-64679814D02*
G75*
G02X261599330Y-64379814I0J300000D01*
G01*
X262299330Y-64679814D02*
G75*
G02X262599330Y-64979814I0J-300000D01*
G01*
X261599330Y-63979814D02*
X261599330Y-64379814D01*
X261899330Y-73579814D02*
G75*
G02X261599330Y-73279814I0J300000D01*
G01*
X262299330Y-73579814D02*
G75*
G02X262599330Y-73879814I0J-300000D01*
G01*
X262399330Y-76679814D02*
X261899330Y-76679814D01*
X262599330Y-76479814D02*
X262599330Y-73879814D01*
X261899330Y-73579814D02*
X262299330Y-73579814D01*
X261599330Y-76979814D02*
G75*
G02X261899330Y-76679814I300000J0D01*
G01*
X262599330Y-76479814D02*
G75*
G02X262399330Y-76679814I-200000J0D01*
G01*
X246599330Y-73779814D02*
G75*
G02X246799330Y-73579814I200000J0D01*
G01*
X247599330Y-73279814D02*
G75*
G02X247299330Y-73579814I-300000J0D01*
G01*
X247299330Y-76679814D02*
X246899330Y-76679814D01*
X246599330Y-73779814D02*
X246599330Y-76379814D01*
X246799330Y-73579814D02*
X247299330Y-73579814D01*
X246899330Y-76679814D02*
G75*
G02X246599330Y-76379814I0J300000D01*
G01*
X247299330Y-76679814D02*
G75*
G02X247599330Y-76979814I0J-300000D01*
G01*
X246799330Y-64679814D02*
X247299330Y-64679814D01*
X247299330Y-67779814D02*
X246899330Y-67779814D01*
X246599330Y-64879814D02*
X246599330Y-67479814D01*
X247599330Y-64379814D02*
G75*
G02X247299330Y-64679814I-300000J0D01*
G01*
X247299330Y-67779814D02*
G75*
G02X247599330Y-68079814I0J-300000D01*
G01*
X246899330Y-67779814D02*
G75*
G02X246599330Y-67479814I0J300000D01*
G01*
X246599330Y-64879814D02*
G75*
G02X246799330Y-64679814I200000J0D01*
G01*
X280299280Y-77679814D02*
X266899280Y-77679814D01*
X266899280Y-77679814D02*
G75*
G02X266599280Y-77379814I0J300000D01*
G01*
X266599280Y-77379814D02*
X266599280Y-76979814D01*
X266599280Y-63979814D02*
G75*
G02X266899280Y-63679814I300000J0D01*
G01*
X280299280Y-63679814D02*
X266899280Y-63679814D01*
X266599280Y-68079814D02*
X266599280Y-73279814D01*
X266599280Y-64379814D02*
X266599280Y-63979814D01*
X280599280Y-76979814D02*
X280599280Y-77379814D01*
X280299280Y-63679814D02*
G75*
G02X280599280Y-63979814I0J-300000D01*
G01*
X281599280Y-67579814D02*
G75*
G02X281399280Y-67779814I-200000J0D01*
G01*
X280599280Y-68079814D02*
G75*
G02X280899280Y-67779814I300000J0D01*
G01*
X280899280Y-64679814D02*
X281299280Y-64679814D01*
X281599280Y-67579814D02*
X281599280Y-64979814D01*
X281399280Y-67779814D02*
X280899280Y-67779814D01*
X280599280Y-73279814D02*
X280599280Y-68079814D01*
X280599280Y-77379814D02*
G75*
G02X280299280Y-77679814I-300000J0D01*
G01*
X280899280Y-64679814D02*
G75*
G02X280599280Y-64379814I0J300000D01*
G01*
X281299280Y-64679814D02*
G75*
G02X281599280Y-64979814I0J-300000D01*
G01*
X280599280Y-63979814D02*
X280599280Y-64379814D01*
X280899280Y-73579814D02*
G75*
G02X280599280Y-73279814I0J300000D01*
G01*
X281299280Y-73579814D02*
G75*
G02X281599280Y-73879814I0J-300000D01*
G01*
X281399280Y-76679814D02*
X280899280Y-76679814D01*
X281599280Y-76479814D02*
X281599280Y-73879814D01*
X280899280Y-73579814D02*
X281299280Y-73579814D01*
X280599280Y-76979814D02*
G75*
G02X280899280Y-76679814I300000J0D01*
G01*
X281599280Y-76479814D02*
G75*
G02X281399280Y-76679814I-200000J0D01*
G01*
X265599280Y-73779814D02*
G75*
G02X265799280Y-73579814I200000J0D01*
G01*
X266599280Y-73279814D02*
G75*
G02X266299280Y-73579814I-300000J0D01*
G01*
X266299280Y-76679814D02*
X265899280Y-76679814D01*
X265599280Y-73779814D02*
X265599280Y-76379814D01*
X265799280Y-73579814D02*
X266299280Y-73579814D01*
X265899280Y-76679814D02*
G75*
G02X265599280Y-76379814I0J300000D01*
G01*
X266299280Y-76679814D02*
G75*
G02X266599280Y-76979814I0J-300000D01*
G01*
X265799280Y-64679814D02*
X266299280Y-64679814D01*
X266299280Y-67779814D02*
X265899280Y-67779814D01*
X265599280Y-64879814D02*
X265599280Y-67479814D01*
X266599280Y-64379814D02*
G75*
G02X266299280Y-64679814I-300000J0D01*
G01*
X266299280Y-67779814D02*
G75*
G02X266599280Y-68079814I0J-300000D01*
G01*
X265899280Y-67779814D02*
G75*
G02X265599280Y-67479814I0J300000D01*
G01*
X265599280Y-64879814D02*
G75*
G02X265799280Y-64679814I200000J0D01*
G01*
X299299230Y-77679814D02*
X285899230Y-77679814D01*
X285899230Y-77679814D02*
G75*
G02X285599230Y-77379814I0J300000D01*
G01*
X285599230Y-77379814D02*
X285599230Y-76979814D01*
X285599230Y-63979814D02*
G75*
G02X285899230Y-63679814I300000J0D01*
G01*
X299299230Y-63679814D02*
X285899230Y-63679814D01*
X285599230Y-68079814D02*
X285599230Y-73279814D01*
X285599230Y-64379814D02*
X285599230Y-63979814D01*
X299599230Y-76979814D02*
X299599230Y-77379814D01*
X299299230Y-63679814D02*
G75*
G02X299599230Y-63979814I0J-300000D01*
G01*
X300599230Y-67579814D02*
G75*
G02X300399230Y-67779814I-200000J0D01*
G01*
X299599230Y-68079814D02*
G75*
G02X299899230Y-67779814I300000J0D01*
G01*
X299899230Y-64679814D02*
X300299230Y-64679814D01*
X300599230Y-67579814D02*
X300599230Y-64979814D01*
X300399230Y-67779814D02*
X299899230Y-67779814D01*
X299599230Y-73279814D02*
X299599230Y-68079814D01*
X299599230Y-77379814D02*
G75*
G02X299299230Y-77679814I-300000J0D01*
G01*
X299899230Y-64679814D02*
G75*
G02X299599230Y-64379814I0J300000D01*
G01*
X300299230Y-64679814D02*
G75*
G02X300599230Y-64979814I0J-300000D01*
G01*
X299599230Y-63979814D02*
X299599230Y-64379814D01*
X299899230Y-73579814D02*
G75*
G02X299599230Y-73279814I0J300000D01*
G01*
X300299230Y-73579814D02*
G75*
G02X300599230Y-73879814I0J-300000D01*
G01*
X300399230Y-76679814D02*
X299899230Y-76679814D01*
X300599230Y-76479814D02*
X300599230Y-73879814D01*
X299899230Y-73579814D02*
X300299230Y-73579814D01*
X299599230Y-76979814D02*
G75*
G02X299899230Y-76679814I300000J0D01*
G01*
X300599230Y-76479814D02*
G75*
G02X300399230Y-76679814I-200000J0D01*
G01*
X284599230Y-73779814D02*
G75*
G02X284799230Y-73579814I200000J0D01*
G01*
X285599230Y-73279814D02*
G75*
G02X285299230Y-73579814I-300000J0D01*
G01*
X285299230Y-76679814D02*
X284899230Y-76679814D01*
X284599230Y-73779814D02*
X284599230Y-76379814D01*
X284799230Y-73579814D02*
X285299230Y-73579814D01*
X284899230Y-76679814D02*
G75*
G02X284599230Y-76379814I0J300000D01*
G01*
X285299230Y-76679814D02*
G75*
G02X285599230Y-76979814I0J-300000D01*
G01*
X284799230Y-64679814D02*
X285299230Y-64679814D01*
X285299230Y-67779814D02*
X284899230Y-67779814D01*
X284599230Y-64879814D02*
X284599230Y-67479814D01*
X285599230Y-64379814D02*
G75*
G02X285299230Y-64679814I-300000J0D01*
G01*
X285299230Y-67779814D02*
G75*
G02X285599230Y-68079814I0J-300000D01*
G01*
X284899230Y-67779814D02*
G75*
G02X284599230Y-67479814I0J300000D01*
G01*
X284599230Y-64879814D02*
G75*
G02X284799230Y-64679814I200000J0D01*
G01*
X318299180Y-77679814D02*
X304899180Y-77679814D01*
X304899180Y-77679814D02*
G75*
G02X304599180Y-77379814I0J300000D01*
G01*
X304599180Y-77379814D02*
X304599180Y-76979814D01*
X304599180Y-63979814D02*
G75*
G02X304899180Y-63679814I300000J0D01*
G01*
X318299180Y-63679814D02*
X304899180Y-63679814D01*
X304599180Y-68079814D02*
X304599180Y-73279814D01*
X304599180Y-64379814D02*
X304599180Y-63979814D01*
X318599180Y-76979814D02*
X318599180Y-77379814D01*
X318299180Y-63679814D02*
G75*
G02X318599180Y-63979814I0J-300000D01*
G01*
X319599180Y-67579814D02*
G75*
G02X319399180Y-67779814I-200000J0D01*
G01*
X318599180Y-68079814D02*
G75*
G02X318899180Y-67779814I300000J0D01*
G01*
X318899180Y-64679814D02*
X319299180Y-64679814D01*
X319599180Y-67579814D02*
X319599180Y-64979814D01*
X319399180Y-67779814D02*
X318899180Y-67779814D01*
X318599180Y-73279814D02*
X318599180Y-68079814D01*
X318599180Y-77379814D02*
G75*
G02X318299180Y-77679814I-300000J0D01*
G01*
X318899180Y-64679814D02*
G75*
G02X318599180Y-64379814I0J300000D01*
G01*
X319299180Y-64679814D02*
G75*
G02X319599180Y-64979814I0J-300000D01*
G01*
X318599180Y-63979814D02*
X318599180Y-64379814D01*
X318899180Y-73579814D02*
G75*
G02X318599180Y-73279814I0J300000D01*
G01*
X319299180Y-73579814D02*
G75*
G02X319599180Y-73879814I0J-300000D01*
G01*
X319399180Y-76679814D02*
X318899180Y-76679814D01*
X319599180Y-76479814D02*
X319599180Y-73879814D01*
X318899180Y-73579814D02*
X319299180Y-73579814D01*
X318599180Y-76979814D02*
G75*
G02X318899180Y-76679814I300000J0D01*
G01*
X319599180Y-76479814D02*
G75*
G02X319399180Y-76679814I-200000J0D01*
G01*
X303599180Y-73779814D02*
G75*
G02X303799180Y-73579814I200000J0D01*
G01*
X304599180Y-73279814D02*
G75*
G02X304299180Y-73579814I-300000J0D01*
G01*
X304299180Y-76679814D02*
X303899180Y-76679814D01*
X303599180Y-73779814D02*
X303599180Y-76379814D01*
X303799180Y-73579814D02*
X304299180Y-73579814D01*
X303899180Y-76679814D02*
G75*
G02X303599180Y-76379814I0J300000D01*
G01*
X304299180Y-76679814D02*
G75*
G02X304599180Y-76979814I0J-300000D01*
G01*
X303799180Y-64679814D02*
X304299180Y-64679814D01*
X304299180Y-67779814D02*
X303899180Y-67779814D01*
X303599180Y-64879814D02*
X303599180Y-67479814D01*
X304599180Y-64379814D02*
G75*
G02X304299180Y-64679814I-300000J0D01*
G01*
X304299180Y-67779814D02*
G75*
G02X304599180Y-68079814I0J-300000D01*
G01*
X303899180Y-67779814D02*
G75*
G02X303599180Y-67479814I0J300000D01*
G01*
X303599180Y-64879814D02*
G75*
G02X303799180Y-64679814I200000J0D01*
G01*
X337299130Y-77679814D02*
X323899130Y-77679814D01*
X323899130Y-77679814D02*
G75*
G02X323599130Y-77379814I0J300000D01*
G01*
X323599130Y-77379814D02*
X323599130Y-76979814D01*
X323599130Y-63979814D02*
G75*
G02X323899130Y-63679814I300000J0D01*
G01*
X337299130Y-63679814D02*
X323899130Y-63679814D01*
X323599130Y-68079814D02*
X323599130Y-73279814D01*
X323599130Y-64379814D02*
X323599130Y-63979814D01*
X337599130Y-76979814D02*
X337599130Y-77379814D01*
X337299130Y-63679814D02*
G75*
G02X337599130Y-63979814I0J-300000D01*
G01*
X338599130Y-67579814D02*
G75*
G02X338399130Y-67779814I-200000J0D01*
G01*
X337599130Y-68079814D02*
G75*
G02X337899130Y-67779814I300000J0D01*
G01*
X337899130Y-64679814D02*
X338299130Y-64679814D01*
X338599130Y-67579814D02*
X338599130Y-64979814D01*
X338399130Y-67779814D02*
X337899130Y-67779814D01*
X337599130Y-73279814D02*
X337599130Y-68079814D01*
X337599130Y-77379814D02*
G75*
G02X337299130Y-77679814I-300000J0D01*
G01*
X337899130Y-64679814D02*
G75*
G02X337599130Y-64379814I0J300000D01*
G01*
X338299130Y-64679814D02*
G75*
G02X338599130Y-64979814I0J-300000D01*
G01*
X337599130Y-63979814D02*
X337599130Y-64379814D01*
X337899130Y-73579814D02*
G75*
G02X337599130Y-73279814I0J300000D01*
G01*
X338299130Y-73579814D02*
G75*
G02X338599130Y-73879814I0J-300000D01*
G01*
X338399130Y-76679814D02*
X337899130Y-76679814D01*
X338599130Y-76479814D02*
X338599130Y-73879814D01*
X337899130Y-73579814D02*
X338299130Y-73579814D01*
X337599130Y-76979814D02*
G75*
G02X337899130Y-76679814I300000J0D01*
G01*
X338599130Y-76479814D02*
G75*
G02X338399130Y-76679814I-200000J0D01*
G01*
X322599130Y-73779814D02*
G75*
G02X322799130Y-73579814I200000J0D01*
G01*
X323599130Y-73279814D02*
G75*
G02X323299130Y-73579814I-300000J0D01*
G01*
X323299130Y-76679814D02*
X322899130Y-76679814D01*
X322599130Y-73779814D02*
X322599130Y-76379814D01*
X322799130Y-73579814D02*
X323299130Y-73579814D01*
X322899130Y-76679814D02*
G75*
G02X322599130Y-76379814I0J300000D01*
G01*
X323299130Y-76679814D02*
G75*
G02X323599130Y-76979814I0J-300000D01*
G01*
X322799130Y-64679814D02*
X323299130Y-64679814D01*
X323299130Y-67779814D02*
X322899130Y-67779814D01*
X322599130Y-64879814D02*
X322599130Y-67479814D01*
X323599130Y-64379814D02*
G75*
G02X323299130Y-64679814I-300000J0D01*
G01*
X323299130Y-67779814D02*
G75*
G02X323599130Y-68079814I0J-300000D01*
G01*
X322899130Y-67779814D02*
G75*
G02X322599130Y-67479814I0J300000D01*
G01*
X322599130Y-64879814D02*
G75*
G02X322799130Y-64679814I200000J0D01*
G01*
X356299080Y-77679814D02*
X342899080Y-77679814D01*
X342899080Y-77679814D02*
G75*
G02X342599080Y-77379814I0J300000D01*
G01*
X342599080Y-77379814D02*
X342599080Y-76979814D01*
X342599080Y-63979814D02*
G75*
G02X342899080Y-63679814I300000J0D01*
G01*
X356299080Y-63679814D02*
X342899080Y-63679814D01*
X342599080Y-68079814D02*
X342599080Y-73279814D01*
X342599080Y-64379814D02*
X342599080Y-63979814D01*
X356599080Y-76979814D02*
X356599080Y-77379814D01*
X356299080Y-63679814D02*
G75*
G02X356599080Y-63979814I0J-300000D01*
G01*
X357599080Y-67579814D02*
G75*
G02X357399080Y-67779814I-200000J0D01*
G01*
X356599080Y-68079814D02*
G75*
G02X356899080Y-67779814I300000J0D01*
G01*
X356899080Y-64679814D02*
X357299080Y-64679814D01*
X357599080Y-67579814D02*
X357599080Y-64979814D01*
X357399080Y-67779814D02*
X356899080Y-67779814D01*
X356599080Y-73279814D02*
X356599080Y-68079814D01*
X356599080Y-77379814D02*
G75*
G02X356299080Y-77679814I-300000J0D01*
G01*
X356899080Y-64679814D02*
G75*
G02X356599080Y-64379814I0J300000D01*
G01*
X357299080Y-64679814D02*
G75*
G02X357599080Y-64979814I0J-300000D01*
G01*
X356599080Y-63979814D02*
X356599080Y-64379814D01*
X356899080Y-73579814D02*
G75*
G02X356599080Y-73279814I0J300000D01*
G01*
X357299080Y-73579814D02*
G75*
G02X357599080Y-73879814I0J-300000D01*
G01*
X357399080Y-76679814D02*
X356899080Y-76679814D01*
X357599080Y-76479814D02*
X357599080Y-73879814D01*
X356899080Y-73579814D02*
X357299080Y-73579814D01*
X356599080Y-76979814D02*
G75*
G02X356899080Y-76679814I300000J0D01*
G01*
X357599080Y-76479814D02*
G75*
G02X357399080Y-76679814I-200000J0D01*
G01*
X341599080Y-73779814D02*
G75*
G02X341799080Y-73579814I200000J0D01*
G01*
X342599080Y-73279814D02*
G75*
G02X342299080Y-73579814I-300000J0D01*
G01*
X342299080Y-76679814D02*
X341899080Y-76679814D01*
X341599080Y-73779814D02*
X341599080Y-76379814D01*
X341799080Y-73579814D02*
X342299080Y-73579814D01*
X341899080Y-76679814D02*
G75*
G02X341599080Y-76379814I0J300000D01*
G01*
X342299080Y-76679814D02*
G75*
G02X342599080Y-76979814I0J-300000D01*
G01*
X341799080Y-64679814D02*
X342299080Y-64679814D01*
X342299080Y-67779814D02*
X341899080Y-67779814D01*
X341599080Y-64879814D02*
X341599080Y-67479814D01*
X342599080Y-64379814D02*
G75*
G02X342299080Y-64679814I-300000J0D01*
G01*
X342299080Y-67779814D02*
G75*
G02X342599080Y-68079814I0J-300000D01*
G01*
X341899080Y-67779814D02*
G75*
G02X341599080Y-67479814I0J300000D01*
G01*
X341599080Y-64879814D02*
G75*
G02X341799080Y-64679814I200000J0D01*
G01*
X147299630Y-96679764D02*
X133899630Y-96679764D01*
X133899630Y-96679764D02*
G75*
G02X133599630Y-96379764I0J300000D01*
G01*
X133599630Y-96379764D02*
X133599630Y-95979764D01*
X133599630Y-82979764D02*
G75*
G02X133899630Y-82679764I300000J0D01*
G01*
X147299630Y-82679764D02*
X133899630Y-82679764D01*
X133599630Y-87079764D02*
X133599630Y-92279764D01*
X133599630Y-83379764D02*
X133599630Y-82979764D01*
X147599630Y-95979764D02*
X147599630Y-96379764D01*
X147299630Y-82679764D02*
G75*
G02X147599630Y-82979764I0J-300000D01*
G01*
X148599630Y-86579764D02*
G75*
G02X148399630Y-86779764I-200000J0D01*
G01*
X147599630Y-87079764D02*
G75*
G02X147899630Y-86779764I300000J0D01*
G01*
X147899630Y-83679764D02*
X148299630Y-83679764D01*
X148599630Y-86579764D02*
X148599630Y-83979764D01*
X148399630Y-86779764D02*
X147899630Y-86779764D01*
X147599630Y-92279764D02*
X147599630Y-87079764D01*
X147599630Y-96379764D02*
G75*
G02X147299630Y-96679764I-300000J0D01*
G01*
X147899630Y-83679764D02*
G75*
G02X147599630Y-83379764I0J300000D01*
G01*
X148299630Y-83679764D02*
G75*
G02X148599630Y-83979764I0J-300000D01*
G01*
X147599630Y-82979764D02*
X147599630Y-83379764D01*
X147899630Y-92579764D02*
G75*
G02X147599630Y-92279764I0J300000D01*
G01*
X148299630Y-92579764D02*
G75*
G02X148599630Y-92879764I0J-300000D01*
G01*
X148399630Y-95679764D02*
X147899630Y-95679764D01*
X148599630Y-95479764D02*
X148599630Y-92879764D01*
X147899630Y-92579764D02*
X148299630Y-92579764D01*
X147599630Y-95979764D02*
G75*
G02X147899630Y-95679764I300000J0D01*
G01*
X148599630Y-95479764D02*
G75*
G02X148399630Y-95679764I-200000J0D01*
G01*
X132599630Y-92779764D02*
G75*
G02X132799630Y-92579764I200000J0D01*
G01*
X133599630Y-92279764D02*
G75*
G02X133299630Y-92579764I-300000J0D01*
G01*
X133299630Y-95679764D02*
X132899630Y-95679764D01*
X132599630Y-92779764D02*
X132599630Y-95379764D01*
X132799630Y-92579764D02*
X133299630Y-92579764D01*
X132899630Y-95679764D02*
G75*
G02X132599630Y-95379764I0J300000D01*
G01*
X133299630Y-95679764D02*
G75*
G02X133599630Y-95979764I0J-300000D01*
G01*
X132799630Y-83679764D02*
X133299630Y-83679764D01*
X133299630Y-86779764D02*
X132899630Y-86779764D01*
X132599630Y-83879764D02*
X132599630Y-86479764D01*
X133599630Y-83379764D02*
G75*
G02X133299630Y-83679764I-300000J0D01*
G01*
X133299630Y-86779764D02*
G75*
G02X133599630Y-87079764I0J-300000D01*
G01*
X132899630Y-86779764D02*
G75*
G02X132599630Y-86479764I0J300000D01*
G01*
X132599630Y-83879764D02*
G75*
G02X132799630Y-83679764I200000J0D01*
G01*
X166299580Y-96679764D02*
X152899580Y-96679764D01*
X152899580Y-96679764D02*
G75*
G02X152599580Y-96379764I0J300000D01*
G01*
X152599580Y-96379764D02*
X152599580Y-95979764D01*
X152599580Y-82979764D02*
G75*
G02X152899580Y-82679764I300000J0D01*
G01*
X166299580Y-82679764D02*
X152899580Y-82679764D01*
X152599580Y-87079764D02*
X152599580Y-92279764D01*
X152599580Y-83379764D02*
X152599580Y-82979764D01*
X166599580Y-95979764D02*
X166599580Y-96379764D01*
X166299580Y-82679764D02*
G75*
G02X166599580Y-82979764I0J-300000D01*
G01*
X167599580Y-86579764D02*
G75*
G02X167399580Y-86779764I-200000J0D01*
G01*
X166599580Y-87079764D02*
G75*
G02X166899580Y-86779764I300000J0D01*
G01*
X166899580Y-83679764D02*
X167299580Y-83679764D01*
X167599580Y-86579764D02*
X167599580Y-83979764D01*
X167399580Y-86779764D02*
X166899580Y-86779764D01*
X166599580Y-92279764D02*
X166599580Y-87079764D01*
X166599580Y-96379764D02*
G75*
G02X166299580Y-96679764I-300000J0D01*
G01*
X166899580Y-83679764D02*
G75*
G02X166599580Y-83379764I0J300000D01*
G01*
X167299580Y-83679764D02*
G75*
G02X167599580Y-83979764I0J-300000D01*
G01*
X166599580Y-82979764D02*
X166599580Y-83379764D01*
X166899580Y-92579764D02*
G75*
G02X166599580Y-92279764I0J300000D01*
G01*
X167299580Y-92579764D02*
G75*
G02X167599580Y-92879764I0J-300000D01*
G01*
X167399580Y-95679764D02*
X166899580Y-95679764D01*
X167599580Y-95479764D02*
X167599580Y-92879764D01*
X166899580Y-92579764D02*
X167299580Y-92579764D01*
X166599580Y-95979764D02*
G75*
G02X166899580Y-95679764I300000J0D01*
G01*
X167599580Y-95479764D02*
G75*
G02X167399580Y-95679764I-200000J0D01*
G01*
X151599580Y-92779764D02*
G75*
G02X151799580Y-92579764I200000J0D01*
G01*
X152599580Y-92279764D02*
G75*
G02X152299580Y-92579764I-300000J0D01*
G01*
X152299580Y-95679764D02*
X151899580Y-95679764D01*
X151599580Y-92779764D02*
X151599580Y-95379764D01*
X151799580Y-92579764D02*
X152299580Y-92579764D01*
X151899580Y-95679764D02*
G75*
G02X151599580Y-95379764I0J300000D01*
G01*
X152299580Y-95679764D02*
G75*
G02X152599580Y-95979764I0J-300000D01*
G01*
X151799580Y-83679764D02*
X152299580Y-83679764D01*
X152299580Y-86779764D02*
X151899580Y-86779764D01*
X151599580Y-83879764D02*
X151599580Y-86479764D01*
X152599580Y-83379764D02*
G75*
G02X152299580Y-83679764I-300000J0D01*
G01*
X152299580Y-86779764D02*
G75*
G02X152599580Y-87079764I0J-300000D01*
G01*
X151899580Y-86779764D02*
G75*
G02X151599580Y-86479764I0J300000D01*
G01*
X151599580Y-83879764D02*
G75*
G02X151799580Y-83679764I200000J0D01*
G01*
X185299530Y-96679764D02*
X171899530Y-96679764D01*
X171899530Y-96679764D02*
G75*
G02X171599530Y-96379764I0J300000D01*
G01*
X171599530Y-96379764D02*
X171599530Y-95979764D01*
X171599530Y-82979764D02*
G75*
G02X171899530Y-82679764I300000J0D01*
G01*
X185299530Y-82679764D02*
X171899530Y-82679764D01*
X171599530Y-87079764D02*
X171599530Y-92279764D01*
X171599530Y-83379764D02*
X171599530Y-82979764D01*
X185599530Y-95979764D02*
X185599530Y-96379764D01*
X185299530Y-82679764D02*
G75*
G02X185599530Y-82979764I0J-300000D01*
G01*
X186599530Y-86579764D02*
G75*
G02X186399530Y-86779764I-200000J0D01*
G01*
X185599530Y-87079764D02*
G75*
G02X185899530Y-86779764I300000J0D01*
G01*
X185899530Y-83679764D02*
X186299530Y-83679764D01*
X186599530Y-86579764D02*
X186599530Y-83979764D01*
X186399530Y-86779764D02*
X185899530Y-86779764D01*
X185599530Y-92279764D02*
X185599530Y-87079764D01*
X185599530Y-96379764D02*
G75*
G02X185299530Y-96679764I-300000J0D01*
G01*
X185899530Y-83679764D02*
G75*
G02X185599530Y-83379764I0J300000D01*
G01*
X186299530Y-83679764D02*
G75*
G02X186599530Y-83979764I0J-300000D01*
G01*
X185599530Y-82979764D02*
X185599530Y-83379764D01*
X185899530Y-92579764D02*
G75*
G02X185599530Y-92279764I0J300000D01*
G01*
X186299530Y-92579764D02*
G75*
G02X186599530Y-92879764I0J-300000D01*
G01*
X186399530Y-95679764D02*
X185899530Y-95679764D01*
X186599530Y-95479764D02*
X186599530Y-92879764D01*
X185899530Y-92579764D02*
X186299530Y-92579764D01*
X185599530Y-95979764D02*
G75*
G02X185899530Y-95679764I300000J0D01*
G01*
X186599530Y-95479764D02*
G75*
G02X186399530Y-95679764I-200000J0D01*
G01*
X170599530Y-92779764D02*
G75*
G02X170799530Y-92579764I200000J0D01*
G01*
X171599530Y-92279764D02*
G75*
G02X171299530Y-92579764I-300000J0D01*
G01*
X171299530Y-95679764D02*
X170899530Y-95679764D01*
X170599530Y-92779764D02*
X170599530Y-95379764D01*
X170799530Y-92579764D02*
X171299530Y-92579764D01*
X170899530Y-95679764D02*
G75*
G02X170599530Y-95379764I0J300000D01*
G01*
X171299530Y-95679764D02*
G75*
G02X171599530Y-95979764I0J-300000D01*
G01*
X170799530Y-83679764D02*
X171299530Y-83679764D01*
X171299530Y-86779764D02*
X170899530Y-86779764D01*
X170599530Y-83879764D02*
X170599530Y-86479764D01*
X171599530Y-83379764D02*
G75*
G02X171299530Y-83679764I-300000J0D01*
G01*
X171299530Y-86779764D02*
G75*
G02X171599530Y-87079764I0J-300000D01*
G01*
X170899530Y-86779764D02*
G75*
G02X170599530Y-86479764I0J300000D01*
G01*
X170599530Y-83879764D02*
G75*
G02X170799530Y-83679764I200000J0D01*
G01*
X204299480Y-96679764D02*
X190899480Y-96679764D01*
X190899480Y-96679764D02*
G75*
G02X190599480Y-96379764I0J300000D01*
G01*
X190599480Y-96379764D02*
X190599480Y-95979764D01*
X190599480Y-82979764D02*
G75*
G02X190899480Y-82679764I300000J0D01*
G01*
X204299480Y-82679764D02*
X190899480Y-82679764D01*
X190599480Y-87079764D02*
X190599480Y-92279764D01*
X190599480Y-83379764D02*
X190599480Y-82979764D01*
X204599480Y-95979764D02*
X204599480Y-96379764D01*
X204299480Y-82679764D02*
G75*
G02X204599480Y-82979764I0J-300000D01*
G01*
X205599480Y-86579764D02*
G75*
G02X205399480Y-86779764I-200000J0D01*
G01*
X204599480Y-87079764D02*
G75*
G02X204899480Y-86779764I300000J0D01*
G01*
X204899480Y-83679764D02*
X205299480Y-83679764D01*
X205599480Y-86579764D02*
X205599480Y-83979764D01*
X205399480Y-86779764D02*
X204899480Y-86779764D01*
X204599480Y-92279764D02*
X204599480Y-87079764D01*
X204599480Y-96379764D02*
G75*
G02X204299480Y-96679764I-300000J0D01*
G01*
X204899480Y-83679764D02*
G75*
G02X204599480Y-83379764I0J300000D01*
G01*
X205299480Y-83679764D02*
G75*
G02X205599480Y-83979764I0J-300000D01*
G01*
X204599480Y-82979764D02*
X204599480Y-83379764D01*
X204899480Y-92579764D02*
G75*
G02X204599480Y-92279764I0J300000D01*
G01*
X205299480Y-92579764D02*
G75*
G02X205599480Y-92879764I0J-300000D01*
G01*
X205399480Y-95679764D02*
X204899480Y-95679764D01*
X205599480Y-95479764D02*
X205599480Y-92879764D01*
X204899480Y-92579764D02*
X205299480Y-92579764D01*
X204599480Y-95979764D02*
G75*
G02X204899480Y-95679764I300000J0D01*
G01*
X205599480Y-95479764D02*
G75*
G02X205399480Y-95679764I-200000J0D01*
G01*
X189599480Y-92779764D02*
G75*
G02X189799480Y-92579764I200000J0D01*
G01*
X190599480Y-92279764D02*
G75*
G02X190299480Y-92579764I-300000J0D01*
G01*
X190299480Y-95679764D02*
X189899480Y-95679764D01*
X189599480Y-92779764D02*
X189599480Y-95379764D01*
X189799480Y-92579764D02*
X190299480Y-92579764D01*
X189899480Y-95679764D02*
G75*
G02X189599480Y-95379764I0J300000D01*
G01*
X190299480Y-95679764D02*
G75*
G02X190599480Y-95979764I0J-300000D01*
G01*
X189799480Y-83679764D02*
X190299480Y-83679764D01*
X190299480Y-86779764D02*
X189899480Y-86779764D01*
X189599480Y-83879764D02*
X189599480Y-86479764D01*
X190599480Y-83379764D02*
G75*
G02X190299480Y-83679764I-300000J0D01*
G01*
X190299480Y-86779764D02*
G75*
G02X190599480Y-87079764I0J-300000D01*
G01*
X189899480Y-86779764D02*
G75*
G02X189599480Y-86479764I0J300000D01*
G01*
X189599480Y-83879764D02*
G75*
G02X189799480Y-83679764I200000J0D01*
G01*
X223299430Y-96679764D02*
X209899430Y-96679764D01*
X209899430Y-96679764D02*
G75*
G02X209599430Y-96379764I0J300000D01*
G01*
X209599430Y-96379764D02*
X209599430Y-95979764D01*
X209599430Y-82979764D02*
G75*
G02X209899430Y-82679764I300000J0D01*
G01*
X223299430Y-82679764D02*
X209899430Y-82679764D01*
X209599430Y-87079764D02*
X209599430Y-92279764D01*
X209599430Y-83379764D02*
X209599430Y-82979764D01*
X223599430Y-95979764D02*
X223599430Y-96379764D01*
X223299430Y-82679764D02*
G75*
G02X223599430Y-82979764I0J-300000D01*
G01*
X224599430Y-86579764D02*
G75*
G02X224399430Y-86779764I-200000J0D01*
G01*
X223599430Y-87079764D02*
G75*
G02X223899430Y-86779764I300000J0D01*
G01*
X223899430Y-83679764D02*
X224299430Y-83679764D01*
X224599430Y-86579764D02*
X224599430Y-83979764D01*
X224399430Y-86779764D02*
X223899430Y-86779764D01*
X223599430Y-92279764D02*
X223599430Y-87079764D01*
X223599430Y-96379764D02*
G75*
G02X223299430Y-96679764I-300000J0D01*
G01*
X223899430Y-83679764D02*
G75*
G02X223599430Y-83379764I0J300000D01*
G01*
X224299430Y-83679764D02*
G75*
G02X224599430Y-83979764I0J-300000D01*
G01*
X223599430Y-82979764D02*
X223599430Y-83379764D01*
X223899430Y-92579764D02*
G75*
G02X223599430Y-92279764I0J300000D01*
G01*
X224299430Y-92579764D02*
G75*
G02X224599430Y-92879764I0J-300000D01*
G01*
X224399430Y-95679764D02*
X223899430Y-95679764D01*
X224599430Y-95479764D02*
X224599430Y-92879764D01*
X223899430Y-92579764D02*
X224299430Y-92579764D01*
X223599430Y-95979764D02*
G75*
G02X223899430Y-95679764I300000J0D01*
G01*
X224599430Y-95479764D02*
G75*
G02X224399430Y-95679764I-200000J0D01*
G01*
X208599430Y-92779764D02*
G75*
G02X208799430Y-92579764I200000J0D01*
G01*
X209599430Y-92279764D02*
G75*
G02X209299430Y-92579764I-300000J0D01*
G01*
X209299430Y-95679764D02*
X208899430Y-95679764D01*
X208599430Y-92779764D02*
X208599430Y-95379764D01*
X208799430Y-92579764D02*
X209299430Y-92579764D01*
X208899430Y-95679764D02*
G75*
G02X208599430Y-95379764I0J300000D01*
G01*
X209299430Y-95679764D02*
G75*
G02X209599430Y-95979764I0J-300000D01*
G01*
X208799430Y-83679764D02*
X209299430Y-83679764D01*
X209299430Y-86779764D02*
X208899430Y-86779764D01*
X208599430Y-83879764D02*
X208599430Y-86479764D01*
X209599430Y-83379764D02*
G75*
G02X209299430Y-83679764I-300000J0D01*
G01*
X209299430Y-86779764D02*
G75*
G02X209599430Y-87079764I0J-300000D01*
G01*
X208899430Y-86779764D02*
G75*
G02X208599430Y-86479764I0J300000D01*
G01*
X208599430Y-83879764D02*
G75*
G02X208799430Y-83679764I200000J0D01*
G01*
X242299380Y-96679764D02*
X228899380Y-96679764D01*
X228899380Y-96679764D02*
G75*
G02X228599380Y-96379764I0J300000D01*
G01*
X228599380Y-96379764D02*
X228599380Y-95979764D01*
X228599380Y-82979764D02*
G75*
G02X228899380Y-82679764I300000J0D01*
G01*
X242299380Y-82679764D02*
X228899380Y-82679764D01*
X228599380Y-87079764D02*
X228599380Y-92279764D01*
X228599380Y-83379764D02*
X228599380Y-82979764D01*
X242599380Y-95979764D02*
X242599380Y-96379764D01*
X242299380Y-82679764D02*
G75*
G02X242599380Y-82979764I0J-300000D01*
G01*
X243599380Y-86579764D02*
G75*
G02X243399380Y-86779764I-200000J0D01*
G01*
X242599380Y-87079764D02*
G75*
G02X242899380Y-86779764I300000J0D01*
G01*
X242899380Y-83679764D02*
X243299380Y-83679764D01*
X243599380Y-86579764D02*
X243599380Y-83979764D01*
X243399380Y-86779764D02*
X242899380Y-86779764D01*
X242599380Y-92279764D02*
X242599380Y-87079764D01*
X242599380Y-96379764D02*
G75*
G02X242299380Y-96679764I-300000J0D01*
G01*
X242899380Y-83679764D02*
G75*
G02X242599380Y-83379764I0J300000D01*
G01*
X243299380Y-83679764D02*
G75*
G02X243599380Y-83979764I0J-300000D01*
G01*
X242599380Y-82979764D02*
X242599380Y-83379764D01*
X242899380Y-92579764D02*
G75*
G02X242599380Y-92279764I0J300000D01*
G01*
X243299380Y-92579764D02*
G75*
G02X243599380Y-92879764I0J-300000D01*
G01*
X243399380Y-95679764D02*
X242899380Y-95679764D01*
X243599380Y-95479764D02*
X243599380Y-92879764D01*
X242899380Y-92579764D02*
X243299380Y-92579764D01*
X242599380Y-95979764D02*
G75*
G02X242899380Y-95679764I300000J0D01*
G01*
X243599380Y-95479764D02*
G75*
G02X243399380Y-95679764I-200000J0D01*
G01*
X227599380Y-92779764D02*
G75*
G02X227799380Y-92579764I200000J0D01*
G01*
X228599380Y-92279764D02*
G75*
G02X228299380Y-92579764I-300000J0D01*
G01*
X228299380Y-95679764D02*
X227899380Y-95679764D01*
X227599380Y-92779764D02*
X227599380Y-95379764D01*
X227799380Y-92579764D02*
X228299380Y-92579764D01*
X227899380Y-95679764D02*
G75*
G02X227599380Y-95379764I0J300000D01*
G01*
X228299380Y-95679764D02*
G75*
G02X228599380Y-95979764I0J-300000D01*
G01*
X227799380Y-83679764D02*
X228299380Y-83679764D01*
X228299380Y-86779764D02*
X227899380Y-86779764D01*
X227599380Y-83879764D02*
X227599380Y-86479764D01*
X228599380Y-83379764D02*
G75*
G02X228299380Y-83679764I-300000J0D01*
G01*
X228299380Y-86779764D02*
G75*
G02X228599380Y-87079764I0J-300000D01*
G01*
X227899380Y-86779764D02*
G75*
G02X227599380Y-86479764I0J300000D01*
G01*
X227599380Y-83879764D02*
G75*
G02X227799380Y-83679764I200000J0D01*
G01*
X261299330Y-96679764D02*
X247899330Y-96679764D01*
X247899330Y-96679764D02*
G75*
G02X247599330Y-96379764I0J300000D01*
G01*
X247599330Y-96379764D02*
X247599330Y-95979764D01*
X247599330Y-82979764D02*
G75*
G02X247899330Y-82679764I300000J0D01*
G01*
X261299330Y-82679764D02*
X247899330Y-82679764D01*
X247599330Y-87079764D02*
X247599330Y-92279764D01*
X247599330Y-83379764D02*
X247599330Y-82979764D01*
X261599330Y-95979764D02*
X261599330Y-96379764D01*
X261299330Y-82679764D02*
G75*
G02X261599330Y-82979764I0J-300000D01*
G01*
X262599330Y-86579764D02*
G75*
G02X262399330Y-86779764I-200000J0D01*
G01*
X261599330Y-87079764D02*
G75*
G02X261899330Y-86779764I300000J0D01*
G01*
X261899330Y-83679764D02*
X262299330Y-83679764D01*
X262599330Y-86579764D02*
X262599330Y-83979764D01*
X262399330Y-86779764D02*
X261899330Y-86779764D01*
X261599330Y-92279764D02*
X261599330Y-87079764D01*
X261599330Y-96379764D02*
G75*
G02X261299330Y-96679764I-300000J0D01*
G01*
X261899330Y-83679764D02*
G75*
G02X261599330Y-83379764I0J300000D01*
G01*
X262299330Y-83679764D02*
G75*
G02X262599330Y-83979764I0J-300000D01*
G01*
X261599330Y-82979764D02*
X261599330Y-83379764D01*
X261899330Y-92579764D02*
G75*
G02X261599330Y-92279764I0J300000D01*
G01*
X262299330Y-92579764D02*
G75*
G02X262599330Y-92879764I0J-300000D01*
G01*
X262399330Y-95679764D02*
X261899330Y-95679764D01*
X262599330Y-95479764D02*
X262599330Y-92879764D01*
X261899330Y-92579764D02*
X262299330Y-92579764D01*
X261599330Y-95979764D02*
G75*
G02X261899330Y-95679764I300000J0D01*
G01*
X262599330Y-95479764D02*
G75*
G02X262399330Y-95679764I-200000J0D01*
G01*
X246599330Y-92779764D02*
G75*
G02X246799330Y-92579764I200000J0D01*
G01*
X247599330Y-92279764D02*
G75*
G02X247299330Y-92579764I-300000J0D01*
G01*
X247299330Y-95679764D02*
X246899330Y-95679764D01*
X246599330Y-92779764D02*
X246599330Y-95379764D01*
X246799330Y-92579764D02*
X247299330Y-92579764D01*
X246899330Y-95679764D02*
G75*
G02X246599330Y-95379764I0J300000D01*
G01*
X247299330Y-95679764D02*
G75*
G02X247599330Y-95979764I0J-300000D01*
G01*
X246799330Y-83679764D02*
X247299330Y-83679764D01*
X247299330Y-86779764D02*
X246899330Y-86779764D01*
X246599330Y-83879764D02*
X246599330Y-86479764D01*
X247599330Y-83379764D02*
G75*
G02X247299330Y-83679764I-300000J0D01*
G01*
X247299330Y-86779764D02*
G75*
G02X247599330Y-87079764I0J-300000D01*
G01*
X246899330Y-86779764D02*
G75*
G02X246599330Y-86479764I0J300000D01*
G01*
X246599330Y-83879764D02*
G75*
G02X246799330Y-83679764I200000J0D01*
G01*
X280299280Y-96679764D02*
X266899280Y-96679764D01*
X266899280Y-96679764D02*
G75*
G02X266599280Y-96379764I0J300000D01*
G01*
X266599280Y-96379764D02*
X266599280Y-95979764D01*
X266599280Y-82979764D02*
G75*
G02X266899280Y-82679764I300000J0D01*
G01*
X280299280Y-82679764D02*
X266899280Y-82679764D01*
X266599280Y-87079764D02*
X266599280Y-92279764D01*
X266599280Y-83379764D02*
X266599280Y-82979764D01*
X280599280Y-95979764D02*
X280599280Y-96379764D01*
X280299280Y-82679764D02*
G75*
G02X280599280Y-82979764I0J-300000D01*
G01*
X281599280Y-86579764D02*
G75*
G02X281399280Y-86779764I-200000J0D01*
G01*
X280599280Y-87079764D02*
G75*
G02X280899280Y-86779764I300000J0D01*
G01*
X280899280Y-83679764D02*
X281299280Y-83679764D01*
X281599280Y-86579764D02*
X281599280Y-83979764D01*
X281399280Y-86779764D02*
X280899280Y-86779764D01*
X280599280Y-92279764D02*
X280599280Y-87079764D01*
X280599280Y-96379764D02*
G75*
G02X280299280Y-96679764I-300000J0D01*
G01*
X280899280Y-83679764D02*
G75*
G02X280599280Y-83379764I0J300000D01*
G01*
X281299280Y-83679764D02*
G75*
G02X281599280Y-83979764I0J-300000D01*
G01*
X280599280Y-82979764D02*
X280599280Y-83379764D01*
X280899280Y-92579764D02*
G75*
G02X280599280Y-92279764I0J300000D01*
G01*
X281299280Y-92579764D02*
G75*
G02X281599280Y-92879764I0J-300000D01*
G01*
X281399280Y-95679764D02*
X280899280Y-95679764D01*
X281599280Y-95479764D02*
X281599280Y-92879764D01*
X280899280Y-92579764D02*
X281299280Y-92579764D01*
X280599280Y-95979764D02*
G75*
G02X280899280Y-95679764I300000J0D01*
G01*
X281599280Y-95479764D02*
G75*
G02X281399280Y-95679764I-200000J0D01*
G01*
X265599280Y-92779764D02*
G75*
G02X265799280Y-92579764I200000J0D01*
G01*
X266599280Y-92279764D02*
G75*
G02X266299280Y-92579764I-300000J0D01*
G01*
X266299280Y-95679764D02*
X265899280Y-95679764D01*
X265599280Y-92779764D02*
X265599280Y-95379764D01*
X265799280Y-92579764D02*
X266299280Y-92579764D01*
X265899280Y-95679764D02*
G75*
G02X265599280Y-95379764I0J300000D01*
G01*
X266299280Y-95679764D02*
G75*
G02X266599280Y-95979764I0J-300000D01*
G01*
X265799280Y-83679764D02*
X266299280Y-83679764D01*
X266299280Y-86779764D02*
X265899280Y-86779764D01*
X265599280Y-83879764D02*
X265599280Y-86479764D01*
X266599280Y-83379764D02*
G75*
G02X266299280Y-83679764I-300000J0D01*
G01*
X266299280Y-86779764D02*
G75*
G02X266599280Y-87079764I0J-300000D01*
G01*
X265899280Y-86779764D02*
G75*
G02X265599280Y-86479764I0J300000D01*
G01*
X265599280Y-83879764D02*
G75*
G02X265799280Y-83679764I200000J0D01*
G01*
X299299230Y-96679764D02*
X285899230Y-96679764D01*
X285899230Y-96679764D02*
G75*
G02X285599230Y-96379764I0J300000D01*
G01*
X285599230Y-96379764D02*
X285599230Y-95979764D01*
X285599230Y-82979764D02*
G75*
G02X285899230Y-82679764I300000J0D01*
G01*
X299299230Y-82679764D02*
X285899230Y-82679764D01*
X285599230Y-87079764D02*
X285599230Y-92279764D01*
X285599230Y-83379764D02*
X285599230Y-82979764D01*
X299599230Y-95979764D02*
X299599230Y-96379764D01*
X299299230Y-82679764D02*
G75*
G02X299599230Y-82979764I0J-300000D01*
G01*
X300599230Y-86579764D02*
G75*
G02X300399230Y-86779764I-200000J0D01*
G01*
X299599230Y-87079764D02*
G75*
G02X299899230Y-86779764I300000J0D01*
G01*
X299899230Y-83679764D02*
X300299230Y-83679764D01*
X300599230Y-86579764D02*
X300599230Y-83979764D01*
X300399230Y-86779764D02*
X299899230Y-86779764D01*
X299599230Y-92279764D02*
X299599230Y-87079764D01*
X299599230Y-96379764D02*
G75*
G02X299299230Y-96679764I-300000J0D01*
G01*
X299899230Y-83679764D02*
G75*
G02X299599230Y-83379764I0J300000D01*
G01*
X300299230Y-83679764D02*
G75*
G02X300599230Y-83979764I0J-300000D01*
G01*
X299599230Y-82979764D02*
X299599230Y-83379764D01*
X299899230Y-92579764D02*
G75*
G02X299599230Y-92279764I0J300000D01*
G01*
X300299230Y-92579764D02*
G75*
G02X300599230Y-92879764I0J-300000D01*
G01*
X300399230Y-95679764D02*
X299899230Y-95679764D01*
X300599230Y-95479764D02*
X300599230Y-92879764D01*
X299899230Y-92579764D02*
X300299230Y-92579764D01*
X299599230Y-95979764D02*
G75*
G02X299899230Y-95679764I300000J0D01*
G01*
X300599230Y-95479764D02*
G75*
G02X300399230Y-95679764I-200000J0D01*
G01*
X284599230Y-92779764D02*
G75*
G02X284799230Y-92579764I200000J0D01*
G01*
X285599230Y-92279764D02*
G75*
G02X285299230Y-92579764I-300000J0D01*
G01*
X285299230Y-95679764D02*
X284899230Y-95679764D01*
X284599230Y-92779764D02*
X284599230Y-95379764D01*
X284799230Y-92579764D02*
X285299230Y-92579764D01*
X284899230Y-95679764D02*
G75*
G02X284599230Y-95379764I0J300000D01*
G01*
X285299230Y-95679764D02*
G75*
G02X285599230Y-95979764I0J-300000D01*
G01*
X284799230Y-83679764D02*
X285299230Y-83679764D01*
X285299230Y-86779764D02*
X284899230Y-86779764D01*
X284599230Y-83879764D02*
X284599230Y-86479764D01*
X285599230Y-83379764D02*
G75*
G02X285299230Y-83679764I-300000J0D01*
G01*
X285299230Y-86779764D02*
G75*
G02X285599230Y-87079764I0J-300000D01*
G01*
X284899230Y-86779764D02*
G75*
G02X284599230Y-86479764I0J300000D01*
G01*
X284599230Y-83879764D02*
G75*
G02X284799230Y-83679764I200000J0D01*
G01*
X318299180Y-96679764D02*
X304899180Y-96679764D01*
X304899180Y-96679764D02*
G75*
G02X304599180Y-96379764I0J300000D01*
G01*
X304599180Y-96379764D02*
X304599180Y-95979764D01*
X304599180Y-82979764D02*
G75*
G02X304899180Y-82679764I300000J0D01*
G01*
X318299180Y-82679764D02*
X304899180Y-82679764D01*
X304599180Y-87079764D02*
X304599180Y-92279764D01*
X304599180Y-83379764D02*
X304599180Y-82979764D01*
X318599180Y-95979764D02*
X318599180Y-96379764D01*
X318299180Y-82679764D02*
G75*
G02X318599180Y-82979764I0J-300000D01*
G01*
X319599180Y-86579764D02*
G75*
G02X319399180Y-86779764I-200000J0D01*
G01*
X318599180Y-87079764D02*
G75*
G02X318899180Y-86779764I300000J0D01*
G01*
X318899180Y-83679764D02*
X319299180Y-83679764D01*
X319599180Y-86579764D02*
X319599180Y-83979764D01*
X319399180Y-86779764D02*
X318899180Y-86779764D01*
X318599180Y-92279764D02*
X318599180Y-87079764D01*
X318599180Y-96379764D02*
G75*
G02X318299180Y-96679764I-300000J0D01*
G01*
X318899180Y-83679764D02*
G75*
G02X318599180Y-83379764I0J300000D01*
G01*
X319299180Y-83679764D02*
G75*
G02X319599180Y-83979764I0J-300000D01*
G01*
X318599180Y-82979764D02*
X318599180Y-83379764D01*
X318899180Y-92579764D02*
G75*
G02X318599180Y-92279764I0J300000D01*
G01*
X319299180Y-92579764D02*
G75*
G02X319599180Y-92879764I0J-300000D01*
G01*
X319399180Y-95679764D02*
X318899180Y-95679764D01*
X319599180Y-95479764D02*
X319599180Y-92879764D01*
X318899180Y-92579764D02*
X319299180Y-92579764D01*
X318599180Y-95979764D02*
G75*
G02X318899180Y-95679764I300000J0D01*
G01*
X319599180Y-95479764D02*
G75*
G02X319399180Y-95679764I-200000J0D01*
G01*
X303599180Y-92779764D02*
G75*
G02X303799180Y-92579764I200000J0D01*
G01*
X304599180Y-92279764D02*
G75*
G02X304299180Y-92579764I-300000J0D01*
G01*
X304299180Y-95679764D02*
X303899180Y-95679764D01*
X303599180Y-92779764D02*
X303599180Y-95379764D01*
X303799180Y-92579764D02*
X304299180Y-92579764D01*
X303899180Y-95679764D02*
G75*
G02X303599180Y-95379764I0J300000D01*
G01*
X304299180Y-95679764D02*
G75*
G02X304599180Y-95979764I0J-300000D01*
G01*
X303799180Y-83679764D02*
X304299180Y-83679764D01*
X304299180Y-86779764D02*
X303899180Y-86779764D01*
X303599180Y-83879764D02*
X303599180Y-86479764D01*
X304599180Y-83379764D02*
G75*
G02X304299180Y-83679764I-300000J0D01*
G01*
X304299180Y-86779764D02*
G75*
G02X304599180Y-87079764I0J-300000D01*
G01*
X303899180Y-86779764D02*
G75*
G02X303599180Y-86479764I0J300000D01*
G01*
X303599180Y-83879764D02*
G75*
G02X303799180Y-83679764I200000J0D01*
G01*
X337299130Y-96679764D02*
X323899130Y-96679764D01*
X323899130Y-96679764D02*
G75*
G02X323599130Y-96379764I0J300000D01*
G01*
X323599130Y-96379764D02*
X323599130Y-95979764D01*
X323599130Y-82979764D02*
G75*
G02X323899130Y-82679764I300000J0D01*
G01*
X337299130Y-82679764D02*
X323899130Y-82679764D01*
X323599130Y-87079764D02*
X323599130Y-92279764D01*
X323599130Y-83379764D02*
X323599130Y-82979764D01*
X337599130Y-95979764D02*
X337599130Y-96379764D01*
X337299130Y-82679764D02*
G75*
G02X337599130Y-82979764I0J-300000D01*
G01*
X338599130Y-86579764D02*
G75*
G02X338399130Y-86779764I-200000J0D01*
G01*
X337599130Y-87079764D02*
G75*
G02X337899130Y-86779764I300000J0D01*
G01*
X337899130Y-83679764D02*
X338299130Y-83679764D01*
X338599130Y-86579764D02*
X338599130Y-83979764D01*
X338399130Y-86779764D02*
X337899130Y-86779764D01*
X337599130Y-92279764D02*
X337599130Y-87079764D01*
X337599130Y-96379764D02*
G75*
G02X337299130Y-96679764I-300000J0D01*
G01*
X337899130Y-83679764D02*
G75*
G02X337599130Y-83379764I0J300000D01*
G01*
X338299130Y-83679764D02*
G75*
G02X338599130Y-83979764I0J-300000D01*
G01*
X337599130Y-82979764D02*
X337599130Y-83379764D01*
X337899130Y-92579764D02*
G75*
G02X337599130Y-92279764I0J300000D01*
G01*
X338299130Y-92579764D02*
G75*
G02X338599130Y-92879764I0J-300000D01*
G01*
X338399130Y-95679764D02*
X337899130Y-95679764D01*
X338599130Y-95479764D02*
X338599130Y-92879764D01*
X337899130Y-92579764D02*
X338299130Y-92579764D01*
X337599130Y-95979764D02*
G75*
G02X337899130Y-95679764I300000J0D01*
G01*
X338599130Y-95479764D02*
G75*
G02X338399130Y-95679764I-200000J0D01*
G01*
X322599130Y-92779764D02*
G75*
G02X322799130Y-92579764I200000J0D01*
G01*
X323599130Y-92279764D02*
G75*
G02X323299130Y-92579764I-300000J0D01*
G01*
X323299130Y-95679764D02*
X322899130Y-95679764D01*
X322599130Y-92779764D02*
X322599130Y-95379764D01*
X322799130Y-92579764D02*
X323299130Y-92579764D01*
X322899130Y-95679764D02*
G75*
G02X322599130Y-95379764I0J300000D01*
G01*
X323299130Y-95679764D02*
G75*
G02X323599130Y-95979764I0J-300000D01*
G01*
X322799130Y-83679764D02*
X323299130Y-83679764D01*
X323299130Y-86779764D02*
X322899130Y-86779764D01*
X322599130Y-83879764D02*
X322599130Y-86479764D01*
X323599130Y-83379764D02*
G75*
G02X323299130Y-83679764I-300000J0D01*
G01*
X323299130Y-86779764D02*
G75*
G02X323599130Y-87079764I0J-300000D01*
G01*
X322899130Y-86779764D02*
G75*
G02X322599130Y-86479764I0J300000D01*
G01*
X322599130Y-83879764D02*
G75*
G02X322799130Y-83679764I200000J0D01*
G01*
X356299080Y-96679764D02*
X342899080Y-96679764D01*
X342899080Y-96679764D02*
G75*
G02X342599080Y-96379764I0J300000D01*
G01*
X342599080Y-96379764D02*
X342599080Y-95979764D01*
X342599080Y-82979764D02*
G75*
G02X342899080Y-82679764I300000J0D01*
G01*
X356299080Y-82679764D02*
X342899080Y-82679764D01*
X342599080Y-87079764D02*
X342599080Y-92279764D01*
X342599080Y-83379764D02*
X342599080Y-82979764D01*
X356599080Y-95979764D02*
X356599080Y-96379764D01*
X356299080Y-82679764D02*
G75*
G02X356599080Y-82979764I0J-300000D01*
G01*
X357599080Y-86579764D02*
G75*
G02X357399080Y-86779764I-200000J0D01*
G01*
X356599080Y-87079764D02*
G75*
G02X356899080Y-86779764I300000J0D01*
G01*
X356899080Y-83679764D02*
X357299080Y-83679764D01*
X357599080Y-86579764D02*
X357599080Y-83979764D01*
X357399080Y-86779764D02*
X356899080Y-86779764D01*
X356599080Y-92279764D02*
X356599080Y-87079764D01*
X356599080Y-96379764D02*
G75*
G02X356299080Y-96679764I-300000J0D01*
G01*
X356899080Y-83679764D02*
G75*
G02X356599080Y-83379764I0J300000D01*
G01*
X357299080Y-83679764D02*
G75*
G02X357599080Y-83979764I0J-300000D01*
G01*
X356599080Y-82979764D02*
X356599080Y-83379764D01*
X356899080Y-92579764D02*
G75*
G02X356599080Y-92279764I0J300000D01*
G01*
X357299080Y-92579764D02*
G75*
G02X357599080Y-92879764I0J-300000D01*
G01*
X357399080Y-95679764D02*
X356899080Y-95679764D01*
X357599080Y-95479764D02*
X357599080Y-92879764D01*
X356899080Y-92579764D02*
X357299080Y-92579764D01*
X356599080Y-95979764D02*
G75*
G02X356899080Y-95679764I300000J0D01*
G01*
X357599080Y-95479764D02*
G75*
G02X357399080Y-95679764I-200000J0D01*
G01*
X341599080Y-92779764D02*
G75*
G02X341799080Y-92579764I200000J0D01*
G01*
X342599080Y-92279764D02*
G75*
G02X342299080Y-92579764I-300000J0D01*
G01*
X342299080Y-95679764D02*
X341899080Y-95679764D01*
X341599080Y-92779764D02*
X341599080Y-95379764D01*
X341799080Y-92579764D02*
X342299080Y-92579764D01*
X341899080Y-95679764D02*
G75*
G02X341599080Y-95379764I0J300000D01*
G01*
X342299080Y-95679764D02*
G75*
G02X342599080Y-95979764I0J-300000D01*
G01*
X341799080Y-83679764D02*
X342299080Y-83679764D01*
X342299080Y-86779764D02*
X341899080Y-86779764D01*
X341599080Y-83879764D02*
X341599080Y-86479764D01*
X342599080Y-83379764D02*
G75*
G02X342299080Y-83679764I-300000J0D01*
G01*
X342299080Y-86779764D02*
G75*
G02X342599080Y-87079764I0J-300000D01*
G01*
X341899080Y-86779764D02*
G75*
G02X341599080Y-86479764I0J300000D01*
G01*
X341599080Y-83879764D02*
G75*
G02X341799080Y-83679764I200000J0D01*
G01*
X147299630Y-115679714D02*
X133899630Y-115679714D01*
X133899630Y-115679714D02*
G75*
G02X133599630Y-115379714I0J300000D01*
G01*
X133599630Y-115379714D02*
X133599630Y-114979714D01*
X133599630Y-101979714D02*
G75*
G02X133899630Y-101679714I300000J0D01*
G01*
X147299630Y-101679714D02*
X133899630Y-101679714D01*
X133599630Y-106079714D02*
X133599630Y-111279714D01*
X133599630Y-102379714D02*
X133599630Y-101979714D01*
X147599630Y-114979714D02*
X147599630Y-115379714D01*
X147299630Y-101679714D02*
G75*
G02X147599630Y-101979714I0J-300000D01*
G01*
X148599630Y-105579714D02*
G75*
G02X148399630Y-105779714I-200000J0D01*
G01*
X147599630Y-106079714D02*
G75*
G02X147899630Y-105779714I300000J0D01*
G01*
X147899630Y-102679714D02*
X148299630Y-102679714D01*
X148599630Y-105579714D02*
X148599630Y-102979714D01*
X148399630Y-105779714D02*
X147899630Y-105779714D01*
X147599630Y-111279714D02*
X147599630Y-106079714D01*
X147599630Y-115379714D02*
G75*
G02X147299630Y-115679714I-300000J0D01*
G01*
X147899630Y-102679714D02*
G75*
G02X147599630Y-102379714I0J300000D01*
G01*
X148299630Y-102679714D02*
G75*
G02X148599630Y-102979714I0J-300000D01*
G01*
X147599630Y-101979714D02*
X147599630Y-102379714D01*
X147899630Y-111579714D02*
G75*
G02X147599630Y-111279714I0J300000D01*
G01*
X148299630Y-111579714D02*
G75*
G02X148599630Y-111879714I0J-300000D01*
G01*
X148399630Y-114679714D02*
X147899630Y-114679714D01*
X148599630Y-114479714D02*
X148599630Y-111879714D01*
X147899630Y-111579714D02*
X148299630Y-111579714D01*
X147599630Y-114979714D02*
G75*
G02X147899630Y-114679714I300000J0D01*
G01*
X148599630Y-114479714D02*
G75*
G02X148399630Y-114679714I-200000J0D01*
G01*
X132599630Y-111779714D02*
G75*
G02X132799630Y-111579714I200000J0D01*
G01*
X133599630Y-111279714D02*
G75*
G02X133299630Y-111579714I-300000J0D01*
G01*
X133299630Y-114679714D02*
X132899630Y-114679714D01*
X132599630Y-111779714D02*
X132599630Y-114379714D01*
X132799630Y-111579714D02*
X133299630Y-111579714D01*
X132899630Y-114679714D02*
G75*
G02X132599630Y-114379714I0J300000D01*
G01*
X133299630Y-114679714D02*
G75*
G02X133599630Y-114979714I0J-300000D01*
G01*
X132799630Y-102679714D02*
X133299630Y-102679714D01*
X133299630Y-105779714D02*
X132899630Y-105779714D01*
X132599630Y-102879714D02*
X132599630Y-105479714D01*
X133599630Y-102379714D02*
G75*
G02X133299630Y-102679714I-300000J0D01*
G01*
X133299630Y-105779714D02*
G75*
G02X133599630Y-106079714I0J-300000D01*
G01*
X132899630Y-105779714D02*
G75*
G02X132599630Y-105479714I0J300000D01*
G01*
X132599630Y-102879714D02*
G75*
G02X132799630Y-102679714I200000J0D01*
G01*
X166299580Y-115679714D02*
X152899580Y-115679714D01*
X152899580Y-115679714D02*
G75*
G02X152599580Y-115379714I0J300000D01*
G01*
X152599580Y-115379714D02*
X152599580Y-114979714D01*
X152599580Y-101979714D02*
G75*
G02X152899580Y-101679714I300000J0D01*
G01*
X166299580Y-101679714D02*
X152899580Y-101679714D01*
X152599580Y-106079714D02*
X152599580Y-111279714D01*
X152599580Y-102379714D02*
X152599580Y-101979714D01*
X166599580Y-114979714D02*
X166599580Y-115379714D01*
X166299580Y-101679714D02*
G75*
G02X166599580Y-101979714I0J-300000D01*
G01*
X167599580Y-105579714D02*
G75*
G02X167399580Y-105779714I-200000J0D01*
G01*
X166599580Y-106079714D02*
G75*
G02X166899580Y-105779714I300000J0D01*
G01*
X166899580Y-102679714D02*
X167299580Y-102679714D01*
X167599580Y-105579714D02*
X167599580Y-102979714D01*
X167399580Y-105779714D02*
X166899580Y-105779714D01*
X166599580Y-111279714D02*
X166599580Y-106079714D01*
X166599580Y-115379714D02*
G75*
G02X166299580Y-115679714I-300000J0D01*
G01*
X166899580Y-102679714D02*
G75*
G02X166599580Y-102379714I0J300000D01*
G01*
X167299580Y-102679714D02*
G75*
G02X167599580Y-102979714I0J-300000D01*
G01*
X166599580Y-101979714D02*
X166599580Y-102379714D01*
X166899580Y-111579714D02*
G75*
G02X166599580Y-111279714I0J300000D01*
G01*
X167299580Y-111579714D02*
G75*
G02X167599580Y-111879714I0J-300000D01*
G01*
X167399580Y-114679714D02*
X166899580Y-114679714D01*
X167599580Y-114479714D02*
X167599580Y-111879714D01*
X166899580Y-111579714D02*
X167299580Y-111579714D01*
X166599580Y-114979714D02*
G75*
G02X166899580Y-114679714I300000J0D01*
G01*
X167599580Y-114479714D02*
G75*
G02X167399580Y-114679714I-200000J0D01*
G01*
X151599580Y-111779714D02*
G75*
G02X151799580Y-111579714I200000J0D01*
G01*
X152599580Y-111279714D02*
G75*
G02X152299580Y-111579714I-300000J0D01*
G01*
X152299580Y-114679714D02*
X151899580Y-114679714D01*
X151599580Y-111779714D02*
X151599580Y-114379714D01*
X151799580Y-111579714D02*
X152299580Y-111579714D01*
X151899580Y-114679714D02*
G75*
G02X151599580Y-114379714I0J300000D01*
G01*
X152299580Y-114679714D02*
G75*
G02X152599580Y-114979714I0J-300000D01*
G01*
X151799580Y-102679714D02*
X152299580Y-102679714D01*
X152299580Y-105779714D02*
X151899580Y-105779714D01*
X151599580Y-102879714D02*
X151599580Y-105479714D01*
X152599580Y-102379714D02*
G75*
G02X152299580Y-102679714I-300000J0D01*
G01*
X152299580Y-105779714D02*
G75*
G02X152599580Y-106079714I0J-300000D01*
G01*
X151899580Y-105779714D02*
G75*
G02X151599580Y-105479714I0J300000D01*
G01*
X151599580Y-102879714D02*
G75*
G02X151799580Y-102679714I200000J0D01*
G01*
X185299530Y-115679714D02*
X171899530Y-115679714D01*
X171899530Y-115679714D02*
G75*
G02X171599530Y-115379714I0J300000D01*
G01*
X171599530Y-115379714D02*
X171599530Y-114979714D01*
X171599530Y-101979714D02*
G75*
G02X171899530Y-101679714I300000J0D01*
G01*
X185299530Y-101679714D02*
X171899530Y-101679714D01*
X171599530Y-106079714D02*
X171599530Y-111279714D01*
X171599530Y-102379714D02*
X171599530Y-101979714D01*
X185599530Y-114979714D02*
X185599530Y-115379714D01*
X185299530Y-101679714D02*
G75*
G02X185599530Y-101979714I0J-300000D01*
G01*
X186599530Y-105579714D02*
G75*
G02X186399530Y-105779714I-200000J0D01*
G01*
X185599530Y-106079714D02*
G75*
G02X185899530Y-105779714I300000J0D01*
G01*
X185899530Y-102679714D02*
X186299530Y-102679714D01*
X186599530Y-105579714D02*
X186599530Y-102979714D01*
X186399530Y-105779714D02*
X185899530Y-105779714D01*
X185599530Y-111279714D02*
X185599530Y-106079714D01*
X185599530Y-115379714D02*
G75*
G02X185299530Y-115679714I-300000J0D01*
G01*
X185899530Y-102679714D02*
G75*
G02X185599530Y-102379714I0J300000D01*
G01*
X186299530Y-102679714D02*
G75*
G02X186599530Y-102979714I0J-300000D01*
G01*
X185599530Y-101979714D02*
X185599530Y-102379714D01*
X185899530Y-111579714D02*
G75*
G02X185599530Y-111279714I0J300000D01*
G01*
X186299530Y-111579714D02*
G75*
G02X186599530Y-111879714I0J-300000D01*
G01*
X186399530Y-114679714D02*
X185899530Y-114679714D01*
X186599530Y-114479714D02*
X186599530Y-111879714D01*
X185899530Y-111579714D02*
X186299530Y-111579714D01*
X185599530Y-114979714D02*
G75*
G02X185899530Y-114679714I300000J0D01*
G01*
X186599530Y-114479714D02*
G75*
G02X186399530Y-114679714I-200000J0D01*
G01*
X170599530Y-111779714D02*
G75*
G02X170799530Y-111579714I200000J0D01*
G01*
X171599530Y-111279714D02*
G75*
G02X171299530Y-111579714I-300000J0D01*
G01*
X171299530Y-114679714D02*
X170899530Y-114679714D01*
X170599530Y-111779714D02*
X170599530Y-114379714D01*
X170799530Y-111579714D02*
X171299530Y-111579714D01*
X170899530Y-114679714D02*
G75*
G02X170599530Y-114379714I0J300000D01*
G01*
X171299530Y-114679714D02*
G75*
G02X171599530Y-114979714I0J-300000D01*
G01*
X170799530Y-102679714D02*
X171299530Y-102679714D01*
X171299530Y-105779714D02*
X170899530Y-105779714D01*
X170599530Y-102879714D02*
X170599530Y-105479714D01*
X171599530Y-102379714D02*
G75*
G02X171299530Y-102679714I-300000J0D01*
G01*
X171299530Y-105779714D02*
G75*
G02X171599530Y-106079714I0J-300000D01*
G01*
X170899530Y-105779714D02*
G75*
G02X170599530Y-105479714I0J300000D01*
G01*
X170599530Y-102879714D02*
G75*
G02X170799530Y-102679714I200000J0D01*
G01*
X204299480Y-115679714D02*
X190899480Y-115679714D01*
X190899480Y-115679714D02*
G75*
G02X190599480Y-115379714I0J300000D01*
G01*
X190599480Y-115379714D02*
X190599480Y-114979714D01*
X190599480Y-101979714D02*
G75*
G02X190899480Y-101679714I300000J0D01*
G01*
X204299480Y-101679714D02*
X190899480Y-101679714D01*
X190599480Y-106079714D02*
X190599480Y-111279714D01*
X190599480Y-102379714D02*
X190599480Y-101979714D01*
X204599480Y-114979714D02*
X204599480Y-115379714D01*
X204299480Y-101679714D02*
G75*
G02X204599480Y-101979714I0J-300000D01*
G01*
X205599480Y-105579714D02*
G75*
G02X205399480Y-105779714I-200000J0D01*
G01*
X204599480Y-106079714D02*
G75*
G02X204899480Y-105779714I300000J0D01*
G01*
X204899480Y-102679714D02*
X205299480Y-102679714D01*
X205599480Y-105579714D02*
X205599480Y-102979714D01*
X205399480Y-105779714D02*
X204899480Y-105779714D01*
X204599480Y-111279714D02*
X204599480Y-106079714D01*
X204599480Y-115379714D02*
G75*
G02X204299480Y-115679714I-300000J0D01*
G01*
X204899480Y-102679714D02*
G75*
G02X204599480Y-102379714I0J300000D01*
G01*
X205299480Y-102679714D02*
G75*
G02X205599480Y-102979714I0J-300000D01*
G01*
X204599480Y-101979714D02*
X204599480Y-102379714D01*
X204899480Y-111579714D02*
G75*
G02X204599480Y-111279714I0J300000D01*
G01*
X205299480Y-111579714D02*
G75*
G02X205599480Y-111879714I0J-300000D01*
G01*
X205399480Y-114679714D02*
X204899480Y-114679714D01*
X205599480Y-114479714D02*
X205599480Y-111879714D01*
X204899480Y-111579714D02*
X205299480Y-111579714D01*
X204599480Y-114979714D02*
G75*
G02X204899480Y-114679714I300000J0D01*
G01*
X205599480Y-114479714D02*
G75*
G02X205399480Y-114679714I-200000J0D01*
G01*
X189599480Y-111779714D02*
G75*
G02X189799480Y-111579714I200000J0D01*
G01*
X190599480Y-111279714D02*
G75*
G02X190299480Y-111579714I-300000J0D01*
G01*
X190299480Y-114679714D02*
X189899480Y-114679714D01*
X189599480Y-111779714D02*
X189599480Y-114379714D01*
X189799480Y-111579714D02*
X190299480Y-111579714D01*
X189899480Y-114679714D02*
G75*
G02X189599480Y-114379714I0J300000D01*
G01*
X190299480Y-114679714D02*
G75*
G02X190599480Y-114979714I0J-300000D01*
G01*
X189799480Y-102679714D02*
X190299480Y-102679714D01*
X190299480Y-105779714D02*
X189899480Y-105779714D01*
X189599480Y-102879714D02*
X189599480Y-105479714D01*
X190599480Y-102379714D02*
G75*
G02X190299480Y-102679714I-300000J0D01*
G01*
X190299480Y-105779714D02*
G75*
G02X190599480Y-106079714I0J-300000D01*
G01*
X189899480Y-105779714D02*
G75*
G02X189599480Y-105479714I0J300000D01*
G01*
X189599480Y-102879714D02*
G75*
G02X189799480Y-102679714I200000J0D01*
G01*
X223299430Y-115679714D02*
X209899430Y-115679714D01*
X209899430Y-115679714D02*
G75*
G02X209599430Y-115379714I0J300000D01*
G01*
X209599430Y-115379714D02*
X209599430Y-114979714D01*
X209599430Y-101979714D02*
G75*
G02X209899430Y-101679714I300000J0D01*
G01*
X223299430Y-101679714D02*
X209899430Y-101679714D01*
X209599430Y-106079714D02*
X209599430Y-111279714D01*
X209599430Y-102379714D02*
X209599430Y-101979714D01*
X223599430Y-114979714D02*
X223599430Y-115379714D01*
X223299430Y-101679714D02*
G75*
G02X223599430Y-101979714I0J-300000D01*
G01*
X224599430Y-105579714D02*
G75*
G02X224399430Y-105779714I-200000J0D01*
G01*
X223599430Y-106079714D02*
G75*
G02X223899430Y-105779714I300000J0D01*
G01*
X223899430Y-102679714D02*
X224299430Y-102679714D01*
X224599430Y-105579714D02*
X224599430Y-102979714D01*
X224399430Y-105779714D02*
X223899430Y-105779714D01*
X223599430Y-111279714D02*
X223599430Y-106079714D01*
X223599430Y-115379714D02*
G75*
G02X223299430Y-115679714I-300000J0D01*
G01*
X223899430Y-102679714D02*
G75*
G02X223599430Y-102379714I0J300000D01*
G01*
X224299430Y-102679714D02*
G75*
G02X224599430Y-102979714I0J-300000D01*
G01*
X223599430Y-101979714D02*
X223599430Y-102379714D01*
X223899430Y-111579714D02*
G75*
G02X223599430Y-111279714I0J300000D01*
G01*
X224299430Y-111579714D02*
G75*
G02X224599430Y-111879714I0J-300000D01*
G01*
X224399430Y-114679714D02*
X223899430Y-114679714D01*
X224599430Y-114479714D02*
X224599430Y-111879714D01*
X223899430Y-111579714D02*
X224299430Y-111579714D01*
X223599430Y-114979714D02*
G75*
G02X223899430Y-114679714I300000J0D01*
G01*
X224599430Y-114479714D02*
G75*
G02X224399430Y-114679714I-200000J0D01*
G01*
X208599430Y-111779714D02*
G75*
G02X208799430Y-111579714I200000J0D01*
G01*
X209599430Y-111279714D02*
G75*
G02X209299430Y-111579714I-300000J0D01*
G01*
X209299430Y-114679714D02*
X208899430Y-114679714D01*
X208599430Y-111779714D02*
X208599430Y-114379714D01*
X208799430Y-111579714D02*
X209299430Y-111579714D01*
X208899430Y-114679714D02*
G75*
G02X208599430Y-114379714I0J300000D01*
G01*
X209299430Y-114679714D02*
G75*
G02X209599430Y-114979714I0J-300000D01*
G01*
X208799430Y-102679714D02*
X209299430Y-102679714D01*
X209299430Y-105779714D02*
X208899430Y-105779714D01*
X208599430Y-102879714D02*
X208599430Y-105479714D01*
X209599430Y-102379714D02*
G75*
G02X209299430Y-102679714I-300000J0D01*
G01*
X209299430Y-105779714D02*
G75*
G02X209599430Y-106079714I0J-300000D01*
G01*
X208899430Y-105779714D02*
G75*
G02X208599430Y-105479714I0J300000D01*
G01*
X208599430Y-102879714D02*
G75*
G02X208799430Y-102679714I200000J0D01*
G01*
X242299380Y-115679714D02*
X228899380Y-115679714D01*
X228899380Y-115679714D02*
G75*
G02X228599380Y-115379714I0J300000D01*
G01*
X228599380Y-115379714D02*
X228599380Y-114979714D01*
X228599380Y-101979714D02*
G75*
G02X228899380Y-101679714I300000J0D01*
G01*
X242299380Y-101679714D02*
X228899380Y-101679714D01*
X228599380Y-106079714D02*
X228599380Y-111279714D01*
X228599380Y-102379714D02*
X228599380Y-101979714D01*
X242599380Y-114979714D02*
X242599380Y-115379714D01*
X242299380Y-101679714D02*
G75*
G02X242599380Y-101979714I0J-300000D01*
G01*
X243599380Y-105579714D02*
G75*
G02X243399380Y-105779714I-200000J0D01*
G01*
X242599380Y-106079714D02*
G75*
G02X242899380Y-105779714I300000J0D01*
G01*
X242899380Y-102679714D02*
X243299380Y-102679714D01*
X243599380Y-105579714D02*
X243599380Y-102979714D01*
X243399380Y-105779714D02*
X242899380Y-105779714D01*
X242599380Y-111279714D02*
X242599380Y-106079714D01*
X242599380Y-115379714D02*
G75*
G02X242299380Y-115679714I-300000J0D01*
G01*
X242899380Y-102679714D02*
G75*
G02X242599380Y-102379714I0J300000D01*
G01*
X243299380Y-102679714D02*
G75*
G02X243599380Y-102979714I0J-300000D01*
G01*
X242599380Y-101979714D02*
X242599380Y-102379714D01*
X242899380Y-111579714D02*
G75*
G02X242599380Y-111279714I0J300000D01*
G01*
X243299380Y-111579714D02*
G75*
G02X243599380Y-111879714I0J-300000D01*
G01*
X243399380Y-114679714D02*
X242899380Y-114679714D01*
X243599380Y-114479714D02*
X243599380Y-111879714D01*
X242899380Y-111579714D02*
X243299380Y-111579714D01*
X242599380Y-114979714D02*
G75*
G02X242899380Y-114679714I300000J0D01*
G01*
X243599380Y-114479714D02*
G75*
G02X243399380Y-114679714I-200000J0D01*
G01*
X227599380Y-111779714D02*
G75*
G02X227799380Y-111579714I200000J0D01*
G01*
X228599380Y-111279714D02*
G75*
G02X228299380Y-111579714I-300000J0D01*
G01*
X228299380Y-114679714D02*
X227899380Y-114679714D01*
X227599380Y-111779714D02*
X227599380Y-114379714D01*
X227799380Y-111579714D02*
X228299380Y-111579714D01*
X227899380Y-114679714D02*
G75*
G02X227599380Y-114379714I0J300000D01*
G01*
X228299380Y-114679714D02*
G75*
G02X228599380Y-114979714I0J-300000D01*
G01*
X227799380Y-102679714D02*
X228299380Y-102679714D01*
X228299380Y-105779714D02*
X227899380Y-105779714D01*
X227599380Y-102879714D02*
X227599380Y-105479714D01*
X228599380Y-102379714D02*
G75*
G02X228299380Y-102679714I-300000J0D01*
G01*
X228299380Y-105779714D02*
G75*
G02X228599380Y-106079714I0J-300000D01*
G01*
X227899380Y-105779714D02*
G75*
G02X227599380Y-105479714I0J300000D01*
G01*
X227599380Y-102879714D02*
G75*
G02X227799380Y-102679714I200000J0D01*
G01*
X261299330Y-115679714D02*
X247899330Y-115679714D01*
X247899330Y-115679714D02*
G75*
G02X247599330Y-115379714I0J300000D01*
G01*
X247599330Y-115379714D02*
X247599330Y-114979714D01*
X247599330Y-101979714D02*
G75*
G02X247899330Y-101679714I300000J0D01*
G01*
X261299330Y-101679714D02*
X247899330Y-101679714D01*
X247599330Y-106079714D02*
X247599330Y-111279714D01*
X247599330Y-102379714D02*
X247599330Y-101979714D01*
X261599330Y-114979714D02*
X261599330Y-115379714D01*
X261299330Y-101679714D02*
G75*
G02X261599330Y-101979714I0J-300000D01*
G01*
X262599330Y-105579714D02*
G75*
G02X262399330Y-105779714I-200000J0D01*
G01*
X261599330Y-106079714D02*
G75*
G02X261899330Y-105779714I300000J0D01*
G01*
X261899330Y-102679714D02*
X262299330Y-102679714D01*
X262599330Y-105579714D02*
X262599330Y-102979714D01*
X262399330Y-105779714D02*
X261899330Y-105779714D01*
X261599330Y-111279714D02*
X261599330Y-106079714D01*
X261599330Y-115379714D02*
G75*
G02X261299330Y-115679714I-300000J0D01*
G01*
X261899330Y-102679714D02*
G75*
G02X261599330Y-102379714I0J300000D01*
G01*
X262299330Y-102679714D02*
G75*
G02X262599330Y-102979714I0J-300000D01*
G01*
X261599330Y-101979714D02*
X261599330Y-102379714D01*
X261899330Y-111579714D02*
G75*
G02X261599330Y-111279714I0J300000D01*
G01*
X262299330Y-111579714D02*
G75*
G02X262599330Y-111879714I0J-300000D01*
G01*
X262399330Y-114679714D02*
X261899330Y-114679714D01*
X262599330Y-114479714D02*
X262599330Y-111879714D01*
X261899330Y-111579714D02*
X262299330Y-111579714D01*
X261599330Y-114979714D02*
G75*
G02X261899330Y-114679714I300000J0D01*
G01*
X262599330Y-114479714D02*
G75*
G02X262399330Y-114679714I-200000J0D01*
G01*
X246599330Y-111779714D02*
G75*
G02X246799330Y-111579714I200000J0D01*
G01*
X247599330Y-111279714D02*
G75*
G02X247299330Y-111579714I-300000J0D01*
G01*
X247299330Y-114679714D02*
X246899330Y-114679714D01*
X246599330Y-111779714D02*
X246599330Y-114379714D01*
X246799330Y-111579714D02*
X247299330Y-111579714D01*
X246899330Y-114679714D02*
G75*
G02X246599330Y-114379714I0J300000D01*
G01*
X247299330Y-114679714D02*
G75*
G02X247599330Y-114979714I0J-300000D01*
G01*
X246799330Y-102679714D02*
X247299330Y-102679714D01*
X247299330Y-105779714D02*
X246899330Y-105779714D01*
X246599330Y-102879714D02*
X246599330Y-105479714D01*
X247599330Y-102379714D02*
G75*
G02X247299330Y-102679714I-300000J0D01*
G01*
X247299330Y-105779714D02*
G75*
G02X247599330Y-106079714I0J-300000D01*
G01*
X246899330Y-105779714D02*
G75*
G02X246599330Y-105479714I0J300000D01*
G01*
X246599330Y-102879714D02*
G75*
G02X246799330Y-102679714I200000J0D01*
G01*
X280299280Y-115679714D02*
X266899280Y-115679714D01*
X266899280Y-115679714D02*
G75*
G02X266599280Y-115379714I0J300000D01*
G01*
X266599280Y-115379714D02*
X266599280Y-114979714D01*
X266599280Y-101979714D02*
G75*
G02X266899280Y-101679714I300000J0D01*
G01*
X280299280Y-101679714D02*
X266899280Y-101679714D01*
X266599280Y-106079714D02*
X266599280Y-111279714D01*
X266599280Y-102379714D02*
X266599280Y-101979714D01*
X280599280Y-114979714D02*
X280599280Y-115379714D01*
X280299280Y-101679714D02*
G75*
G02X280599280Y-101979714I0J-300000D01*
G01*
X281599280Y-105579714D02*
G75*
G02X281399280Y-105779714I-200000J0D01*
G01*
X280599280Y-106079714D02*
G75*
G02X280899280Y-105779714I300000J0D01*
G01*
X280899280Y-102679714D02*
X281299280Y-102679714D01*
X281599280Y-105579714D02*
X281599280Y-102979714D01*
X281399280Y-105779714D02*
X280899280Y-105779714D01*
X280599280Y-111279714D02*
X280599280Y-106079714D01*
X280599280Y-115379714D02*
G75*
G02X280299280Y-115679714I-300000J0D01*
G01*
X280899280Y-102679714D02*
G75*
G02X280599280Y-102379714I0J300000D01*
G01*
X281299280Y-102679714D02*
G75*
G02X281599280Y-102979714I0J-300000D01*
G01*
X280599280Y-101979714D02*
X280599280Y-102379714D01*
X280899280Y-111579714D02*
G75*
G02X280599280Y-111279714I0J300000D01*
G01*
X281299280Y-111579714D02*
G75*
G02X281599280Y-111879714I0J-300000D01*
G01*
X281399280Y-114679714D02*
X280899280Y-114679714D01*
X281599280Y-114479714D02*
X281599280Y-111879714D01*
X280899280Y-111579714D02*
X281299280Y-111579714D01*
X280599280Y-114979714D02*
G75*
G02X280899280Y-114679714I300000J0D01*
G01*
X281599280Y-114479714D02*
G75*
G02X281399280Y-114679714I-200000J0D01*
G01*
X265599280Y-111779714D02*
G75*
G02X265799280Y-111579714I200000J0D01*
G01*
X266599280Y-111279714D02*
G75*
G02X266299280Y-111579714I-300000J0D01*
G01*
X266299280Y-114679714D02*
X265899280Y-114679714D01*
X265599280Y-111779714D02*
X265599280Y-114379714D01*
X265799280Y-111579714D02*
X266299280Y-111579714D01*
X265899280Y-114679714D02*
G75*
G02X265599280Y-114379714I0J300000D01*
G01*
X266299280Y-114679714D02*
G75*
G02X266599280Y-114979714I0J-300000D01*
G01*
X265799280Y-102679714D02*
X266299280Y-102679714D01*
X266299280Y-105779714D02*
X265899280Y-105779714D01*
X265599280Y-102879714D02*
X265599280Y-105479714D01*
X266599280Y-102379714D02*
G75*
G02X266299280Y-102679714I-300000J0D01*
G01*
X266299280Y-105779714D02*
G75*
G02X266599280Y-106079714I0J-300000D01*
G01*
X265899280Y-105779714D02*
G75*
G02X265599280Y-105479714I0J300000D01*
G01*
X265599280Y-102879714D02*
G75*
G02X265799280Y-102679714I200000J0D01*
G01*
X299299230Y-115679714D02*
X285899230Y-115679714D01*
X285899230Y-115679714D02*
G75*
G02X285599230Y-115379714I0J300000D01*
G01*
X285599230Y-115379714D02*
X285599230Y-114979714D01*
X285599230Y-101979714D02*
G75*
G02X285899230Y-101679714I300000J0D01*
G01*
X299299230Y-101679714D02*
X285899230Y-101679714D01*
X285599230Y-106079714D02*
X285599230Y-111279714D01*
X285599230Y-102379714D02*
X285599230Y-101979714D01*
X299599230Y-114979714D02*
X299599230Y-115379714D01*
X299299230Y-101679714D02*
G75*
G02X299599230Y-101979714I0J-300000D01*
G01*
X300599230Y-105579714D02*
G75*
G02X300399230Y-105779714I-200000J0D01*
G01*
X299599230Y-106079714D02*
G75*
G02X299899230Y-105779714I300000J0D01*
G01*
X299899230Y-102679714D02*
X300299230Y-102679714D01*
X300599230Y-105579714D02*
X300599230Y-102979714D01*
X300399230Y-105779714D02*
X299899230Y-105779714D01*
X299599230Y-111279714D02*
X299599230Y-106079714D01*
X299599230Y-115379714D02*
G75*
G02X299299230Y-115679714I-300000J0D01*
G01*
X299899230Y-102679714D02*
G75*
G02X299599230Y-102379714I0J300000D01*
G01*
X300299230Y-102679714D02*
G75*
G02X300599230Y-102979714I0J-300000D01*
G01*
X299599230Y-101979714D02*
X299599230Y-102379714D01*
X299899230Y-111579714D02*
G75*
G02X299599230Y-111279714I0J300000D01*
G01*
X300299230Y-111579714D02*
G75*
G02X300599230Y-111879714I0J-300000D01*
G01*
X300399230Y-114679714D02*
X299899230Y-114679714D01*
X300599230Y-114479714D02*
X300599230Y-111879714D01*
X299899230Y-111579714D02*
X300299230Y-111579714D01*
X299599230Y-114979714D02*
G75*
G02X299899230Y-114679714I300000J0D01*
G01*
X300599230Y-114479714D02*
G75*
G02X300399230Y-114679714I-200000J0D01*
G01*
X284599230Y-111779714D02*
G75*
G02X284799230Y-111579714I200000J0D01*
G01*
X285599230Y-111279714D02*
G75*
G02X285299230Y-111579714I-300000J0D01*
G01*
X285299230Y-114679714D02*
X284899230Y-114679714D01*
X284599230Y-111779714D02*
X284599230Y-114379714D01*
X284799230Y-111579714D02*
X285299230Y-111579714D01*
X284899230Y-114679714D02*
G75*
G02X284599230Y-114379714I0J300000D01*
G01*
X285299230Y-114679714D02*
G75*
G02X285599230Y-114979714I0J-300000D01*
G01*
X284799230Y-102679714D02*
X285299230Y-102679714D01*
X285299230Y-105779714D02*
X284899230Y-105779714D01*
X284599230Y-102879714D02*
X284599230Y-105479714D01*
X285599230Y-102379714D02*
G75*
G02X285299230Y-102679714I-300000J0D01*
G01*
X285299230Y-105779714D02*
G75*
G02X285599230Y-106079714I0J-300000D01*
G01*
X284899230Y-105779714D02*
G75*
G02X284599230Y-105479714I0J300000D01*
G01*
X284599230Y-102879714D02*
G75*
G02X284799230Y-102679714I200000J0D01*
G01*
X318299180Y-115679714D02*
X304899180Y-115679714D01*
X304899180Y-115679714D02*
G75*
G02X304599180Y-115379714I0J300000D01*
G01*
X304599180Y-115379714D02*
X304599180Y-114979714D01*
X304599180Y-101979714D02*
G75*
G02X304899180Y-101679714I300000J0D01*
G01*
X318299180Y-101679714D02*
X304899180Y-101679714D01*
X304599180Y-106079714D02*
X304599180Y-111279714D01*
X304599180Y-102379714D02*
X304599180Y-101979714D01*
X318599180Y-114979714D02*
X318599180Y-115379714D01*
X318299180Y-101679714D02*
G75*
G02X318599180Y-101979714I0J-300000D01*
G01*
X319599180Y-105579714D02*
G75*
G02X319399180Y-105779714I-200000J0D01*
G01*
X318599180Y-106079714D02*
G75*
G02X318899180Y-105779714I300000J0D01*
G01*
X318899180Y-102679714D02*
X319299180Y-102679714D01*
X319599180Y-105579714D02*
X319599180Y-102979714D01*
X319399180Y-105779714D02*
X318899180Y-105779714D01*
X318599180Y-111279714D02*
X318599180Y-106079714D01*
X318599180Y-115379714D02*
G75*
G02X318299180Y-115679714I-300000J0D01*
G01*
X318899180Y-102679714D02*
G75*
G02X318599180Y-102379714I0J300000D01*
G01*
X319299180Y-102679714D02*
G75*
G02X319599180Y-102979714I0J-300000D01*
G01*
X318599180Y-101979714D02*
X318599180Y-102379714D01*
X318899180Y-111579714D02*
G75*
G02X318599180Y-111279714I0J300000D01*
G01*
X319299180Y-111579714D02*
G75*
G02X319599180Y-111879714I0J-300000D01*
G01*
X319399180Y-114679714D02*
X318899180Y-114679714D01*
X319599180Y-114479714D02*
X319599180Y-111879714D01*
X318899180Y-111579714D02*
X319299180Y-111579714D01*
X318599180Y-114979714D02*
G75*
G02X318899180Y-114679714I300000J0D01*
G01*
X319599180Y-114479714D02*
G75*
G02X319399180Y-114679714I-200000J0D01*
G01*
X303599180Y-111779714D02*
G75*
G02X303799180Y-111579714I200000J0D01*
G01*
X304599180Y-111279714D02*
G75*
G02X304299180Y-111579714I-300000J0D01*
G01*
X304299180Y-114679714D02*
X303899180Y-114679714D01*
X303599180Y-111779714D02*
X303599180Y-114379714D01*
X303799180Y-111579714D02*
X304299180Y-111579714D01*
X303899180Y-114679714D02*
G75*
G02X303599180Y-114379714I0J300000D01*
G01*
X304299180Y-114679714D02*
G75*
G02X304599180Y-114979714I0J-300000D01*
G01*
X303799180Y-102679714D02*
X304299180Y-102679714D01*
X304299180Y-105779714D02*
X303899180Y-105779714D01*
X303599180Y-102879714D02*
X303599180Y-105479714D01*
X304599180Y-102379714D02*
G75*
G02X304299180Y-102679714I-300000J0D01*
G01*
X304299180Y-105779714D02*
G75*
G02X304599180Y-106079714I0J-300000D01*
G01*
X303899180Y-105779714D02*
G75*
G02X303599180Y-105479714I0J300000D01*
G01*
X303599180Y-102879714D02*
G75*
G02X303799180Y-102679714I200000J0D01*
G01*
X337299130Y-115679714D02*
X323899130Y-115679714D01*
X323899130Y-115679714D02*
G75*
G02X323599130Y-115379714I0J300000D01*
G01*
X323599130Y-115379714D02*
X323599130Y-114979714D01*
X323599130Y-101979714D02*
G75*
G02X323899130Y-101679714I300000J0D01*
G01*
X337299130Y-101679714D02*
X323899130Y-101679714D01*
X323599130Y-106079714D02*
X323599130Y-111279714D01*
X323599130Y-102379714D02*
X323599130Y-101979714D01*
X337599130Y-114979714D02*
X337599130Y-115379714D01*
X337299130Y-101679714D02*
G75*
G02X337599130Y-101979714I0J-300000D01*
G01*
X338599130Y-105579714D02*
G75*
G02X338399130Y-105779714I-200000J0D01*
G01*
X337599130Y-106079714D02*
G75*
G02X337899130Y-105779714I300000J0D01*
G01*
X337899130Y-102679714D02*
X338299130Y-102679714D01*
X338599130Y-105579714D02*
X338599130Y-102979714D01*
X338399130Y-105779714D02*
X337899130Y-105779714D01*
X337599130Y-111279714D02*
X337599130Y-106079714D01*
X337599130Y-115379714D02*
G75*
G02X337299130Y-115679714I-300000J0D01*
G01*
X337899130Y-102679714D02*
G75*
G02X337599130Y-102379714I0J300000D01*
G01*
X338299130Y-102679714D02*
G75*
G02X338599130Y-102979714I0J-300000D01*
G01*
X337599130Y-101979714D02*
X337599130Y-102379714D01*
X337899130Y-111579714D02*
G75*
G02X337599130Y-111279714I0J300000D01*
G01*
X338299130Y-111579714D02*
G75*
G02X338599130Y-111879714I0J-300000D01*
G01*
X338399130Y-114679714D02*
X337899130Y-114679714D01*
X338599130Y-114479714D02*
X338599130Y-111879714D01*
X337899130Y-111579714D02*
X338299130Y-111579714D01*
X337599130Y-114979714D02*
G75*
G02X337899130Y-114679714I300000J0D01*
G01*
X338599130Y-114479714D02*
G75*
G02X338399130Y-114679714I-200000J0D01*
G01*
X322599130Y-111779714D02*
G75*
G02X322799130Y-111579714I200000J0D01*
G01*
X323599130Y-111279714D02*
G75*
G02X323299130Y-111579714I-300000J0D01*
G01*
X323299130Y-114679714D02*
X322899130Y-114679714D01*
X322599130Y-111779714D02*
X322599130Y-114379714D01*
X322799130Y-111579714D02*
X323299130Y-111579714D01*
X322899130Y-114679714D02*
G75*
G02X322599130Y-114379714I0J300000D01*
G01*
X323299130Y-114679714D02*
G75*
G02X323599130Y-114979714I0J-300000D01*
G01*
X322799130Y-102679714D02*
X323299130Y-102679714D01*
X323299130Y-105779714D02*
X322899130Y-105779714D01*
X322599130Y-102879714D02*
X322599130Y-105479714D01*
X323599130Y-102379714D02*
G75*
G02X323299130Y-102679714I-300000J0D01*
G01*
X323299130Y-105779714D02*
G75*
G02X323599130Y-106079714I0J-300000D01*
G01*
X322899130Y-105779714D02*
G75*
G02X322599130Y-105479714I0J300000D01*
G01*
X322599130Y-102879714D02*
G75*
G02X322799130Y-102679714I200000J0D01*
G01*
X356299080Y-115679714D02*
X342899080Y-115679714D01*
X342899080Y-115679714D02*
G75*
G02X342599080Y-115379714I0J300000D01*
G01*
X342599080Y-115379714D02*
X342599080Y-114979714D01*
X342599080Y-101979714D02*
G75*
G02X342899080Y-101679714I300000J0D01*
G01*
X356299080Y-101679714D02*
X342899080Y-101679714D01*
X342599080Y-106079714D02*
X342599080Y-111279714D01*
X342599080Y-102379714D02*
X342599080Y-101979714D01*
X356599080Y-114979714D02*
X356599080Y-115379714D01*
X356299080Y-101679714D02*
G75*
G02X356599080Y-101979714I0J-300000D01*
G01*
X357599080Y-105579714D02*
G75*
G02X357399080Y-105779714I-200000J0D01*
G01*
X356599080Y-106079714D02*
G75*
G02X356899080Y-105779714I300000J0D01*
G01*
X356899080Y-102679714D02*
X357299080Y-102679714D01*
X357599080Y-105579714D02*
X357599080Y-102979714D01*
X357399080Y-105779714D02*
X356899080Y-105779714D01*
X356599080Y-111279714D02*
X356599080Y-106079714D01*
X356599080Y-115379714D02*
G75*
G02X356299080Y-115679714I-300000J0D01*
G01*
X356899080Y-102679714D02*
G75*
G02X356599080Y-102379714I0J300000D01*
G01*
X357299080Y-102679714D02*
G75*
G02X357599080Y-102979714I0J-300000D01*
G01*
X356599080Y-101979714D02*
X356599080Y-102379714D01*
X356899080Y-111579714D02*
G75*
G02X356599080Y-111279714I0J300000D01*
G01*
X357299080Y-111579714D02*
G75*
G02X357599080Y-111879714I0J-300000D01*
G01*
X357399080Y-114679714D02*
X356899080Y-114679714D01*
X357599080Y-114479714D02*
X357599080Y-111879714D01*
X356899080Y-111579714D02*
X357299080Y-111579714D01*
X356599080Y-114979714D02*
G75*
G02X356899080Y-114679714I300000J0D01*
G01*
X357599080Y-114479714D02*
G75*
G02X357399080Y-114679714I-200000J0D01*
G01*
X341599080Y-111779714D02*
G75*
G02X341799080Y-111579714I200000J0D01*
G01*
X342599080Y-111279714D02*
G75*
G02X342299080Y-111579714I-300000J0D01*
G01*
X342299080Y-114679714D02*
X341899080Y-114679714D01*
X341599080Y-111779714D02*
X341599080Y-114379714D01*
X341799080Y-111579714D02*
X342299080Y-111579714D01*
X341899080Y-114679714D02*
G75*
G02X341599080Y-114379714I0J300000D01*
G01*
X342299080Y-114679714D02*
G75*
G02X342599080Y-114979714I0J-300000D01*
G01*
X341799080Y-102679714D02*
X342299080Y-102679714D01*
X342299080Y-105779714D02*
X341899080Y-105779714D01*
X341599080Y-102879714D02*
X341599080Y-105479714D01*
X342599080Y-102379714D02*
G75*
G02X342299080Y-102679714I-300000J0D01*
G01*
X342299080Y-105779714D02*
G75*
G02X342599080Y-106079714I0J-300000D01*
G01*
X341899080Y-105779714D02*
G75*
G02X341599080Y-105479714I0J300000D01*
G01*
X341599080Y-102879714D02*
G75*
G02X341799080Y-102679714I200000J0D01*
G01*
M02*
