G04 #@! TF.GenerationSoftware,KiCad,Pcbnew,(5.1.2-1)-1*
G04 #@! TF.CreationDate,2020-02-22T14:07:28-06:00*
G04 #@! TF.ProjectId,therick64BASP_top_plate,74686572-6963-46b3-9634-424153505f74,rev?*
G04 #@! TF.SameCoordinates,Original*
G04 #@! TF.FileFunction,Soldermask,Bot*
G04 #@! TF.FilePolarity,Negative*
%FSLAX46Y46*%
G04 Gerber Fmt 4.6, Leading zero omitted, Abs format (unit mm)*
G04 Created by KiCad (PCBNEW (5.1.2-1)-1) date 2020-02-22 14:07:28*
%MOMM*%
%LPD*%
G04 APERTURE LIST*
%ADD10C,0.100000*%
G04 APERTURE END LIST*
D10*
G36*
X131231207Y-101246070D02*
G01*
X131313282Y-101280067D01*
X131313284Y-101280068D01*
X131350468Y-101304914D01*
X131387150Y-101329424D01*
X131449970Y-101392244D01*
X131499327Y-101466112D01*
X131533324Y-101548187D01*
X131550655Y-101635318D01*
X131550655Y-101724160D01*
X131533324Y-101811291D01*
X131499327Y-101893366D01*
X131499326Y-101893368D01*
X131449969Y-101967235D01*
X131387151Y-102030053D01*
X131313284Y-102079410D01*
X131313283Y-102079411D01*
X131313282Y-102079411D01*
X131231207Y-102113408D01*
X131144076Y-102130739D01*
X131055234Y-102130739D01*
X130968103Y-102113408D01*
X130886028Y-102079411D01*
X130886027Y-102079411D01*
X130886026Y-102079410D01*
X130812159Y-102030053D01*
X130749341Y-101967235D01*
X130699984Y-101893368D01*
X130699983Y-101893366D01*
X130665986Y-101811291D01*
X130648655Y-101724160D01*
X130648655Y-101635318D01*
X130665986Y-101548187D01*
X130699983Y-101466112D01*
X130749340Y-101392244D01*
X130812160Y-101329424D01*
X130848842Y-101304914D01*
X130886026Y-101280068D01*
X130886028Y-101280067D01*
X130968103Y-101246070D01*
X131055234Y-101228739D01*
X131144076Y-101228739D01*
X131231207Y-101246070D01*
X131231207Y-101246070D01*
G37*
G36*
X302548108Y-96922952D02*
G01*
X302770382Y-96967165D01*
X303189137Y-97140619D01*
X303566007Y-97392435D01*
X303886509Y-97712937D01*
X304138325Y-98089807D01*
X304311779Y-98508562D01*
X304400205Y-98953110D01*
X304400205Y-99406368D01*
X304311779Y-99850916D01*
X304138325Y-100269671D01*
X303886509Y-100646541D01*
X303566007Y-100967043D01*
X303189137Y-101218859D01*
X302770382Y-101392313D01*
X302548108Y-101436526D01*
X302325835Y-101480739D01*
X301872575Y-101480739D01*
X301650302Y-101436526D01*
X301428028Y-101392313D01*
X301009273Y-101218859D01*
X300632403Y-100967043D01*
X300311901Y-100646541D01*
X300060085Y-100269671D01*
X299886631Y-99850916D01*
X299798205Y-99406368D01*
X299798205Y-98953110D01*
X299886631Y-98508562D01*
X300060085Y-98089807D01*
X300311901Y-97712937D01*
X300632403Y-97392435D01*
X301009273Y-97140619D01*
X301428028Y-96967165D01*
X301650302Y-96922952D01*
X301872575Y-96878739D01*
X302325835Y-96878739D01*
X302548108Y-96922952D01*
X302548108Y-96922952D01*
G37*
G36*
X188548408Y-96922952D02*
G01*
X188770682Y-96967165D01*
X189189437Y-97140619D01*
X189566307Y-97392435D01*
X189886809Y-97712937D01*
X190138625Y-98089807D01*
X190312079Y-98508562D01*
X190400505Y-98953110D01*
X190400505Y-99406368D01*
X190312079Y-99850916D01*
X190138625Y-100269671D01*
X189886809Y-100646541D01*
X189566307Y-100967043D01*
X189189437Y-101218859D01*
X188770682Y-101392313D01*
X188548408Y-101436526D01*
X188326135Y-101480739D01*
X187872875Y-101480739D01*
X187650602Y-101436526D01*
X187428328Y-101392313D01*
X187009573Y-101218859D01*
X186632703Y-100967043D01*
X186312201Y-100646541D01*
X186060385Y-100269671D01*
X185886931Y-99850916D01*
X185798505Y-99406368D01*
X185798505Y-98953110D01*
X185886931Y-98508562D01*
X186060385Y-98089807D01*
X186312201Y-97712937D01*
X186632703Y-97392435D01*
X187009573Y-97140619D01*
X187428328Y-96967165D01*
X187650602Y-96922952D01*
X187872875Y-96878739D01*
X188326135Y-96878739D01*
X188548408Y-96922952D01*
X188548408Y-96922952D01*
G37*
G36*
X103428632Y-96922952D02*
G01*
X103650906Y-96967165D01*
X104069661Y-97140619D01*
X104446531Y-97392435D01*
X104767033Y-97712937D01*
X105018849Y-98089807D01*
X105192303Y-98508562D01*
X105280729Y-98953110D01*
X105280729Y-99406368D01*
X105192303Y-99850916D01*
X105018849Y-100269671D01*
X104767033Y-100646541D01*
X104446531Y-100967043D01*
X104069661Y-101218859D01*
X103650906Y-101392313D01*
X103428632Y-101436526D01*
X103206359Y-101480739D01*
X102753099Y-101480739D01*
X102530826Y-101436526D01*
X102308552Y-101392313D01*
X101889797Y-101218859D01*
X101512927Y-100967043D01*
X101192425Y-100646541D01*
X100940609Y-100269671D01*
X100767155Y-99850916D01*
X100678729Y-99406368D01*
X100678729Y-98953110D01*
X100767155Y-98508562D01*
X100940609Y-98089807D01*
X101192425Y-97712937D01*
X101512927Y-97392435D01*
X101889797Y-97140619D01*
X102308552Y-96967165D01*
X102530826Y-96922952D01*
X102753099Y-96878739D01*
X103206359Y-96878739D01*
X103428632Y-96922952D01*
X103428632Y-96922952D01*
G37*
G36*
X65428732Y-96922952D02*
G01*
X65651006Y-96967165D01*
X66069761Y-97140619D01*
X66446631Y-97392435D01*
X66767133Y-97712937D01*
X67018949Y-98089807D01*
X67192403Y-98508562D01*
X67280829Y-98953110D01*
X67280829Y-99406368D01*
X67192403Y-99850916D01*
X67018949Y-100269671D01*
X66767133Y-100646541D01*
X66446631Y-100967043D01*
X66069761Y-101218859D01*
X65651006Y-101392313D01*
X65428732Y-101436526D01*
X65206459Y-101480739D01*
X64753199Y-101480739D01*
X64530926Y-101436526D01*
X64308652Y-101392313D01*
X63889897Y-101218859D01*
X63513027Y-100967043D01*
X63192525Y-100646541D01*
X62940709Y-100269671D01*
X62767255Y-99850916D01*
X62678829Y-99406368D01*
X62678829Y-98953110D01*
X62767255Y-98508562D01*
X62940709Y-98089807D01*
X63192525Y-97712937D01*
X63513027Y-97392435D01*
X63889897Y-97140619D01*
X64308652Y-96967165D01*
X64530926Y-96922952D01*
X64753199Y-96878739D01*
X65206459Y-96878739D01*
X65428732Y-96922952D01*
X65428732Y-96922952D01*
G37*
G36*
X131231207Y-99996070D02*
G01*
X131313282Y-100030067D01*
X131313284Y-100030068D01*
X131350468Y-100054914D01*
X131387150Y-100079424D01*
X131449970Y-100142244D01*
X131499327Y-100216112D01*
X131533324Y-100298187D01*
X131550655Y-100385318D01*
X131550655Y-100474160D01*
X131533324Y-100561291D01*
X131499327Y-100643366D01*
X131499326Y-100643368D01*
X131449969Y-100717235D01*
X131387151Y-100780053D01*
X131313284Y-100829410D01*
X131313283Y-100829411D01*
X131313282Y-100829411D01*
X131231207Y-100863408D01*
X131144076Y-100880739D01*
X131055234Y-100880739D01*
X130968103Y-100863408D01*
X130886028Y-100829411D01*
X130886027Y-100829411D01*
X130886026Y-100829410D01*
X130812159Y-100780053D01*
X130749341Y-100717235D01*
X130699984Y-100643368D01*
X130699983Y-100643366D01*
X130665986Y-100561291D01*
X130648655Y-100474160D01*
X130648655Y-100385318D01*
X130665986Y-100298187D01*
X130699983Y-100216112D01*
X130749340Y-100142244D01*
X130812160Y-100079424D01*
X130848842Y-100054914D01*
X130886026Y-100030068D01*
X130886028Y-100030067D01*
X130968103Y-99996070D01*
X131055234Y-99978739D01*
X131144076Y-99978739D01*
X131231207Y-99996070D01*
X131231207Y-99996070D01*
G37*
G36*
X131231207Y-98746070D02*
G01*
X131313282Y-98780067D01*
X131313284Y-98780068D01*
X131387151Y-98829425D01*
X131449969Y-98892243D01*
X131490640Y-98953110D01*
X131499327Y-98966112D01*
X131533324Y-99048187D01*
X131550655Y-99135318D01*
X131550655Y-99224160D01*
X131533324Y-99311291D01*
X131499327Y-99393366D01*
X131499326Y-99393368D01*
X131449969Y-99467235D01*
X131387151Y-99530053D01*
X131313284Y-99579410D01*
X131313283Y-99579411D01*
X131313282Y-99579411D01*
X131231207Y-99613408D01*
X131144076Y-99630739D01*
X131055234Y-99630739D01*
X130968103Y-99613408D01*
X130886028Y-99579411D01*
X130886027Y-99579411D01*
X130886026Y-99579410D01*
X130812159Y-99530053D01*
X130749341Y-99467235D01*
X130699984Y-99393368D01*
X130699983Y-99393366D01*
X130665986Y-99311291D01*
X130648655Y-99224160D01*
X130648655Y-99135318D01*
X130665986Y-99048187D01*
X130699983Y-98966112D01*
X130708671Y-98953110D01*
X130749341Y-98892243D01*
X130812159Y-98829425D01*
X130886026Y-98780068D01*
X130886028Y-98780067D01*
X130968103Y-98746070D01*
X131055234Y-98728739D01*
X131144076Y-98728739D01*
X131231207Y-98746070D01*
X131231207Y-98746070D01*
G37*
G36*
X131231207Y-97496070D02*
G01*
X131313282Y-97530067D01*
X131313284Y-97530068D01*
X131387151Y-97579425D01*
X131449969Y-97642243D01*
X131497207Y-97712938D01*
X131499327Y-97716112D01*
X131533324Y-97798187D01*
X131550655Y-97885318D01*
X131550655Y-97974160D01*
X131533324Y-98061291D01*
X131521511Y-98089809D01*
X131499326Y-98143368D01*
X131449969Y-98217235D01*
X131387151Y-98280053D01*
X131313284Y-98329410D01*
X131313283Y-98329411D01*
X131313282Y-98329411D01*
X131231207Y-98363408D01*
X131144076Y-98380739D01*
X131055234Y-98380739D01*
X130968103Y-98363408D01*
X130886028Y-98329411D01*
X130886027Y-98329411D01*
X130886026Y-98329410D01*
X130812159Y-98280053D01*
X130749341Y-98217235D01*
X130699984Y-98143368D01*
X130677799Y-98089809D01*
X130665986Y-98061291D01*
X130648655Y-97974160D01*
X130648655Y-97885318D01*
X130665986Y-97798187D01*
X130699983Y-97716112D01*
X130702104Y-97712938D01*
X130749341Y-97642243D01*
X130812159Y-97579425D01*
X130886026Y-97530068D01*
X130886028Y-97530067D01*
X130968103Y-97496070D01*
X131055234Y-97478739D01*
X131144076Y-97478739D01*
X131231207Y-97496070D01*
X131231207Y-97496070D01*
G37*
G36*
X131231207Y-96246070D02*
G01*
X131313282Y-96280067D01*
X131313284Y-96280068D01*
X131350468Y-96304914D01*
X131387150Y-96329424D01*
X131449970Y-96392244D01*
X131499327Y-96466112D01*
X131533324Y-96548187D01*
X131550655Y-96635318D01*
X131550655Y-96724160D01*
X131533324Y-96811291D01*
X131499327Y-96893366D01*
X131499326Y-96893368D01*
X131449969Y-96967235D01*
X131387151Y-97030053D01*
X131313284Y-97079410D01*
X131313283Y-97079411D01*
X131313282Y-97079411D01*
X131231207Y-97113408D01*
X131144076Y-97130739D01*
X131055234Y-97130739D01*
X130968103Y-97113408D01*
X130886028Y-97079411D01*
X130886027Y-97079411D01*
X130886026Y-97079410D01*
X130812159Y-97030053D01*
X130749341Y-96967235D01*
X130699984Y-96893368D01*
X130699983Y-96893366D01*
X130665986Y-96811291D01*
X130648655Y-96724160D01*
X130648655Y-96635318D01*
X130665986Y-96548187D01*
X130699983Y-96466112D01*
X130749340Y-96392244D01*
X130812160Y-96329424D01*
X130848842Y-96304914D01*
X130886026Y-96280068D01*
X130886028Y-96280067D01*
X130968103Y-96246070D01*
X131055234Y-96228739D01*
X131144076Y-96228739D01*
X131231207Y-96246070D01*
X131231207Y-96246070D01*
G37*
G36*
X131231207Y-82246120D02*
G01*
X131313282Y-82280117D01*
X131313284Y-82280118D01*
X131350468Y-82304964D01*
X131387150Y-82329474D01*
X131449970Y-82392294D01*
X131499327Y-82466162D01*
X131533324Y-82548237D01*
X131550655Y-82635368D01*
X131550655Y-82724210D01*
X131533324Y-82811341D01*
X131499327Y-82893416D01*
X131499326Y-82893418D01*
X131449969Y-82967285D01*
X131387151Y-83030103D01*
X131313284Y-83079460D01*
X131313283Y-83079461D01*
X131313282Y-83079461D01*
X131231207Y-83113458D01*
X131144076Y-83130789D01*
X131055234Y-83130789D01*
X130968103Y-83113458D01*
X130886028Y-83079461D01*
X130886027Y-83079461D01*
X130886026Y-83079460D01*
X130812159Y-83030103D01*
X130749341Y-82967285D01*
X130699984Y-82893418D01*
X130699983Y-82893416D01*
X130665986Y-82811341D01*
X130648655Y-82724210D01*
X130648655Y-82635368D01*
X130665986Y-82548237D01*
X130699983Y-82466162D01*
X130749340Y-82392294D01*
X130812160Y-82329474D01*
X130848842Y-82304964D01*
X130886026Y-82280118D01*
X130886028Y-82280117D01*
X130968103Y-82246120D01*
X131055234Y-82228789D01*
X131144076Y-82228789D01*
X131231207Y-82246120D01*
X131231207Y-82246120D01*
G37*
G36*
X340548008Y-77923002D02*
G01*
X340770282Y-77967215D01*
X341189037Y-78140669D01*
X341565907Y-78392485D01*
X341886409Y-78712987D01*
X342138225Y-79089857D01*
X342311679Y-79508612D01*
X342400105Y-79953160D01*
X342400105Y-80406418D01*
X342311679Y-80850966D01*
X342138225Y-81269721D01*
X341886409Y-81646591D01*
X341565907Y-81967093D01*
X341189037Y-82218909D01*
X340770282Y-82392363D01*
X340548008Y-82436576D01*
X340325735Y-82480789D01*
X339872475Y-82480789D01*
X339650202Y-82436576D01*
X339427928Y-82392363D01*
X339009173Y-82218909D01*
X338632303Y-81967093D01*
X338311801Y-81646591D01*
X338059985Y-81269721D01*
X337886531Y-80850966D01*
X337798105Y-80406418D01*
X337798105Y-79953160D01*
X337886531Y-79508612D01*
X338059985Y-79089857D01*
X338311801Y-78712987D01*
X338632303Y-78392485D01*
X339009173Y-78140669D01*
X339427928Y-77967215D01*
X339650202Y-77923002D01*
X339872475Y-77878789D01*
X340325735Y-77878789D01*
X340548008Y-77923002D01*
X340548008Y-77923002D01*
G37*
G36*
X150548508Y-77923002D02*
G01*
X150770782Y-77967215D01*
X151189537Y-78140669D01*
X151566407Y-78392485D01*
X151886909Y-78712987D01*
X152138725Y-79089857D01*
X152312179Y-79508612D01*
X152400605Y-79953160D01*
X152400605Y-80406418D01*
X152312179Y-80850966D01*
X152138725Y-81269721D01*
X151886909Y-81646591D01*
X151566407Y-81967093D01*
X151189537Y-82218909D01*
X150770782Y-82392363D01*
X150548508Y-82436576D01*
X150326235Y-82480789D01*
X149872975Y-82480789D01*
X149650702Y-82436576D01*
X149428428Y-82392363D01*
X149009673Y-82218909D01*
X148632803Y-81967093D01*
X148312301Y-81646591D01*
X148060485Y-81269721D01*
X147887031Y-80850966D01*
X147798605Y-80406418D01*
X147798605Y-79953160D01*
X147887031Y-79508612D01*
X148060485Y-79089857D01*
X148312301Y-78712987D01*
X148632803Y-78392485D01*
X149009673Y-78140669D01*
X149428428Y-77967215D01*
X149650702Y-77923002D01*
X149872975Y-77878789D01*
X150326235Y-77878789D01*
X150548508Y-77923002D01*
X150548508Y-77923002D01*
G37*
G36*
X131231207Y-80996120D02*
G01*
X131313282Y-81030117D01*
X131313284Y-81030118D01*
X131350468Y-81054964D01*
X131387150Y-81079474D01*
X131449970Y-81142294D01*
X131499327Y-81216162D01*
X131533324Y-81298237D01*
X131550655Y-81385368D01*
X131550655Y-81474210D01*
X131533324Y-81561341D01*
X131499327Y-81643416D01*
X131499326Y-81643418D01*
X131449969Y-81717285D01*
X131387151Y-81780103D01*
X131313284Y-81829460D01*
X131313283Y-81829461D01*
X131313282Y-81829461D01*
X131231207Y-81863458D01*
X131144076Y-81880789D01*
X131055234Y-81880789D01*
X130968103Y-81863458D01*
X130886028Y-81829461D01*
X130886027Y-81829461D01*
X130886026Y-81829460D01*
X130812159Y-81780103D01*
X130749341Y-81717285D01*
X130699984Y-81643418D01*
X130699983Y-81643416D01*
X130665986Y-81561341D01*
X130648655Y-81474210D01*
X130648655Y-81385368D01*
X130665986Y-81298237D01*
X130699983Y-81216162D01*
X130749340Y-81142294D01*
X130812160Y-81079474D01*
X130848842Y-81054964D01*
X130886026Y-81030118D01*
X130886028Y-81030117D01*
X130968103Y-80996120D01*
X131055234Y-80978789D01*
X131144076Y-80978789D01*
X131231207Y-80996120D01*
X131231207Y-80996120D01*
G37*
G36*
X131231207Y-79746120D02*
G01*
X131313282Y-79780117D01*
X131313284Y-79780118D01*
X131387151Y-79829475D01*
X131449969Y-79892293D01*
X131490640Y-79953160D01*
X131499327Y-79966162D01*
X131533324Y-80048237D01*
X131550655Y-80135368D01*
X131550655Y-80224210D01*
X131533324Y-80311341D01*
X131499327Y-80393416D01*
X131499326Y-80393418D01*
X131449969Y-80467285D01*
X131387151Y-80530103D01*
X131313284Y-80579460D01*
X131313283Y-80579461D01*
X131313282Y-80579461D01*
X131231207Y-80613458D01*
X131144076Y-80630789D01*
X131055234Y-80630789D01*
X130968103Y-80613458D01*
X130886028Y-80579461D01*
X130886027Y-80579461D01*
X130886026Y-80579460D01*
X130812159Y-80530103D01*
X130749341Y-80467285D01*
X130699984Y-80393418D01*
X130699983Y-80393416D01*
X130665986Y-80311341D01*
X130648655Y-80224210D01*
X130648655Y-80135368D01*
X130665986Y-80048237D01*
X130699983Y-79966162D01*
X130708671Y-79953160D01*
X130749341Y-79892293D01*
X130812159Y-79829475D01*
X130886026Y-79780118D01*
X130886028Y-79780117D01*
X130968103Y-79746120D01*
X131055234Y-79728789D01*
X131144076Y-79728789D01*
X131231207Y-79746120D01*
X131231207Y-79746120D01*
G37*
G36*
X131231207Y-78496120D02*
G01*
X131313282Y-78530117D01*
X131313284Y-78530118D01*
X131387151Y-78579475D01*
X131449969Y-78642293D01*
X131497207Y-78712988D01*
X131499327Y-78716162D01*
X131533324Y-78798237D01*
X131550655Y-78885368D01*
X131550655Y-78974210D01*
X131533324Y-79061341D01*
X131521511Y-79089859D01*
X131499326Y-79143418D01*
X131449969Y-79217285D01*
X131387151Y-79280103D01*
X131313284Y-79329460D01*
X131313283Y-79329461D01*
X131313282Y-79329461D01*
X131231207Y-79363458D01*
X131144076Y-79380789D01*
X131055234Y-79380789D01*
X130968103Y-79363458D01*
X130886028Y-79329461D01*
X130886027Y-79329461D01*
X130886026Y-79329460D01*
X130812159Y-79280103D01*
X130749341Y-79217285D01*
X130699984Y-79143418D01*
X130677799Y-79089859D01*
X130665986Y-79061341D01*
X130648655Y-78974210D01*
X130648655Y-78885368D01*
X130665986Y-78798237D01*
X130699983Y-78716162D01*
X130702104Y-78712988D01*
X130749341Y-78642293D01*
X130812159Y-78579475D01*
X130886026Y-78530118D01*
X130886028Y-78530117D01*
X130968103Y-78496120D01*
X131055234Y-78478789D01*
X131144076Y-78478789D01*
X131231207Y-78496120D01*
X131231207Y-78496120D01*
G37*
G36*
X131231207Y-77246120D02*
G01*
X131313282Y-77280117D01*
X131313284Y-77280118D01*
X131350468Y-77304964D01*
X131387150Y-77329474D01*
X131449970Y-77392294D01*
X131499327Y-77466162D01*
X131533324Y-77548237D01*
X131550655Y-77635368D01*
X131550655Y-77724210D01*
X131533324Y-77811341D01*
X131499327Y-77893416D01*
X131499326Y-77893418D01*
X131449969Y-77967285D01*
X131387151Y-78030103D01*
X131313284Y-78079460D01*
X131313283Y-78079461D01*
X131313282Y-78079461D01*
X131231207Y-78113458D01*
X131144076Y-78130789D01*
X131055234Y-78130789D01*
X130968103Y-78113458D01*
X130886028Y-78079461D01*
X130886027Y-78079461D01*
X130886026Y-78079460D01*
X130812159Y-78030103D01*
X130749341Y-77967285D01*
X130699984Y-77893418D01*
X130699983Y-77893416D01*
X130665986Y-77811341D01*
X130648655Y-77724210D01*
X130648655Y-77635368D01*
X130665986Y-77548237D01*
X130699983Y-77466162D01*
X130749340Y-77392294D01*
X130812160Y-77329474D01*
X130848842Y-77304964D01*
X130886026Y-77280118D01*
X130886028Y-77280117D01*
X130968103Y-77246120D01*
X131055234Y-77228789D01*
X131144076Y-77228789D01*
X131231207Y-77246120D01*
X131231207Y-77246120D01*
G37*
G36*
X131231207Y-63246170D02*
G01*
X131313282Y-63280167D01*
X131313284Y-63280168D01*
X131350468Y-63305014D01*
X131387150Y-63329524D01*
X131449970Y-63392344D01*
X131499327Y-63466212D01*
X131533324Y-63548287D01*
X131550655Y-63635418D01*
X131550655Y-63724260D01*
X131533324Y-63811391D01*
X131499327Y-63893466D01*
X131499326Y-63893468D01*
X131449969Y-63967335D01*
X131387151Y-64030153D01*
X131313284Y-64079510D01*
X131313283Y-64079511D01*
X131313282Y-64079511D01*
X131231207Y-64113508D01*
X131144076Y-64130839D01*
X131055234Y-64130839D01*
X130968103Y-64113508D01*
X130886028Y-64079511D01*
X130886027Y-64079511D01*
X130886026Y-64079510D01*
X130812159Y-64030153D01*
X130749341Y-63967335D01*
X130699984Y-63893468D01*
X130699983Y-63893466D01*
X130665986Y-63811391D01*
X130648655Y-63724260D01*
X130648655Y-63635418D01*
X130665986Y-63548287D01*
X130699983Y-63466212D01*
X130749340Y-63392344D01*
X130812160Y-63329524D01*
X130848842Y-63305014D01*
X130886026Y-63280168D01*
X130886028Y-63280167D01*
X130968103Y-63246170D01*
X131055234Y-63228839D01*
X131144076Y-63228839D01*
X131231207Y-63246170D01*
X131231207Y-63246170D01*
G37*
G36*
X65428732Y-58923052D02*
G01*
X65651006Y-58967265D01*
X66069761Y-59140719D01*
X66446631Y-59392535D01*
X66767133Y-59713037D01*
X67018949Y-60089907D01*
X67192403Y-60508662D01*
X67280829Y-60953210D01*
X67280829Y-61406468D01*
X67192403Y-61851016D01*
X67018949Y-62269771D01*
X66767133Y-62646641D01*
X66446631Y-62967143D01*
X66069761Y-63218959D01*
X65651006Y-63392413D01*
X65428732Y-63436626D01*
X65206459Y-63480839D01*
X64753199Y-63480839D01*
X64530926Y-63436626D01*
X64308652Y-63392413D01*
X63889897Y-63218959D01*
X63513027Y-62967143D01*
X63192525Y-62646641D01*
X62940709Y-62269771D01*
X62767255Y-61851016D01*
X62678829Y-61406468D01*
X62678829Y-60953210D01*
X62767255Y-60508662D01*
X62940709Y-60089907D01*
X63192525Y-59713037D01*
X63513027Y-59392535D01*
X63889897Y-59140719D01*
X64308652Y-58967265D01*
X64530926Y-58923052D01*
X64753199Y-58878839D01*
X65206459Y-58878839D01*
X65428732Y-58923052D01*
X65428732Y-58923052D01*
G37*
G36*
X103428632Y-58923052D02*
G01*
X103650906Y-58967265D01*
X104069661Y-59140719D01*
X104446531Y-59392535D01*
X104767033Y-59713037D01*
X105018849Y-60089907D01*
X105192303Y-60508662D01*
X105280729Y-60953210D01*
X105280729Y-61406468D01*
X105192303Y-61851016D01*
X105018849Y-62269771D01*
X104767033Y-62646641D01*
X104446531Y-62967143D01*
X104069661Y-63218959D01*
X103650906Y-63392413D01*
X103428632Y-63436626D01*
X103206359Y-63480839D01*
X102753099Y-63480839D01*
X102530826Y-63436626D01*
X102308552Y-63392413D01*
X101889797Y-63218959D01*
X101512927Y-62967143D01*
X101192425Y-62646641D01*
X100940609Y-62269771D01*
X100767155Y-61851016D01*
X100678729Y-61406468D01*
X100678729Y-60953210D01*
X100767155Y-60508662D01*
X100940609Y-60089907D01*
X101192425Y-59713037D01*
X101512927Y-59392535D01*
X101889797Y-59140719D01*
X102308552Y-58967265D01*
X102530826Y-58923052D01*
X102753099Y-58878839D01*
X103206359Y-58878839D01*
X103428632Y-58923052D01*
X103428632Y-58923052D01*
G37*
G36*
X188548408Y-58923052D02*
G01*
X188770682Y-58967265D01*
X189189437Y-59140719D01*
X189566307Y-59392535D01*
X189886809Y-59713037D01*
X190138625Y-60089907D01*
X190312079Y-60508662D01*
X190400505Y-60953210D01*
X190400505Y-61406468D01*
X190312079Y-61851016D01*
X190138625Y-62269771D01*
X189886809Y-62646641D01*
X189566307Y-62967143D01*
X189189437Y-63218959D01*
X188770682Y-63392413D01*
X188548408Y-63436626D01*
X188326135Y-63480839D01*
X187872875Y-63480839D01*
X187650602Y-63436626D01*
X187428328Y-63392413D01*
X187009573Y-63218959D01*
X186632703Y-62967143D01*
X186312201Y-62646641D01*
X186060385Y-62269771D01*
X185886931Y-61851016D01*
X185798505Y-61406468D01*
X185798505Y-60953210D01*
X185886931Y-60508662D01*
X186060385Y-60089907D01*
X186312201Y-59713037D01*
X186632703Y-59392535D01*
X187009573Y-59140719D01*
X187428328Y-58967265D01*
X187650602Y-58923052D01*
X187872875Y-58878839D01*
X188326135Y-58878839D01*
X188548408Y-58923052D01*
X188548408Y-58923052D01*
G37*
G36*
X302548108Y-58923052D02*
G01*
X302770382Y-58967265D01*
X303189137Y-59140719D01*
X303566007Y-59392535D01*
X303886509Y-59713037D01*
X304138325Y-60089907D01*
X304311779Y-60508662D01*
X304400205Y-60953210D01*
X304400205Y-61406468D01*
X304311779Y-61851016D01*
X304138325Y-62269771D01*
X303886509Y-62646641D01*
X303566007Y-62967143D01*
X303189137Y-63218959D01*
X302770382Y-63392413D01*
X302548108Y-63436626D01*
X302325835Y-63480839D01*
X301872575Y-63480839D01*
X301650302Y-63436626D01*
X301428028Y-63392413D01*
X301009273Y-63218959D01*
X300632403Y-62967143D01*
X300311901Y-62646641D01*
X300060085Y-62269771D01*
X299886631Y-61851016D01*
X299798205Y-61406468D01*
X299798205Y-60953210D01*
X299886631Y-60508662D01*
X300060085Y-60089907D01*
X300311901Y-59713037D01*
X300632403Y-59392535D01*
X301009273Y-59140719D01*
X301428028Y-58967265D01*
X301650302Y-58923052D01*
X301872575Y-58878839D01*
X302325835Y-58878839D01*
X302548108Y-58923052D01*
X302548108Y-58923052D01*
G37*
G36*
X131231207Y-61996170D02*
G01*
X131313282Y-62030167D01*
X131313284Y-62030168D01*
X131350468Y-62055014D01*
X131387150Y-62079524D01*
X131449970Y-62142344D01*
X131499327Y-62216212D01*
X131533324Y-62298287D01*
X131550655Y-62385418D01*
X131550655Y-62474260D01*
X131533324Y-62561391D01*
X131499327Y-62643466D01*
X131499326Y-62643468D01*
X131449969Y-62717335D01*
X131387151Y-62780153D01*
X131313284Y-62829510D01*
X131313283Y-62829511D01*
X131313282Y-62829511D01*
X131231207Y-62863508D01*
X131144076Y-62880839D01*
X131055234Y-62880839D01*
X130968103Y-62863508D01*
X130886028Y-62829511D01*
X130886027Y-62829511D01*
X130886026Y-62829510D01*
X130812159Y-62780153D01*
X130749341Y-62717335D01*
X130699984Y-62643468D01*
X130699983Y-62643466D01*
X130665986Y-62561391D01*
X130648655Y-62474260D01*
X130648655Y-62385418D01*
X130665986Y-62298287D01*
X130699983Y-62216212D01*
X130749340Y-62142344D01*
X130812160Y-62079524D01*
X130848842Y-62055014D01*
X130886026Y-62030168D01*
X130886028Y-62030167D01*
X130968103Y-61996170D01*
X131055234Y-61978839D01*
X131144076Y-61978839D01*
X131231207Y-61996170D01*
X131231207Y-61996170D01*
G37*
G36*
X131231207Y-60746170D02*
G01*
X131313282Y-60780167D01*
X131313284Y-60780168D01*
X131387151Y-60829525D01*
X131449969Y-60892343D01*
X131490640Y-60953210D01*
X131499327Y-60966212D01*
X131533324Y-61048287D01*
X131550655Y-61135418D01*
X131550655Y-61224260D01*
X131533324Y-61311391D01*
X131499327Y-61393466D01*
X131499326Y-61393468D01*
X131449969Y-61467335D01*
X131387151Y-61530153D01*
X131313284Y-61579510D01*
X131313283Y-61579511D01*
X131313282Y-61579511D01*
X131231207Y-61613508D01*
X131144076Y-61630839D01*
X131055234Y-61630839D01*
X130968103Y-61613508D01*
X130886028Y-61579511D01*
X130886027Y-61579511D01*
X130886026Y-61579510D01*
X130812159Y-61530153D01*
X130749341Y-61467335D01*
X130699984Y-61393468D01*
X130699983Y-61393466D01*
X130665986Y-61311391D01*
X130648655Y-61224260D01*
X130648655Y-61135418D01*
X130665986Y-61048287D01*
X130699983Y-60966212D01*
X130708671Y-60953210D01*
X130749341Y-60892343D01*
X130812159Y-60829525D01*
X130886026Y-60780168D01*
X130886028Y-60780167D01*
X130968103Y-60746170D01*
X131055234Y-60728839D01*
X131144076Y-60728839D01*
X131231207Y-60746170D01*
X131231207Y-60746170D01*
G37*
G36*
X131231207Y-59496170D02*
G01*
X131313282Y-59530167D01*
X131313284Y-59530168D01*
X131387151Y-59579525D01*
X131449969Y-59642343D01*
X131497207Y-59713038D01*
X131499327Y-59716212D01*
X131533324Y-59798287D01*
X131550655Y-59885418D01*
X131550655Y-59974260D01*
X131533324Y-60061391D01*
X131521511Y-60089909D01*
X131499326Y-60143468D01*
X131449969Y-60217335D01*
X131387151Y-60280153D01*
X131313284Y-60329510D01*
X131313283Y-60329511D01*
X131313282Y-60329511D01*
X131231207Y-60363508D01*
X131144076Y-60380839D01*
X131055234Y-60380839D01*
X130968103Y-60363508D01*
X130886028Y-60329511D01*
X130886027Y-60329511D01*
X130886026Y-60329510D01*
X130812159Y-60280153D01*
X130749341Y-60217335D01*
X130699984Y-60143468D01*
X130677799Y-60089909D01*
X130665986Y-60061391D01*
X130648655Y-59974260D01*
X130648655Y-59885418D01*
X130665986Y-59798287D01*
X130699983Y-59716212D01*
X130702104Y-59713038D01*
X130749341Y-59642343D01*
X130812159Y-59579525D01*
X130886026Y-59530168D01*
X130886028Y-59530167D01*
X130968103Y-59496170D01*
X131055234Y-59478839D01*
X131144076Y-59478839D01*
X131231207Y-59496170D01*
X131231207Y-59496170D01*
G37*
G36*
X131231207Y-58246170D02*
G01*
X131313282Y-58280167D01*
X131313284Y-58280168D01*
X131350468Y-58305014D01*
X131387150Y-58329524D01*
X131449970Y-58392344D01*
X131499327Y-58466212D01*
X131533324Y-58548287D01*
X131550655Y-58635418D01*
X131550655Y-58724260D01*
X131533324Y-58811391D01*
X131499327Y-58893466D01*
X131499326Y-58893468D01*
X131449969Y-58967335D01*
X131387151Y-59030153D01*
X131313284Y-59079510D01*
X131313283Y-59079511D01*
X131313282Y-59079511D01*
X131231207Y-59113508D01*
X131144076Y-59130839D01*
X131055234Y-59130839D01*
X130968103Y-59113508D01*
X130886028Y-59079511D01*
X130886027Y-59079511D01*
X130886026Y-59079510D01*
X130812159Y-59030153D01*
X130749341Y-58967335D01*
X130699984Y-58893468D01*
X130699983Y-58893466D01*
X130665986Y-58811391D01*
X130648655Y-58724260D01*
X130648655Y-58635418D01*
X130665986Y-58548287D01*
X130699983Y-58466212D01*
X130749340Y-58392344D01*
X130812160Y-58329524D01*
X130848842Y-58305014D01*
X130886026Y-58280168D01*
X130886028Y-58280167D01*
X130968103Y-58246170D01*
X131055234Y-58228839D01*
X131144076Y-58228839D01*
X131231207Y-58246170D01*
X131231207Y-58246170D01*
G37*
M02*
