M48
; DRILL file {KiCad (5.1.2-1)-1} date Saturday, June 06, 2020 at 07:16:34 AM
; FORMAT={-:-/ absolute / inch / decimal}
; #@! TF.CreationDate,2020-06-06T07:16:34-05:00
; #@! TF.GenerationSoftware,Kicad,Pcbnew,(5.1.2-1)-1
; #@! TF.FileFunction,Plated,1,2,PTH
FMAT,2
INCH
T1C0.0098
T2C0.0157
T3C0.0236
T4C0.0420
T5C0.0600
T6C0.0866
%
G90
G05
T1
X3.66Y-3.96
X3.72Y-3.9
X3.85Y-2.63
X4.965Y-2.59
X5.016Y-2.601
X5.205Y-3.925
X5.2481Y-3.9638
X5.8532Y-3.4332
X5.8807Y-3.3742
X5.9257Y-3.4542
X6.175Y-3.41
X6.18Y-1.865
X6.2Y-1.845
X6.2Y-3.41
X6.3057Y-3.1442
X6.3057Y-3.3942
X6.48Y-1.935
X6.62Y-2.685
X6.6402Y-1.9625
X6.6807Y-2.7392
X6.7338Y-2.95
X6.7602Y-1.9625
X6.765Y-2.95
X6.7965Y-2.948
X6.828Y-2.948
X6.8595Y-2.948
X6.891Y-2.948
X6.9052Y-1.9625
X6.9375Y-2.6875
X7.0252Y-1.9625
X7.1Y-2.685
X7.1314Y-3.0907
X7.17Y-1.915
X7.2257Y-3.0242
X7.3Y-2.6625
X7.4031Y-3.0711
X7.4031Y-3.1026
X7.4031Y-3.1341
X7.4031Y-3.1656
X7.4031Y-3.197
X7.5757Y-3.2592
X7.735Y-2.62
T2
X6.5192Y-3.3742
X6.695Y-2.955
X7.0204Y-3.6695
X7.1553Y-3.2797
T4
X9.7992Y-2.2787
X9.7992Y-2.4787
X9.7992Y-2.6787
X9.8152Y-2.1787
X9.8152Y-2.3787
X9.8152Y-2.5787
T5
X12.3323Y-3.7606
X12.5823Y-3.6606
X10.0882Y-4.5087
X10.3382Y-4.4087
X13.8283Y-2.2646
X14.0783Y-2.1646
X7.0961Y-3.7606
X7.3461Y-3.6606
X4.5976Y-3.0126
X4.8476Y-2.9126
X7.8441Y-3.0126
X8.0941Y-2.9126
X9.3401Y-2.2646
X9.5901Y-2.1646
X5.6Y-2.2646
X5.85Y-2.1646
X3.8496Y-4.5087
X4.0996Y-4.4087
X12.3323Y-4.5087
X12.5823Y-4.4087
X12.3323Y-3.0126
X12.5823Y-2.9126
X7.0961Y-4.5087
X7.3461Y-4.4087
X10.0882Y-2.2646
X10.3382Y-2.1646
X5.6Y-3.7606
X5.85Y-3.6606
X11.5843Y-2.2646
X11.8343Y-2.1646
X10.8362Y-3.7606
X11.0862Y-3.6606
X4.5976Y-3.7606
X4.8476Y-3.6606
X2.3535Y-3.0126
X2.6035Y-2.9126
X13.0803Y-3.7606
X13.3303Y-3.6606
X13.8283Y-3.7606
X14.0783Y-3.6606
X7.8441Y-3.7606
X8.0941Y-3.6606
X8.5921Y-2.2646
X8.8421Y-2.1646
X2.3535Y-3.7606
X2.6035Y-3.6606
X8.5921Y-3.0126
X8.8421Y-2.9126
X11.5842Y-4.5087
X11.8342Y-4.4087
X10.0882Y-3.0126
X10.3382Y-2.9126
X5.6Y-3.0126
X5.85Y-2.9126
X6.348Y-2.2646
X6.598Y-2.1646
X13.0803Y-4.5087
X13.3303Y-4.4087
X13.0803Y-3.0126
X13.3303Y-2.9126
X3.8496Y-2.2646
X4.0996Y-2.1646
X7.8441Y-4.5087
X8.0941Y-4.4087
X10.8362Y-4.5087
X11.0862Y-4.4087
X12.3323Y-2.2646
X12.5823Y-2.1646
X2.3535Y-4.5087
X2.6035Y-4.4087
X3.1016Y-3.0126
X3.3516Y-2.9126
X2.3535Y-2.2646
X2.6035Y-2.1646
X13.8283Y-4.5087
X14.0783Y-4.4087
X6.348Y-3.7606
X6.598Y-3.6606
X8.5921Y-3.7606
X8.8421Y-3.6606
X9.3402Y-3.0126
X9.5902Y-2.9126
X8.5921Y-4.5087
X8.8421Y-4.4087
X10.0882Y-3.7606
X10.3382Y-3.6606
X7.0961Y-2.2646
X7.3461Y-2.1646
X5.6Y-4.5087
X5.85Y-4.4087
X6.348Y-3.0126
X6.598Y-2.9126
X10.8362Y-2.2646
X11.0862Y-2.1646
X3.1006Y-3.7611
X3.3506Y-3.6611
X13.0803Y-2.2646
X13.3303Y-2.1646
X3.1016Y-4.5087
X3.3516Y-4.4087
X10.8352Y-3.0131
X11.0852Y-2.9131
X3.8496Y-3.0126
X4.0996Y-2.9126
X4.5976Y-2.2646
X4.8476Y-2.1646
X7.0961Y-3.0126
X7.3461Y-2.9126
X11.5843Y-3.0126
X11.8343Y-2.9126
X13.8283Y-3.0126
X14.0783Y-2.9126
X11.5842Y-3.7606
X11.8342Y-3.6606
X9.3401Y-4.5087
X9.5901Y-4.4087
X4.5976Y-4.5087
X4.8476Y-4.4087
X7.8441Y-2.2646
X8.0941Y-2.1646
X6.348Y-4.5087
X6.598Y-4.4087
X9.3401Y-3.7606
X9.5901Y-3.6606
X3.1016Y-2.2646
X3.3516Y-2.1646
X3.8496Y-3.7606
X4.0996Y-3.6606
T6
X6.074Y-3.1866
X7.5701Y-2.4386
X7.5701Y-3.9346
X12.0583Y-2.4386
X12.0583Y-3.9346
X13.5543Y-3.1866
X4.3236Y-2.4386
X2.8276Y-2.4386
X4.3236Y-3.9346
X5.0716Y-2.4386
X2.8276Y-3.9346
X5.0716Y-3.9346
X6.074Y-2.4386
X6.074Y-3.9346
X11.3102Y-3.9346
X8.3181Y-3.9346
X8.3181Y-2.4386
X11.3102Y-2.4386
X13.5543Y-3.9346
X13.5543Y-2.4386
T3
G00X6.6528Y-1.6988
M15
G01X6.6528Y-1.7224
M16
G05
G00X6.6528Y-1.8543
M15
G01X6.6528Y-1.8976
M16
G05
G00X6.9913Y-1.6988
M15
G01X6.9913Y-1.7224
M16
G05
G00X6.9913Y-1.8543
M15
G01X6.9913Y-1.8976
M16
G05
T0
M30
