M48
METRIC
T1C0.250
T2C0.400
T3C0.600
T4C1.000
T5C1.067
T6C1.500
T7C1.525
T8C2.200
%
G90
G05
T1
X92.964Y-100.584
X94.488Y-99.06
X97.79Y-66.802
X126.111Y-65.786
X127.406Y-66.065
X132.207Y-99.695
X133.302Y-100.682
X148.672Y-87.204
X149.371Y-85.704
X150.514Y-87.736
X156.845Y-86.614
X156.972Y-47.371
X157.48Y-46.863
X157.48Y-86.614
X160.166Y-79.862
X160.166Y-86.212
X164.592Y-49.149
X168.148Y-68.199
X168.66Y-49.848
X169.691Y-69.575
X171.037Y-74.93
X171.708Y-49.848
X171.831Y-74.93
X172.631Y-74.878
X173.431Y-74.878
X174.231Y-74.878
X175.031Y-74.878
X175.391Y-49.848
X176.212Y-68.263
X178.439Y-49.848
X180.34Y-68.199
X181.137Y-78.505
X182.118Y-48.641
X183.534Y-76.814
X185.42Y-67.626
X188.037Y-78.005
X188.037Y-78.805
X188.037Y-79.605
X188.037Y-80.405
X188.037Y-81.205
X192.424Y-82.783
X196.469Y-66.548
T2
X165.588Y-85.705
X170.053Y-75.057
X178.319Y-93.205
X181.744Y-83.305
T4
X116.845Y-44.927
X116.845Y-59.427
X119.345Y-44.927
X121.845Y-44.927
X121.845Y-59.427
T5
X248.9Y-57.88
X248.9Y-62.96
X248.9Y-68.04
X249.306Y-55.34
X249.306Y-60.42
X249.306Y-65.5
T7
X199.24Y-76.52
X205.59Y-73.98
X313.239Y-57.52
X319.589Y-54.98
X256.239Y-95.52
X262.589Y-92.98
X180.24Y-57.52
X186.59Y-54.98
X116.78Y-76.52
X123.13Y-73.98
X59.78Y-57.52
X66.13Y-54.98
X275.239Y-95.52
X281.589Y-92.98
X116.78Y-57.52
X123.13Y-54.98
X218.24Y-114.52
X224.59Y-111.98
X294.239Y-114.52
X300.589Y-111.98
X97.78Y-114.52
X104.13Y-111.98
X275.215Y-76.533
X281.565Y-73.993
X142.24Y-114.52
X148.59Y-111.98
X142.24Y-95.52
X148.59Y-92.98
X199.239Y-95.52
X205.589Y-92.98
X256.239Y-57.52
X262.589Y-54.98
X116.78Y-95.52
X123.13Y-92.98
X218.24Y-76.52
X224.59Y-73.98
X59.78Y-76.52
X66.13Y-73.98
X142.24Y-76.52
X148.59Y-73.98
X199.24Y-57.52
X205.59Y-54.98
X116.78Y-114.52
X123.13Y-111.98
X59.78Y-95.52
X66.13Y-92.98
X294.239Y-95.52
X300.589Y-92.98
X237.239Y-114.52
X243.589Y-111.98
X142.24Y-57.52
X148.59Y-54.98
X256.239Y-114.52
X262.589Y-111.98
X294.24Y-76.52
X300.59Y-73.98
X161.24Y-114.52
X167.59Y-111.98
X161.24Y-95.52
X167.59Y-92.98
X218.239Y-95.52
X224.589Y-92.98
X78.78Y-57.52
X85.13Y-54.98
X275.24Y-57.52
X281.59Y-54.98
X59.78Y-114.52
X66.13Y-111.98
X313.239Y-114.52
X319.589Y-111.98
X237.24Y-76.52
X243.59Y-73.98
X313.239Y-95.52
X319.589Y-92.98
X78.78Y-76.52
X85.13Y-73.98
X332.239Y-76.52
X338.589Y-73.98
X161.24Y-76.52
X167.59Y-73.98
X218.239Y-57.52
X224.589Y-54.98
X332.239Y-57.52
X338.589Y-54.98
X351.239Y-95.52
X357.589Y-92.98
X313.239Y-76.52
X319.589Y-73.98
X180.24Y-114.52
X186.59Y-111.98
X78.754Y-95.532
X85.104Y-92.992
X180.24Y-76.52
X186.59Y-73.98
X97.78Y-57.52
X104.13Y-54.98
X294.24Y-57.52
X300.59Y-54.98
X78.78Y-114.52
X85.13Y-111.98
X332.239Y-114.52
X338.589Y-111.98
X161.24Y-57.52
X167.59Y-54.98
X256.239Y-76.52
X262.589Y-73.98
X332.239Y-95.52
X338.589Y-92.98
X97.78Y-76.52
X104.13Y-73.98
X351.239Y-76.52
X357.589Y-73.98
X237.239Y-95.52
X243.589Y-92.98
X275.239Y-114.52
X281.589Y-111.98
X351.239Y-57.52
X357.589Y-54.98
X180.24Y-95.52
X186.59Y-92.98
X351.24Y-114.52
X357.59Y-111.98
X237.239Y-57.52
X243.589Y-54.98
X199.239Y-114.52
X205.589Y-111.98
X97.78Y-95.52
X104.13Y-92.98
T8
X109.82Y-61.94
X109.82Y-99.94
X154.28Y-80.94
X192.28Y-61.94
X192.28Y-99.94
X306.28Y-61.94
X306.28Y-99.94
X344.28Y-80.94
X71.82Y-61.94
X128.82Y-61.94
X71.82Y-99.94
X128.82Y-99.94
X154.28Y-61.94
X154.28Y-99.94
X287.28Y-99.94
X211.28Y-99.94
X211.28Y-61.94
X287.28Y-61.94
X344.28Y-99.94
X344.28Y-61.94
T3
G00X168.98Y-43.149
M15
G01X168.98Y-43.749
M16
G05
G00X168.98Y-47.099
M15
G01X168.98Y-48.199
M16
G05
G00X177.58Y-43.149
M15
G01X177.58Y-43.749
M16
G05
G00X177.58Y-47.099
M15
G01X177.58Y-48.199
M16
G05
T6
G00X113.745Y-51.777
M15
G01X113.745Y-53.077
M16
G05
G00X124.945Y-51.777
M15
G01X124.945Y-53.077
M16
G05
T0
M30
