M48
; DRILL file {KiCad (5.1.2-1)-1} date Saturday, June 06, 2020 at 07:16:34 AM
; FORMAT={-:-/ absolute / inch / decimal}
; #@! TF.CreationDate,2020-06-06T07:16:34-05:00
; #@! TF.GenerationSoftware,Kicad,Pcbnew,(5.1.2-1)-1
; #@! TF.FileFunction,NonPlated,1,2,NPTH
FMAT,2
INCH
T1C0.0256
T2C0.0315
T3C0.0670
T4C0.1570
%
G90
G05
T1
X6.7083Y-1.8542
X6.9358Y-1.8542
T2
X5.3409Y-3.8246
X5.3409Y-3.8796
X5.3409Y-3.9346
X5.3409Y-3.9896
X5.3409Y-4.0446
X3.5905Y-2.3236
X3.5905Y-2.3836
X3.5905Y-2.4386
X3.5905Y-2.4936
X3.5905Y-2.5486
X3.5905Y-3.8246
X3.5905Y-3.8796
X3.5905Y-3.9346
X3.5905Y-3.9896
X3.5905Y-4.0446
X5.3409Y-2.2736
X5.3409Y-2.3286
X5.3409Y-2.3836
X5.3409Y-2.4386
X5.3409Y-2.4936
X5.3409Y-2.5486
X5.3409Y-2.6036
X4.3386Y-2.7325
X4.3386Y-2.7875
X4.3386Y-2.8425
X4.3386Y-2.8975
X4.3386Y-2.9525
X4.3386Y-3.4207
X4.3386Y-3.4757
X4.3386Y-3.5307
X4.3386Y-3.5857
X4.3386Y-3.6407
T3
X2.2535Y-2.8126
X2.6535Y-2.8126
X12.9803Y-3.5606
X13.3803Y-3.5606
X13.7283Y-3.5606
X14.1283Y-3.5606
X7.7441Y-3.5606
X8.1441Y-3.5606
X8.4921Y-2.0646
X8.8921Y-2.0646
X2.2535Y-3.5606
X2.6535Y-3.5606
X8.4921Y-2.8126
X8.8921Y-2.8126
X11.4842Y-4.3087
X11.8842Y-4.3087
X9.9882Y-2.8126
X10.3882Y-2.8126
X5.5Y-2.8126
X5.9Y-2.8126
X6.248Y-2.0646
X6.648Y-2.0646
X12.9803Y-4.3087
X13.3803Y-4.3087
X12.9803Y-2.8126
X13.3803Y-2.8126
X3.7496Y-2.0646
X4.1496Y-2.0646
X7.7441Y-4.3087
X8.1441Y-4.3087
X10.7362Y-4.3087
X11.1362Y-4.3087
X12.2323Y-2.0646
X12.6323Y-2.0646
X2.2535Y-4.3087
X2.6535Y-4.3087
X3.0016Y-2.8126
X3.4016Y-2.8126
X2.2535Y-2.0646
X2.6535Y-2.0646
X13.7283Y-4.3087
X14.1283Y-4.3087
X6.248Y-3.5606
X6.648Y-3.5606
X8.4921Y-3.5606
X8.8921Y-3.5606
X9.2402Y-2.8126
X9.6402Y-2.8126
X8.4921Y-4.3087
X8.8921Y-4.3087
X9.9882Y-3.5606
X10.3882Y-3.5606
X6.9961Y-2.0646
X7.3961Y-2.0646
X5.5Y-4.3087
X5.9Y-4.3087
X6.248Y-2.8126
X6.648Y-2.8126
X10.7362Y-2.0646
X11.1362Y-2.0646
X3.0006Y-3.5611
X3.4006Y-3.5611
X12.9803Y-2.0646
X13.3803Y-2.0646
X3.0016Y-4.3087
X3.4016Y-4.3087
X10.7352Y-2.8131
X11.1352Y-2.8131
X3.7496Y-2.8126
X4.1496Y-2.8126
X4.4976Y-2.0646
X4.8976Y-2.0646
X6.9961Y-2.8126
X7.3961Y-2.8126
X11.4843Y-2.8126
X11.8843Y-2.8126
X13.7283Y-2.8126
X14.1283Y-2.8126
X11.4842Y-3.5606
X11.8842Y-3.5606
X9.2401Y-4.3087
X9.6401Y-4.3087
X4.4976Y-4.3087
X4.8976Y-4.3087
X7.7441Y-2.0646
X8.1441Y-2.0646
X6.248Y-4.3087
X6.648Y-4.3087
X9.2401Y-3.5606
X9.6401Y-3.5606
X3.0016Y-2.0646
X3.4016Y-2.0646
X3.7496Y-3.5606
X4.1496Y-3.5606
X12.2323Y-3.5606
X12.6323Y-3.5606
X9.9882Y-4.3087
X10.3882Y-4.3087
X13.7283Y-2.0646
X14.1283Y-2.0646
X6.9961Y-3.5606
X7.3961Y-3.5606
X4.4976Y-2.8126
X4.8976Y-2.8126
X7.7441Y-2.8126
X8.1441Y-2.8126
X9.2401Y-2.0646
X9.6401Y-2.0646
X5.5Y-2.0646
X5.9Y-2.0646
X3.7496Y-4.3087
X4.1496Y-4.3087
X12.2323Y-4.3087
X12.6323Y-4.3087
X12.2323Y-2.8126
X12.6323Y-2.8126
X6.9961Y-4.3087
X7.3961Y-4.3087
X9.9882Y-2.0646
X10.3882Y-2.0646
X5.5Y-3.5606
X5.9Y-3.5606
X11.4843Y-2.0646
X11.8843Y-2.0646
X10.7362Y-3.5606
X11.1362Y-3.5606
X4.4976Y-3.5606
X4.8976Y-3.5606
T4
X6.448Y-3.5606
X8.6921Y-3.5606
X9.4402Y-2.8126
X8.6921Y-4.3087
X10.1882Y-3.5606
X7.1961Y-2.0646
X5.7Y-4.3087
X6.448Y-2.8126
X10.9362Y-2.0646
X3.2006Y-3.5611
X13.1803Y-2.0646
X3.2016Y-4.3087
X10.9352Y-2.8131
X3.9496Y-2.8126
X4.6976Y-2.0646
X7.1961Y-2.8126
X11.6843Y-2.8126
X13.9283Y-2.8126
X11.6842Y-3.5606
X9.4401Y-4.3087
X4.6976Y-4.3087
X7.9441Y-2.0646
X6.448Y-4.3087
X9.4401Y-3.5606
X3.2016Y-2.0646
X3.9496Y-3.5606
X12.4323Y-3.5606
X10.1882Y-4.3087
X13.9283Y-2.0646
X7.1961Y-3.5606
X4.6976Y-2.8126
X7.9441Y-2.8126
X9.4401Y-2.0646
X5.7Y-2.0646
X3.9496Y-4.3087
X12.4323Y-4.3087
X12.4323Y-2.8126
X7.1961Y-4.3087
X10.1882Y-2.0646
X5.7Y-3.5606
X11.6843Y-2.0646
X10.9362Y-3.5606
X4.6976Y-3.5606
X2.4535Y-2.8126
X13.1803Y-3.5606
X13.9283Y-3.5606
X7.9441Y-3.5606
X8.6921Y-2.0646
X2.4535Y-3.5606
X8.6921Y-2.8126
X11.6842Y-4.3087
X10.1882Y-2.8126
X5.7Y-2.8126
X6.448Y-2.0646
X13.1803Y-4.3087
X13.1803Y-2.8126
X3.9496Y-2.0646
X7.9441Y-4.3087
X10.9362Y-4.3087
X12.4323Y-2.0646
X2.4535Y-4.3087
X3.2016Y-2.8126
X2.4535Y-2.0646
X13.9283Y-4.3087
T0
M30
