G04 #@! TF.GenerationSoftware,KiCad,Pcbnew,(5.1.2-1)-1*
G04 #@! TF.CreationDate,2020-06-05T15:41:12-05:00*
G04 #@! TF.ProjectId,therick48.16SP_bottom_plate,74686572-6963-46b3-9438-2e313653505f,rev?*
G04 #@! TF.SameCoordinates,Original*
G04 #@! TF.FileFunction,Profile,NP*
%FSLAX46Y46*%
G04 Gerber Fmt 4.6, Leading zero omitted, Abs format (unit mm)*
G04 Created by KiCad (PCBNEW (5.1.2-1)-1) date 2020-06-05 15:41:12*
%MOMM*%
%LPD*%
G04 APERTURE LIST*
%ADD10C,0.150000*%
G04 APERTURE END LIST*
D10*
X124259683Y-40659883D02*
X140599615Y-40659744D01*
X105259733Y-40659883D02*
X115139298Y-40659627D01*
X67259823Y-40659893D02*
X96139348Y-40659627D01*
X96139737Y-116659703D02*
X67259991Y-116660000D01*
X115139687Y-116659703D02*
X105260122Y-116659959D01*
X124260072Y-116659959D02*
X140599620Y-116659703D01*
X99939738Y-96519761D02*
G75*
G02X101459732Y-96519747I759997J-1D01*
G01*
X101459348Y-103359729D02*
G75*
G02X99939354Y-103359743I-759997J1D01*
G01*
X99939353Y-96519491D02*
X99939354Y-103359743D01*
X101459733Y-96519746D02*
X101459733Y-103359728D01*
X118939687Y-100319736D02*
G75*
G02X120459681Y-100319722I759997J-1D01*
G01*
X120459298Y-103359474D02*
G75*
G02X118939304Y-103359488I-759997J1D01*
G01*
X118939687Y-100319736D02*
X118939303Y-103359489D01*
X120459683Y-100319736D02*
X120459683Y-103359744D01*
X99939739Y-82459797D02*
G75*
G02X101459733Y-82459783I759997J-1D01*
G01*
X101459734Y-82459760D02*
X101459349Y-88919767D01*
X99939354Y-82459527D02*
X99939354Y-88919766D01*
X101459349Y-88919767D02*
G75*
G02X99939355Y-88919781I-759997J1D01*
G01*
X118939688Y-82459782D02*
G75*
G02X120459682Y-82459768I759997J-1D01*
G01*
X120459683Y-82459783D02*
X120459299Y-94999751D01*
X118939304Y-82459783D02*
X118939305Y-94999765D01*
X120459299Y-94999751D02*
G75*
G02X118939305Y-94999765I-759997J1D01*
G01*
X99939739Y-68399834D02*
G75*
G02X101459733Y-68399820I759997J-1D01*
G01*
X101458965Y-74859789D02*
G75*
G02X99938971Y-74859803I-759997J1D01*
G01*
X99938971Y-68399293D02*
X99938971Y-74859803D01*
X101459734Y-68399745D02*
X101458965Y-74859789D01*
X118939689Y-62319850D02*
G75*
G02X120459683Y-62319836I759997J-1D01*
G01*
X120458915Y-74859804D02*
G75*
G02X118938921Y-74859818I-759997J1D01*
G01*
X118939689Y-62319850D02*
X118938921Y-74859803D01*
X120459683Y-62319836D02*
X120458915Y-74859804D01*
X99939739Y-53959856D02*
G75*
G02X101459733Y-53959842I759997J-1D01*
G01*
X101459348Y-60799826D02*
G75*
G02X99939354Y-60799840I-759997J1D01*
G01*
X99939354Y-53959586D02*
X99939354Y-60799840D01*
X101459733Y-53959842D02*
X101459348Y-60799826D01*
X118939689Y-53959872D02*
G75*
G02X120459683Y-53959858I759997J-1D01*
G01*
X120459298Y-56999850D02*
G75*
G02X118939304Y-56999864I-759997J1D01*
G01*
X118939304Y-53959858D02*
X118939304Y-56999864D01*
X120459298Y-53959858D02*
X120459298Y-56999850D01*
X145919614Y-88919752D02*
G75*
G02X144399620Y-88919766I-759997J1D01*
G01*
X118940456Y-110960095D02*
G75*
G02X120460450Y-110960081I759997J-1D01*
G01*
X118939687Y-112859703D02*
X118939687Y-110959704D01*
X120459683Y-112859703D02*
X120460072Y-110959960D01*
X118939687Y-112859703D02*
G75*
G02X115139687Y-116659703I-3800000J0D01*
G01*
X124260072Y-116659959D02*
G75*
G02X120460072Y-112859959I0J3800000D01*
G01*
X99940506Y-110960095D02*
G75*
G02X101460500Y-110960081I759997J-1D01*
G01*
X99939737Y-112859703D02*
X99939737Y-110959704D01*
X101459733Y-112859703D02*
X101460122Y-110959960D01*
X99939737Y-112859703D02*
G75*
G02X96139737Y-116659703I-3800000J0D01*
G01*
X105260122Y-116659959D02*
G75*
G02X101460122Y-112859959I0J3800000D01*
G01*
X101458964Y-46359491D02*
G75*
G02X99938970Y-46359505I-759997J1D01*
G01*
X101459733Y-44459883D02*
X101459733Y-46359882D01*
X99939737Y-44459883D02*
X99939348Y-46359626D01*
X101459733Y-44459883D02*
G75*
G02X105259733Y-40659883I3800000J0D01*
G01*
X96139348Y-40659627D02*
G75*
G02X99939348Y-44459627I0J-3800000D01*
G01*
X120458914Y-46359879D02*
G75*
G02X118938920Y-46359893I-759997J1D01*
G01*
X120459683Y-44459883D02*
X120458914Y-46359879D01*
X118939298Y-44459627D02*
X118939687Y-46359878D01*
X120459683Y-44459883D02*
G75*
G02X124259683Y-40659883I3800000J0D01*
G01*
X115139298Y-40659627D02*
G75*
G02X118939298Y-44459627I0J-3800000D01*
G01*
X145919231Y-46359879D02*
G75*
G02X144399237Y-46359893I-759997J1D01*
G01*
X144399621Y-53959857D02*
G75*
G02X145919615Y-53959843I759997J-1D01*
G01*
X145919615Y-60799841D02*
G75*
G02X144399621Y-60799855I-759997J1D01*
G01*
X144400005Y-68400090D02*
G75*
G02X145919999Y-68400076I759997J-1D01*
G01*
X145919231Y-74859789D02*
G75*
G02X144399237Y-74859803I-759997J1D01*
G01*
X144400005Y-82460038D02*
G75*
G02X145919999Y-82460024I759997J-1D01*
G01*
X144399621Y-96519745D02*
G75*
G02X145919615Y-96519731I759997J-1D01*
G01*
X144399621Y-110959707D02*
G75*
G02X145919615Y-110959693I759997J-1D01*
G01*
X145919615Y-103359729D02*
G75*
G02X144399621Y-103359743I-759997J1D01*
G01*
X67259991Y-116660000D02*
G75*
G02X63459991Y-112860000I0J3800000D01*
G01*
X63459991Y-44460000D02*
G75*
G02X67259991Y-40660000I3800000J0D01*
G01*
X63459991Y-112860000D02*
X63459991Y-44460000D01*
X145920000Y-68400001D02*
X145919231Y-74859789D01*
X144399237Y-68399549D02*
X144399237Y-74859803D01*
X145919616Y-53959858D02*
X145920000Y-60799840D01*
X144399620Y-53959858D02*
X144399620Y-60799840D01*
X144399615Y-44459744D02*
X144399237Y-46359893D01*
X145920000Y-44460000D02*
X145919231Y-46359879D01*
X145920000Y-96519746D02*
X145919615Y-103359729D01*
X144399620Y-96519746D02*
X144399620Y-103359728D01*
X145920000Y-82460001D02*
X145919614Y-88919752D01*
X144399620Y-82459768D02*
X144399620Y-88919766D01*
X145920000Y-110959708D02*
X145920000Y-112860000D01*
X144399620Y-110959708D02*
X144399620Y-112859707D01*
X373920000Y-112860000D02*
X373920000Y-44460000D01*
X140599615Y-40659744D02*
G75*
G02X144399615Y-44459744I0J-3800000D01*
G01*
X144399620Y-112859703D02*
G75*
G02X140599620Y-116659703I-3800000J0D01*
G01*
X188860000Y-47119876D02*
X188860000Y-40660000D01*
X178979529Y-47119876D02*
X188859529Y-47119876D01*
X178980000Y-40660000D02*
X178980000Y-47119876D01*
X149720000Y-116660000D02*
X370120000Y-116660000D01*
X149720000Y-40660000D02*
X178980000Y-40660000D01*
X370120000Y-40660000D02*
X188860000Y-40660000D01*
X370120000Y-40660000D02*
G75*
G02X373920000Y-44460000I0J-3800000D01*
G01*
X373920000Y-112860000D02*
G75*
G02X370120000Y-116660000I-3800000J0D01*
G01*
X149720000Y-116660000D02*
G75*
G02X145920000Y-112860000I0J3800000D01*
G01*
X145920000Y-44460000D02*
G75*
G02X149720000Y-40660000I3800000J0D01*
G01*
M02*
