M48
METRIC
T1C0.800
%
G90
G05
T1
X145.54Y-104.66
X145.54Y-105.91
X145.54Y-107.16
X145.54Y-108.41
X145.54Y-109.66
X145.54Y-90.22
X145.54Y-91.47
X145.54Y-92.72
X145.54Y-93.97
X145.54Y-95.22
X145.54Y-76.16
X145.54Y-77.41
X145.54Y-78.66
X145.54Y-79.91
X145.54Y-81.16
X120.08Y-104.66
X120.08Y-105.91
X120.08Y-107.16
X120.08Y-108.41
X120.08Y-109.66
X145.54Y-62.1
X145.54Y-63.35
X145.54Y-64.6
X145.54Y-65.85
X145.54Y-67.1
X101.08Y-90.22
X101.08Y-91.47
X101.08Y-92.72
X101.08Y-93.97
X101.08Y-95.22
X101.08Y-62.1
X101.08Y-63.35
X101.08Y-64.6
X101.08Y-65.85
X101.08Y-67.1
X120.08Y-47.66
X120.08Y-48.91
X120.08Y-50.16
X120.08Y-51.41
X120.08Y-52.66
X145.54Y-47.66
X145.54Y-48.91
X145.54Y-50.16
X145.54Y-51.41
X145.54Y-52.66
X101.08Y-76.16
X101.08Y-77.41
X101.08Y-78.66
X101.08Y-79.91
X101.08Y-81.16
X101.08Y-47.66
X101.08Y-48.91
X101.08Y-50.16
X101.08Y-51.41
X101.08Y-52.66
X101.08Y-104.66
X101.08Y-105.91
X101.08Y-107.16
X101.08Y-108.41
X101.08Y-109.66
X120.08Y-76.16
X120.08Y-77.41
X120.08Y-78.66
X120.08Y-79.91
X120.08Y-81.16
T0
M30
