M48
METRIC
T1C0.800
%
G90
G05
T1
X87.02Y-96.68
X87.02Y-97.93
X87.02Y-99.18
X87.02Y-100.43
X87.02Y-101.68
X87.02Y-58.68
X87.02Y-59.93
X87.02Y-61.18
X87.02Y-62.43
X87.02Y-63.68
X131.1Y-96.68
X131.1Y-97.93
X131.1Y-99.18
X131.1Y-100.43
X131.1Y-101.68
X106.02Y-77.68
X106.02Y-78.93
X106.02Y-80.18
X106.02Y-81.43
X106.02Y-82.68
X131.1Y-77.68
X131.1Y-78.93
X131.1Y-80.18
X131.1Y-81.43
X131.1Y-82.68
X87.02Y-77.68
X87.02Y-78.93
X87.02Y-80.18
X87.02Y-81.43
X87.02Y-82.68
X131.1Y-58.68
X131.1Y-59.93
X131.1Y-61.18
X131.1Y-62.43
X131.1Y-63.68
T0
M30
