G04 #@! TF.GenerationSoftware,KiCad,Pcbnew,(5.1.2-1)-1*
G04 #@! TF.CreationDate,2020-05-24T08:14:27-05:00*
G04 #@! TF.ProjectId,therick48.16SP_bottom_plate,74686572-6963-46b3-9438-2e313653505f,rev?*
G04 #@! TF.SameCoordinates,Original*
G04 #@! TF.FileFunction,Legend,Top*
G04 #@! TF.FilePolarity,Positive*
%FSLAX46Y46*%
G04 Gerber Fmt 4.6, Leading zero omitted, Abs format (unit mm)*
G04 Created by KiCad (PCBNEW (5.1.2-1)-1) date 2020-05-24 08:14:27*
%MOMM*%
%LPD*%
G04 APERTURE LIST*
%ADD10C,0.150000*%
G04 APERTURE END LIST*
D10*
X147985324Y-68523333D02*
X147985324Y-68142380D01*
X147651990Y-68380476D02*
X148509133Y-68380476D01*
X148604371Y-68332857D01*
X148651990Y-68237619D01*
X148651990Y-68142380D01*
X148651990Y-67809047D02*
X147651990Y-67809047D01*
X148651990Y-67380476D02*
X148128181Y-67380476D01*
X148032943Y-67428095D01*
X147985324Y-67523333D01*
X147985324Y-67666190D01*
X148032943Y-67761428D01*
X148080562Y-67809047D01*
X148604371Y-66523333D02*
X148651990Y-66618571D01*
X148651990Y-66809047D01*
X148604371Y-66904285D01*
X148509133Y-66951904D01*
X148128181Y-66951904D01*
X148032943Y-66904285D01*
X147985324Y-66809047D01*
X147985324Y-66618571D01*
X148032943Y-66523333D01*
X148128181Y-66475714D01*
X148223419Y-66475714D01*
X148318657Y-66951904D01*
X148651990Y-66047142D02*
X147985324Y-66047142D01*
X148175800Y-66047142D02*
X148080562Y-65999523D01*
X148032943Y-65951904D01*
X147985324Y-65856666D01*
X147985324Y-65761428D01*
X148651990Y-65428095D02*
X147985324Y-65428095D01*
X147651990Y-65428095D02*
X147699610Y-65475714D01*
X147747229Y-65428095D01*
X147699610Y-65380476D01*
X147651990Y-65428095D01*
X147747229Y-65428095D01*
X148604371Y-64523333D02*
X148651990Y-64618571D01*
X148651990Y-64809047D01*
X148604371Y-64904285D01*
X148556752Y-64951904D01*
X148461514Y-64999523D01*
X148175800Y-64999523D01*
X148080562Y-64951904D01*
X148032943Y-64904285D01*
X147985324Y-64809047D01*
X147985324Y-64618571D01*
X148032943Y-64523333D01*
X148651990Y-64094761D02*
X147651990Y-64094761D01*
X148271038Y-63999523D02*
X148651990Y-63713809D01*
X147985324Y-63713809D02*
X148366276Y-64094761D01*
X147985324Y-62856666D02*
X148651990Y-62856666D01*
X147604371Y-63094761D02*
X148318657Y-63332857D01*
X148318657Y-62713809D01*
X148080562Y-62190000D02*
X148032943Y-62285238D01*
X147985324Y-62332857D01*
X147890086Y-62380476D01*
X147842467Y-62380476D01*
X147747229Y-62332857D01*
X147699610Y-62285238D01*
X147651990Y-62190000D01*
X147651990Y-61999523D01*
X147699610Y-61904285D01*
X147747229Y-61856666D01*
X147842467Y-61809047D01*
X147890086Y-61809047D01*
X147985324Y-61856666D01*
X148032943Y-61904285D01*
X148080562Y-61999523D01*
X148080562Y-62190000D01*
X148128181Y-62285238D01*
X148175800Y-62332857D01*
X148271038Y-62380476D01*
X148461514Y-62380476D01*
X148556752Y-62332857D01*
X148604371Y-62285238D01*
X148651990Y-62190000D01*
X148651990Y-61999523D01*
X148604371Y-61904285D01*
X148556752Y-61856666D01*
X148461514Y-61809047D01*
X148271038Y-61809047D01*
X148175800Y-61856666D01*
X148128181Y-61904285D01*
X148080562Y-61999523D01*
X148556752Y-61380476D02*
X148604371Y-61332857D01*
X148651990Y-61380476D01*
X148604371Y-61428095D01*
X148556752Y-61380476D01*
X148651990Y-61380476D01*
X148651990Y-60380476D02*
X148651990Y-60951904D01*
X148651990Y-60666190D02*
X147651990Y-60666190D01*
X147794848Y-60761428D01*
X147890086Y-60856666D01*
X147937705Y-60951904D01*
X147651990Y-59523333D02*
X147651990Y-59713809D01*
X147699610Y-59809047D01*
X147747229Y-59856666D01*
X147890086Y-59951904D01*
X148080562Y-59999523D01*
X148461514Y-59999523D01*
X148556752Y-59951904D01*
X148604371Y-59904285D01*
X148651990Y-59809047D01*
X148651990Y-59618571D01*
X148604371Y-59523333D01*
X148556752Y-59475714D01*
X148461514Y-59428095D01*
X148223419Y-59428095D01*
X148128181Y-59475714D01*
X148080562Y-59523333D01*
X148032943Y-59618571D01*
X148032943Y-59809047D01*
X148080562Y-59904285D01*
X148128181Y-59951904D01*
X148223419Y-59999523D01*
X148604371Y-59047142D02*
X148651990Y-58904285D01*
X148651990Y-58666190D01*
X148604371Y-58570952D01*
X148556752Y-58523333D01*
X148461514Y-58475714D01*
X148366276Y-58475714D01*
X148271038Y-58523333D01*
X148223419Y-58570952D01*
X148175800Y-58666190D01*
X148128181Y-58856666D01*
X148080562Y-58951904D01*
X148032943Y-58999523D01*
X147937705Y-59047142D01*
X147842467Y-59047142D01*
X147747229Y-58999523D01*
X147699610Y-58951904D01*
X147651990Y-58856666D01*
X147651990Y-58618571D01*
X147699610Y-58475714D01*
X148651990Y-58047142D02*
X147651990Y-58047142D01*
X147651990Y-57666190D01*
X147699610Y-57570952D01*
X147747229Y-57523333D01*
X147842467Y-57475714D01*
X147985324Y-57475714D01*
X148080562Y-57523333D01*
X148128181Y-57570952D01*
X148175800Y-57666190D01*
X148175800Y-58047142D01*
X148651990Y-55713809D02*
X148175800Y-56047142D01*
X148651990Y-56285238D02*
X147651990Y-56285238D01*
X147651990Y-55904285D01*
X147699610Y-55809047D01*
X147747229Y-55761428D01*
X147842467Y-55713809D01*
X147985324Y-55713809D01*
X148080562Y-55761428D01*
X148128181Y-55809047D01*
X148175800Y-55904285D01*
X148175800Y-56285238D01*
X148604371Y-54904285D02*
X148651990Y-54999523D01*
X148651990Y-55190000D01*
X148604371Y-55285238D01*
X148509133Y-55332857D01*
X148128181Y-55332857D01*
X148032943Y-55285238D01*
X147985324Y-55190000D01*
X147985324Y-54999523D01*
X148032943Y-54904285D01*
X148128181Y-54856666D01*
X148223419Y-54856666D01*
X148318657Y-55332857D01*
X147985324Y-54523333D02*
X148651990Y-54285238D01*
X147985324Y-54047142D01*
X148651990Y-52380476D02*
X148651990Y-52951904D01*
X148651990Y-52666190D02*
X147651990Y-52666190D01*
X147794848Y-52761428D01*
X147890086Y-52856666D01*
X147937705Y-52951904D01*
X148556752Y-51951904D02*
X148604371Y-51904285D01*
X148651990Y-51951904D01*
X148604371Y-51999523D01*
X148556752Y-51951904D01*
X148651990Y-51951904D01*
X147651990Y-51285238D02*
X147651990Y-51190000D01*
X147699610Y-51094761D01*
X147747229Y-51047142D01*
X147842467Y-50999523D01*
X148032943Y-50951904D01*
X148271038Y-50951904D01*
X148461514Y-50999523D01*
X148556752Y-51047142D01*
X148604371Y-51094761D01*
X148651990Y-51190000D01*
X148651990Y-51285238D01*
X148604371Y-51380476D01*
X148556752Y-51428095D01*
X148461514Y-51475714D01*
X148271038Y-51523333D01*
X148032943Y-51523333D01*
X147842467Y-51475714D01*
X147747229Y-51428095D01*
X147699610Y-51380476D01*
X147651990Y-51285238D01*
X147661380Y-102282047D02*
X148375666Y-102282047D01*
X148518523Y-102329666D01*
X148613761Y-102424904D01*
X148661380Y-102567761D01*
X148661380Y-102663000D01*
X148661380Y-101329666D02*
X148661380Y-101805857D01*
X147661380Y-101805857D01*
X148566142Y-100424904D02*
X148613761Y-100472523D01*
X148661380Y-100615380D01*
X148661380Y-100710619D01*
X148613761Y-100853476D01*
X148518523Y-100948714D01*
X148423285Y-100996333D01*
X148232809Y-101043952D01*
X148089952Y-101043952D01*
X147899476Y-100996333D01*
X147804238Y-100948714D01*
X147709000Y-100853476D01*
X147661380Y-100710619D01*
X147661380Y-100615380D01*
X147709000Y-100472523D01*
X147756619Y-100424904D01*
X147661380Y-99710619D02*
X148375666Y-99710619D01*
X148518523Y-99758238D01*
X148613761Y-99853476D01*
X148661380Y-99996333D01*
X148661380Y-100091571D01*
X148661380Y-98758238D02*
X148661380Y-99234428D01*
X147661380Y-99234428D01*
X148566142Y-97853476D02*
X148613761Y-97901095D01*
X148661380Y-98043952D01*
X148661380Y-98139190D01*
X148613761Y-98282047D01*
X148518523Y-98377285D01*
X148423285Y-98424904D01*
X148232809Y-98472523D01*
X148089952Y-98472523D01*
X147899476Y-98424904D01*
X147804238Y-98377285D01*
X147709000Y-98282047D01*
X147661380Y-98139190D01*
X147661380Y-98043952D01*
X147709000Y-97901095D01*
X147756619Y-97853476D01*
X147661380Y-97139190D02*
X148375666Y-97139190D01*
X148518523Y-97186809D01*
X148613761Y-97282047D01*
X148661380Y-97424904D01*
X148661380Y-97520142D01*
X148661380Y-96186809D02*
X148661380Y-96663000D01*
X147661380Y-96663000D01*
X148566142Y-95282047D02*
X148613761Y-95329666D01*
X148661380Y-95472523D01*
X148661380Y-95567761D01*
X148613761Y-95710619D01*
X148518523Y-95805857D01*
X148423285Y-95853476D01*
X148232809Y-95901095D01*
X148089952Y-95901095D01*
X147899476Y-95853476D01*
X147804238Y-95805857D01*
X147709000Y-95710619D01*
X147661380Y-95567761D01*
X147661380Y-95472523D01*
X147709000Y-95329666D01*
X147756619Y-95282047D01*
X147661380Y-94567761D02*
X148375666Y-94567761D01*
X148518523Y-94615380D01*
X148613761Y-94710619D01*
X148661380Y-94853476D01*
X148661380Y-94948714D01*
X148661380Y-93615380D02*
X148661380Y-94091571D01*
X147661380Y-94091571D01*
X148566142Y-92710619D02*
X148613761Y-92758238D01*
X148661380Y-92901095D01*
X148661380Y-92996333D01*
X148613761Y-93139190D01*
X148518523Y-93234428D01*
X148423285Y-93282047D01*
X148232809Y-93329666D01*
X148089952Y-93329666D01*
X147899476Y-93282047D01*
X147804238Y-93234428D01*
X147709000Y-93139190D01*
X147661380Y-92996333D01*
X147661380Y-92901095D01*
X147709000Y-92758238D01*
X147756619Y-92710619D01*
M02*
