M48
METRIC
T1C0.800
%
G90
G05
T1
X143.64Y-104.66
X143.64Y-105.91
X143.64Y-107.16
X143.64Y-108.41
X143.64Y-109.66
X143.64Y-90.22
X143.64Y-91.47
X143.64Y-92.72
X143.64Y-93.97
X143.64Y-95.22
X143.64Y-76.16
X143.64Y-77.41
X143.64Y-78.66
X143.64Y-79.91
X143.64Y-81.16
X143.64Y-62.1
X143.64Y-63.35
X143.64Y-64.6
X143.64Y-65.85
X143.64Y-67.1
X143.64Y-47.66
X143.64Y-48.91
X143.64Y-50.16
X143.64Y-51.41
X143.64Y-52.66
T0
M30
