G04 #@! TF.GenerationSoftware,KiCad,Pcbnew,(5.1.2-1)-1*
G04 #@! TF.CreationDate,2020-05-23T11:58:42-05:00*
G04 #@! TF.ProjectId,therick48.16SP_bottom_plate,74686572-6963-46b3-9438-2e313653505f,rev?*
G04 #@! TF.SameCoordinates,Original*
G04 #@! TF.FileFunction,Legend,Top*
G04 #@! TF.FilePolarity,Positive*
%FSLAX46Y46*%
G04 Gerber Fmt 4.6, Leading zero omitted, Abs format (unit mm)*
G04 Created by KiCad (PCBNEW (5.1.2-1)-1) date 2020-05-23 11:58:42*
%MOMM*%
%LPD*%
G04 APERTURE LIST*
%ADD10C,0.150000*%
G04 APERTURE END LIST*
D10*
X147985324Y-87874078D02*
X147985324Y-87493126D01*
X147651990Y-87731221D02*
X148509133Y-87731221D01*
X148604371Y-87683602D01*
X148651990Y-87588364D01*
X148651990Y-87493126D01*
X148651990Y-87159793D02*
X147651990Y-87159793D01*
X148651990Y-86731221D02*
X148128181Y-86731221D01*
X148032943Y-86778840D01*
X147985324Y-86874078D01*
X147985324Y-87016935D01*
X148032943Y-87112173D01*
X148080562Y-87159793D01*
X148604371Y-85874078D02*
X148651990Y-85969316D01*
X148651990Y-86159793D01*
X148604371Y-86255031D01*
X148509133Y-86302650D01*
X148128181Y-86302650D01*
X148032943Y-86255031D01*
X147985324Y-86159793D01*
X147985324Y-85969316D01*
X148032943Y-85874078D01*
X148128181Y-85826459D01*
X148223419Y-85826459D01*
X148318657Y-86302650D01*
X148651990Y-85397888D02*
X147985324Y-85397888D01*
X148175800Y-85397888D02*
X148080562Y-85350269D01*
X148032943Y-85302650D01*
X147985324Y-85207412D01*
X147985324Y-85112173D01*
X148651990Y-84778840D02*
X147985324Y-84778840D01*
X147651990Y-84778840D02*
X147699610Y-84826459D01*
X147747229Y-84778840D01*
X147699610Y-84731221D01*
X147651990Y-84778840D01*
X147747229Y-84778840D01*
X148604371Y-83874078D02*
X148651990Y-83969316D01*
X148651990Y-84159793D01*
X148604371Y-84255031D01*
X148556752Y-84302650D01*
X148461514Y-84350269D01*
X148175800Y-84350269D01*
X148080562Y-84302650D01*
X148032943Y-84255031D01*
X147985324Y-84159793D01*
X147985324Y-83969316D01*
X148032943Y-83874078D01*
X148651990Y-83445507D02*
X147651990Y-83445507D01*
X148271038Y-83350269D02*
X148651990Y-83064554D01*
X147985324Y-83064554D02*
X148366276Y-83445507D01*
X147985324Y-82207412D02*
X148651990Y-82207412D01*
X147604371Y-82445507D02*
X148318657Y-82683602D01*
X148318657Y-82064554D01*
X148080562Y-81540745D02*
X148032943Y-81635983D01*
X147985324Y-81683602D01*
X147890086Y-81731221D01*
X147842467Y-81731221D01*
X147747229Y-81683602D01*
X147699610Y-81635983D01*
X147651990Y-81540745D01*
X147651990Y-81350269D01*
X147699610Y-81255031D01*
X147747229Y-81207412D01*
X147842467Y-81159793D01*
X147890086Y-81159793D01*
X147985324Y-81207412D01*
X148032943Y-81255031D01*
X148080562Y-81350269D01*
X148080562Y-81540745D01*
X148128181Y-81635983D01*
X148175800Y-81683602D01*
X148271038Y-81731221D01*
X148461514Y-81731221D01*
X148556752Y-81683602D01*
X148604371Y-81635983D01*
X148651990Y-81540745D01*
X148651990Y-81350269D01*
X148604371Y-81255031D01*
X148556752Y-81207412D01*
X148461514Y-81159793D01*
X148271038Y-81159793D01*
X148175800Y-81207412D01*
X148128181Y-81255031D01*
X148080562Y-81350269D01*
X148271038Y-80731221D02*
X148271038Y-79969316D01*
X148651990Y-80350269D02*
X147890086Y-80350269D01*
X148651990Y-78969316D02*
X148651990Y-79540745D01*
X148651990Y-79255031D02*
X147651990Y-79255031D01*
X147794848Y-79350269D01*
X147890086Y-79445507D01*
X147937705Y-79540745D01*
X147651990Y-78112173D02*
X147651990Y-78302650D01*
X147699610Y-78397888D01*
X147747229Y-78445507D01*
X147890086Y-78540745D01*
X148080562Y-78588364D01*
X148461514Y-78588364D01*
X148556752Y-78540745D01*
X148604371Y-78493126D01*
X148651990Y-78397888D01*
X148651990Y-78207412D01*
X148604371Y-78112173D01*
X148556752Y-78064554D01*
X148461514Y-78016935D01*
X148223419Y-78016935D01*
X148128181Y-78064554D01*
X148080562Y-78112173D01*
X148032943Y-78207412D01*
X148032943Y-78397888D01*
X148080562Y-78493126D01*
X148128181Y-78540745D01*
X148223419Y-78588364D01*
X148604371Y-77635983D02*
X148651990Y-77493126D01*
X148651990Y-77255031D01*
X148604371Y-77159793D01*
X148556752Y-77112173D01*
X148461514Y-77064554D01*
X148366276Y-77064554D01*
X148271038Y-77112173D01*
X148223419Y-77159793D01*
X148175800Y-77255031D01*
X148128181Y-77445507D01*
X148080562Y-77540745D01*
X148032943Y-77588364D01*
X147937705Y-77635983D01*
X147842467Y-77635983D01*
X147747229Y-77588364D01*
X147699610Y-77540745D01*
X147651990Y-77445507D01*
X147651990Y-77207412D01*
X147699610Y-77064554D01*
X148651990Y-76635983D02*
X147651990Y-76635983D01*
X147651990Y-76255031D01*
X147699610Y-76159793D01*
X147747229Y-76112173D01*
X147842467Y-76064554D01*
X147985324Y-76064554D01*
X148080562Y-76112173D01*
X148128181Y-76159793D01*
X148175800Y-76255031D01*
X148175800Y-76635983D01*
X148651990Y-74302650D02*
X148175800Y-74635983D01*
X148651990Y-74874078D02*
X147651990Y-74874078D01*
X147651990Y-74493126D01*
X147699610Y-74397888D01*
X147747229Y-74350269D01*
X147842467Y-74302650D01*
X147985324Y-74302650D01*
X148080562Y-74350269D01*
X148128181Y-74397888D01*
X148175800Y-74493126D01*
X148175800Y-74874078D01*
X148604371Y-73493126D02*
X148651990Y-73588364D01*
X148651990Y-73778840D01*
X148604371Y-73874078D01*
X148509133Y-73921697D01*
X148128181Y-73921697D01*
X148032943Y-73874078D01*
X147985324Y-73778840D01*
X147985324Y-73588364D01*
X148032943Y-73493126D01*
X148128181Y-73445507D01*
X148223419Y-73445507D01*
X148318657Y-73921697D01*
X147985324Y-73112173D02*
X148651990Y-72874078D01*
X147985324Y-72635983D01*
X148651990Y-70969316D02*
X148651990Y-71540745D01*
X148651990Y-71255031D02*
X147651990Y-71255031D01*
X147794848Y-71350269D01*
X147890086Y-71445507D01*
X147937705Y-71540745D01*
X148556752Y-70540745D02*
X148604371Y-70493126D01*
X148651990Y-70540745D01*
X148604371Y-70588364D01*
X148556752Y-70540745D01*
X148651990Y-70540745D01*
X147651990Y-69874078D02*
X147651990Y-69778840D01*
X147699610Y-69683602D01*
X147747229Y-69635983D01*
X147842467Y-69588364D01*
X148032943Y-69540745D01*
X148271038Y-69540745D01*
X148461514Y-69588364D01*
X148556752Y-69635983D01*
X148604371Y-69683602D01*
X148651990Y-69778840D01*
X148651990Y-69874078D01*
X148604371Y-69969316D01*
X148556752Y-70016935D01*
X148461514Y-70064554D01*
X148271038Y-70112173D01*
X148032943Y-70112173D01*
X147842467Y-70064554D01*
X147747229Y-70016935D01*
X147699610Y-69969316D01*
X147651990Y-69874078D01*
X147652380Y-111478690D02*
X148366666Y-111478690D01*
X148509523Y-111526309D01*
X148604761Y-111621547D01*
X148652380Y-111764404D01*
X148652380Y-111859642D01*
X148652380Y-110526309D02*
X148652380Y-111002500D01*
X147652380Y-111002500D01*
X148557142Y-109621547D02*
X148604761Y-109669166D01*
X148652380Y-109812023D01*
X148652380Y-109907261D01*
X148604761Y-110050119D01*
X148509523Y-110145357D01*
X148414285Y-110192976D01*
X148223809Y-110240595D01*
X148080952Y-110240595D01*
X147890476Y-110192976D01*
X147795238Y-110145357D01*
X147700000Y-110050119D01*
X147652380Y-109907261D01*
X147652380Y-109812023D01*
X147700000Y-109669166D01*
X147747619Y-109621547D01*
X147652380Y-108907261D02*
X148366666Y-108907261D01*
X148509523Y-108954880D01*
X148604761Y-109050119D01*
X148652380Y-109192976D01*
X148652380Y-109288214D01*
X148652380Y-107954880D02*
X148652380Y-108431071D01*
X147652380Y-108431071D01*
X148557142Y-107050119D02*
X148604761Y-107097738D01*
X148652380Y-107240595D01*
X148652380Y-107335833D01*
X148604761Y-107478690D01*
X148509523Y-107573928D01*
X148414285Y-107621547D01*
X148223809Y-107669166D01*
X148080952Y-107669166D01*
X147890476Y-107621547D01*
X147795238Y-107573928D01*
X147700000Y-107478690D01*
X147652380Y-107335833D01*
X147652380Y-107240595D01*
X147700000Y-107097738D01*
X147747619Y-107050119D01*
X147652380Y-106335833D02*
X148366666Y-106335833D01*
X148509523Y-106383452D01*
X148604761Y-106478690D01*
X148652380Y-106621547D01*
X148652380Y-106716785D01*
X148652380Y-105383452D02*
X148652380Y-105859642D01*
X147652380Y-105859642D01*
X148557142Y-104478690D02*
X148604761Y-104526309D01*
X148652380Y-104669166D01*
X148652380Y-104764404D01*
X148604761Y-104907261D01*
X148509523Y-105002500D01*
X148414285Y-105050119D01*
X148223809Y-105097738D01*
X148080952Y-105097738D01*
X147890476Y-105050119D01*
X147795238Y-105002500D01*
X147700000Y-104907261D01*
X147652380Y-104764404D01*
X147652380Y-104669166D01*
X147700000Y-104526309D01*
X147747619Y-104478690D01*
X147652380Y-103764404D02*
X148366666Y-103764404D01*
X148509523Y-103812023D01*
X148604761Y-103907261D01*
X148652380Y-104050119D01*
X148652380Y-104145357D01*
X148652380Y-102812023D02*
X148652380Y-103288214D01*
X147652380Y-103288214D01*
X148557142Y-101907261D02*
X148604761Y-101954880D01*
X148652380Y-102097738D01*
X148652380Y-102192976D01*
X148604761Y-102335833D01*
X148509523Y-102431071D01*
X148414285Y-102478690D01*
X148223809Y-102526309D01*
X148080952Y-102526309D01*
X147890476Y-102478690D01*
X147795238Y-102431071D01*
X147700000Y-102335833D01*
X147652380Y-102192976D01*
X147652380Y-102097738D01*
X147700000Y-101954880D01*
X147747619Y-101907261D01*
M02*
