M48
METRIC
T1C0.250
T2C0.400
T3C0.600
T4C1.067
T5C1.525
T6C2.200
%
G90
G05
T1
X149.371Y-85.704
X150.514Y-87.736
X160.166Y-79.862
X160.166Y-86.212
X164.592Y-49.149
X168.148Y-68.199
X168.66Y-49.848
X169.691Y-69.575
X171.037Y-74.93
X171.708Y-49.848
X171.831Y-74.93
X172.631Y-74.878
X173.431Y-74.878
X174.231Y-74.878
X175.031Y-74.878
X175.391Y-49.848
X176.212Y-68.263
X178.439Y-49.848
X180.34Y-68.199
X181.137Y-78.505
X181.736Y-49.148
X183.534Y-76.814
X186.01Y-59.352
X188.037Y-78.005
X188.037Y-78.805
X188.037Y-79.605
X188.037Y-80.405
X188.037Y-81.205
X192.424Y-82.783
X197.25Y-59.415
T2
X165.588Y-85.705
X170.053Y-75.057
X178.319Y-93.205
X181.744Y-83.305
T4
X210.874Y-59.4
X210.874Y-64.48
X210.874Y-69.56
X211.28Y-56.86
X211.28Y-61.94
X211.28Y-67.02
T5
X313.239Y-95.52
X319.589Y-92.98
X142.24Y-114.52
X148.59Y-111.98
X237.24Y-76.52
X243.59Y-73.98
X94.36Y-76.52
X100.71Y-73.98
X142.24Y-95.52
X148.59Y-92.98
X218.239Y-57.52
X224.589Y-54.98
X75.36Y-114.52
X81.71Y-111.98
X351.239Y-57.52
X357.589Y-54.98
X161.24Y-114.52
X167.59Y-111.98
X294.24Y-57.52
X300.59Y-54.98
X294.239Y-95.52
X300.589Y-92.98
X94.36Y-95.52
X100.71Y-92.98
X218.239Y-95.52
X224.589Y-92.98
X94.36Y-57.52
X100.71Y-54.98
X294.24Y-76.52
X300.59Y-73.98
X332.239Y-114.52
X338.589Y-111.98
X256.239Y-114.52
X262.589Y-111.98
X351.239Y-95.52
X357.589Y-92.98
X142.24Y-57.52
X148.59Y-54.98
X180.24Y-76.52
X186.59Y-73.98
X75.36Y-76.52
X81.71Y-73.98
X218.24Y-114.52
X224.59Y-111.98
X56.36Y-114.52
X62.71Y-111.98
X75.334Y-95.532
X81.684Y-92.992
X199.239Y-95.52
X205.589Y-92.98
X75.36Y-57.52
X81.71Y-54.98
X275.24Y-57.52
X281.59Y-54.98
X199.24Y-57.52
X205.59Y-54.98
X218.24Y-76.52
X224.59Y-73.98
X313.239Y-114.52
X319.589Y-111.98
X351.239Y-76.52
X357.589Y-73.98
X332.239Y-57.52
X338.589Y-54.98
X275.239Y-76.9
X281.589Y-74.36
X256.239Y-95.52
X262.589Y-92.98
X113.36Y-114.52
X119.71Y-111.98
X275.239Y-95.52
X281.589Y-92.98
X161.24Y-76.52
X167.59Y-73.98
X56.36Y-76.52
X62.71Y-73.98
X199.239Y-114.52
X205.589Y-111.98
X113.36Y-95.52
X119.71Y-92.98
X56.36Y-95.52
X62.71Y-92.98
X351.24Y-114.52
X357.59Y-111.98
X180.24Y-95.52
X186.59Y-92.98
X294.239Y-114.52
X300.589Y-111.98
X56.36Y-57.52
X62.71Y-54.98
X256.239Y-57.52
X262.589Y-54.98
X180.24Y-57.52
X186.59Y-54.98
X199.24Y-76.52
X205.59Y-73.98
X332.239Y-76.52
X338.589Y-73.98
X313.239Y-57.52
X319.589Y-54.98
X256.239Y-76.52
X262.589Y-73.98
X113.36Y-76.52
X119.71Y-73.98
X275.239Y-114.52
X281.589Y-111.98
X237.239Y-57.52
X243.589Y-54.98
X94.36Y-114.52
X100.71Y-111.98
X332.239Y-95.52
X338.589Y-92.98
X142.24Y-76.52
X148.59Y-73.98
X180.24Y-114.52
X186.59Y-111.98
X113.36Y-57.52
X119.71Y-54.98
X161.24Y-95.52
X167.59Y-92.98
X161.24Y-57.52
X167.59Y-54.98
X237.239Y-95.52
X243.589Y-92.98
X237.239Y-114.52
X243.589Y-111.98
X313.239Y-76.52
X319.589Y-73.98
T6
X106.4Y-99.94
X68.4Y-99.94
X106.4Y-61.94
X68.4Y-61.94
X344.305Y-80.965
X306.305Y-99.965
X306.28Y-61.94
X192.305Y-99.965
X192.28Y-61.94
X154.28Y-80.94
T3
G00X168.98Y-43.149
M15
G01X168.98Y-43.749
M16
G05
G00X168.98Y-47.099
M15
G01X168.98Y-48.199
M16
G05
G00X177.58Y-43.149
M15
G01X177.58Y-43.749
M16
G05
G00X177.58Y-47.099
M15
G01X177.58Y-48.199
M16
G05
T0
M30
