G04 #@! TF.GenerationSoftware,KiCad,Pcbnew,(5.1.2-1)-1*
G04 #@! TF.CreationDate,2020-02-23T14:56:22-06:00*
G04 #@! TF.ProjectId,therick64BASP,74686572-6963-46b3-9634-424153502e6b,rev?*
G04 #@! TF.SameCoordinates,Original*
G04 #@! TF.FileFunction,Legend,Top*
G04 #@! TF.FilePolarity,Positive*
%FSLAX46Y46*%
G04 Gerber Fmt 4.6, Leading zero omitted, Abs format (unit mm)*
G04 Created by KiCad (PCBNEW (5.1.2-1)-1) date 2020-02-23 14:56:22*
%MOMM*%
%LPD*%
G04 APERTURE LIST*
%ADD10C,0.150000*%
G04 APERTURE END LIST*
D10*
X137139379Y-114546692D02*
X137853665Y-114546692D01*
X137996522Y-114594311D01*
X138091760Y-114689549D01*
X138139379Y-114832406D01*
X138139379Y-114927644D01*
X138139379Y-113594311D02*
X138139379Y-114070502D01*
X137139379Y-114070502D01*
X138044141Y-112689549D02*
X138091760Y-112737168D01*
X138139379Y-112880025D01*
X138139379Y-112975263D01*
X138091760Y-113118121D01*
X137996522Y-113213359D01*
X137901284Y-113260978D01*
X137710808Y-113308597D01*
X137567951Y-113308597D01*
X137377475Y-113260978D01*
X137282237Y-113213359D01*
X137186999Y-113118121D01*
X137139379Y-112975263D01*
X137139379Y-112880025D01*
X137186999Y-112737168D01*
X137234618Y-112689549D01*
X137139379Y-111975263D02*
X137853665Y-111975263D01*
X137996522Y-112022882D01*
X138091760Y-112118121D01*
X138139379Y-112260978D01*
X138139379Y-112356216D01*
X138139379Y-111022882D02*
X138139379Y-111499073D01*
X137139379Y-111499073D01*
X138044141Y-110118121D02*
X138091760Y-110165740D01*
X138139379Y-110308597D01*
X138139379Y-110403835D01*
X138091760Y-110546692D01*
X137996522Y-110641930D01*
X137901284Y-110689549D01*
X137710808Y-110737168D01*
X137567951Y-110737168D01*
X137377475Y-110689549D01*
X137282237Y-110641930D01*
X137186999Y-110546692D01*
X137139379Y-110403835D01*
X137139379Y-110308597D01*
X137186999Y-110165740D01*
X137234618Y-110118121D01*
X137139379Y-109403835D02*
X137853665Y-109403835D01*
X137996522Y-109451454D01*
X138091760Y-109546692D01*
X138139379Y-109689549D01*
X138139379Y-109784787D01*
X138139379Y-108451454D02*
X138139379Y-108927644D01*
X137139379Y-108927644D01*
X138044141Y-107546692D02*
X138091760Y-107594311D01*
X138139379Y-107737168D01*
X138139379Y-107832406D01*
X138091760Y-107975263D01*
X137996522Y-108070502D01*
X137901284Y-108118121D01*
X137710808Y-108165740D01*
X137567951Y-108165740D01*
X137377475Y-108118121D01*
X137282237Y-108070502D01*
X137186999Y-107975263D01*
X137139379Y-107832406D01*
X137139379Y-107737168D01*
X137186999Y-107594311D01*
X137234618Y-107546692D01*
X137139379Y-106832406D02*
X137853665Y-106832406D01*
X137996522Y-106880025D01*
X138091760Y-106975263D01*
X138139379Y-107118121D01*
X138139379Y-107213359D01*
X138139379Y-105880025D02*
X138139379Y-106356216D01*
X137139379Y-106356216D01*
X138044141Y-104975263D02*
X138091760Y-105022882D01*
X138139379Y-105165740D01*
X138139379Y-105260978D01*
X138091760Y-105403835D01*
X137996522Y-105499073D01*
X137901284Y-105546692D01*
X137710808Y-105594311D01*
X137567951Y-105594311D01*
X137377475Y-105546692D01*
X137282237Y-105499073D01*
X137186999Y-105403835D01*
X137139379Y-105260978D01*
X137139379Y-105165740D01*
X137186999Y-105022882D01*
X137234618Y-104975263D01*
M02*
