M48
METRIC
T1C0.650
T2C0.800
T3C1.702
T4C3.988
%
G90
G05
T1
X170.39Y-47.098
X176.17Y-47.098
T2
X135.66Y-54.712
X135.66Y-56.363
X135.66Y-57.76
X135.66Y-59.03
X135.66Y-60.3
X135.66Y-86.506
X135.66Y-87.923
X135.66Y-89.3
X135.66Y-90.677
X135.66Y-92.094
X135.66Y-93.491
X135.66Y-70.293
X135.66Y-71.563
X135.66Y-72.96
X135.66Y-74.611
X135.66Y-75.881
X135.66Y-101.453
X135.66Y-102.723
X135.66Y-104.12
X135.66Y-105.878
X135.66Y-107.295
T3
X57.24Y-109.44
X67.4Y-109.44
X272.675Y-71.453
X282.835Y-71.453
X291.7Y-52.44
X301.86Y-52.44
X291.699Y-109.44
X301.859Y-109.44
X139.7Y-71.44
X149.86Y-71.44
X76.24Y-71.44
X86.4Y-71.44
X215.699Y-52.44
X225.859Y-52.44
X196.699Y-109.44
X206.859Y-109.44
X272.699Y-90.44
X282.859Y-90.44
X76.214Y-90.452
X86.374Y-90.452
X329.699Y-71.44
X339.859Y-71.44
X177.7Y-90.44
X187.86Y-90.44
X196.7Y-71.44
X206.86Y-71.44
X329.699Y-90.44
X339.859Y-90.44
X114.24Y-109.44
X124.4Y-109.44
X348.699Y-52.44
X358.859Y-52.44
X253.699Y-90.44
X263.859Y-90.44
X76.24Y-52.44
X86.4Y-52.44
X196.7Y-52.44
X206.86Y-52.44
X177.7Y-109.44
X187.86Y-109.44
X253.699Y-71.44
X263.859Y-71.44
X272.7Y-52.44
X282.86Y-52.44
X272.699Y-109.44
X282.859Y-109.44
X234.7Y-71.44
X244.86Y-71.44
X57.24Y-71.44
X67.4Y-71.44
X234.699Y-90.44
X244.859Y-90.44
X57.24Y-90.44
X67.4Y-90.44
X310.699Y-71.44
X320.859Y-71.44
X158.7Y-90.44
X168.86Y-90.44
X234.699Y-109.44
X244.859Y-109.44
X95.24Y-109.44
X105.4Y-109.44
X348.7Y-109.44
X358.86Y-109.44
X329.699Y-52.44
X339.859Y-52.44
X329.699Y-109.44
X339.859Y-109.44
X57.24Y-52.44
X67.4Y-52.44
X177.7Y-52.44
X187.86Y-52.44
X177.7Y-71.44
X187.86Y-71.44
X114.24Y-71.44
X124.4Y-71.44
X253.699Y-52.44
X263.859Y-52.44
X310.699Y-90.44
X320.859Y-90.44
X114.24Y-90.44
X124.4Y-90.44
X158.7Y-109.44
X168.86Y-109.44
X158.7Y-52.44
X168.86Y-52.44
X139.7Y-90.44
X149.86Y-90.44
X114.24Y-52.44
X124.4Y-52.44
X215.7Y-109.44
X225.86Y-109.44
X76.24Y-109.44
X86.4Y-109.44
X348.699Y-90.44
X358.859Y-90.44
X215.699Y-90.44
X225.859Y-90.44
X291.7Y-71.44
X301.86Y-71.44
X310.699Y-52.44
X320.859Y-52.44
X310.699Y-109.44
X320.859Y-109.44
X158.7Y-71.44
X168.86Y-71.44
X95.24Y-71.44
X105.4Y-71.44
X234.699Y-52.44
X244.859Y-52.44
X291.699Y-90.44
X301.859Y-90.44
X95.24Y-90.44
X105.4Y-90.44
X348.699Y-71.44
X358.859Y-71.44
X196.699Y-90.44
X206.859Y-90.44
X215.7Y-71.44
X225.86Y-71.44
X139.7Y-109.44
X149.86Y-109.44
X139.7Y-52.44
X149.86Y-52.44
X253.699Y-109.44
X263.859Y-109.44
X95.24Y-52.44
X105.4Y-52.44
T4
X182.78Y-71.44
X119.32Y-71.44
X258.779Y-52.44
X315.779Y-90.44
X119.32Y-90.44
X163.78Y-109.44
X163.78Y-52.44
X144.78Y-90.44
X119.32Y-52.44
X220.78Y-109.44
X81.32Y-109.44
X353.779Y-90.44
X220.779Y-90.44
X296.78Y-71.44
X315.779Y-52.44
X315.779Y-109.44
X163.78Y-71.44
X100.32Y-71.44
X239.779Y-52.44
X296.779Y-90.44
X100.32Y-90.44
X353.779Y-71.44
X201.779Y-90.44
X220.78Y-71.44
X144.78Y-109.44
X144.78Y-52.44
X258.779Y-109.44
X100.32Y-52.44
X62.32Y-109.44
X277.755Y-71.453
X296.78Y-52.44
X296.779Y-109.44
X144.78Y-71.44
X81.32Y-71.44
X220.779Y-52.44
X201.779Y-109.44
X277.779Y-90.44
X81.294Y-90.452
X334.779Y-71.44
X182.78Y-90.44
X201.78Y-71.44
X334.779Y-90.44
X119.32Y-109.44
X353.779Y-52.44
X258.779Y-90.44
X81.32Y-52.44
X201.78Y-52.44
X182.78Y-109.44
X258.779Y-71.44
X277.78Y-52.44
X277.779Y-109.44
X239.78Y-71.44
X62.32Y-71.44
X239.779Y-90.44
X62.32Y-90.44
X315.779Y-71.44
X163.78Y-90.44
X239.779Y-109.44
X100.32Y-109.44
X353.78Y-109.44
X334.779Y-52.44
X334.779Y-109.44
X62.32Y-52.44
X182.78Y-52.44
T0
M30
