G04 #@! TF.GenerationSoftware,KiCad,Pcbnew,(5.1.2-1)-1*
G04 #@! TF.CreationDate,2020-05-24T08:14:27-05:00*
G04 #@! TF.ProjectId,therick48.16SP_bottom_plate,74686572-6963-46b3-9438-2e313653505f,rev?*
G04 #@! TF.SameCoordinates,Original*
G04 #@! TF.FileFunction,Soldermask,Top*
G04 #@! TF.FilePolarity,Negative*
%FSLAX46Y46*%
G04 Gerber Fmt 4.6, Leading zero omitted, Abs format (unit mm)*
G04 Created by KiCad (PCBNEW (5.1.2-1)-1) date 2020-05-24 08:14:27*
%MOMM*%
%LPD*%
G04 APERTURE LIST*
%ADD10C,0.100000*%
G04 APERTURE END LIST*
D10*
G36*
X143771552Y-109226331D02*
G01*
X143853627Y-109260328D01*
X143853629Y-109260329D01*
X143890813Y-109285175D01*
X143927495Y-109309685D01*
X143990315Y-109372505D01*
X144039672Y-109446373D01*
X144073669Y-109528448D01*
X144091000Y-109615579D01*
X144091000Y-109704421D01*
X144073669Y-109791552D01*
X144039672Y-109873627D01*
X144039671Y-109873629D01*
X143990314Y-109947496D01*
X143927496Y-110010314D01*
X143853629Y-110059671D01*
X143853628Y-110059672D01*
X143853627Y-110059672D01*
X143771552Y-110093669D01*
X143684421Y-110111000D01*
X143595579Y-110111000D01*
X143508448Y-110093669D01*
X143426373Y-110059672D01*
X143426372Y-110059672D01*
X143426371Y-110059671D01*
X143352504Y-110010314D01*
X143289686Y-109947496D01*
X143240329Y-109873629D01*
X143240328Y-109873627D01*
X143206331Y-109791552D01*
X143189000Y-109704421D01*
X143189000Y-109615579D01*
X143206331Y-109528448D01*
X143240328Y-109446373D01*
X143289685Y-109372505D01*
X143352505Y-109309685D01*
X143389187Y-109285175D01*
X143426371Y-109260329D01*
X143426373Y-109260328D01*
X143508448Y-109226331D01*
X143595579Y-109209000D01*
X143684421Y-109209000D01*
X143771552Y-109226331D01*
X143771552Y-109226331D01*
G37*
G36*
X143771552Y-107976331D02*
G01*
X143853627Y-108010328D01*
X143853629Y-108010329D01*
X143890813Y-108035175D01*
X143927495Y-108059685D01*
X143990315Y-108122505D01*
X144039672Y-108196373D01*
X144073669Y-108278448D01*
X144091000Y-108365579D01*
X144091000Y-108454421D01*
X144073669Y-108541552D01*
X144039672Y-108623627D01*
X144039671Y-108623629D01*
X143990314Y-108697496D01*
X143927496Y-108760314D01*
X143853629Y-108809671D01*
X143853628Y-108809672D01*
X143853627Y-108809672D01*
X143771552Y-108843669D01*
X143684421Y-108861000D01*
X143595579Y-108861000D01*
X143508448Y-108843669D01*
X143426373Y-108809672D01*
X143426372Y-108809672D01*
X143426371Y-108809671D01*
X143352504Y-108760314D01*
X143289686Y-108697496D01*
X143240329Y-108623629D01*
X143240328Y-108623627D01*
X143206331Y-108541552D01*
X143189000Y-108454421D01*
X143189000Y-108365579D01*
X143206331Y-108278448D01*
X143240328Y-108196373D01*
X143289685Y-108122505D01*
X143352505Y-108059685D01*
X143389187Y-108035175D01*
X143426371Y-108010329D01*
X143426373Y-108010328D01*
X143508448Y-107976331D01*
X143595579Y-107959000D01*
X143684421Y-107959000D01*
X143771552Y-107976331D01*
X143771552Y-107976331D01*
G37*
G36*
X143771552Y-106726331D02*
G01*
X143853627Y-106760328D01*
X143853629Y-106760329D01*
X143890813Y-106785175D01*
X143927495Y-106809685D01*
X143990315Y-106872505D01*
X144039672Y-106946373D01*
X144073669Y-107028448D01*
X144091000Y-107115579D01*
X144091000Y-107204421D01*
X144073669Y-107291552D01*
X144039672Y-107373627D01*
X144039671Y-107373629D01*
X143990314Y-107447496D01*
X143927496Y-107510314D01*
X143853629Y-107559671D01*
X143853628Y-107559672D01*
X143853627Y-107559672D01*
X143771552Y-107593669D01*
X143684421Y-107611000D01*
X143595579Y-107611000D01*
X143508448Y-107593669D01*
X143426373Y-107559672D01*
X143426372Y-107559672D01*
X143426371Y-107559671D01*
X143352504Y-107510314D01*
X143289686Y-107447496D01*
X143240329Y-107373629D01*
X143240328Y-107373627D01*
X143206331Y-107291552D01*
X143189000Y-107204421D01*
X143189000Y-107115579D01*
X143206331Y-107028448D01*
X143240328Y-106946373D01*
X143289685Y-106872505D01*
X143352505Y-106809685D01*
X143389187Y-106785175D01*
X143426371Y-106760329D01*
X143426373Y-106760328D01*
X143508448Y-106726331D01*
X143595579Y-106709000D01*
X143684421Y-106709000D01*
X143771552Y-106726331D01*
X143771552Y-106726331D01*
G37*
G36*
X143771552Y-105476331D02*
G01*
X143853627Y-105510328D01*
X143853629Y-105510329D01*
X143890813Y-105535175D01*
X143927495Y-105559685D01*
X143990315Y-105622505D01*
X144039672Y-105696373D01*
X144073669Y-105778448D01*
X144091000Y-105865579D01*
X144091000Y-105954421D01*
X144073669Y-106041552D01*
X144039672Y-106123627D01*
X144039671Y-106123629D01*
X143990314Y-106197496D01*
X143927496Y-106260314D01*
X143853629Y-106309671D01*
X143853628Y-106309672D01*
X143853627Y-106309672D01*
X143771552Y-106343669D01*
X143684421Y-106361000D01*
X143595579Y-106361000D01*
X143508448Y-106343669D01*
X143426373Y-106309672D01*
X143426372Y-106309672D01*
X143426371Y-106309671D01*
X143352504Y-106260314D01*
X143289686Y-106197496D01*
X143240329Y-106123629D01*
X143240328Y-106123627D01*
X143206331Y-106041552D01*
X143189000Y-105954421D01*
X143189000Y-105865579D01*
X143206331Y-105778448D01*
X143240328Y-105696373D01*
X143289685Y-105622505D01*
X143352505Y-105559685D01*
X143389187Y-105535175D01*
X143426371Y-105510329D01*
X143426373Y-105510328D01*
X143508448Y-105476331D01*
X143595579Y-105459000D01*
X143684421Y-105459000D01*
X143771552Y-105476331D01*
X143771552Y-105476331D01*
G37*
G36*
X143771552Y-104226331D02*
G01*
X143853627Y-104260328D01*
X143853629Y-104260329D01*
X143890813Y-104285175D01*
X143927495Y-104309685D01*
X143990315Y-104372505D01*
X144039672Y-104446373D01*
X144073669Y-104528448D01*
X144091000Y-104615579D01*
X144091000Y-104704421D01*
X144073669Y-104791552D01*
X144039672Y-104873627D01*
X144039671Y-104873629D01*
X143990314Y-104947496D01*
X143927496Y-105010314D01*
X143853629Y-105059671D01*
X143853628Y-105059672D01*
X143853627Y-105059672D01*
X143771552Y-105093669D01*
X143684421Y-105111000D01*
X143595579Y-105111000D01*
X143508448Y-105093669D01*
X143426373Y-105059672D01*
X143426372Y-105059672D01*
X143426371Y-105059671D01*
X143352504Y-105010314D01*
X143289686Y-104947496D01*
X143240329Y-104873629D01*
X143240328Y-104873627D01*
X143206331Y-104791552D01*
X143189000Y-104704421D01*
X143189000Y-104615579D01*
X143206331Y-104528448D01*
X143240328Y-104446373D01*
X143289685Y-104372505D01*
X143352505Y-104309685D01*
X143389187Y-104285175D01*
X143426371Y-104260329D01*
X143426373Y-104260328D01*
X143508448Y-104226331D01*
X143595579Y-104209000D01*
X143684421Y-104209000D01*
X143771552Y-104226331D01*
X143771552Y-104226331D01*
G37*
G36*
X165445331Y-95928211D02*
G01*
X165773092Y-96063974D01*
X166068070Y-96261072D01*
X166318928Y-96511930D01*
X166516026Y-96806908D01*
X166651789Y-97134669D01*
X166721000Y-97482616D01*
X166721000Y-97837384D01*
X166651789Y-98185331D01*
X166516026Y-98513092D01*
X166318928Y-98808070D01*
X166068070Y-99058928D01*
X165773092Y-99256026D01*
X165445331Y-99391789D01*
X165097384Y-99461000D01*
X164742616Y-99461000D01*
X164394669Y-99391789D01*
X164066908Y-99256026D01*
X163771930Y-99058928D01*
X163521072Y-98808070D01*
X163323974Y-98513092D01*
X163188211Y-98185331D01*
X163119000Y-97837384D01*
X163119000Y-97482616D01*
X163188211Y-97134669D01*
X163323974Y-96806908D01*
X163521072Y-96511930D01*
X163771930Y-96261072D01*
X164066908Y-96063974D01*
X164394669Y-95928211D01*
X164742616Y-95859000D01*
X165097384Y-95859000D01*
X165445331Y-95928211D01*
X165445331Y-95928211D01*
G37*
G36*
X120985322Y-95928211D02*
G01*
X121313083Y-96063974D01*
X121608061Y-96261072D01*
X121858919Y-96511930D01*
X122056017Y-96806908D01*
X122191780Y-97134669D01*
X122260991Y-97482616D01*
X122260991Y-97837384D01*
X122191780Y-98185331D01*
X122056017Y-98513092D01*
X121858919Y-98808070D01*
X121608061Y-99058928D01*
X121313083Y-99256026D01*
X120985322Y-99391789D01*
X120637375Y-99461000D01*
X120282607Y-99461000D01*
X119934660Y-99391789D01*
X119606899Y-99256026D01*
X119311921Y-99058928D01*
X119061063Y-98808070D01*
X118863965Y-98513092D01*
X118728202Y-98185331D01*
X118658991Y-97837384D01*
X118658991Y-97482616D01*
X118728202Y-97134669D01*
X118863965Y-96806908D01*
X119061063Y-96511930D01*
X119311921Y-96261072D01*
X119606899Y-96063974D01*
X119934660Y-95928211D01*
X120282607Y-95859000D01*
X120637375Y-95859000D01*
X120985322Y-95928211D01*
X120985322Y-95928211D01*
G37*
G36*
X82985322Y-95928211D02*
G01*
X83313083Y-96063974D01*
X83608061Y-96261072D01*
X83858919Y-96511930D01*
X84056017Y-96806908D01*
X84191780Y-97134669D01*
X84260991Y-97482616D01*
X84260991Y-97837384D01*
X84191780Y-98185331D01*
X84056017Y-98513092D01*
X83858919Y-98808070D01*
X83608061Y-99058928D01*
X83313083Y-99256026D01*
X82985322Y-99391789D01*
X82637375Y-99461000D01*
X82282607Y-99461000D01*
X81934660Y-99391789D01*
X81606899Y-99256026D01*
X81311921Y-99058928D01*
X81061063Y-98808070D01*
X80863965Y-98513092D01*
X80728202Y-98185331D01*
X80658991Y-97837384D01*
X80658991Y-97482616D01*
X80728202Y-97134669D01*
X80863965Y-96806908D01*
X81061063Y-96511930D01*
X81311921Y-96261072D01*
X81606899Y-96063974D01*
X81934660Y-95928211D01*
X82282607Y-95859000D01*
X82637375Y-95859000D01*
X82985322Y-95928211D01*
X82985322Y-95928211D01*
G37*
G36*
X203445331Y-95928211D02*
G01*
X203773092Y-96063974D01*
X204068070Y-96261072D01*
X204318928Y-96511930D01*
X204516026Y-96806908D01*
X204651789Y-97134669D01*
X204721000Y-97482616D01*
X204721000Y-97837384D01*
X204651789Y-98185331D01*
X204516026Y-98513092D01*
X204318928Y-98808070D01*
X204068070Y-99058928D01*
X203773092Y-99256026D01*
X203445331Y-99391789D01*
X203097384Y-99461000D01*
X202742616Y-99461000D01*
X202394669Y-99391789D01*
X202066908Y-99256026D01*
X201771930Y-99058928D01*
X201521072Y-98808070D01*
X201323974Y-98513092D01*
X201188211Y-98185331D01*
X201119000Y-97837384D01*
X201119000Y-97482616D01*
X201188211Y-97134669D01*
X201323974Y-96806908D01*
X201521072Y-96511930D01*
X201771930Y-96261072D01*
X202066908Y-96063974D01*
X202394669Y-95928211D01*
X202742616Y-95859000D01*
X203097384Y-95859000D01*
X203445331Y-95928211D01*
X203445331Y-95928211D01*
G37*
G36*
X317445331Y-95928211D02*
G01*
X317773092Y-96063974D01*
X318068070Y-96261072D01*
X318318928Y-96511930D01*
X318516026Y-96806908D01*
X318651789Y-97134669D01*
X318721000Y-97482616D01*
X318721000Y-97837384D01*
X318651789Y-98185331D01*
X318516026Y-98513092D01*
X318318928Y-98808070D01*
X318068070Y-99058928D01*
X317773092Y-99256026D01*
X317445331Y-99391789D01*
X317097384Y-99461000D01*
X316742616Y-99461000D01*
X316394669Y-99391789D01*
X316066908Y-99256026D01*
X315771930Y-99058928D01*
X315521072Y-98808070D01*
X315323974Y-98513092D01*
X315188211Y-98185331D01*
X315119000Y-97837384D01*
X315119000Y-97482616D01*
X315188211Y-97134669D01*
X315323974Y-96806908D01*
X315521072Y-96511930D01*
X315771930Y-96261072D01*
X316066908Y-96063974D01*
X316394669Y-95928211D01*
X316742616Y-95859000D01*
X317097384Y-95859000D01*
X317445331Y-95928211D01*
X317445331Y-95928211D01*
G37*
G36*
X222445331Y-95928211D02*
G01*
X222773092Y-96063974D01*
X223068070Y-96261072D01*
X223318928Y-96511930D01*
X223516026Y-96806908D01*
X223651789Y-97134669D01*
X223721000Y-97482616D01*
X223721000Y-97837384D01*
X223651789Y-98185331D01*
X223516026Y-98513092D01*
X223318928Y-98808070D01*
X223068070Y-99058928D01*
X222773092Y-99256026D01*
X222445331Y-99391789D01*
X222097384Y-99461000D01*
X221742616Y-99461000D01*
X221394669Y-99391789D01*
X221066908Y-99256026D01*
X220771930Y-99058928D01*
X220521072Y-98808070D01*
X220323974Y-98513092D01*
X220188211Y-98185331D01*
X220119000Y-97837384D01*
X220119000Y-97482616D01*
X220188211Y-97134669D01*
X220323974Y-96806908D01*
X220521072Y-96511930D01*
X220771930Y-96261072D01*
X221066908Y-96063974D01*
X221394669Y-95928211D01*
X221742616Y-95859000D01*
X222097384Y-95859000D01*
X222445331Y-95928211D01*
X222445331Y-95928211D01*
G37*
G36*
X298445331Y-95928211D02*
G01*
X298773092Y-96063974D01*
X299068070Y-96261072D01*
X299318928Y-96511930D01*
X299516026Y-96806908D01*
X299651789Y-97134669D01*
X299721000Y-97482616D01*
X299721000Y-97837384D01*
X299651789Y-98185331D01*
X299516026Y-98513092D01*
X299318928Y-98808070D01*
X299068070Y-99058928D01*
X298773092Y-99256026D01*
X298445331Y-99391789D01*
X298097384Y-99461000D01*
X297742616Y-99461000D01*
X297394669Y-99391789D01*
X297066908Y-99256026D01*
X296771930Y-99058928D01*
X296521072Y-98808070D01*
X296323974Y-98513092D01*
X296188211Y-98185331D01*
X296119000Y-97837384D01*
X296119000Y-97482616D01*
X296188211Y-97134669D01*
X296323974Y-96806908D01*
X296521072Y-96511930D01*
X296771930Y-96261072D01*
X297066908Y-96063974D01*
X297394669Y-95928211D01*
X297742616Y-95859000D01*
X298097384Y-95859000D01*
X298445331Y-95928211D01*
X298445331Y-95928211D01*
G37*
G36*
X355445331Y-95928211D02*
G01*
X355773092Y-96063974D01*
X356068070Y-96261072D01*
X356318928Y-96511930D01*
X356516026Y-96806908D01*
X356651789Y-97134669D01*
X356721000Y-97482616D01*
X356721000Y-97837384D01*
X356651789Y-98185331D01*
X356516026Y-98513092D01*
X356318928Y-98808070D01*
X356068070Y-99058928D01*
X355773092Y-99256026D01*
X355445331Y-99391789D01*
X355097384Y-99461000D01*
X354742616Y-99461000D01*
X354394669Y-99391789D01*
X354066908Y-99256026D01*
X353771930Y-99058928D01*
X353521072Y-98808070D01*
X353323974Y-98513092D01*
X353188211Y-98185331D01*
X353119000Y-97837384D01*
X353119000Y-97482616D01*
X353188211Y-97134669D01*
X353323974Y-96806908D01*
X353521072Y-96511930D01*
X353771930Y-96261072D01*
X354066908Y-96063974D01*
X354394669Y-95928211D01*
X354742616Y-95859000D01*
X355097384Y-95859000D01*
X355445331Y-95928211D01*
X355445331Y-95928211D01*
G37*
G36*
X143771552Y-94786331D02*
G01*
X143853627Y-94820328D01*
X143853629Y-94820329D01*
X143890813Y-94845175D01*
X143927495Y-94869685D01*
X143990315Y-94932505D01*
X144039672Y-95006373D01*
X144073669Y-95088448D01*
X144091000Y-95175579D01*
X144091000Y-95264421D01*
X144073669Y-95351552D01*
X144039672Y-95433627D01*
X144039671Y-95433629D01*
X143990314Y-95507496D01*
X143927496Y-95570314D01*
X143853629Y-95619671D01*
X143853628Y-95619672D01*
X143853627Y-95619672D01*
X143771552Y-95653669D01*
X143684421Y-95671000D01*
X143595579Y-95671000D01*
X143508448Y-95653669D01*
X143426373Y-95619672D01*
X143426372Y-95619672D01*
X143426371Y-95619671D01*
X143352504Y-95570314D01*
X143289686Y-95507496D01*
X143240329Y-95433629D01*
X143240328Y-95433627D01*
X143206331Y-95351552D01*
X143189000Y-95264421D01*
X143189000Y-95175579D01*
X143206331Y-95088448D01*
X143240328Y-95006373D01*
X143289685Y-94932505D01*
X143352505Y-94869685D01*
X143389187Y-94845175D01*
X143426371Y-94820329D01*
X143426373Y-94820328D01*
X143508448Y-94786331D01*
X143595579Y-94769000D01*
X143684421Y-94769000D01*
X143771552Y-94786331D01*
X143771552Y-94786331D01*
G37*
G36*
X143771552Y-93536331D02*
G01*
X143853627Y-93570328D01*
X143853629Y-93570329D01*
X143890813Y-93595175D01*
X143927495Y-93619685D01*
X143990315Y-93682505D01*
X144039672Y-93756373D01*
X144073669Y-93838448D01*
X144091000Y-93925579D01*
X144091000Y-94014421D01*
X144073669Y-94101552D01*
X144039672Y-94183627D01*
X144039671Y-94183629D01*
X143990314Y-94257496D01*
X143927496Y-94320314D01*
X143853629Y-94369671D01*
X143853628Y-94369672D01*
X143853627Y-94369672D01*
X143771552Y-94403669D01*
X143684421Y-94421000D01*
X143595579Y-94421000D01*
X143508448Y-94403669D01*
X143426373Y-94369672D01*
X143426372Y-94369672D01*
X143426371Y-94369671D01*
X143352504Y-94320314D01*
X143289686Y-94257496D01*
X143240329Y-94183629D01*
X143240328Y-94183627D01*
X143206331Y-94101552D01*
X143189000Y-94014421D01*
X143189000Y-93925579D01*
X143206331Y-93838448D01*
X143240328Y-93756373D01*
X143289685Y-93682505D01*
X143352505Y-93619685D01*
X143389187Y-93595175D01*
X143426371Y-93570329D01*
X143426373Y-93570328D01*
X143508448Y-93536331D01*
X143595579Y-93519000D01*
X143684421Y-93519000D01*
X143771552Y-93536331D01*
X143771552Y-93536331D01*
G37*
G36*
X143771552Y-92286331D02*
G01*
X143853627Y-92320328D01*
X143853629Y-92320329D01*
X143890813Y-92345175D01*
X143927495Y-92369685D01*
X143990315Y-92432505D01*
X144039672Y-92506373D01*
X144073669Y-92588448D01*
X144091000Y-92675579D01*
X144091000Y-92764421D01*
X144073669Y-92851552D01*
X144039672Y-92933627D01*
X144039671Y-92933629D01*
X143990314Y-93007496D01*
X143927496Y-93070314D01*
X143853629Y-93119671D01*
X143853628Y-93119672D01*
X143853627Y-93119672D01*
X143771552Y-93153669D01*
X143684421Y-93171000D01*
X143595579Y-93171000D01*
X143508448Y-93153669D01*
X143426373Y-93119672D01*
X143426372Y-93119672D01*
X143426371Y-93119671D01*
X143352504Y-93070314D01*
X143289686Y-93007496D01*
X143240329Y-92933629D01*
X143240328Y-92933627D01*
X143206331Y-92851552D01*
X143189000Y-92764421D01*
X143189000Y-92675579D01*
X143206331Y-92588448D01*
X143240328Y-92506373D01*
X143289685Y-92432505D01*
X143352505Y-92369685D01*
X143389187Y-92345175D01*
X143426371Y-92320329D01*
X143426373Y-92320328D01*
X143508448Y-92286331D01*
X143595579Y-92269000D01*
X143684421Y-92269000D01*
X143771552Y-92286331D01*
X143771552Y-92286331D01*
G37*
G36*
X143771552Y-91036331D02*
G01*
X143853627Y-91070328D01*
X143853629Y-91070329D01*
X143890813Y-91095175D01*
X143927495Y-91119685D01*
X143990315Y-91182505D01*
X144039672Y-91256373D01*
X144073669Y-91338448D01*
X144091000Y-91425579D01*
X144091000Y-91514421D01*
X144073669Y-91601552D01*
X144039672Y-91683627D01*
X144039671Y-91683629D01*
X143990314Y-91757496D01*
X143927496Y-91820314D01*
X143853629Y-91869671D01*
X143853628Y-91869672D01*
X143853627Y-91869672D01*
X143771552Y-91903669D01*
X143684421Y-91921000D01*
X143595579Y-91921000D01*
X143508448Y-91903669D01*
X143426373Y-91869672D01*
X143426372Y-91869672D01*
X143426371Y-91869671D01*
X143352504Y-91820314D01*
X143289686Y-91757496D01*
X143240329Y-91683629D01*
X143240328Y-91683627D01*
X143206331Y-91601552D01*
X143189000Y-91514421D01*
X143189000Y-91425579D01*
X143206331Y-91338448D01*
X143240328Y-91256373D01*
X143289685Y-91182505D01*
X143352505Y-91119685D01*
X143389187Y-91095175D01*
X143426371Y-91070329D01*
X143426373Y-91070328D01*
X143508448Y-91036331D01*
X143595579Y-91019000D01*
X143684421Y-91019000D01*
X143771552Y-91036331D01*
X143771552Y-91036331D01*
G37*
G36*
X143771552Y-89786331D02*
G01*
X143853627Y-89820328D01*
X143853629Y-89820329D01*
X143890813Y-89845175D01*
X143927495Y-89869685D01*
X143990315Y-89932505D01*
X144039672Y-90006373D01*
X144073669Y-90088448D01*
X144091000Y-90175579D01*
X144091000Y-90264421D01*
X144073669Y-90351552D01*
X144039672Y-90433627D01*
X144039671Y-90433629D01*
X143990314Y-90507496D01*
X143927496Y-90570314D01*
X143853629Y-90619671D01*
X143853628Y-90619672D01*
X143853627Y-90619672D01*
X143771552Y-90653669D01*
X143684421Y-90671000D01*
X143595579Y-90671000D01*
X143508448Y-90653669D01*
X143426373Y-90619672D01*
X143426372Y-90619672D01*
X143426371Y-90619671D01*
X143352504Y-90570314D01*
X143289686Y-90507496D01*
X143240329Y-90433629D01*
X143240328Y-90433627D01*
X143206331Y-90351552D01*
X143189000Y-90264421D01*
X143189000Y-90175579D01*
X143206331Y-90088448D01*
X143240328Y-90006373D01*
X143289685Y-89932505D01*
X143352505Y-89869685D01*
X143389187Y-89845175D01*
X143426371Y-89820329D01*
X143426373Y-89820328D01*
X143508448Y-89786331D01*
X143595579Y-89769000D01*
X143684421Y-89769000D01*
X143771552Y-89786331D01*
X143771552Y-89786331D01*
G37*
G36*
X143771552Y-80726331D02*
G01*
X143853627Y-80760328D01*
X143853629Y-80760329D01*
X143890813Y-80785175D01*
X143927495Y-80809685D01*
X143990315Y-80872505D01*
X144039672Y-80946373D01*
X144073669Y-81028448D01*
X144091000Y-81115579D01*
X144091000Y-81204421D01*
X144073669Y-81291552D01*
X144039672Y-81373627D01*
X144039671Y-81373629D01*
X143990314Y-81447496D01*
X143927496Y-81510314D01*
X143853629Y-81559671D01*
X143853628Y-81559672D01*
X143853627Y-81559672D01*
X143771552Y-81593669D01*
X143684421Y-81611000D01*
X143595579Y-81611000D01*
X143508448Y-81593669D01*
X143426373Y-81559672D01*
X143426372Y-81559672D01*
X143426371Y-81559671D01*
X143352504Y-81510314D01*
X143289686Y-81447496D01*
X143240329Y-81373629D01*
X143240328Y-81373627D01*
X143206331Y-81291552D01*
X143189000Y-81204421D01*
X143189000Y-81115579D01*
X143206331Y-81028448D01*
X143240328Y-80946373D01*
X143289685Y-80872505D01*
X143352505Y-80809685D01*
X143389187Y-80785175D01*
X143426371Y-80760329D01*
X143426373Y-80760328D01*
X143508448Y-80726331D01*
X143595579Y-80709000D01*
X143684421Y-80709000D01*
X143771552Y-80726331D01*
X143771552Y-80726331D01*
G37*
G36*
X165445331Y-76928211D02*
G01*
X165773092Y-77063974D01*
X166068070Y-77261072D01*
X166318928Y-77511930D01*
X166516026Y-77806908D01*
X166651789Y-78134669D01*
X166721000Y-78482616D01*
X166721000Y-78837384D01*
X166651789Y-79185331D01*
X166516026Y-79513092D01*
X166318928Y-79808070D01*
X166068070Y-80058928D01*
X165773092Y-80256026D01*
X165445331Y-80391789D01*
X165097384Y-80461000D01*
X164742616Y-80461000D01*
X164394669Y-80391789D01*
X164066908Y-80256026D01*
X163771930Y-80058928D01*
X163521072Y-79808070D01*
X163323974Y-79513092D01*
X163188211Y-79185331D01*
X163119000Y-78837384D01*
X163119000Y-78482616D01*
X163188211Y-78134669D01*
X163323974Y-77806908D01*
X163521072Y-77511930D01*
X163771930Y-77261072D01*
X164066908Y-77063974D01*
X164394669Y-76928211D01*
X164742616Y-76859000D01*
X165097384Y-76859000D01*
X165445331Y-76928211D01*
X165445331Y-76928211D01*
G37*
G36*
X355445331Y-76928211D02*
G01*
X355773092Y-77063974D01*
X356068070Y-77261072D01*
X356318928Y-77511930D01*
X356516026Y-77806908D01*
X356651789Y-78134669D01*
X356721000Y-78482616D01*
X356721000Y-78837384D01*
X356651789Y-79185331D01*
X356516026Y-79513092D01*
X356318928Y-79808070D01*
X356068070Y-80058928D01*
X355773092Y-80256026D01*
X355445331Y-80391789D01*
X355097384Y-80461000D01*
X354742616Y-80461000D01*
X354394669Y-80391789D01*
X354066908Y-80256026D01*
X353771930Y-80058928D01*
X353521072Y-79808070D01*
X353323974Y-79513092D01*
X353188211Y-79185331D01*
X353119000Y-78837384D01*
X353119000Y-78482616D01*
X353188211Y-78134669D01*
X353323974Y-77806908D01*
X353521072Y-77511930D01*
X353771930Y-77261072D01*
X354066908Y-77063974D01*
X354394669Y-76928211D01*
X354742616Y-76859000D01*
X355097384Y-76859000D01*
X355445331Y-76928211D01*
X355445331Y-76928211D01*
G37*
G36*
X143771552Y-79476331D02*
G01*
X143853627Y-79510328D01*
X143853629Y-79510329D01*
X143890813Y-79535175D01*
X143927495Y-79559685D01*
X143990315Y-79622505D01*
X144039672Y-79696373D01*
X144073669Y-79778448D01*
X144091000Y-79865579D01*
X144091000Y-79954421D01*
X144073669Y-80041552D01*
X144039672Y-80123627D01*
X144039671Y-80123629D01*
X143990314Y-80197496D01*
X143927496Y-80260314D01*
X143853629Y-80309671D01*
X143853628Y-80309672D01*
X143853627Y-80309672D01*
X143771552Y-80343669D01*
X143684421Y-80361000D01*
X143595579Y-80361000D01*
X143508448Y-80343669D01*
X143426373Y-80309672D01*
X143426372Y-80309672D01*
X143426371Y-80309671D01*
X143352504Y-80260314D01*
X143289686Y-80197496D01*
X143240329Y-80123629D01*
X143240328Y-80123627D01*
X143206331Y-80041552D01*
X143189000Y-79954421D01*
X143189000Y-79865579D01*
X143206331Y-79778448D01*
X143240328Y-79696373D01*
X143289685Y-79622505D01*
X143352505Y-79559685D01*
X143389187Y-79535175D01*
X143426371Y-79510329D01*
X143426373Y-79510328D01*
X143508448Y-79476331D01*
X143595579Y-79459000D01*
X143684421Y-79459000D01*
X143771552Y-79476331D01*
X143771552Y-79476331D01*
G37*
G36*
X143771552Y-78226331D02*
G01*
X143853627Y-78260328D01*
X143853629Y-78260329D01*
X143890813Y-78285175D01*
X143927495Y-78309685D01*
X143990315Y-78372505D01*
X144039672Y-78446373D01*
X144073669Y-78528448D01*
X144091000Y-78615579D01*
X144091000Y-78704421D01*
X144073669Y-78791552D01*
X144039672Y-78873627D01*
X144039671Y-78873629D01*
X143990314Y-78947496D01*
X143927496Y-79010314D01*
X143853629Y-79059671D01*
X143853628Y-79059672D01*
X143853627Y-79059672D01*
X143771552Y-79093669D01*
X143684421Y-79111000D01*
X143595579Y-79111000D01*
X143508448Y-79093669D01*
X143426373Y-79059672D01*
X143426372Y-79059672D01*
X143426371Y-79059671D01*
X143352504Y-79010314D01*
X143289686Y-78947496D01*
X143240329Y-78873629D01*
X143240328Y-78873627D01*
X143206331Y-78791552D01*
X143189000Y-78704421D01*
X143189000Y-78615579D01*
X143206331Y-78528448D01*
X143240328Y-78446373D01*
X143289685Y-78372505D01*
X143352505Y-78309685D01*
X143389187Y-78285175D01*
X143426371Y-78260329D01*
X143426373Y-78260328D01*
X143508448Y-78226331D01*
X143595579Y-78209000D01*
X143684421Y-78209000D01*
X143771552Y-78226331D01*
X143771552Y-78226331D01*
G37*
G36*
X143771552Y-76976331D02*
G01*
X143853627Y-77010328D01*
X143853629Y-77010329D01*
X143890813Y-77035175D01*
X143927495Y-77059685D01*
X143990315Y-77122505D01*
X144039672Y-77196373D01*
X144073669Y-77278448D01*
X144091000Y-77365579D01*
X144091000Y-77454421D01*
X144073669Y-77541552D01*
X144039672Y-77623627D01*
X144039671Y-77623629D01*
X143990314Y-77697496D01*
X143927496Y-77760314D01*
X143853629Y-77809671D01*
X143853628Y-77809672D01*
X143853627Y-77809672D01*
X143771552Y-77843669D01*
X143684421Y-77861000D01*
X143595579Y-77861000D01*
X143508448Y-77843669D01*
X143426373Y-77809672D01*
X143426372Y-77809672D01*
X143426371Y-77809671D01*
X143352504Y-77760314D01*
X143289686Y-77697496D01*
X143240329Y-77623629D01*
X143240328Y-77623627D01*
X143206331Y-77541552D01*
X143189000Y-77454421D01*
X143189000Y-77365579D01*
X143206331Y-77278448D01*
X143240328Y-77196373D01*
X143289685Y-77122505D01*
X143352505Y-77059685D01*
X143389187Y-77035175D01*
X143426371Y-77010329D01*
X143426373Y-77010328D01*
X143508448Y-76976331D01*
X143595579Y-76959000D01*
X143684421Y-76959000D01*
X143771552Y-76976331D01*
X143771552Y-76976331D01*
G37*
G36*
X143771552Y-75726331D02*
G01*
X143853627Y-75760328D01*
X143853629Y-75760329D01*
X143890813Y-75785175D01*
X143927495Y-75809685D01*
X143990315Y-75872505D01*
X144039672Y-75946373D01*
X144073669Y-76028448D01*
X144091000Y-76115579D01*
X144091000Y-76204421D01*
X144073669Y-76291552D01*
X144039672Y-76373627D01*
X144039671Y-76373629D01*
X143990314Y-76447496D01*
X143927496Y-76510314D01*
X143853629Y-76559671D01*
X143853628Y-76559672D01*
X143853627Y-76559672D01*
X143771552Y-76593669D01*
X143684421Y-76611000D01*
X143595579Y-76611000D01*
X143508448Y-76593669D01*
X143426373Y-76559672D01*
X143426372Y-76559672D01*
X143426371Y-76559671D01*
X143352504Y-76510314D01*
X143289686Y-76447496D01*
X143240329Y-76373629D01*
X143240328Y-76373627D01*
X143206331Y-76291552D01*
X143189000Y-76204421D01*
X143189000Y-76115579D01*
X143206331Y-76028448D01*
X143240328Y-75946373D01*
X143289685Y-75872505D01*
X143352505Y-75809685D01*
X143389187Y-75785175D01*
X143426371Y-75760329D01*
X143426373Y-75760328D01*
X143508448Y-75726331D01*
X143595579Y-75709000D01*
X143684421Y-75709000D01*
X143771552Y-75726331D01*
X143771552Y-75726331D01*
G37*
G36*
X143771552Y-66666331D02*
G01*
X143853627Y-66700328D01*
X143853629Y-66700329D01*
X143890813Y-66725175D01*
X143927495Y-66749685D01*
X143990315Y-66812505D01*
X144039672Y-66886373D01*
X144073669Y-66968448D01*
X144091000Y-67055579D01*
X144091000Y-67144421D01*
X144073669Y-67231552D01*
X144039672Y-67313627D01*
X144039671Y-67313629D01*
X143990314Y-67387496D01*
X143927496Y-67450314D01*
X143853629Y-67499671D01*
X143853628Y-67499672D01*
X143853627Y-67499672D01*
X143771552Y-67533669D01*
X143684421Y-67551000D01*
X143595579Y-67551000D01*
X143508448Y-67533669D01*
X143426373Y-67499672D01*
X143426372Y-67499672D01*
X143426371Y-67499671D01*
X143352504Y-67450314D01*
X143289686Y-67387496D01*
X143240329Y-67313629D01*
X143240328Y-67313627D01*
X143206331Y-67231552D01*
X143189000Y-67144421D01*
X143189000Y-67055579D01*
X143206331Y-66968448D01*
X143240328Y-66886373D01*
X143289685Y-66812505D01*
X143352505Y-66749685D01*
X143389187Y-66725175D01*
X143426371Y-66700329D01*
X143426373Y-66700328D01*
X143508448Y-66666331D01*
X143595579Y-66649000D01*
X143684421Y-66649000D01*
X143771552Y-66666331D01*
X143771552Y-66666331D01*
G37*
G36*
X143771552Y-65416331D02*
G01*
X143853627Y-65450328D01*
X143853629Y-65450329D01*
X143890813Y-65475175D01*
X143927495Y-65499685D01*
X143990315Y-65562505D01*
X144039672Y-65636373D01*
X144073669Y-65718448D01*
X144091000Y-65805579D01*
X144091000Y-65894421D01*
X144073669Y-65981552D01*
X144039672Y-66063627D01*
X144039671Y-66063629D01*
X143990314Y-66137496D01*
X143927496Y-66200314D01*
X143853629Y-66249671D01*
X143853628Y-66249672D01*
X143853627Y-66249672D01*
X143771552Y-66283669D01*
X143684421Y-66301000D01*
X143595579Y-66301000D01*
X143508448Y-66283669D01*
X143426373Y-66249672D01*
X143426372Y-66249672D01*
X143426371Y-66249671D01*
X143352504Y-66200314D01*
X143289686Y-66137496D01*
X143240329Y-66063629D01*
X143240328Y-66063627D01*
X143206331Y-65981552D01*
X143189000Y-65894421D01*
X143189000Y-65805579D01*
X143206331Y-65718448D01*
X143240328Y-65636373D01*
X143289685Y-65562505D01*
X143352505Y-65499685D01*
X143389187Y-65475175D01*
X143426371Y-65450329D01*
X143426373Y-65450328D01*
X143508448Y-65416331D01*
X143595579Y-65399000D01*
X143684421Y-65399000D01*
X143771552Y-65416331D01*
X143771552Y-65416331D01*
G37*
G36*
X143771552Y-64166331D02*
G01*
X143853627Y-64200328D01*
X143853629Y-64200329D01*
X143890813Y-64225175D01*
X143927495Y-64249685D01*
X143990315Y-64312505D01*
X144039672Y-64386373D01*
X144073669Y-64468448D01*
X144091000Y-64555579D01*
X144091000Y-64644421D01*
X144073669Y-64731552D01*
X144039672Y-64813627D01*
X144039671Y-64813629D01*
X143990314Y-64887496D01*
X143927496Y-64950314D01*
X143853629Y-64999671D01*
X143853628Y-64999672D01*
X143853627Y-64999672D01*
X143771552Y-65033669D01*
X143684421Y-65051000D01*
X143595579Y-65051000D01*
X143508448Y-65033669D01*
X143426373Y-64999672D01*
X143426372Y-64999672D01*
X143426371Y-64999671D01*
X143352504Y-64950314D01*
X143289686Y-64887496D01*
X143240329Y-64813629D01*
X143240328Y-64813627D01*
X143206331Y-64731552D01*
X143189000Y-64644421D01*
X143189000Y-64555579D01*
X143206331Y-64468448D01*
X143240328Y-64386373D01*
X143289685Y-64312505D01*
X143352505Y-64249685D01*
X143389187Y-64225175D01*
X143426371Y-64200329D01*
X143426373Y-64200328D01*
X143508448Y-64166331D01*
X143595579Y-64149000D01*
X143684421Y-64149000D01*
X143771552Y-64166331D01*
X143771552Y-64166331D01*
G37*
G36*
X143771552Y-62916331D02*
G01*
X143853627Y-62950328D01*
X143853629Y-62950329D01*
X143890813Y-62975175D01*
X143927495Y-62999685D01*
X143990315Y-63062505D01*
X144039672Y-63136373D01*
X144073669Y-63218448D01*
X144091000Y-63305579D01*
X144091000Y-63394421D01*
X144073669Y-63481552D01*
X144039672Y-63563627D01*
X144039671Y-63563629D01*
X143990314Y-63637496D01*
X143927496Y-63700314D01*
X143853629Y-63749671D01*
X143853628Y-63749672D01*
X143853627Y-63749672D01*
X143771552Y-63783669D01*
X143684421Y-63801000D01*
X143595579Y-63801000D01*
X143508448Y-63783669D01*
X143426373Y-63749672D01*
X143426372Y-63749672D01*
X143426371Y-63749671D01*
X143352504Y-63700314D01*
X143289686Y-63637496D01*
X143240329Y-63563629D01*
X143240328Y-63563627D01*
X143206331Y-63481552D01*
X143189000Y-63394421D01*
X143189000Y-63305579D01*
X143206331Y-63218448D01*
X143240328Y-63136373D01*
X143289685Y-63062505D01*
X143352505Y-62999685D01*
X143389187Y-62975175D01*
X143426371Y-62950329D01*
X143426373Y-62950328D01*
X143508448Y-62916331D01*
X143595579Y-62899000D01*
X143684421Y-62899000D01*
X143771552Y-62916331D01*
X143771552Y-62916331D01*
G37*
G36*
X143771552Y-61666331D02*
G01*
X143853627Y-61700328D01*
X143853629Y-61700329D01*
X143890813Y-61725175D01*
X143927495Y-61749685D01*
X143990315Y-61812505D01*
X144039672Y-61886373D01*
X144073669Y-61968448D01*
X144091000Y-62055579D01*
X144091000Y-62144421D01*
X144073669Y-62231552D01*
X144039672Y-62313627D01*
X144039671Y-62313629D01*
X143990314Y-62387496D01*
X143927496Y-62450314D01*
X143853629Y-62499671D01*
X143853628Y-62499672D01*
X143853627Y-62499672D01*
X143771552Y-62533669D01*
X143684421Y-62551000D01*
X143595579Y-62551000D01*
X143508448Y-62533669D01*
X143426373Y-62499672D01*
X143426372Y-62499672D01*
X143426371Y-62499671D01*
X143352504Y-62450314D01*
X143289686Y-62387496D01*
X143240329Y-62313629D01*
X143240328Y-62313627D01*
X143206331Y-62231552D01*
X143189000Y-62144421D01*
X143189000Y-62055579D01*
X143206331Y-61968448D01*
X143240328Y-61886373D01*
X143289685Y-61812505D01*
X143352505Y-61749685D01*
X143389187Y-61725175D01*
X143426371Y-61700329D01*
X143426373Y-61700328D01*
X143508448Y-61666331D01*
X143595579Y-61649000D01*
X143684421Y-61649000D01*
X143771552Y-61666331D01*
X143771552Y-61666331D01*
G37*
G36*
X203445331Y-57943211D02*
G01*
X203773092Y-58078974D01*
X204068070Y-58276072D01*
X204318928Y-58526930D01*
X204516026Y-58821908D01*
X204651789Y-59149669D01*
X204721000Y-59497616D01*
X204721000Y-59852384D01*
X204651789Y-60200331D01*
X204516026Y-60528092D01*
X204318928Y-60823070D01*
X204068070Y-61073928D01*
X203773092Y-61271026D01*
X203445331Y-61406789D01*
X203097384Y-61476000D01*
X202742616Y-61476000D01*
X202394669Y-61406789D01*
X202066908Y-61271026D01*
X201771930Y-61073928D01*
X201521072Y-60823070D01*
X201323974Y-60528092D01*
X201188211Y-60200331D01*
X201119000Y-59852384D01*
X201119000Y-59497616D01*
X201188211Y-59149669D01*
X201323974Y-58821908D01*
X201521072Y-58526930D01*
X201771930Y-58276072D01*
X202066908Y-58078974D01*
X202394669Y-57943211D01*
X202742616Y-57874000D01*
X203097384Y-57874000D01*
X203445331Y-57943211D01*
X203445331Y-57943211D01*
G37*
G36*
X120985322Y-57928211D02*
G01*
X121313083Y-58063974D01*
X121608061Y-58261072D01*
X121858919Y-58511930D01*
X122056017Y-58806908D01*
X122191780Y-59134669D01*
X122260991Y-59482616D01*
X122260991Y-59837384D01*
X122191780Y-60185331D01*
X122056017Y-60513092D01*
X121858919Y-60808070D01*
X121608061Y-61058928D01*
X121313083Y-61256026D01*
X120985322Y-61391789D01*
X120637375Y-61461000D01*
X120282607Y-61461000D01*
X119934660Y-61391789D01*
X119606899Y-61256026D01*
X119311921Y-61058928D01*
X119061063Y-60808070D01*
X118863965Y-60513092D01*
X118728202Y-60185331D01*
X118658991Y-59837384D01*
X118658991Y-59482616D01*
X118728202Y-59134669D01*
X118863965Y-58806908D01*
X119061063Y-58511930D01*
X119311921Y-58261072D01*
X119606899Y-58063974D01*
X119934660Y-57928211D01*
X120282607Y-57859000D01*
X120637375Y-57859000D01*
X120985322Y-57928211D01*
X120985322Y-57928211D01*
G37*
G36*
X355445331Y-57928211D02*
G01*
X355773092Y-58063974D01*
X356068070Y-58261072D01*
X356318928Y-58511930D01*
X356516026Y-58806908D01*
X356651789Y-59134669D01*
X356721000Y-59482616D01*
X356721000Y-59837384D01*
X356651789Y-60185331D01*
X356516026Y-60513092D01*
X356318928Y-60808070D01*
X356068070Y-61058928D01*
X355773092Y-61256026D01*
X355445331Y-61391789D01*
X355097384Y-61461000D01*
X354742616Y-61461000D01*
X354394669Y-61391789D01*
X354066908Y-61256026D01*
X353771930Y-61058928D01*
X353521072Y-60808070D01*
X353323974Y-60513092D01*
X353188211Y-60185331D01*
X353119000Y-59837384D01*
X353119000Y-59482616D01*
X353188211Y-59134669D01*
X353323974Y-58806908D01*
X353521072Y-58511930D01*
X353771930Y-58261072D01*
X354066908Y-58063974D01*
X354394669Y-57928211D01*
X354742616Y-57859000D01*
X355097384Y-57859000D01*
X355445331Y-57928211D01*
X355445331Y-57928211D01*
G37*
G36*
X317445331Y-57928211D02*
G01*
X317773092Y-58063974D01*
X318068070Y-58261072D01*
X318318928Y-58511930D01*
X318516026Y-58806908D01*
X318651789Y-59134669D01*
X318721000Y-59482616D01*
X318721000Y-59837384D01*
X318651789Y-60185331D01*
X318516026Y-60513092D01*
X318318928Y-60808070D01*
X318068070Y-61058928D01*
X317773092Y-61256026D01*
X317445331Y-61391789D01*
X317097384Y-61461000D01*
X316742616Y-61461000D01*
X316394669Y-61391789D01*
X316066908Y-61256026D01*
X315771930Y-61058928D01*
X315521072Y-60808070D01*
X315323974Y-60513092D01*
X315188211Y-60185331D01*
X315119000Y-59837384D01*
X315119000Y-59482616D01*
X315188211Y-59134669D01*
X315323974Y-58806908D01*
X315521072Y-58511930D01*
X315771930Y-58261072D01*
X316066908Y-58063974D01*
X316394669Y-57928211D01*
X316742616Y-57859000D01*
X317097384Y-57859000D01*
X317445331Y-57928211D01*
X317445331Y-57928211D01*
G37*
G36*
X165445331Y-57928211D02*
G01*
X165773092Y-58063974D01*
X166068070Y-58261072D01*
X166318928Y-58511930D01*
X166516026Y-58806908D01*
X166651789Y-59134669D01*
X166721000Y-59482616D01*
X166721000Y-59837384D01*
X166651789Y-60185331D01*
X166516026Y-60513092D01*
X166318928Y-60808070D01*
X166068070Y-61058928D01*
X165773092Y-61256026D01*
X165445331Y-61391789D01*
X165097384Y-61461000D01*
X164742616Y-61461000D01*
X164394669Y-61391789D01*
X164066908Y-61256026D01*
X163771930Y-61058928D01*
X163521072Y-60808070D01*
X163323974Y-60513092D01*
X163188211Y-60185331D01*
X163119000Y-59837384D01*
X163119000Y-59482616D01*
X163188211Y-59134669D01*
X163323974Y-58806908D01*
X163521072Y-58511930D01*
X163771930Y-58261072D01*
X164066908Y-58063974D01*
X164394669Y-57928211D01*
X164742616Y-57859000D01*
X165097384Y-57859000D01*
X165445331Y-57928211D01*
X165445331Y-57928211D01*
G37*
G36*
X222445331Y-57928211D02*
G01*
X222773092Y-58063974D01*
X223068070Y-58261072D01*
X223318928Y-58511930D01*
X223516026Y-58806908D01*
X223651789Y-59134669D01*
X223721000Y-59482616D01*
X223721000Y-59837384D01*
X223651789Y-60185331D01*
X223516026Y-60513092D01*
X223318928Y-60808070D01*
X223068070Y-61058928D01*
X222773092Y-61256026D01*
X222445331Y-61391789D01*
X222097384Y-61461000D01*
X221742616Y-61461000D01*
X221394669Y-61391789D01*
X221066908Y-61256026D01*
X220771930Y-61058928D01*
X220521072Y-60808070D01*
X220323974Y-60513092D01*
X220188211Y-60185331D01*
X220119000Y-59837384D01*
X220119000Y-59482616D01*
X220188211Y-59134669D01*
X220323974Y-58806908D01*
X220521072Y-58511930D01*
X220771930Y-58261072D01*
X221066908Y-58063974D01*
X221394669Y-57928211D01*
X221742616Y-57859000D01*
X222097384Y-57859000D01*
X222445331Y-57928211D01*
X222445331Y-57928211D01*
G37*
G36*
X298445331Y-57928211D02*
G01*
X298773092Y-58063974D01*
X299068070Y-58261072D01*
X299318928Y-58511930D01*
X299516026Y-58806908D01*
X299651789Y-59134669D01*
X299721000Y-59482616D01*
X299721000Y-59837384D01*
X299651789Y-60185331D01*
X299516026Y-60513092D01*
X299318928Y-60808070D01*
X299068070Y-61058928D01*
X298773092Y-61256026D01*
X298445331Y-61391789D01*
X298097384Y-61461000D01*
X297742616Y-61461000D01*
X297394669Y-61391789D01*
X297066908Y-61256026D01*
X296771930Y-61058928D01*
X296521072Y-60808070D01*
X296323974Y-60513092D01*
X296188211Y-60185331D01*
X296119000Y-59837384D01*
X296119000Y-59482616D01*
X296188211Y-59134669D01*
X296323974Y-58806908D01*
X296521072Y-58511930D01*
X296771930Y-58261072D01*
X297066908Y-58063974D01*
X297394669Y-57928211D01*
X297742616Y-57859000D01*
X298097384Y-57859000D01*
X298445331Y-57928211D01*
X298445331Y-57928211D01*
G37*
G36*
X82985322Y-57928211D02*
G01*
X83313083Y-58063974D01*
X83608061Y-58261072D01*
X83858919Y-58511930D01*
X84056017Y-58806908D01*
X84191780Y-59134669D01*
X84260991Y-59482616D01*
X84260991Y-59837384D01*
X84191780Y-60185331D01*
X84056017Y-60513092D01*
X83858919Y-60808070D01*
X83608061Y-61058928D01*
X83313083Y-61256026D01*
X82985322Y-61391789D01*
X82637375Y-61461000D01*
X82282607Y-61461000D01*
X81934660Y-61391789D01*
X81606899Y-61256026D01*
X81311921Y-61058928D01*
X81061063Y-60808070D01*
X80863965Y-60513092D01*
X80728202Y-60185331D01*
X80658991Y-59837384D01*
X80658991Y-59482616D01*
X80728202Y-59134669D01*
X80863965Y-58806908D01*
X81061063Y-58511930D01*
X81311921Y-58261072D01*
X81606899Y-58063974D01*
X81934660Y-57928211D01*
X82282607Y-57859000D01*
X82637375Y-57859000D01*
X82985322Y-57928211D01*
X82985322Y-57928211D01*
G37*
G36*
X203432631Y-49948211D02*
G01*
X203760392Y-50083974D01*
X204055370Y-50281072D01*
X204306228Y-50531930D01*
X204503326Y-50826908D01*
X204639089Y-51154669D01*
X204708300Y-51502616D01*
X204708300Y-51857384D01*
X204639089Y-52205331D01*
X204503326Y-52533092D01*
X204306228Y-52828070D01*
X204055370Y-53078928D01*
X203760392Y-53276026D01*
X203432631Y-53411789D01*
X203084684Y-53481000D01*
X202729916Y-53481000D01*
X202381969Y-53411789D01*
X202054208Y-53276026D01*
X201759230Y-53078928D01*
X201508372Y-52828070D01*
X201311274Y-52533092D01*
X201175511Y-52205331D01*
X201106300Y-51857384D01*
X201106300Y-51502616D01*
X201175511Y-51154669D01*
X201311274Y-50826908D01*
X201508372Y-50531930D01*
X201759230Y-50281072D01*
X202054208Y-50083974D01*
X202381969Y-49948211D01*
X202729916Y-49879000D01*
X203084684Y-49879000D01*
X203432631Y-49948211D01*
X203432631Y-49948211D01*
G37*
G36*
X143771552Y-52226331D02*
G01*
X143853627Y-52260328D01*
X143853629Y-52260329D01*
X143890813Y-52285175D01*
X143927495Y-52309685D01*
X143990315Y-52372505D01*
X144039672Y-52446373D01*
X144073669Y-52528448D01*
X144091000Y-52615579D01*
X144091000Y-52704421D01*
X144073669Y-52791552D01*
X144039672Y-52873627D01*
X144039671Y-52873629D01*
X143990314Y-52947496D01*
X143927496Y-53010314D01*
X143853629Y-53059671D01*
X143853628Y-53059672D01*
X143853627Y-53059672D01*
X143771552Y-53093669D01*
X143684421Y-53111000D01*
X143595579Y-53111000D01*
X143508448Y-53093669D01*
X143426373Y-53059672D01*
X143426372Y-53059672D01*
X143426371Y-53059671D01*
X143352504Y-53010314D01*
X143289686Y-52947496D01*
X143240329Y-52873629D01*
X143240328Y-52873627D01*
X143206331Y-52791552D01*
X143189000Y-52704421D01*
X143189000Y-52615579D01*
X143206331Y-52528448D01*
X143240328Y-52446373D01*
X143289685Y-52372505D01*
X143352505Y-52309685D01*
X143389187Y-52285175D01*
X143426371Y-52260329D01*
X143426373Y-52260328D01*
X143508448Y-52226331D01*
X143595579Y-52209000D01*
X143684421Y-52209000D01*
X143771552Y-52226331D01*
X143771552Y-52226331D01*
G37*
G36*
X143771552Y-50976331D02*
G01*
X143853627Y-51010328D01*
X143853629Y-51010329D01*
X143890813Y-51035175D01*
X143927495Y-51059685D01*
X143990315Y-51122505D01*
X144039672Y-51196373D01*
X144073669Y-51278448D01*
X144091000Y-51365579D01*
X144091000Y-51454421D01*
X144073669Y-51541552D01*
X144039672Y-51623627D01*
X144039671Y-51623629D01*
X143990314Y-51697496D01*
X143927496Y-51760314D01*
X143853629Y-51809671D01*
X143853628Y-51809672D01*
X143853627Y-51809672D01*
X143771552Y-51843669D01*
X143684421Y-51861000D01*
X143595579Y-51861000D01*
X143508448Y-51843669D01*
X143426373Y-51809672D01*
X143426372Y-51809672D01*
X143426371Y-51809671D01*
X143352504Y-51760314D01*
X143289686Y-51697496D01*
X143240329Y-51623629D01*
X143240328Y-51623627D01*
X143206331Y-51541552D01*
X143189000Y-51454421D01*
X143189000Y-51365579D01*
X143206331Y-51278448D01*
X143240328Y-51196373D01*
X143289685Y-51122505D01*
X143352505Y-51059685D01*
X143389187Y-51035175D01*
X143426371Y-51010329D01*
X143426373Y-51010328D01*
X143508448Y-50976331D01*
X143595579Y-50959000D01*
X143684421Y-50959000D01*
X143771552Y-50976331D01*
X143771552Y-50976331D01*
G37*
G36*
X143771552Y-49726331D02*
G01*
X143853627Y-49760328D01*
X143853629Y-49760329D01*
X143890813Y-49785175D01*
X143927495Y-49809685D01*
X143990315Y-49872505D01*
X144039672Y-49946373D01*
X144073669Y-50028448D01*
X144091000Y-50115579D01*
X144091000Y-50204421D01*
X144073669Y-50291552D01*
X144039672Y-50373627D01*
X144039671Y-50373629D01*
X143990314Y-50447496D01*
X143927496Y-50510314D01*
X143853629Y-50559671D01*
X143853628Y-50559672D01*
X143853627Y-50559672D01*
X143771552Y-50593669D01*
X143684421Y-50611000D01*
X143595579Y-50611000D01*
X143508448Y-50593669D01*
X143426373Y-50559672D01*
X143426372Y-50559672D01*
X143426371Y-50559671D01*
X143352504Y-50510314D01*
X143289686Y-50447496D01*
X143240329Y-50373629D01*
X143240328Y-50373627D01*
X143206331Y-50291552D01*
X143189000Y-50204421D01*
X143189000Y-50115579D01*
X143206331Y-50028448D01*
X143240328Y-49946373D01*
X143289685Y-49872505D01*
X143352505Y-49809685D01*
X143389187Y-49785175D01*
X143426371Y-49760329D01*
X143426373Y-49760328D01*
X143508448Y-49726331D01*
X143595579Y-49709000D01*
X143684421Y-49709000D01*
X143771552Y-49726331D01*
X143771552Y-49726331D01*
G37*
G36*
X143771552Y-48476331D02*
G01*
X143853627Y-48510328D01*
X143853629Y-48510329D01*
X143890813Y-48535175D01*
X143927495Y-48559685D01*
X143990315Y-48622505D01*
X144039672Y-48696373D01*
X144073669Y-48778448D01*
X144091000Y-48865579D01*
X144091000Y-48954421D01*
X144073669Y-49041552D01*
X144039672Y-49123627D01*
X144039671Y-49123629D01*
X143990314Y-49197496D01*
X143927496Y-49260314D01*
X143853629Y-49309671D01*
X143853628Y-49309672D01*
X143853627Y-49309672D01*
X143771552Y-49343669D01*
X143684421Y-49361000D01*
X143595579Y-49361000D01*
X143508448Y-49343669D01*
X143426373Y-49309672D01*
X143426372Y-49309672D01*
X143426371Y-49309671D01*
X143352504Y-49260314D01*
X143289686Y-49197496D01*
X143240329Y-49123629D01*
X143240328Y-49123627D01*
X143206331Y-49041552D01*
X143189000Y-48954421D01*
X143189000Y-48865579D01*
X143206331Y-48778448D01*
X143240328Y-48696373D01*
X143289685Y-48622505D01*
X143352505Y-48559685D01*
X143389187Y-48535175D01*
X143426371Y-48510329D01*
X143426373Y-48510328D01*
X143508448Y-48476331D01*
X143595579Y-48459000D01*
X143684421Y-48459000D01*
X143771552Y-48476331D01*
X143771552Y-48476331D01*
G37*
G36*
X143771552Y-47226331D02*
G01*
X143853627Y-47260328D01*
X143853629Y-47260329D01*
X143890813Y-47285175D01*
X143927495Y-47309685D01*
X143990315Y-47372505D01*
X144039672Y-47446373D01*
X144073669Y-47528448D01*
X144091000Y-47615579D01*
X144091000Y-47704421D01*
X144073669Y-47791552D01*
X144039672Y-47873627D01*
X144039671Y-47873629D01*
X143990314Y-47947496D01*
X143927496Y-48010314D01*
X143853629Y-48059671D01*
X143853628Y-48059672D01*
X143853627Y-48059672D01*
X143771552Y-48093669D01*
X143684421Y-48111000D01*
X143595579Y-48111000D01*
X143508448Y-48093669D01*
X143426373Y-48059672D01*
X143426372Y-48059672D01*
X143426371Y-48059671D01*
X143352504Y-48010314D01*
X143289686Y-47947496D01*
X143240329Y-47873629D01*
X143240328Y-47873627D01*
X143206331Y-47791552D01*
X143189000Y-47704421D01*
X143189000Y-47615579D01*
X143206331Y-47528448D01*
X143240328Y-47446373D01*
X143289685Y-47372505D01*
X143352505Y-47309685D01*
X143389187Y-47285175D01*
X143426371Y-47260329D01*
X143426373Y-47260328D01*
X143508448Y-47226331D01*
X143595579Y-47209000D01*
X143684421Y-47209000D01*
X143771552Y-47226331D01*
X143771552Y-47226331D01*
G37*
M02*
