G04 #@! TF.GenerationSoftware,KiCad,Pcbnew,(5.1.2-1)-1*
G04 #@! TF.CreationDate,2020-06-05T15:41:12-05:00*
G04 #@! TF.ProjectId,therick48.16SP_bottom_plate,74686572-6963-46b3-9438-2e313653505f,rev?*
G04 #@! TF.SameCoordinates,Original*
G04 #@! TF.FileFunction,Soldermask,Top*
G04 #@! TF.FilePolarity,Negative*
%FSLAX46Y46*%
G04 Gerber Fmt 4.6, Leading zero omitted, Abs format (unit mm)*
G04 Created by KiCad (PCBNEW (5.1.2-1)-1) date 2020-06-05 15:41:12*
%MOMM*%
%LPD*%
G04 APERTURE LIST*
%ADD10C,0.100000*%
G04 APERTURE END LIST*
D10*
G36*
X145671169Y-109226049D02*
G01*
X145753244Y-109260046D01*
X145753246Y-109260047D01*
X145790430Y-109284893D01*
X145827112Y-109309403D01*
X145889932Y-109372223D01*
X145939289Y-109446091D01*
X145973286Y-109528166D01*
X145990617Y-109615297D01*
X145990617Y-109704139D01*
X145973286Y-109791270D01*
X145939289Y-109873345D01*
X145939288Y-109873347D01*
X145889931Y-109947214D01*
X145827113Y-110010032D01*
X145753246Y-110059389D01*
X145753245Y-110059390D01*
X145753244Y-110059390D01*
X145671169Y-110093387D01*
X145584038Y-110110718D01*
X145495196Y-110110718D01*
X145408065Y-110093387D01*
X145325990Y-110059390D01*
X145325989Y-110059390D01*
X145325988Y-110059389D01*
X145252121Y-110010032D01*
X145189303Y-109947214D01*
X145139946Y-109873347D01*
X145139945Y-109873345D01*
X145105948Y-109791270D01*
X145088617Y-109704139D01*
X145088617Y-109615297D01*
X145105948Y-109528166D01*
X145139945Y-109446091D01*
X145189302Y-109372223D01*
X145252122Y-109309403D01*
X145288804Y-109284893D01*
X145325988Y-109260047D01*
X145325990Y-109260046D01*
X145408065Y-109226049D01*
X145495196Y-109208718D01*
X145584038Y-109208718D01*
X145671169Y-109226049D01*
X145671169Y-109226049D01*
G37*
G36*
X120211236Y-109226049D02*
G01*
X120293311Y-109260046D01*
X120293313Y-109260047D01*
X120330497Y-109284893D01*
X120367179Y-109309403D01*
X120429999Y-109372223D01*
X120479356Y-109446091D01*
X120513353Y-109528166D01*
X120530684Y-109615297D01*
X120530684Y-109704139D01*
X120513353Y-109791270D01*
X120479356Y-109873345D01*
X120479355Y-109873347D01*
X120429998Y-109947214D01*
X120367180Y-110010032D01*
X120293313Y-110059389D01*
X120293312Y-110059390D01*
X120293311Y-110059390D01*
X120211236Y-110093387D01*
X120124105Y-110110718D01*
X120035263Y-110110718D01*
X119948132Y-110093387D01*
X119866057Y-110059390D01*
X119866056Y-110059390D01*
X119866055Y-110059389D01*
X119792188Y-110010032D01*
X119729370Y-109947214D01*
X119680013Y-109873347D01*
X119680012Y-109873345D01*
X119646015Y-109791270D01*
X119628684Y-109704139D01*
X119628684Y-109615297D01*
X119646015Y-109528166D01*
X119680012Y-109446091D01*
X119729369Y-109372223D01*
X119792189Y-109309403D01*
X119828871Y-109284893D01*
X119866055Y-109260047D01*
X119866057Y-109260046D01*
X119948132Y-109226049D01*
X120035263Y-109208718D01*
X120124105Y-109208718D01*
X120211236Y-109226049D01*
X120211236Y-109226049D01*
G37*
G36*
X101211286Y-109226049D02*
G01*
X101293361Y-109260046D01*
X101293363Y-109260047D01*
X101330547Y-109284893D01*
X101367229Y-109309403D01*
X101430049Y-109372223D01*
X101479406Y-109446091D01*
X101513403Y-109528166D01*
X101530734Y-109615297D01*
X101530734Y-109704139D01*
X101513403Y-109791270D01*
X101479406Y-109873345D01*
X101479405Y-109873347D01*
X101430048Y-109947214D01*
X101367230Y-110010032D01*
X101293363Y-110059389D01*
X101293362Y-110059390D01*
X101293361Y-110059390D01*
X101211286Y-110093387D01*
X101124155Y-110110718D01*
X101035313Y-110110718D01*
X100948182Y-110093387D01*
X100866107Y-110059390D01*
X100866106Y-110059390D01*
X100866105Y-110059389D01*
X100792238Y-110010032D01*
X100729420Y-109947214D01*
X100680063Y-109873347D01*
X100680062Y-109873345D01*
X100646065Y-109791270D01*
X100628734Y-109704139D01*
X100628734Y-109615297D01*
X100646065Y-109528166D01*
X100680062Y-109446091D01*
X100729419Y-109372223D01*
X100792239Y-109309403D01*
X100828921Y-109284893D01*
X100866105Y-109260047D01*
X100866107Y-109260046D01*
X100948182Y-109226049D01*
X101035313Y-109208718D01*
X101124155Y-109208718D01*
X101211286Y-109226049D01*
X101211286Y-109226049D01*
G37*
G36*
X145671169Y-107976049D02*
G01*
X145753244Y-108010046D01*
X145753246Y-108010047D01*
X145790430Y-108034893D01*
X145827112Y-108059403D01*
X145889932Y-108122223D01*
X145939289Y-108196091D01*
X145973286Y-108278166D01*
X145990617Y-108365297D01*
X145990617Y-108454139D01*
X145973286Y-108541270D01*
X145939289Y-108623345D01*
X145939288Y-108623347D01*
X145889931Y-108697214D01*
X145827113Y-108760032D01*
X145753246Y-108809389D01*
X145753245Y-108809390D01*
X145753244Y-108809390D01*
X145671169Y-108843387D01*
X145584038Y-108860718D01*
X145495196Y-108860718D01*
X145408065Y-108843387D01*
X145325990Y-108809390D01*
X145325989Y-108809390D01*
X145325988Y-108809389D01*
X145252121Y-108760032D01*
X145189303Y-108697214D01*
X145139946Y-108623347D01*
X145139945Y-108623345D01*
X145105948Y-108541270D01*
X145088617Y-108454139D01*
X145088617Y-108365297D01*
X145105948Y-108278166D01*
X145139945Y-108196091D01*
X145189302Y-108122223D01*
X145252122Y-108059403D01*
X145288804Y-108034893D01*
X145325988Y-108010047D01*
X145325990Y-108010046D01*
X145408065Y-107976049D01*
X145495196Y-107958718D01*
X145584038Y-107958718D01*
X145671169Y-107976049D01*
X145671169Y-107976049D01*
G37*
G36*
X120211236Y-107976049D02*
G01*
X120293311Y-108010046D01*
X120293313Y-108010047D01*
X120330497Y-108034893D01*
X120367179Y-108059403D01*
X120429999Y-108122223D01*
X120479356Y-108196091D01*
X120513353Y-108278166D01*
X120530684Y-108365297D01*
X120530684Y-108454139D01*
X120513353Y-108541270D01*
X120479356Y-108623345D01*
X120479355Y-108623347D01*
X120429998Y-108697214D01*
X120367180Y-108760032D01*
X120293313Y-108809389D01*
X120293312Y-108809390D01*
X120293311Y-108809390D01*
X120211236Y-108843387D01*
X120124105Y-108860718D01*
X120035263Y-108860718D01*
X119948132Y-108843387D01*
X119866057Y-108809390D01*
X119866056Y-108809390D01*
X119866055Y-108809389D01*
X119792188Y-108760032D01*
X119729370Y-108697214D01*
X119680013Y-108623347D01*
X119680012Y-108623345D01*
X119646015Y-108541270D01*
X119628684Y-108454139D01*
X119628684Y-108365297D01*
X119646015Y-108278166D01*
X119680012Y-108196091D01*
X119729369Y-108122223D01*
X119792189Y-108059403D01*
X119828871Y-108034893D01*
X119866055Y-108010047D01*
X119866057Y-108010046D01*
X119948132Y-107976049D01*
X120035263Y-107958718D01*
X120124105Y-107958718D01*
X120211236Y-107976049D01*
X120211236Y-107976049D01*
G37*
G36*
X101211286Y-107976049D02*
G01*
X101293361Y-108010046D01*
X101293363Y-108010047D01*
X101330547Y-108034893D01*
X101367229Y-108059403D01*
X101430049Y-108122223D01*
X101479406Y-108196091D01*
X101513403Y-108278166D01*
X101530734Y-108365297D01*
X101530734Y-108454139D01*
X101513403Y-108541270D01*
X101479406Y-108623345D01*
X101479405Y-108623347D01*
X101430048Y-108697214D01*
X101367230Y-108760032D01*
X101293363Y-108809389D01*
X101293362Y-108809390D01*
X101293361Y-108809390D01*
X101211286Y-108843387D01*
X101124155Y-108860718D01*
X101035313Y-108860718D01*
X100948182Y-108843387D01*
X100866107Y-108809390D01*
X100866106Y-108809390D01*
X100866105Y-108809389D01*
X100792238Y-108760032D01*
X100729420Y-108697214D01*
X100680063Y-108623347D01*
X100680062Y-108623345D01*
X100646065Y-108541270D01*
X100628734Y-108454139D01*
X100628734Y-108365297D01*
X100646065Y-108278166D01*
X100680062Y-108196091D01*
X100729419Y-108122223D01*
X100792239Y-108059403D01*
X100828921Y-108034893D01*
X100866105Y-108010047D01*
X100866107Y-108010046D01*
X100948182Y-107976049D01*
X101035313Y-107958718D01*
X101124155Y-107958718D01*
X101211286Y-107976049D01*
X101211286Y-107976049D01*
G37*
G36*
X145671169Y-106726049D02*
G01*
X145753244Y-106760046D01*
X145753246Y-106760047D01*
X145790430Y-106784893D01*
X145827112Y-106809403D01*
X145889932Y-106872223D01*
X145939289Y-106946091D01*
X145973286Y-107028166D01*
X145990617Y-107115297D01*
X145990617Y-107204139D01*
X145973286Y-107291270D01*
X145939289Y-107373345D01*
X145939288Y-107373347D01*
X145889931Y-107447214D01*
X145827113Y-107510032D01*
X145753246Y-107559389D01*
X145753245Y-107559390D01*
X145753244Y-107559390D01*
X145671169Y-107593387D01*
X145584038Y-107610718D01*
X145495196Y-107610718D01*
X145408065Y-107593387D01*
X145325990Y-107559390D01*
X145325989Y-107559390D01*
X145325988Y-107559389D01*
X145252121Y-107510032D01*
X145189303Y-107447214D01*
X145139946Y-107373347D01*
X145139945Y-107373345D01*
X145105948Y-107291270D01*
X145088617Y-107204139D01*
X145088617Y-107115297D01*
X145105948Y-107028166D01*
X145139945Y-106946091D01*
X145189302Y-106872223D01*
X145252122Y-106809403D01*
X145288804Y-106784893D01*
X145325988Y-106760047D01*
X145325990Y-106760046D01*
X145408065Y-106726049D01*
X145495196Y-106708718D01*
X145584038Y-106708718D01*
X145671169Y-106726049D01*
X145671169Y-106726049D01*
G37*
G36*
X120211236Y-106726049D02*
G01*
X120293311Y-106760046D01*
X120293313Y-106760047D01*
X120330497Y-106784893D01*
X120367179Y-106809403D01*
X120429999Y-106872223D01*
X120479356Y-106946091D01*
X120513353Y-107028166D01*
X120530684Y-107115297D01*
X120530684Y-107204139D01*
X120513353Y-107291270D01*
X120479356Y-107373345D01*
X120479355Y-107373347D01*
X120429998Y-107447214D01*
X120367180Y-107510032D01*
X120293313Y-107559389D01*
X120293312Y-107559390D01*
X120293311Y-107559390D01*
X120211236Y-107593387D01*
X120124105Y-107610718D01*
X120035263Y-107610718D01*
X119948132Y-107593387D01*
X119866057Y-107559390D01*
X119866056Y-107559390D01*
X119866055Y-107559389D01*
X119792188Y-107510032D01*
X119729370Y-107447214D01*
X119680013Y-107373347D01*
X119680012Y-107373345D01*
X119646015Y-107291270D01*
X119628684Y-107204139D01*
X119628684Y-107115297D01*
X119646015Y-107028166D01*
X119680012Y-106946091D01*
X119729369Y-106872223D01*
X119792189Y-106809403D01*
X119828871Y-106784893D01*
X119866055Y-106760047D01*
X119866057Y-106760046D01*
X119948132Y-106726049D01*
X120035263Y-106708718D01*
X120124105Y-106708718D01*
X120211236Y-106726049D01*
X120211236Y-106726049D01*
G37*
G36*
X101211286Y-106726049D02*
G01*
X101293361Y-106760046D01*
X101293363Y-106760047D01*
X101330547Y-106784893D01*
X101367229Y-106809403D01*
X101430049Y-106872223D01*
X101479406Y-106946091D01*
X101513403Y-107028166D01*
X101530734Y-107115297D01*
X101530734Y-107204139D01*
X101513403Y-107291270D01*
X101479406Y-107373345D01*
X101479405Y-107373347D01*
X101430048Y-107447214D01*
X101367230Y-107510032D01*
X101293363Y-107559389D01*
X101293362Y-107559390D01*
X101293361Y-107559390D01*
X101211286Y-107593387D01*
X101124155Y-107610718D01*
X101035313Y-107610718D01*
X100948182Y-107593387D01*
X100866107Y-107559390D01*
X100866106Y-107559390D01*
X100866105Y-107559389D01*
X100792238Y-107510032D01*
X100729420Y-107447214D01*
X100680063Y-107373347D01*
X100680062Y-107373345D01*
X100646065Y-107291270D01*
X100628734Y-107204139D01*
X100628734Y-107115297D01*
X100646065Y-107028166D01*
X100680062Y-106946091D01*
X100729419Y-106872223D01*
X100792239Y-106809403D01*
X100828921Y-106784893D01*
X100866105Y-106760047D01*
X100866107Y-106760046D01*
X100948182Y-106726049D01*
X101035313Y-106708718D01*
X101124155Y-106708718D01*
X101211286Y-106726049D01*
X101211286Y-106726049D01*
G37*
G36*
X145671169Y-105476049D02*
G01*
X145753244Y-105510046D01*
X145753246Y-105510047D01*
X145790430Y-105534893D01*
X145827112Y-105559403D01*
X145889932Y-105622223D01*
X145939289Y-105696091D01*
X145973286Y-105778166D01*
X145990617Y-105865297D01*
X145990617Y-105954139D01*
X145973286Y-106041270D01*
X145939289Y-106123345D01*
X145939288Y-106123347D01*
X145889931Y-106197214D01*
X145827113Y-106260032D01*
X145753246Y-106309389D01*
X145753245Y-106309390D01*
X145753244Y-106309390D01*
X145671169Y-106343387D01*
X145584038Y-106360718D01*
X145495196Y-106360718D01*
X145408065Y-106343387D01*
X145325990Y-106309390D01*
X145325989Y-106309390D01*
X145325988Y-106309389D01*
X145252121Y-106260032D01*
X145189303Y-106197214D01*
X145139946Y-106123347D01*
X145139945Y-106123345D01*
X145105948Y-106041270D01*
X145088617Y-105954139D01*
X145088617Y-105865297D01*
X145105948Y-105778166D01*
X145139945Y-105696091D01*
X145189302Y-105622223D01*
X145252122Y-105559403D01*
X145288804Y-105534893D01*
X145325988Y-105510047D01*
X145325990Y-105510046D01*
X145408065Y-105476049D01*
X145495196Y-105458718D01*
X145584038Y-105458718D01*
X145671169Y-105476049D01*
X145671169Y-105476049D01*
G37*
G36*
X120211236Y-105476049D02*
G01*
X120293311Y-105510046D01*
X120293313Y-105510047D01*
X120330497Y-105534893D01*
X120367179Y-105559403D01*
X120429999Y-105622223D01*
X120479356Y-105696091D01*
X120513353Y-105778166D01*
X120530684Y-105865297D01*
X120530684Y-105954139D01*
X120513353Y-106041270D01*
X120479356Y-106123345D01*
X120479355Y-106123347D01*
X120429998Y-106197214D01*
X120367180Y-106260032D01*
X120293313Y-106309389D01*
X120293312Y-106309390D01*
X120293311Y-106309390D01*
X120211236Y-106343387D01*
X120124105Y-106360718D01*
X120035263Y-106360718D01*
X119948132Y-106343387D01*
X119866057Y-106309390D01*
X119866056Y-106309390D01*
X119866055Y-106309389D01*
X119792188Y-106260032D01*
X119729370Y-106197214D01*
X119680013Y-106123347D01*
X119680012Y-106123345D01*
X119646015Y-106041270D01*
X119628684Y-105954139D01*
X119628684Y-105865297D01*
X119646015Y-105778166D01*
X119680012Y-105696091D01*
X119729369Y-105622223D01*
X119792189Y-105559403D01*
X119828871Y-105534893D01*
X119866055Y-105510047D01*
X119866057Y-105510046D01*
X119948132Y-105476049D01*
X120035263Y-105458718D01*
X120124105Y-105458718D01*
X120211236Y-105476049D01*
X120211236Y-105476049D01*
G37*
G36*
X101211286Y-105476049D02*
G01*
X101293361Y-105510046D01*
X101293363Y-105510047D01*
X101330547Y-105534893D01*
X101367229Y-105559403D01*
X101430049Y-105622223D01*
X101479406Y-105696091D01*
X101513403Y-105778166D01*
X101530734Y-105865297D01*
X101530734Y-105954139D01*
X101513403Y-106041270D01*
X101479406Y-106123345D01*
X101479405Y-106123347D01*
X101430048Y-106197214D01*
X101367230Y-106260032D01*
X101293363Y-106309389D01*
X101293362Y-106309390D01*
X101293361Y-106309390D01*
X101211286Y-106343387D01*
X101124155Y-106360718D01*
X101035313Y-106360718D01*
X100948182Y-106343387D01*
X100866107Y-106309390D01*
X100866106Y-106309390D01*
X100866105Y-106309389D01*
X100792238Y-106260032D01*
X100729420Y-106197214D01*
X100680063Y-106123347D01*
X100680062Y-106123345D01*
X100646065Y-106041270D01*
X100628734Y-105954139D01*
X100628734Y-105865297D01*
X100646065Y-105778166D01*
X100680062Y-105696091D01*
X100729419Y-105622223D01*
X100792239Y-105559403D01*
X100828921Y-105534893D01*
X100866105Y-105510047D01*
X100866107Y-105510046D01*
X100948182Y-105476049D01*
X101035313Y-105458718D01*
X101124155Y-105458718D01*
X101211286Y-105476049D01*
X101211286Y-105476049D01*
G37*
G36*
X145671169Y-104226049D02*
G01*
X145753244Y-104260046D01*
X145753246Y-104260047D01*
X145790430Y-104284893D01*
X145827112Y-104309403D01*
X145889932Y-104372223D01*
X145939289Y-104446091D01*
X145973286Y-104528166D01*
X145990617Y-104615297D01*
X145990617Y-104704139D01*
X145973286Y-104791270D01*
X145939289Y-104873345D01*
X145939288Y-104873347D01*
X145889931Y-104947214D01*
X145827113Y-105010032D01*
X145753246Y-105059389D01*
X145753245Y-105059390D01*
X145753244Y-105059390D01*
X145671169Y-105093387D01*
X145584038Y-105110718D01*
X145495196Y-105110718D01*
X145408065Y-105093387D01*
X145325990Y-105059390D01*
X145325989Y-105059390D01*
X145325988Y-105059389D01*
X145252121Y-105010032D01*
X145189303Y-104947214D01*
X145139946Y-104873347D01*
X145139945Y-104873345D01*
X145105948Y-104791270D01*
X145088617Y-104704139D01*
X145088617Y-104615297D01*
X145105948Y-104528166D01*
X145139945Y-104446091D01*
X145189302Y-104372223D01*
X145252122Y-104309403D01*
X145288804Y-104284893D01*
X145325988Y-104260047D01*
X145325990Y-104260046D01*
X145408065Y-104226049D01*
X145495196Y-104208718D01*
X145584038Y-104208718D01*
X145671169Y-104226049D01*
X145671169Y-104226049D01*
G37*
G36*
X120211236Y-104226049D02*
G01*
X120293311Y-104260046D01*
X120293313Y-104260047D01*
X120330497Y-104284893D01*
X120367179Y-104309403D01*
X120429999Y-104372223D01*
X120479356Y-104446091D01*
X120513353Y-104528166D01*
X120530684Y-104615297D01*
X120530684Y-104704139D01*
X120513353Y-104791270D01*
X120479356Y-104873345D01*
X120479355Y-104873347D01*
X120429998Y-104947214D01*
X120367180Y-105010032D01*
X120293313Y-105059389D01*
X120293312Y-105059390D01*
X120293311Y-105059390D01*
X120211236Y-105093387D01*
X120124105Y-105110718D01*
X120035263Y-105110718D01*
X119948132Y-105093387D01*
X119866057Y-105059390D01*
X119866056Y-105059390D01*
X119866055Y-105059389D01*
X119792188Y-105010032D01*
X119729370Y-104947214D01*
X119680013Y-104873347D01*
X119680012Y-104873345D01*
X119646015Y-104791270D01*
X119628684Y-104704139D01*
X119628684Y-104615297D01*
X119646015Y-104528166D01*
X119680012Y-104446091D01*
X119729369Y-104372223D01*
X119792189Y-104309403D01*
X119828871Y-104284893D01*
X119866055Y-104260047D01*
X119866057Y-104260046D01*
X119948132Y-104226049D01*
X120035263Y-104208718D01*
X120124105Y-104208718D01*
X120211236Y-104226049D01*
X120211236Y-104226049D01*
G37*
G36*
X101211286Y-104226049D02*
G01*
X101293361Y-104260046D01*
X101293363Y-104260047D01*
X101330547Y-104284893D01*
X101367229Y-104309403D01*
X101430049Y-104372223D01*
X101479406Y-104446091D01*
X101513403Y-104528166D01*
X101530734Y-104615297D01*
X101530734Y-104704139D01*
X101513403Y-104791270D01*
X101479406Y-104873345D01*
X101479405Y-104873347D01*
X101430048Y-104947214D01*
X101367230Y-105010032D01*
X101293363Y-105059389D01*
X101293362Y-105059390D01*
X101293361Y-105059390D01*
X101211286Y-105093387D01*
X101124155Y-105110718D01*
X101035313Y-105110718D01*
X100948182Y-105093387D01*
X100866107Y-105059390D01*
X100866106Y-105059390D01*
X100866105Y-105059389D01*
X100792238Y-105010032D01*
X100729420Y-104947214D01*
X100680063Y-104873347D01*
X100680062Y-104873345D01*
X100646065Y-104791270D01*
X100628734Y-104704139D01*
X100628734Y-104615297D01*
X100646065Y-104528166D01*
X100680062Y-104446091D01*
X100729419Y-104372223D01*
X100792239Y-104309403D01*
X100828921Y-104284893D01*
X100866105Y-104260047D01*
X100866107Y-104260046D01*
X100948182Y-104226049D01*
X101035313Y-104208718D01*
X101124155Y-104208718D01*
X101211286Y-104226049D01*
X101211286Y-104226049D01*
G37*
G36*
X203445331Y-95928211D02*
G01*
X203773092Y-96063974D01*
X204068070Y-96261072D01*
X204318928Y-96511930D01*
X204516026Y-96806908D01*
X204651789Y-97134669D01*
X204721000Y-97482616D01*
X204721000Y-97837384D01*
X204651789Y-98185331D01*
X204516026Y-98513092D01*
X204318928Y-98808070D01*
X204068070Y-99058928D01*
X203773092Y-99256026D01*
X203445331Y-99391789D01*
X203097384Y-99461000D01*
X202742616Y-99461000D01*
X202394669Y-99391789D01*
X202066908Y-99256026D01*
X201771930Y-99058928D01*
X201521072Y-98808070D01*
X201323974Y-98513092D01*
X201188211Y-98185331D01*
X201119000Y-97837384D01*
X201119000Y-97482616D01*
X201188211Y-97134669D01*
X201323974Y-96806908D01*
X201521072Y-96511930D01*
X201771930Y-96261072D01*
X202066908Y-96063974D01*
X202394669Y-95928211D01*
X202742616Y-95859000D01*
X203097384Y-95859000D01*
X203445331Y-95928211D01*
X203445331Y-95928211D01*
G37*
G36*
X298445331Y-95928211D02*
G01*
X298773092Y-96063974D01*
X299068070Y-96261072D01*
X299318928Y-96511930D01*
X299516026Y-96806908D01*
X299651789Y-97134669D01*
X299721000Y-97482616D01*
X299721000Y-97837384D01*
X299651789Y-98185331D01*
X299516026Y-98513092D01*
X299318928Y-98808070D01*
X299068070Y-99058928D01*
X298773092Y-99256026D01*
X298445331Y-99391789D01*
X298097384Y-99461000D01*
X297742616Y-99461000D01*
X297394669Y-99391789D01*
X297066908Y-99256026D01*
X296771930Y-99058928D01*
X296521072Y-98808070D01*
X296323974Y-98513092D01*
X296188211Y-98185331D01*
X296119000Y-97837384D01*
X296119000Y-97482616D01*
X296188211Y-97134669D01*
X296323974Y-96806908D01*
X296521072Y-96511930D01*
X296771930Y-96261072D01*
X297066908Y-96063974D01*
X297394669Y-95928211D01*
X297742616Y-95859000D01*
X298097384Y-95859000D01*
X298445331Y-95928211D01*
X298445331Y-95928211D01*
G37*
G36*
X355445331Y-95928211D02*
G01*
X355773092Y-96063974D01*
X356068070Y-96261072D01*
X356318928Y-96511930D01*
X356516026Y-96806908D01*
X356651789Y-97134669D01*
X356721000Y-97482616D01*
X356721000Y-97837384D01*
X356651789Y-98185331D01*
X356516026Y-98513092D01*
X356318928Y-98808070D01*
X356068070Y-99058928D01*
X355773092Y-99256026D01*
X355445331Y-99391789D01*
X355097384Y-99461000D01*
X354742616Y-99461000D01*
X354394669Y-99391789D01*
X354066908Y-99256026D01*
X353771930Y-99058928D01*
X353521072Y-98808070D01*
X353323974Y-98513092D01*
X353188211Y-98185331D01*
X353119000Y-97837384D01*
X353119000Y-97482616D01*
X353188211Y-97134669D01*
X353323974Y-96806908D01*
X353521072Y-96511930D01*
X353771930Y-96261072D01*
X354066908Y-96063974D01*
X354394669Y-95928211D01*
X354742616Y-95859000D01*
X355097384Y-95859000D01*
X355445331Y-95928211D01*
X355445331Y-95928211D01*
G37*
G36*
X317445331Y-95928211D02*
G01*
X317773092Y-96063974D01*
X318068070Y-96261072D01*
X318318928Y-96511930D01*
X318516026Y-96806908D01*
X318651789Y-97134669D01*
X318721000Y-97482616D01*
X318721000Y-97837384D01*
X318651789Y-98185331D01*
X318516026Y-98513092D01*
X318318928Y-98808070D01*
X318068070Y-99058928D01*
X317773092Y-99256026D01*
X317445331Y-99391789D01*
X317097384Y-99461000D01*
X316742616Y-99461000D01*
X316394669Y-99391789D01*
X316066908Y-99256026D01*
X315771930Y-99058928D01*
X315521072Y-98808070D01*
X315323974Y-98513092D01*
X315188211Y-98185331D01*
X315119000Y-97837384D01*
X315119000Y-97482616D01*
X315188211Y-97134669D01*
X315323974Y-96806908D01*
X315521072Y-96511930D01*
X315771930Y-96261072D01*
X316066908Y-96063974D01*
X316394669Y-95928211D01*
X316742616Y-95859000D01*
X317097384Y-95859000D01*
X317445331Y-95928211D01*
X317445331Y-95928211D01*
G37*
G36*
X222445331Y-95928211D02*
G01*
X222773092Y-96063974D01*
X223068070Y-96261072D01*
X223318928Y-96511930D01*
X223516026Y-96806908D01*
X223651789Y-97134669D01*
X223721000Y-97482616D01*
X223721000Y-97837384D01*
X223651789Y-98185331D01*
X223516026Y-98513092D01*
X223318928Y-98808070D01*
X223068070Y-99058928D01*
X222773092Y-99256026D01*
X222445331Y-99391789D01*
X222097384Y-99461000D01*
X221742616Y-99461000D01*
X221394669Y-99391789D01*
X221066908Y-99256026D01*
X220771930Y-99058928D01*
X220521072Y-98808070D01*
X220323974Y-98513092D01*
X220188211Y-98185331D01*
X220119000Y-97837384D01*
X220119000Y-97482616D01*
X220188211Y-97134669D01*
X220323974Y-96806908D01*
X220521072Y-96511930D01*
X220771930Y-96261072D01*
X221066908Y-96063974D01*
X221394669Y-95928211D01*
X221742616Y-95859000D01*
X222097384Y-95859000D01*
X222445331Y-95928211D01*
X222445331Y-95928211D01*
G37*
G36*
X165445331Y-95928211D02*
G01*
X165773092Y-96063974D01*
X166068070Y-96261072D01*
X166318928Y-96511930D01*
X166516026Y-96806908D01*
X166651789Y-97134669D01*
X166721000Y-97482616D01*
X166721000Y-97837384D01*
X166651789Y-98185331D01*
X166516026Y-98513092D01*
X166318928Y-98808070D01*
X166068070Y-99058928D01*
X165773092Y-99256026D01*
X165445331Y-99391789D01*
X165097384Y-99461000D01*
X164742616Y-99461000D01*
X164394669Y-99391789D01*
X164066908Y-99256026D01*
X163771930Y-99058928D01*
X163521072Y-98808070D01*
X163323974Y-98513092D01*
X163188211Y-98185331D01*
X163119000Y-97837384D01*
X163119000Y-97482616D01*
X163188211Y-97134669D01*
X163323974Y-96806908D01*
X163521072Y-96511930D01*
X163771930Y-96261072D01*
X164066908Y-96063974D01*
X164394669Y-95928211D01*
X164742616Y-95859000D01*
X165097384Y-95859000D01*
X165445331Y-95928211D01*
X165445331Y-95928211D01*
G37*
G36*
X82985322Y-95928211D02*
G01*
X83313083Y-96063974D01*
X83608061Y-96261072D01*
X83858919Y-96511930D01*
X84056017Y-96806908D01*
X84191780Y-97134669D01*
X84260991Y-97482616D01*
X84260991Y-97837384D01*
X84191780Y-98185331D01*
X84056017Y-98513092D01*
X83858919Y-98808070D01*
X83608061Y-99058928D01*
X83313083Y-99256026D01*
X82985322Y-99391789D01*
X82637375Y-99461000D01*
X82282607Y-99461000D01*
X81934660Y-99391789D01*
X81606899Y-99256026D01*
X81311921Y-99058928D01*
X81061063Y-98808070D01*
X80863965Y-98513092D01*
X80728202Y-98185331D01*
X80658991Y-97837384D01*
X80658991Y-97482616D01*
X80728202Y-97134669D01*
X80863965Y-96806908D01*
X81061063Y-96511930D01*
X81311921Y-96261072D01*
X81606899Y-96063974D01*
X81934660Y-95928211D01*
X82282607Y-95859000D01*
X82637375Y-95859000D01*
X82985322Y-95928211D01*
X82985322Y-95928211D01*
G37*
G36*
X120985014Y-95927954D02*
G01*
X121312775Y-96063717D01*
X121607753Y-96260815D01*
X121858611Y-96511673D01*
X122055709Y-96806651D01*
X122191472Y-97134412D01*
X122260683Y-97482359D01*
X122260683Y-97837127D01*
X122191472Y-98185074D01*
X122055709Y-98512835D01*
X121858611Y-98807813D01*
X121607753Y-99058671D01*
X121312775Y-99255769D01*
X120985014Y-99391532D01*
X120637067Y-99460743D01*
X120282299Y-99460743D01*
X119934352Y-99391532D01*
X119606591Y-99255769D01*
X119311613Y-99058671D01*
X119060755Y-98807813D01*
X118863657Y-98512835D01*
X118727894Y-98185074D01*
X118658683Y-97837127D01*
X118658683Y-97482359D01*
X118727894Y-97134412D01*
X118863657Y-96806651D01*
X119060755Y-96511673D01*
X119311613Y-96260815D01*
X119606591Y-96063717D01*
X119934352Y-95927954D01*
X120282299Y-95858743D01*
X120637067Y-95858743D01*
X120985014Y-95927954D01*
X120985014Y-95927954D01*
G37*
G36*
X139984964Y-95927954D02*
G01*
X140312725Y-96063717D01*
X140607703Y-96260815D01*
X140858561Y-96511673D01*
X141055659Y-96806651D01*
X141191422Y-97134412D01*
X141260633Y-97482359D01*
X141260633Y-97837127D01*
X141191422Y-98185074D01*
X141055659Y-98512835D01*
X140858561Y-98807813D01*
X140607703Y-99058671D01*
X140312725Y-99255769D01*
X139984964Y-99391532D01*
X139637017Y-99460743D01*
X139282249Y-99460743D01*
X138934302Y-99391532D01*
X138606541Y-99255769D01*
X138311563Y-99058671D01*
X138060705Y-98807813D01*
X137863607Y-98512835D01*
X137727844Y-98185074D01*
X137658633Y-97837127D01*
X137658633Y-97482359D01*
X137727844Y-97134412D01*
X137863607Y-96806651D01*
X138060705Y-96511673D01*
X138311563Y-96260815D01*
X138606541Y-96063717D01*
X138934302Y-95927954D01*
X139282249Y-95858743D01*
X139637017Y-95858743D01*
X139984964Y-95927954D01*
X139984964Y-95927954D01*
G37*
G36*
X145671169Y-94786087D02*
G01*
X145753244Y-94820084D01*
X145753246Y-94820085D01*
X145790430Y-94844931D01*
X145827112Y-94869441D01*
X145889932Y-94932261D01*
X145939289Y-95006129D01*
X145973286Y-95088204D01*
X145990617Y-95175335D01*
X145990617Y-95264177D01*
X145973286Y-95351308D01*
X145939289Y-95433383D01*
X145939288Y-95433385D01*
X145889931Y-95507252D01*
X145827113Y-95570070D01*
X145753246Y-95619427D01*
X145753245Y-95619428D01*
X145753244Y-95619428D01*
X145671169Y-95653425D01*
X145584038Y-95670756D01*
X145495196Y-95670756D01*
X145408065Y-95653425D01*
X145325990Y-95619428D01*
X145325989Y-95619428D01*
X145325988Y-95619427D01*
X145252121Y-95570070D01*
X145189303Y-95507252D01*
X145139946Y-95433385D01*
X145139945Y-95433383D01*
X145105948Y-95351308D01*
X145088617Y-95264177D01*
X145088617Y-95175335D01*
X145105948Y-95088204D01*
X145139945Y-95006129D01*
X145189302Y-94932261D01*
X145252122Y-94869441D01*
X145288804Y-94844931D01*
X145325988Y-94820085D01*
X145325990Y-94820084D01*
X145408065Y-94786087D01*
X145495196Y-94768756D01*
X145584038Y-94768756D01*
X145671169Y-94786087D01*
X145671169Y-94786087D01*
G37*
G36*
X101211286Y-94786087D02*
G01*
X101293361Y-94820084D01*
X101293363Y-94820085D01*
X101330547Y-94844931D01*
X101367229Y-94869441D01*
X101430049Y-94932261D01*
X101479406Y-95006129D01*
X101513403Y-95088204D01*
X101530734Y-95175335D01*
X101530734Y-95264177D01*
X101513403Y-95351308D01*
X101479406Y-95433383D01*
X101479405Y-95433385D01*
X101430048Y-95507252D01*
X101367230Y-95570070D01*
X101293363Y-95619427D01*
X101293362Y-95619428D01*
X101293361Y-95619428D01*
X101211286Y-95653425D01*
X101124155Y-95670756D01*
X101035313Y-95670756D01*
X100948182Y-95653425D01*
X100866107Y-95619428D01*
X100866106Y-95619428D01*
X100866105Y-95619427D01*
X100792238Y-95570070D01*
X100729420Y-95507252D01*
X100680063Y-95433385D01*
X100680062Y-95433383D01*
X100646065Y-95351308D01*
X100628734Y-95264177D01*
X100628734Y-95175335D01*
X100646065Y-95088204D01*
X100680062Y-95006129D01*
X100729419Y-94932261D01*
X100792239Y-94869441D01*
X100828921Y-94844931D01*
X100866105Y-94820085D01*
X100866107Y-94820084D01*
X100948182Y-94786087D01*
X101035313Y-94768756D01*
X101124155Y-94768756D01*
X101211286Y-94786087D01*
X101211286Y-94786087D01*
G37*
G36*
X145671169Y-93536087D02*
G01*
X145753244Y-93570084D01*
X145753246Y-93570085D01*
X145790430Y-93594931D01*
X145827112Y-93619441D01*
X145889932Y-93682261D01*
X145939289Y-93756129D01*
X145973286Y-93838204D01*
X145990617Y-93925335D01*
X145990617Y-94014177D01*
X145973286Y-94101308D01*
X145939289Y-94183383D01*
X145939288Y-94183385D01*
X145889931Y-94257252D01*
X145827113Y-94320070D01*
X145753246Y-94369427D01*
X145753245Y-94369428D01*
X145753244Y-94369428D01*
X145671169Y-94403425D01*
X145584038Y-94420756D01*
X145495196Y-94420756D01*
X145408065Y-94403425D01*
X145325990Y-94369428D01*
X145325989Y-94369428D01*
X145325988Y-94369427D01*
X145252121Y-94320070D01*
X145189303Y-94257252D01*
X145139946Y-94183385D01*
X145139945Y-94183383D01*
X145105948Y-94101308D01*
X145088617Y-94014177D01*
X145088617Y-93925335D01*
X145105948Y-93838204D01*
X145139945Y-93756129D01*
X145189302Y-93682261D01*
X145252122Y-93619441D01*
X145288804Y-93594931D01*
X145325988Y-93570085D01*
X145325990Y-93570084D01*
X145408065Y-93536087D01*
X145495196Y-93518756D01*
X145584038Y-93518756D01*
X145671169Y-93536087D01*
X145671169Y-93536087D01*
G37*
G36*
X101211286Y-93536087D02*
G01*
X101293361Y-93570084D01*
X101293363Y-93570085D01*
X101330547Y-93594931D01*
X101367229Y-93619441D01*
X101430049Y-93682261D01*
X101479406Y-93756129D01*
X101513403Y-93838204D01*
X101530734Y-93925335D01*
X101530734Y-94014177D01*
X101513403Y-94101308D01*
X101479406Y-94183383D01*
X101479405Y-94183385D01*
X101430048Y-94257252D01*
X101367230Y-94320070D01*
X101293363Y-94369427D01*
X101293362Y-94369428D01*
X101293361Y-94369428D01*
X101211286Y-94403425D01*
X101124155Y-94420756D01*
X101035313Y-94420756D01*
X100948182Y-94403425D01*
X100866107Y-94369428D01*
X100866106Y-94369428D01*
X100866105Y-94369427D01*
X100792238Y-94320070D01*
X100729420Y-94257252D01*
X100680063Y-94183385D01*
X100680062Y-94183383D01*
X100646065Y-94101308D01*
X100628734Y-94014177D01*
X100628734Y-93925335D01*
X100646065Y-93838204D01*
X100680062Y-93756129D01*
X100729419Y-93682261D01*
X100792239Y-93619441D01*
X100828921Y-93594931D01*
X100866105Y-93570085D01*
X100866107Y-93570084D01*
X100948182Y-93536087D01*
X101035313Y-93518756D01*
X101124155Y-93518756D01*
X101211286Y-93536087D01*
X101211286Y-93536087D01*
G37*
G36*
X145671169Y-92286087D02*
G01*
X145753244Y-92320084D01*
X145753246Y-92320085D01*
X145790430Y-92344931D01*
X145827112Y-92369441D01*
X145889932Y-92432261D01*
X145939289Y-92506129D01*
X145973286Y-92588204D01*
X145990617Y-92675335D01*
X145990617Y-92764177D01*
X145973286Y-92851308D01*
X145939289Y-92933383D01*
X145939288Y-92933385D01*
X145889931Y-93007252D01*
X145827113Y-93070070D01*
X145753246Y-93119427D01*
X145753245Y-93119428D01*
X145753244Y-93119428D01*
X145671169Y-93153425D01*
X145584038Y-93170756D01*
X145495196Y-93170756D01*
X145408065Y-93153425D01*
X145325990Y-93119428D01*
X145325989Y-93119428D01*
X145325988Y-93119427D01*
X145252121Y-93070070D01*
X145189303Y-93007252D01*
X145139946Y-92933385D01*
X145139945Y-92933383D01*
X145105948Y-92851308D01*
X145088617Y-92764177D01*
X145088617Y-92675335D01*
X145105948Y-92588204D01*
X145139945Y-92506129D01*
X145189302Y-92432261D01*
X145252122Y-92369441D01*
X145288804Y-92344931D01*
X145325988Y-92320085D01*
X145325990Y-92320084D01*
X145408065Y-92286087D01*
X145495196Y-92268756D01*
X145584038Y-92268756D01*
X145671169Y-92286087D01*
X145671169Y-92286087D01*
G37*
G36*
X101211286Y-92286087D02*
G01*
X101293361Y-92320084D01*
X101293363Y-92320085D01*
X101330547Y-92344931D01*
X101367229Y-92369441D01*
X101430049Y-92432261D01*
X101479406Y-92506129D01*
X101513403Y-92588204D01*
X101530734Y-92675335D01*
X101530734Y-92764177D01*
X101513403Y-92851308D01*
X101479406Y-92933383D01*
X101479405Y-92933385D01*
X101430048Y-93007252D01*
X101367230Y-93070070D01*
X101293363Y-93119427D01*
X101293362Y-93119428D01*
X101293361Y-93119428D01*
X101211286Y-93153425D01*
X101124155Y-93170756D01*
X101035313Y-93170756D01*
X100948182Y-93153425D01*
X100866107Y-93119428D01*
X100866106Y-93119428D01*
X100866105Y-93119427D01*
X100792238Y-93070070D01*
X100729420Y-93007252D01*
X100680063Y-92933385D01*
X100680062Y-92933383D01*
X100646065Y-92851308D01*
X100628734Y-92764177D01*
X100628734Y-92675335D01*
X100646065Y-92588204D01*
X100680062Y-92506129D01*
X100729419Y-92432261D01*
X100792239Y-92369441D01*
X100828921Y-92344931D01*
X100866105Y-92320085D01*
X100866107Y-92320084D01*
X100948182Y-92286087D01*
X101035313Y-92268756D01*
X101124155Y-92268756D01*
X101211286Y-92286087D01*
X101211286Y-92286087D01*
G37*
G36*
X145671169Y-91036087D02*
G01*
X145753244Y-91070084D01*
X145753246Y-91070085D01*
X145790430Y-91094931D01*
X145827112Y-91119441D01*
X145889932Y-91182261D01*
X145939289Y-91256129D01*
X145973286Y-91338204D01*
X145990617Y-91425335D01*
X145990617Y-91514177D01*
X145973286Y-91601308D01*
X145939289Y-91683383D01*
X145939288Y-91683385D01*
X145889931Y-91757252D01*
X145827113Y-91820070D01*
X145753246Y-91869427D01*
X145753245Y-91869428D01*
X145753244Y-91869428D01*
X145671169Y-91903425D01*
X145584038Y-91920756D01*
X145495196Y-91920756D01*
X145408065Y-91903425D01*
X145325990Y-91869428D01*
X145325989Y-91869428D01*
X145325988Y-91869427D01*
X145252121Y-91820070D01*
X145189303Y-91757252D01*
X145139946Y-91683385D01*
X145139945Y-91683383D01*
X145105948Y-91601308D01*
X145088617Y-91514177D01*
X145088617Y-91425335D01*
X145105948Y-91338204D01*
X145139945Y-91256129D01*
X145189302Y-91182261D01*
X145252122Y-91119441D01*
X145288804Y-91094931D01*
X145325988Y-91070085D01*
X145325990Y-91070084D01*
X145408065Y-91036087D01*
X145495196Y-91018756D01*
X145584038Y-91018756D01*
X145671169Y-91036087D01*
X145671169Y-91036087D01*
G37*
G36*
X101211286Y-91036087D02*
G01*
X101293361Y-91070084D01*
X101293363Y-91070085D01*
X101330547Y-91094931D01*
X101367229Y-91119441D01*
X101430049Y-91182261D01*
X101479406Y-91256129D01*
X101513403Y-91338204D01*
X101530734Y-91425335D01*
X101530734Y-91514177D01*
X101513403Y-91601308D01*
X101479406Y-91683383D01*
X101479405Y-91683385D01*
X101430048Y-91757252D01*
X101367230Y-91820070D01*
X101293363Y-91869427D01*
X101293362Y-91869428D01*
X101293361Y-91869428D01*
X101211286Y-91903425D01*
X101124155Y-91920756D01*
X101035313Y-91920756D01*
X100948182Y-91903425D01*
X100866107Y-91869428D01*
X100866106Y-91869428D01*
X100866105Y-91869427D01*
X100792238Y-91820070D01*
X100729420Y-91757252D01*
X100680063Y-91683385D01*
X100680062Y-91683383D01*
X100646065Y-91601308D01*
X100628734Y-91514177D01*
X100628734Y-91425335D01*
X100646065Y-91338204D01*
X100680062Y-91256129D01*
X100729419Y-91182261D01*
X100792239Y-91119441D01*
X100828921Y-91094931D01*
X100866105Y-91070085D01*
X100866107Y-91070084D01*
X100948182Y-91036087D01*
X101035313Y-91018756D01*
X101124155Y-91018756D01*
X101211286Y-91036087D01*
X101211286Y-91036087D01*
G37*
G36*
X145671169Y-89786087D02*
G01*
X145753244Y-89820084D01*
X145753246Y-89820085D01*
X145790430Y-89844931D01*
X145827112Y-89869441D01*
X145889932Y-89932261D01*
X145939289Y-90006129D01*
X145973286Y-90088204D01*
X145990617Y-90175335D01*
X145990617Y-90264177D01*
X145973286Y-90351308D01*
X145939289Y-90433383D01*
X145939288Y-90433385D01*
X145889931Y-90507252D01*
X145827113Y-90570070D01*
X145753246Y-90619427D01*
X145753245Y-90619428D01*
X145753244Y-90619428D01*
X145671169Y-90653425D01*
X145584038Y-90670756D01*
X145495196Y-90670756D01*
X145408065Y-90653425D01*
X145325990Y-90619428D01*
X145325989Y-90619428D01*
X145325988Y-90619427D01*
X145252121Y-90570070D01*
X145189303Y-90507252D01*
X145139946Y-90433385D01*
X145139945Y-90433383D01*
X145105948Y-90351308D01*
X145088617Y-90264177D01*
X145088617Y-90175335D01*
X145105948Y-90088204D01*
X145139945Y-90006129D01*
X145189302Y-89932261D01*
X145252122Y-89869441D01*
X145288804Y-89844931D01*
X145325988Y-89820085D01*
X145325990Y-89820084D01*
X145408065Y-89786087D01*
X145495196Y-89768756D01*
X145584038Y-89768756D01*
X145671169Y-89786087D01*
X145671169Y-89786087D01*
G37*
G36*
X101211286Y-89786087D02*
G01*
X101293361Y-89820084D01*
X101293363Y-89820085D01*
X101330547Y-89844931D01*
X101367229Y-89869441D01*
X101430049Y-89932261D01*
X101479406Y-90006129D01*
X101513403Y-90088204D01*
X101530734Y-90175335D01*
X101530734Y-90264177D01*
X101513403Y-90351308D01*
X101479406Y-90433383D01*
X101479405Y-90433385D01*
X101430048Y-90507252D01*
X101367230Y-90570070D01*
X101293363Y-90619427D01*
X101293362Y-90619428D01*
X101293361Y-90619428D01*
X101211286Y-90653425D01*
X101124155Y-90670756D01*
X101035313Y-90670756D01*
X100948182Y-90653425D01*
X100866107Y-90619428D01*
X100866106Y-90619428D01*
X100866105Y-90619427D01*
X100792238Y-90570070D01*
X100729420Y-90507252D01*
X100680063Y-90433385D01*
X100680062Y-90433383D01*
X100646065Y-90351308D01*
X100628734Y-90264177D01*
X100628734Y-90175335D01*
X100646065Y-90088204D01*
X100680062Y-90006129D01*
X100729419Y-89932261D01*
X100792239Y-89869441D01*
X100828921Y-89844931D01*
X100866105Y-89820085D01*
X100866107Y-89820084D01*
X100948182Y-89786087D01*
X101035313Y-89768756D01*
X101124155Y-89768756D01*
X101211286Y-89786087D01*
X101211286Y-89786087D01*
G37*
G36*
X145671169Y-80726124D02*
G01*
X145753244Y-80760121D01*
X145753246Y-80760122D01*
X145790430Y-80784968D01*
X145827112Y-80809478D01*
X145889932Y-80872298D01*
X145939289Y-80946166D01*
X145973286Y-81028241D01*
X145990617Y-81115372D01*
X145990617Y-81204214D01*
X145973286Y-81291345D01*
X145939289Y-81373420D01*
X145939288Y-81373422D01*
X145889931Y-81447289D01*
X145827113Y-81510107D01*
X145753246Y-81559464D01*
X145753245Y-81559465D01*
X145753244Y-81559465D01*
X145671169Y-81593462D01*
X145584038Y-81610793D01*
X145495196Y-81610793D01*
X145408065Y-81593462D01*
X145325990Y-81559465D01*
X145325989Y-81559465D01*
X145325988Y-81559464D01*
X145252121Y-81510107D01*
X145189303Y-81447289D01*
X145139946Y-81373422D01*
X145139945Y-81373420D01*
X145105948Y-81291345D01*
X145088617Y-81204214D01*
X145088617Y-81115372D01*
X145105948Y-81028241D01*
X145139945Y-80946166D01*
X145189302Y-80872298D01*
X145252122Y-80809478D01*
X145288804Y-80784968D01*
X145325988Y-80760122D01*
X145325990Y-80760121D01*
X145408065Y-80726124D01*
X145495196Y-80708793D01*
X145584038Y-80708793D01*
X145671169Y-80726124D01*
X145671169Y-80726124D01*
G37*
G36*
X101211286Y-80726124D02*
G01*
X101293361Y-80760121D01*
X101293363Y-80760122D01*
X101330547Y-80784968D01*
X101367229Y-80809478D01*
X101430049Y-80872298D01*
X101479406Y-80946166D01*
X101513403Y-81028241D01*
X101530734Y-81115372D01*
X101530734Y-81204214D01*
X101513403Y-81291345D01*
X101479406Y-81373420D01*
X101479405Y-81373422D01*
X101430048Y-81447289D01*
X101367230Y-81510107D01*
X101293363Y-81559464D01*
X101293362Y-81559465D01*
X101293361Y-81559465D01*
X101211286Y-81593462D01*
X101124155Y-81610793D01*
X101035313Y-81610793D01*
X100948182Y-81593462D01*
X100866107Y-81559465D01*
X100866106Y-81559465D01*
X100866105Y-81559464D01*
X100792238Y-81510107D01*
X100729420Y-81447289D01*
X100680063Y-81373422D01*
X100680062Y-81373420D01*
X100646065Y-81291345D01*
X100628734Y-81204214D01*
X100628734Y-81115372D01*
X100646065Y-81028241D01*
X100680062Y-80946166D01*
X100729419Y-80872298D01*
X100792239Y-80809478D01*
X100828921Y-80784968D01*
X100866105Y-80760122D01*
X100866107Y-80760121D01*
X100948182Y-80726124D01*
X101035313Y-80708793D01*
X101124155Y-80708793D01*
X101211286Y-80726124D01*
X101211286Y-80726124D01*
G37*
G36*
X120211236Y-80726124D02*
G01*
X120293311Y-80760121D01*
X120293313Y-80760122D01*
X120330497Y-80784968D01*
X120367179Y-80809478D01*
X120429999Y-80872298D01*
X120479356Y-80946166D01*
X120513353Y-81028241D01*
X120530684Y-81115372D01*
X120530684Y-81204214D01*
X120513353Y-81291345D01*
X120479356Y-81373420D01*
X120479355Y-81373422D01*
X120429998Y-81447289D01*
X120367180Y-81510107D01*
X120293313Y-81559464D01*
X120293312Y-81559465D01*
X120293311Y-81559465D01*
X120211236Y-81593462D01*
X120124105Y-81610793D01*
X120035263Y-81610793D01*
X119948132Y-81593462D01*
X119866057Y-81559465D01*
X119866056Y-81559465D01*
X119866055Y-81559464D01*
X119792188Y-81510107D01*
X119729370Y-81447289D01*
X119680013Y-81373422D01*
X119680012Y-81373420D01*
X119646015Y-81291345D01*
X119628684Y-81204214D01*
X119628684Y-81115372D01*
X119646015Y-81028241D01*
X119680012Y-80946166D01*
X119729369Y-80872298D01*
X119792189Y-80809478D01*
X119828871Y-80784968D01*
X119866055Y-80760122D01*
X119866057Y-80760121D01*
X119948132Y-80726124D01*
X120035263Y-80708793D01*
X120124105Y-80708793D01*
X120211236Y-80726124D01*
X120211236Y-80726124D01*
G37*
G36*
X165445331Y-76928211D02*
G01*
X165773092Y-77063974D01*
X166068070Y-77261072D01*
X166318928Y-77511930D01*
X166516026Y-77806908D01*
X166651789Y-78134669D01*
X166721000Y-78482616D01*
X166721000Y-78837384D01*
X166651789Y-79185331D01*
X166516026Y-79513092D01*
X166318928Y-79808070D01*
X166068070Y-80058928D01*
X165773092Y-80256026D01*
X165445331Y-80391789D01*
X165097384Y-80461000D01*
X164742616Y-80461000D01*
X164394669Y-80391789D01*
X164066908Y-80256026D01*
X163771930Y-80058928D01*
X163521072Y-79808070D01*
X163323974Y-79513092D01*
X163188211Y-79185331D01*
X163119000Y-78837384D01*
X163119000Y-78482616D01*
X163188211Y-78134669D01*
X163323974Y-77806908D01*
X163521072Y-77511930D01*
X163771930Y-77261072D01*
X164066908Y-77063974D01*
X164394669Y-76928211D01*
X164742616Y-76859000D01*
X165097384Y-76859000D01*
X165445331Y-76928211D01*
X165445331Y-76928211D01*
G37*
G36*
X355445331Y-76928211D02*
G01*
X355773092Y-77063974D01*
X356068070Y-77261072D01*
X356318928Y-77511930D01*
X356516026Y-77806908D01*
X356651789Y-78134669D01*
X356721000Y-78482616D01*
X356721000Y-78837384D01*
X356651789Y-79185331D01*
X356516026Y-79513092D01*
X356318928Y-79808070D01*
X356068070Y-80058928D01*
X355773092Y-80256026D01*
X355445331Y-80391789D01*
X355097384Y-80461000D01*
X354742616Y-80461000D01*
X354394669Y-80391789D01*
X354066908Y-80256026D01*
X353771930Y-80058928D01*
X353521072Y-79808070D01*
X353323974Y-79513092D01*
X353188211Y-79185331D01*
X353119000Y-78837384D01*
X353119000Y-78482616D01*
X353188211Y-78134669D01*
X353323974Y-77806908D01*
X353521072Y-77511930D01*
X353771930Y-77261072D01*
X354066908Y-77063974D01*
X354394669Y-76928211D01*
X354742616Y-76859000D01*
X355097384Y-76859000D01*
X355445331Y-76928211D01*
X355445331Y-76928211D01*
G37*
G36*
X145671169Y-79476124D02*
G01*
X145753244Y-79510121D01*
X145753246Y-79510122D01*
X145757692Y-79513093D01*
X145827112Y-79559478D01*
X145889932Y-79622298D01*
X145939289Y-79696166D01*
X145973286Y-79778241D01*
X145990617Y-79865372D01*
X145990617Y-79954214D01*
X145973286Y-80041345D01*
X145939289Y-80123420D01*
X145939288Y-80123422D01*
X145889931Y-80197289D01*
X145827113Y-80260107D01*
X145753246Y-80309464D01*
X145753245Y-80309465D01*
X145753244Y-80309465D01*
X145671169Y-80343462D01*
X145584038Y-80360793D01*
X145495196Y-80360793D01*
X145408065Y-80343462D01*
X145325990Y-80309465D01*
X145325989Y-80309465D01*
X145325988Y-80309464D01*
X145252121Y-80260107D01*
X145189303Y-80197289D01*
X145139946Y-80123422D01*
X145139945Y-80123420D01*
X145105948Y-80041345D01*
X145088617Y-79954214D01*
X145088617Y-79865372D01*
X145105948Y-79778241D01*
X145139945Y-79696166D01*
X145189302Y-79622298D01*
X145252122Y-79559478D01*
X145321542Y-79513093D01*
X145325988Y-79510122D01*
X145325990Y-79510121D01*
X145408065Y-79476124D01*
X145495196Y-79458793D01*
X145584038Y-79458793D01*
X145671169Y-79476124D01*
X145671169Y-79476124D01*
G37*
G36*
X120211236Y-79476124D02*
G01*
X120293311Y-79510121D01*
X120293313Y-79510122D01*
X120297759Y-79513093D01*
X120367179Y-79559478D01*
X120429999Y-79622298D01*
X120479356Y-79696166D01*
X120513353Y-79778241D01*
X120530684Y-79865372D01*
X120530684Y-79954214D01*
X120513353Y-80041345D01*
X120479356Y-80123420D01*
X120479355Y-80123422D01*
X120429998Y-80197289D01*
X120367180Y-80260107D01*
X120293313Y-80309464D01*
X120293312Y-80309465D01*
X120293311Y-80309465D01*
X120211236Y-80343462D01*
X120124105Y-80360793D01*
X120035263Y-80360793D01*
X119948132Y-80343462D01*
X119866057Y-80309465D01*
X119866056Y-80309465D01*
X119866055Y-80309464D01*
X119792188Y-80260107D01*
X119729370Y-80197289D01*
X119680013Y-80123422D01*
X119680012Y-80123420D01*
X119646015Y-80041345D01*
X119628684Y-79954214D01*
X119628684Y-79865372D01*
X119646015Y-79778241D01*
X119680012Y-79696166D01*
X119729369Y-79622298D01*
X119792189Y-79559478D01*
X119861609Y-79513093D01*
X119866055Y-79510122D01*
X119866057Y-79510121D01*
X119948132Y-79476124D01*
X120035263Y-79458793D01*
X120124105Y-79458793D01*
X120211236Y-79476124D01*
X120211236Y-79476124D01*
G37*
G36*
X101211286Y-79476124D02*
G01*
X101293361Y-79510121D01*
X101293363Y-79510122D01*
X101297809Y-79513093D01*
X101367229Y-79559478D01*
X101430049Y-79622298D01*
X101479406Y-79696166D01*
X101513403Y-79778241D01*
X101530734Y-79865372D01*
X101530734Y-79954214D01*
X101513403Y-80041345D01*
X101479406Y-80123420D01*
X101479405Y-80123422D01*
X101430048Y-80197289D01*
X101367230Y-80260107D01*
X101293363Y-80309464D01*
X101293362Y-80309465D01*
X101293361Y-80309465D01*
X101211286Y-80343462D01*
X101124155Y-80360793D01*
X101035313Y-80360793D01*
X100948182Y-80343462D01*
X100866107Y-80309465D01*
X100866106Y-80309465D01*
X100866105Y-80309464D01*
X100792238Y-80260107D01*
X100729420Y-80197289D01*
X100680063Y-80123422D01*
X100680062Y-80123420D01*
X100646065Y-80041345D01*
X100628734Y-79954214D01*
X100628734Y-79865372D01*
X100646065Y-79778241D01*
X100680062Y-79696166D01*
X100729419Y-79622298D01*
X100792239Y-79559478D01*
X100861659Y-79513093D01*
X100866105Y-79510122D01*
X100866107Y-79510121D01*
X100948182Y-79476124D01*
X101035313Y-79458793D01*
X101124155Y-79458793D01*
X101211286Y-79476124D01*
X101211286Y-79476124D01*
G37*
G36*
X101211286Y-78226124D02*
G01*
X101293361Y-78260121D01*
X101293363Y-78260122D01*
X101330547Y-78284968D01*
X101367229Y-78309478D01*
X101430049Y-78372298D01*
X101479406Y-78446166D01*
X101513403Y-78528241D01*
X101530734Y-78615372D01*
X101530734Y-78704214D01*
X101513403Y-78791345D01*
X101479406Y-78873420D01*
X101479405Y-78873422D01*
X101430048Y-78947289D01*
X101367230Y-79010107D01*
X101293363Y-79059464D01*
X101293362Y-79059465D01*
X101293361Y-79059465D01*
X101211286Y-79093462D01*
X101124155Y-79110793D01*
X101035313Y-79110793D01*
X100948182Y-79093462D01*
X100866107Y-79059465D01*
X100866106Y-79059465D01*
X100866105Y-79059464D01*
X100792238Y-79010107D01*
X100729420Y-78947289D01*
X100680063Y-78873422D01*
X100680062Y-78873420D01*
X100646065Y-78791345D01*
X100628734Y-78704214D01*
X100628734Y-78615372D01*
X100646065Y-78528241D01*
X100680062Y-78446166D01*
X100729419Y-78372298D01*
X100792239Y-78309478D01*
X100828921Y-78284968D01*
X100866105Y-78260122D01*
X100866107Y-78260121D01*
X100948182Y-78226124D01*
X101035313Y-78208793D01*
X101124155Y-78208793D01*
X101211286Y-78226124D01*
X101211286Y-78226124D01*
G37*
G36*
X145671169Y-78226124D02*
G01*
X145753244Y-78260121D01*
X145753246Y-78260122D01*
X145790430Y-78284968D01*
X145827112Y-78309478D01*
X145889932Y-78372298D01*
X145939289Y-78446166D01*
X145973286Y-78528241D01*
X145990617Y-78615372D01*
X145990617Y-78704214D01*
X145973286Y-78791345D01*
X145939289Y-78873420D01*
X145939288Y-78873422D01*
X145889931Y-78947289D01*
X145827113Y-79010107D01*
X145753246Y-79059464D01*
X145753245Y-79059465D01*
X145753244Y-79059465D01*
X145671169Y-79093462D01*
X145584038Y-79110793D01*
X145495196Y-79110793D01*
X145408065Y-79093462D01*
X145325990Y-79059465D01*
X145325989Y-79059465D01*
X145325988Y-79059464D01*
X145252121Y-79010107D01*
X145189303Y-78947289D01*
X145139946Y-78873422D01*
X145139945Y-78873420D01*
X145105948Y-78791345D01*
X145088617Y-78704214D01*
X145088617Y-78615372D01*
X145105948Y-78528241D01*
X145139945Y-78446166D01*
X145189302Y-78372298D01*
X145252122Y-78309478D01*
X145288804Y-78284968D01*
X145325988Y-78260122D01*
X145325990Y-78260121D01*
X145408065Y-78226124D01*
X145495196Y-78208793D01*
X145584038Y-78208793D01*
X145671169Y-78226124D01*
X145671169Y-78226124D01*
G37*
G36*
X120211236Y-78226124D02*
G01*
X120293311Y-78260121D01*
X120293313Y-78260122D01*
X120330497Y-78284968D01*
X120367179Y-78309478D01*
X120429999Y-78372298D01*
X120479356Y-78446166D01*
X120513353Y-78528241D01*
X120530684Y-78615372D01*
X120530684Y-78704214D01*
X120513353Y-78791345D01*
X120479356Y-78873420D01*
X120479355Y-78873422D01*
X120429998Y-78947289D01*
X120367180Y-79010107D01*
X120293313Y-79059464D01*
X120293312Y-79059465D01*
X120293311Y-79059465D01*
X120211236Y-79093462D01*
X120124105Y-79110793D01*
X120035263Y-79110793D01*
X119948132Y-79093462D01*
X119866057Y-79059465D01*
X119866056Y-79059465D01*
X119866055Y-79059464D01*
X119792188Y-79010107D01*
X119729370Y-78947289D01*
X119680013Y-78873422D01*
X119680012Y-78873420D01*
X119646015Y-78791345D01*
X119628684Y-78704214D01*
X119628684Y-78615372D01*
X119646015Y-78528241D01*
X119680012Y-78446166D01*
X119729369Y-78372298D01*
X119792189Y-78309478D01*
X119828871Y-78284968D01*
X119866055Y-78260122D01*
X119866057Y-78260121D01*
X119948132Y-78226124D01*
X120035263Y-78208793D01*
X120124105Y-78208793D01*
X120211236Y-78226124D01*
X120211236Y-78226124D01*
G37*
G36*
X145671169Y-76976124D02*
G01*
X145753244Y-77010121D01*
X145753246Y-77010122D01*
X145790430Y-77034968D01*
X145827112Y-77059478D01*
X145889932Y-77122298D01*
X145939289Y-77196166D01*
X145973286Y-77278241D01*
X145990617Y-77365372D01*
X145990617Y-77454214D01*
X145973286Y-77541345D01*
X145939289Y-77623420D01*
X145939288Y-77623422D01*
X145889931Y-77697289D01*
X145827113Y-77760107D01*
X145753246Y-77809464D01*
X145753245Y-77809465D01*
X145753244Y-77809465D01*
X145671169Y-77843462D01*
X145584038Y-77860793D01*
X145495196Y-77860793D01*
X145408065Y-77843462D01*
X145325990Y-77809465D01*
X145325989Y-77809465D01*
X145325988Y-77809464D01*
X145252121Y-77760107D01*
X145189303Y-77697289D01*
X145139946Y-77623422D01*
X145139945Y-77623420D01*
X145105948Y-77541345D01*
X145088617Y-77454214D01*
X145088617Y-77365372D01*
X145105948Y-77278241D01*
X145139945Y-77196166D01*
X145189302Y-77122298D01*
X145252122Y-77059478D01*
X145288804Y-77034968D01*
X145325988Y-77010122D01*
X145325990Y-77010121D01*
X145408065Y-76976124D01*
X145495196Y-76958793D01*
X145584038Y-76958793D01*
X145671169Y-76976124D01*
X145671169Y-76976124D01*
G37*
G36*
X120211236Y-76976124D02*
G01*
X120293311Y-77010121D01*
X120293313Y-77010122D01*
X120330497Y-77034968D01*
X120367179Y-77059478D01*
X120429999Y-77122298D01*
X120479356Y-77196166D01*
X120513353Y-77278241D01*
X120530684Y-77365372D01*
X120530684Y-77454214D01*
X120513353Y-77541345D01*
X120479356Y-77623420D01*
X120479355Y-77623422D01*
X120429998Y-77697289D01*
X120367180Y-77760107D01*
X120293313Y-77809464D01*
X120293312Y-77809465D01*
X120293311Y-77809465D01*
X120211236Y-77843462D01*
X120124105Y-77860793D01*
X120035263Y-77860793D01*
X119948132Y-77843462D01*
X119866057Y-77809465D01*
X119866056Y-77809465D01*
X119866055Y-77809464D01*
X119792188Y-77760107D01*
X119729370Y-77697289D01*
X119680013Y-77623422D01*
X119680012Y-77623420D01*
X119646015Y-77541345D01*
X119628684Y-77454214D01*
X119628684Y-77365372D01*
X119646015Y-77278241D01*
X119680012Y-77196166D01*
X119729369Y-77122298D01*
X119792189Y-77059478D01*
X119828871Y-77034968D01*
X119866055Y-77010122D01*
X119866057Y-77010121D01*
X119948132Y-76976124D01*
X120035263Y-76958793D01*
X120124105Y-76958793D01*
X120211236Y-76976124D01*
X120211236Y-76976124D01*
G37*
G36*
X101211286Y-76976124D02*
G01*
X101293361Y-77010121D01*
X101293363Y-77010122D01*
X101330547Y-77034968D01*
X101367229Y-77059478D01*
X101430049Y-77122298D01*
X101479406Y-77196166D01*
X101513403Y-77278241D01*
X101530734Y-77365372D01*
X101530734Y-77454214D01*
X101513403Y-77541345D01*
X101479406Y-77623420D01*
X101479405Y-77623422D01*
X101430048Y-77697289D01*
X101367230Y-77760107D01*
X101293363Y-77809464D01*
X101293362Y-77809465D01*
X101293361Y-77809465D01*
X101211286Y-77843462D01*
X101124155Y-77860793D01*
X101035313Y-77860793D01*
X100948182Y-77843462D01*
X100866107Y-77809465D01*
X100866106Y-77809465D01*
X100866105Y-77809464D01*
X100792238Y-77760107D01*
X100729420Y-77697289D01*
X100680063Y-77623422D01*
X100680062Y-77623420D01*
X100646065Y-77541345D01*
X100628734Y-77454214D01*
X100628734Y-77365372D01*
X100646065Y-77278241D01*
X100680062Y-77196166D01*
X100729419Y-77122298D01*
X100792239Y-77059478D01*
X100828921Y-77034968D01*
X100866105Y-77010122D01*
X100866107Y-77010121D01*
X100948182Y-76976124D01*
X101035313Y-76958793D01*
X101124155Y-76958793D01*
X101211286Y-76976124D01*
X101211286Y-76976124D01*
G37*
G36*
X120211236Y-75726124D02*
G01*
X120293311Y-75760121D01*
X120293313Y-75760122D01*
X120330497Y-75784968D01*
X120367179Y-75809478D01*
X120429999Y-75872298D01*
X120479356Y-75946166D01*
X120513353Y-76028241D01*
X120530684Y-76115372D01*
X120530684Y-76204214D01*
X120513353Y-76291345D01*
X120479356Y-76373420D01*
X120479355Y-76373422D01*
X120429998Y-76447289D01*
X120367180Y-76510107D01*
X120293313Y-76559464D01*
X120293312Y-76559465D01*
X120293311Y-76559465D01*
X120211236Y-76593462D01*
X120124105Y-76610793D01*
X120035263Y-76610793D01*
X119948132Y-76593462D01*
X119866057Y-76559465D01*
X119866056Y-76559465D01*
X119866055Y-76559464D01*
X119792188Y-76510107D01*
X119729370Y-76447289D01*
X119680013Y-76373422D01*
X119680012Y-76373420D01*
X119646015Y-76291345D01*
X119628684Y-76204214D01*
X119628684Y-76115372D01*
X119646015Y-76028241D01*
X119680012Y-75946166D01*
X119729369Y-75872298D01*
X119792189Y-75809478D01*
X119828871Y-75784968D01*
X119866055Y-75760122D01*
X119866057Y-75760121D01*
X119948132Y-75726124D01*
X120035263Y-75708793D01*
X120124105Y-75708793D01*
X120211236Y-75726124D01*
X120211236Y-75726124D01*
G37*
G36*
X101211286Y-75726124D02*
G01*
X101293361Y-75760121D01*
X101293363Y-75760122D01*
X101330547Y-75784968D01*
X101367229Y-75809478D01*
X101430049Y-75872298D01*
X101479406Y-75946166D01*
X101513403Y-76028241D01*
X101530734Y-76115372D01*
X101530734Y-76204214D01*
X101513403Y-76291345D01*
X101479406Y-76373420D01*
X101479405Y-76373422D01*
X101430048Y-76447289D01*
X101367230Y-76510107D01*
X101293363Y-76559464D01*
X101293362Y-76559465D01*
X101293361Y-76559465D01*
X101211286Y-76593462D01*
X101124155Y-76610793D01*
X101035313Y-76610793D01*
X100948182Y-76593462D01*
X100866107Y-76559465D01*
X100866106Y-76559465D01*
X100866105Y-76559464D01*
X100792238Y-76510107D01*
X100729420Y-76447289D01*
X100680063Y-76373422D01*
X100680062Y-76373420D01*
X100646065Y-76291345D01*
X100628734Y-76204214D01*
X100628734Y-76115372D01*
X100646065Y-76028241D01*
X100680062Y-75946166D01*
X100729419Y-75872298D01*
X100792239Y-75809478D01*
X100828921Y-75784968D01*
X100866105Y-75760122D01*
X100866107Y-75760121D01*
X100948182Y-75726124D01*
X101035313Y-75708793D01*
X101124155Y-75708793D01*
X101211286Y-75726124D01*
X101211286Y-75726124D01*
G37*
G36*
X145671169Y-75726124D02*
G01*
X145753244Y-75760121D01*
X145753246Y-75760122D01*
X145790430Y-75784968D01*
X145827112Y-75809478D01*
X145889932Y-75872298D01*
X145939289Y-75946166D01*
X145973286Y-76028241D01*
X145990617Y-76115372D01*
X145990617Y-76204214D01*
X145973286Y-76291345D01*
X145939289Y-76373420D01*
X145939288Y-76373422D01*
X145889931Y-76447289D01*
X145827113Y-76510107D01*
X145753246Y-76559464D01*
X145753245Y-76559465D01*
X145753244Y-76559465D01*
X145671169Y-76593462D01*
X145584038Y-76610793D01*
X145495196Y-76610793D01*
X145408065Y-76593462D01*
X145325990Y-76559465D01*
X145325989Y-76559465D01*
X145325988Y-76559464D01*
X145252121Y-76510107D01*
X145189303Y-76447289D01*
X145139946Y-76373422D01*
X145139945Y-76373420D01*
X145105948Y-76291345D01*
X145088617Y-76204214D01*
X145088617Y-76115372D01*
X145105948Y-76028241D01*
X145139945Y-75946166D01*
X145189302Y-75872298D01*
X145252122Y-75809478D01*
X145288804Y-75784968D01*
X145325988Y-75760122D01*
X145325990Y-75760121D01*
X145408065Y-75726124D01*
X145495196Y-75708793D01*
X145584038Y-75708793D01*
X145671169Y-75726124D01*
X145671169Y-75726124D01*
G37*
G36*
X101211286Y-66666161D02*
G01*
X101293361Y-66700158D01*
X101293363Y-66700159D01*
X101330547Y-66725005D01*
X101367229Y-66749515D01*
X101430049Y-66812335D01*
X101479406Y-66886203D01*
X101513403Y-66968278D01*
X101530734Y-67055409D01*
X101530734Y-67144251D01*
X101513403Y-67231382D01*
X101479406Y-67313457D01*
X101479405Y-67313459D01*
X101430048Y-67387326D01*
X101367230Y-67450144D01*
X101293363Y-67499501D01*
X101293362Y-67499502D01*
X101293361Y-67499502D01*
X101211286Y-67533499D01*
X101124155Y-67550830D01*
X101035313Y-67550830D01*
X100948182Y-67533499D01*
X100866107Y-67499502D01*
X100866106Y-67499502D01*
X100866105Y-67499501D01*
X100792238Y-67450144D01*
X100729420Y-67387326D01*
X100680063Y-67313459D01*
X100680062Y-67313457D01*
X100646065Y-67231382D01*
X100628734Y-67144251D01*
X100628734Y-67055409D01*
X100646065Y-66968278D01*
X100680062Y-66886203D01*
X100729419Y-66812335D01*
X100792239Y-66749515D01*
X100828921Y-66725005D01*
X100866105Y-66700159D01*
X100866107Y-66700158D01*
X100948182Y-66666161D01*
X101035313Y-66648830D01*
X101124155Y-66648830D01*
X101211286Y-66666161D01*
X101211286Y-66666161D01*
G37*
G36*
X145671169Y-66666161D02*
G01*
X145753244Y-66700158D01*
X145753246Y-66700159D01*
X145790430Y-66725005D01*
X145827112Y-66749515D01*
X145889932Y-66812335D01*
X145939289Y-66886203D01*
X145973286Y-66968278D01*
X145990617Y-67055409D01*
X145990617Y-67144251D01*
X145973286Y-67231382D01*
X145939289Y-67313457D01*
X145939288Y-67313459D01*
X145889931Y-67387326D01*
X145827113Y-67450144D01*
X145753246Y-67499501D01*
X145753245Y-67499502D01*
X145753244Y-67499502D01*
X145671169Y-67533499D01*
X145584038Y-67550830D01*
X145495196Y-67550830D01*
X145408065Y-67533499D01*
X145325990Y-67499502D01*
X145325989Y-67499502D01*
X145325988Y-67499501D01*
X145252121Y-67450144D01*
X145189303Y-67387326D01*
X145139946Y-67313459D01*
X145139945Y-67313457D01*
X145105948Y-67231382D01*
X145088617Y-67144251D01*
X145088617Y-67055409D01*
X145105948Y-66968278D01*
X145139945Y-66886203D01*
X145189302Y-66812335D01*
X145252122Y-66749515D01*
X145288804Y-66725005D01*
X145325988Y-66700159D01*
X145325990Y-66700158D01*
X145408065Y-66666161D01*
X145495196Y-66648830D01*
X145584038Y-66648830D01*
X145671169Y-66666161D01*
X145671169Y-66666161D01*
G37*
G36*
X101211286Y-65416161D02*
G01*
X101293361Y-65450158D01*
X101293363Y-65450159D01*
X101330547Y-65475005D01*
X101367229Y-65499515D01*
X101430049Y-65562335D01*
X101479406Y-65636203D01*
X101513403Y-65718278D01*
X101530734Y-65805409D01*
X101530734Y-65894251D01*
X101513403Y-65981382D01*
X101479406Y-66063457D01*
X101479405Y-66063459D01*
X101430048Y-66137326D01*
X101367230Y-66200144D01*
X101293363Y-66249501D01*
X101293362Y-66249502D01*
X101293361Y-66249502D01*
X101211286Y-66283499D01*
X101124155Y-66300830D01*
X101035313Y-66300830D01*
X100948182Y-66283499D01*
X100866107Y-66249502D01*
X100866106Y-66249502D01*
X100866105Y-66249501D01*
X100792238Y-66200144D01*
X100729420Y-66137326D01*
X100680063Y-66063459D01*
X100680062Y-66063457D01*
X100646065Y-65981382D01*
X100628734Y-65894251D01*
X100628734Y-65805409D01*
X100646065Y-65718278D01*
X100680062Y-65636203D01*
X100729419Y-65562335D01*
X100792239Y-65499515D01*
X100828921Y-65475005D01*
X100866105Y-65450159D01*
X100866107Y-65450158D01*
X100948182Y-65416161D01*
X101035313Y-65398830D01*
X101124155Y-65398830D01*
X101211286Y-65416161D01*
X101211286Y-65416161D01*
G37*
G36*
X145671169Y-65416161D02*
G01*
X145753244Y-65450158D01*
X145753246Y-65450159D01*
X145790430Y-65475005D01*
X145827112Y-65499515D01*
X145889932Y-65562335D01*
X145939289Y-65636203D01*
X145973286Y-65718278D01*
X145990617Y-65805409D01*
X145990617Y-65894251D01*
X145973286Y-65981382D01*
X145939289Y-66063457D01*
X145939288Y-66063459D01*
X145889931Y-66137326D01*
X145827113Y-66200144D01*
X145753246Y-66249501D01*
X145753245Y-66249502D01*
X145753244Y-66249502D01*
X145671169Y-66283499D01*
X145584038Y-66300830D01*
X145495196Y-66300830D01*
X145408065Y-66283499D01*
X145325990Y-66249502D01*
X145325989Y-66249502D01*
X145325988Y-66249501D01*
X145252121Y-66200144D01*
X145189303Y-66137326D01*
X145139946Y-66063459D01*
X145139945Y-66063457D01*
X145105948Y-65981382D01*
X145088617Y-65894251D01*
X145088617Y-65805409D01*
X145105948Y-65718278D01*
X145139945Y-65636203D01*
X145189302Y-65562335D01*
X145252122Y-65499515D01*
X145288804Y-65475005D01*
X145325988Y-65450159D01*
X145325990Y-65450158D01*
X145408065Y-65416161D01*
X145495196Y-65398830D01*
X145584038Y-65398830D01*
X145671169Y-65416161D01*
X145671169Y-65416161D01*
G37*
G36*
X145671169Y-64166161D02*
G01*
X145753244Y-64200158D01*
X145753246Y-64200159D01*
X145790430Y-64225005D01*
X145827112Y-64249515D01*
X145889932Y-64312335D01*
X145939289Y-64386203D01*
X145973286Y-64468278D01*
X145990617Y-64555409D01*
X145990617Y-64644251D01*
X145973286Y-64731382D01*
X145939289Y-64813457D01*
X145939288Y-64813459D01*
X145889931Y-64887326D01*
X145827113Y-64950144D01*
X145753246Y-64999501D01*
X145753245Y-64999502D01*
X145753244Y-64999502D01*
X145671169Y-65033499D01*
X145584038Y-65050830D01*
X145495196Y-65050830D01*
X145408065Y-65033499D01*
X145325990Y-64999502D01*
X145325989Y-64999502D01*
X145325988Y-64999501D01*
X145252121Y-64950144D01*
X145189303Y-64887326D01*
X145139946Y-64813459D01*
X145139945Y-64813457D01*
X145105948Y-64731382D01*
X145088617Y-64644251D01*
X145088617Y-64555409D01*
X145105948Y-64468278D01*
X145139945Y-64386203D01*
X145189302Y-64312335D01*
X145252122Y-64249515D01*
X145288804Y-64225005D01*
X145325988Y-64200159D01*
X145325990Y-64200158D01*
X145408065Y-64166161D01*
X145495196Y-64148830D01*
X145584038Y-64148830D01*
X145671169Y-64166161D01*
X145671169Y-64166161D01*
G37*
G36*
X101211286Y-64166161D02*
G01*
X101293361Y-64200158D01*
X101293363Y-64200159D01*
X101330547Y-64225005D01*
X101367229Y-64249515D01*
X101430049Y-64312335D01*
X101479406Y-64386203D01*
X101513403Y-64468278D01*
X101530734Y-64555409D01*
X101530734Y-64644251D01*
X101513403Y-64731382D01*
X101479406Y-64813457D01*
X101479405Y-64813459D01*
X101430048Y-64887326D01*
X101367230Y-64950144D01*
X101293363Y-64999501D01*
X101293362Y-64999502D01*
X101293361Y-64999502D01*
X101211286Y-65033499D01*
X101124155Y-65050830D01*
X101035313Y-65050830D01*
X100948182Y-65033499D01*
X100866107Y-64999502D01*
X100866106Y-64999502D01*
X100866105Y-64999501D01*
X100792238Y-64950144D01*
X100729420Y-64887326D01*
X100680063Y-64813459D01*
X100680062Y-64813457D01*
X100646065Y-64731382D01*
X100628734Y-64644251D01*
X100628734Y-64555409D01*
X100646065Y-64468278D01*
X100680062Y-64386203D01*
X100729419Y-64312335D01*
X100792239Y-64249515D01*
X100828921Y-64225005D01*
X100866105Y-64200159D01*
X100866107Y-64200158D01*
X100948182Y-64166161D01*
X101035313Y-64148830D01*
X101124155Y-64148830D01*
X101211286Y-64166161D01*
X101211286Y-64166161D01*
G37*
G36*
X145671169Y-62916161D02*
G01*
X145753244Y-62950158D01*
X145753246Y-62950159D01*
X145790430Y-62975005D01*
X145827112Y-62999515D01*
X145889932Y-63062335D01*
X145939289Y-63136203D01*
X145973286Y-63218278D01*
X145990617Y-63305409D01*
X145990617Y-63394251D01*
X145973286Y-63481382D01*
X145939289Y-63563457D01*
X145939288Y-63563459D01*
X145889931Y-63637326D01*
X145827113Y-63700144D01*
X145753246Y-63749501D01*
X145753245Y-63749502D01*
X145753244Y-63749502D01*
X145671169Y-63783499D01*
X145584038Y-63800830D01*
X145495196Y-63800830D01*
X145408065Y-63783499D01*
X145325990Y-63749502D01*
X145325989Y-63749502D01*
X145325988Y-63749501D01*
X145252121Y-63700144D01*
X145189303Y-63637326D01*
X145139946Y-63563459D01*
X145139945Y-63563457D01*
X145105948Y-63481382D01*
X145088617Y-63394251D01*
X145088617Y-63305409D01*
X145105948Y-63218278D01*
X145139945Y-63136203D01*
X145189302Y-63062335D01*
X145252122Y-62999515D01*
X145288804Y-62975005D01*
X145325988Y-62950159D01*
X145325990Y-62950158D01*
X145408065Y-62916161D01*
X145495196Y-62898830D01*
X145584038Y-62898830D01*
X145671169Y-62916161D01*
X145671169Y-62916161D01*
G37*
G36*
X101211286Y-62916161D02*
G01*
X101293361Y-62950158D01*
X101293363Y-62950159D01*
X101330547Y-62975005D01*
X101367229Y-62999515D01*
X101430049Y-63062335D01*
X101479406Y-63136203D01*
X101513403Y-63218278D01*
X101530734Y-63305409D01*
X101530734Y-63394251D01*
X101513403Y-63481382D01*
X101479406Y-63563457D01*
X101479405Y-63563459D01*
X101430048Y-63637326D01*
X101367230Y-63700144D01*
X101293363Y-63749501D01*
X101293362Y-63749502D01*
X101293361Y-63749502D01*
X101211286Y-63783499D01*
X101124155Y-63800830D01*
X101035313Y-63800830D01*
X100948182Y-63783499D01*
X100866107Y-63749502D01*
X100866106Y-63749502D01*
X100866105Y-63749501D01*
X100792238Y-63700144D01*
X100729420Y-63637326D01*
X100680063Y-63563459D01*
X100680062Y-63563457D01*
X100646065Y-63481382D01*
X100628734Y-63394251D01*
X100628734Y-63305409D01*
X100646065Y-63218278D01*
X100680062Y-63136203D01*
X100729419Y-63062335D01*
X100792239Y-62999515D01*
X100828921Y-62975005D01*
X100866105Y-62950159D01*
X100866107Y-62950158D01*
X100948182Y-62916161D01*
X101035313Y-62898830D01*
X101124155Y-62898830D01*
X101211286Y-62916161D01*
X101211286Y-62916161D01*
G37*
G36*
X101211286Y-61666161D02*
G01*
X101293361Y-61700158D01*
X101293363Y-61700159D01*
X101330547Y-61725005D01*
X101367229Y-61749515D01*
X101430049Y-61812335D01*
X101479406Y-61886203D01*
X101513403Y-61968278D01*
X101530734Y-62055409D01*
X101530734Y-62144251D01*
X101513403Y-62231382D01*
X101479406Y-62313457D01*
X101479405Y-62313459D01*
X101430048Y-62387326D01*
X101367230Y-62450144D01*
X101293363Y-62499501D01*
X101293362Y-62499502D01*
X101293361Y-62499502D01*
X101211286Y-62533499D01*
X101124155Y-62550830D01*
X101035313Y-62550830D01*
X100948182Y-62533499D01*
X100866107Y-62499502D01*
X100866106Y-62499502D01*
X100866105Y-62499501D01*
X100792238Y-62450144D01*
X100729420Y-62387326D01*
X100680063Y-62313459D01*
X100680062Y-62313457D01*
X100646065Y-62231382D01*
X100628734Y-62144251D01*
X100628734Y-62055409D01*
X100646065Y-61968278D01*
X100680062Y-61886203D01*
X100729419Y-61812335D01*
X100792239Y-61749515D01*
X100828921Y-61725005D01*
X100866105Y-61700159D01*
X100866107Y-61700158D01*
X100948182Y-61666161D01*
X101035313Y-61648830D01*
X101124155Y-61648830D01*
X101211286Y-61666161D01*
X101211286Y-61666161D01*
G37*
G36*
X145671169Y-61666161D02*
G01*
X145753244Y-61700158D01*
X145753246Y-61700159D01*
X145790430Y-61725005D01*
X145827112Y-61749515D01*
X145889932Y-61812335D01*
X145939289Y-61886203D01*
X145973286Y-61968278D01*
X145990617Y-62055409D01*
X145990617Y-62144251D01*
X145973286Y-62231382D01*
X145939289Y-62313457D01*
X145939288Y-62313459D01*
X145889931Y-62387326D01*
X145827113Y-62450144D01*
X145753246Y-62499501D01*
X145753245Y-62499502D01*
X145753244Y-62499502D01*
X145671169Y-62533499D01*
X145584038Y-62550830D01*
X145495196Y-62550830D01*
X145408065Y-62533499D01*
X145325990Y-62499502D01*
X145325989Y-62499502D01*
X145325988Y-62499501D01*
X145252121Y-62450144D01*
X145189303Y-62387326D01*
X145139946Y-62313459D01*
X145139945Y-62313457D01*
X145105948Y-62231382D01*
X145088617Y-62144251D01*
X145088617Y-62055409D01*
X145105948Y-61968278D01*
X145139945Y-61886203D01*
X145189302Y-61812335D01*
X145252122Y-61749515D01*
X145288804Y-61725005D01*
X145325988Y-61700159D01*
X145325990Y-61700158D01*
X145408065Y-61666161D01*
X145495196Y-61648830D01*
X145584038Y-61648830D01*
X145671169Y-61666161D01*
X145671169Y-61666161D01*
G37*
G36*
X203445331Y-57943211D02*
G01*
X203773092Y-58078974D01*
X204068070Y-58276072D01*
X204318928Y-58526930D01*
X204516026Y-58821908D01*
X204651789Y-59149669D01*
X204721000Y-59497616D01*
X204721000Y-59852384D01*
X204651789Y-60200331D01*
X204516026Y-60528092D01*
X204318928Y-60823070D01*
X204068070Y-61073928D01*
X203773092Y-61271026D01*
X203445331Y-61406789D01*
X203097384Y-61476000D01*
X202742616Y-61476000D01*
X202394669Y-61406789D01*
X202066908Y-61271026D01*
X201771930Y-61073928D01*
X201521072Y-60823070D01*
X201323974Y-60528092D01*
X201188211Y-60200331D01*
X201119000Y-59852384D01*
X201119000Y-59497616D01*
X201188211Y-59149669D01*
X201323974Y-58821908D01*
X201521072Y-58526930D01*
X201771930Y-58276072D01*
X202066908Y-58078974D01*
X202394669Y-57943211D01*
X202742616Y-57874000D01*
X203097384Y-57874000D01*
X203445331Y-57943211D01*
X203445331Y-57943211D01*
G37*
G36*
X165445331Y-57928211D02*
G01*
X165773092Y-58063974D01*
X166068070Y-58261072D01*
X166318928Y-58511930D01*
X166516026Y-58806908D01*
X166651789Y-59134669D01*
X166721000Y-59482616D01*
X166721000Y-59837384D01*
X166651789Y-60185331D01*
X166516026Y-60513092D01*
X166318928Y-60808070D01*
X166068070Y-61058928D01*
X165773092Y-61256026D01*
X165445331Y-61391789D01*
X165097384Y-61461000D01*
X164742616Y-61461000D01*
X164394669Y-61391789D01*
X164066908Y-61256026D01*
X163771930Y-61058928D01*
X163521072Y-60808070D01*
X163323974Y-60513092D01*
X163188211Y-60185331D01*
X163119000Y-59837384D01*
X163119000Y-59482616D01*
X163188211Y-59134669D01*
X163323974Y-58806908D01*
X163521072Y-58511930D01*
X163771930Y-58261072D01*
X164066908Y-58063974D01*
X164394669Y-57928211D01*
X164742616Y-57859000D01*
X165097384Y-57859000D01*
X165445331Y-57928211D01*
X165445331Y-57928211D01*
G37*
G36*
X222445331Y-57928211D02*
G01*
X222773092Y-58063974D01*
X223068070Y-58261072D01*
X223318928Y-58511930D01*
X223516026Y-58806908D01*
X223651789Y-59134669D01*
X223721000Y-59482616D01*
X223721000Y-59837384D01*
X223651789Y-60185331D01*
X223516026Y-60513092D01*
X223318928Y-60808070D01*
X223068070Y-61058928D01*
X222773092Y-61256026D01*
X222445331Y-61391789D01*
X222097384Y-61461000D01*
X221742616Y-61461000D01*
X221394669Y-61391789D01*
X221066908Y-61256026D01*
X220771930Y-61058928D01*
X220521072Y-60808070D01*
X220323974Y-60513092D01*
X220188211Y-60185331D01*
X220119000Y-59837384D01*
X220119000Y-59482616D01*
X220188211Y-59134669D01*
X220323974Y-58806908D01*
X220521072Y-58511930D01*
X220771930Y-58261072D01*
X221066908Y-58063974D01*
X221394669Y-57928211D01*
X221742616Y-57859000D01*
X222097384Y-57859000D01*
X222445331Y-57928211D01*
X222445331Y-57928211D01*
G37*
G36*
X317445331Y-57928211D02*
G01*
X317773092Y-58063974D01*
X318068070Y-58261072D01*
X318318928Y-58511930D01*
X318516026Y-58806908D01*
X318651789Y-59134669D01*
X318721000Y-59482616D01*
X318721000Y-59837384D01*
X318651789Y-60185331D01*
X318516026Y-60513092D01*
X318318928Y-60808070D01*
X318068070Y-61058928D01*
X317773092Y-61256026D01*
X317445331Y-61391789D01*
X317097384Y-61461000D01*
X316742616Y-61461000D01*
X316394669Y-61391789D01*
X316066908Y-61256026D01*
X315771930Y-61058928D01*
X315521072Y-60808070D01*
X315323974Y-60513092D01*
X315188211Y-60185331D01*
X315119000Y-59837384D01*
X315119000Y-59482616D01*
X315188211Y-59134669D01*
X315323974Y-58806908D01*
X315521072Y-58511930D01*
X315771930Y-58261072D01*
X316066908Y-58063974D01*
X316394669Y-57928211D01*
X316742616Y-57859000D01*
X317097384Y-57859000D01*
X317445331Y-57928211D01*
X317445331Y-57928211D01*
G37*
G36*
X82985322Y-57928211D02*
G01*
X83313083Y-58063974D01*
X83608061Y-58261072D01*
X83858919Y-58511930D01*
X84056017Y-58806908D01*
X84191780Y-59134669D01*
X84260991Y-59482616D01*
X84260991Y-59837384D01*
X84191780Y-60185331D01*
X84056017Y-60513092D01*
X83858919Y-60808070D01*
X83608061Y-61058928D01*
X83313083Y-61256026D01*
X82985322Y-61391789D01*
X82637375Y-61461000D01*
X82282607Y-61461000D01*
X81934660Y-61391789D01*
X81606899Y-61256026D01*
X81311921Y-61058928D01*
X81061063Y-60808070D01*
X80863965Y-60513092D01*
X80728202Y-60185331D01*
X80658991Y-59837384D01*
X80658991Y-59482616D01*
X80728202Y-59134669D01*
X80863965Y-58806908D01*
X81061063Y-58511930D01*
X81311921Y-58261072D01*
X81606899Y-58063974D01*
X81934660Y-57928211D01*
X82282607Y-57859000D01*
X82637375Y-57859000D01*
X82985322Y-57928211D01*
X82985322Y-57928211D01*
G37*
G36*
X355445331Y-57928211D02*
G01*
X355773092Y-58063974D01*
X356068070Y-58261072D01*
X356318928Y-58511930D01*
X356516026Y-58806908D01*
X356651789Y-59134669D01*
X356721000Y-59482616D01*
X356721000Y-59837384D01*
X356651789Y-60185331D01*
X356516026Y-60513092D01*
X356318928Y-60808070D01*
X356068070Y-61058928D01*
X355773092Y-61256026D01*
X355445331Y-61391789D01*
X355097384Y-61461000D01*
X354742616Y-61461000D01*
X354394669Y-61391789D01*
X354066908Y-61256026D01*
X353771930Y-61058928D01*
X353521072Y-60808070D01*
X353323974Y-60513092D01*
X353188211Y-60185331D01*
X353119000Y-59837384D01*
X353119000Y-59482616D01*
X353188211Y-59134669D01*
X353323974Y-58806908D01*
X353521072Y-58511930D01*
X353771930Y-58261072D01*
X354066908Y-58063974D01*
X354394669Y-57928211D01*
X354742616Y-57859000D01*
X355097384Y-57859000D01*
X355445331Y-57928211D01*
X355445331Y-57928211D01*
G37*
G36*
X298445331Y-57928211D02*
G01*
X298773092Y-58063974D01*
X299068070Y-58261072D01*
X299318928Y-58511930D01*
X299516026Y-58806908D01*
X299651789Y-59134669D01*
X299721000Y-59482616D01*
X299721000Y-59837384D01*
X299651789Y-60185331D01*
X299516026Y-60513092D01*
X299318928Y-60808070D01*
X299068070Y-61058928D01*
X298773092Y-61256026D01*
X298445331Y-61391789D01*
X298097384Y-61461000D01*
X297742616Y-61461000D01*
X297394669Y-61391789D01*
X297066908Y-61256026D01*
X296771930Y-61058928D01*
X296521072Y-60808070D01*
X296323974Y-60513092D01*
X296188211Y-60185331D01*
X296119000Y-59837384D01*
X296119000Y-59482616D01*
X296188211Y-59134669D01*
X296323974Y-58806908D01*
X296521072Y-58511930D01*
X296771930Y-58261072D01*
X297066908Y-58063974D01*
X297394669Y-57928211D01*
X297742616Y-57859000D01*
X298097384Y-57859000D01*
X298445331Y-57928211D01*
X298445331Y-57928211D01*
G37*
G36*
X120985014Y-57928054D02*
G01*
X121312775Y-58063817D01*
X121607753Y-58260915D01*
X121858611Y-58511773D01*
X122055709Y-58806751D01*
X122191472Y-59134512D01*
X122260683Y-59482459D01*
X122260683Y-59837227D01*
X122191472Y-60185174D01*
X122055709Y-60512935D01*
X121858611Y-60807913D01*
X121607753Y-61058771D01*
X121312775Y-61255869D01*
X120985014Y-61391632D01*
X120637067Y-61460843D01*
X120282299Y-61460843D01*
X119934352Y-61391632D01*
X119606591Y-61255869D01*
X119311613Y-61058771D01*
X119060755Y-60807913D01*
X118863657Y-60512935D01*
X118727894Y-60185174D01*
X118658683Y-59837227D01*
X118658683Y-59482459D01*
X118727894Y-59134512D01*
X118863657Y-58806751D01*
X119060755Y-58511773D01*
X119311613Y-58260915D01*
X119606591Y-58063817D01*
X119934352Y-57928054D01*
X120282299Y-57858843D01*
X120637067Y-57858843D01*
X120985014Y-57928054D01*
X120985014Y-57928054D01*
G37*
G36*
X139984964Y-57928054D02*
G01*
X140312725Y-58063817D01*
X140607703Y-58260915D01*
X140858561Y-58511773D01*
X141055659Y-58806751D01*
X141191422Y-59134512D01*
X141260633Y-59482459D01*
X141260633Y-59837227D01*
X141191422Y-60185174D01*
X141055659Y-60512935D01*
X140858561Y-60807913D01*
X140607703Y-61058771D01*
X140312725Y-61255869D01*
X139984964Y-61391632D01*
X139637017Y-61460843D01*
X139282249Y-61460843D01*
X138934302Y-61391632D01*
X138606541Y-61255869D01*
X138311563Y-61058771D01*
X138060705Y-60807913D01*
X137863607Y-60512935D01*
X137727844Y-60185174D01*
X137658633Y-59837227D01*
X137658633Y-59482459D01*
X137727844Y-59134512D01*
X137863607Y-58806751D01*
X138060705Y-58511773D01*
X138311563Y-58260915D01*
X138606541Y-58063817D01*
X138934302Y-57928054D01*
X139282249Y-57858843D01*
X139637017Y-57858843D01*
X139984964Y-57928054D01*
X139984964Y-57928054D01*
G37*
G36*
X203432631Y-49948211D02*
G01*
X203760392Y-50083974D01*
X204055370Y-50281072D01*
X204306228Y-50531930D01*
X204503326Y-50826908D01*
X204639089Y-51154669D01*
X204708300Y-51502616D01*
X204708300Y-51857384D01*
X204639089Y-52205331D01*
X204503326Y-52533092D01*
X204306228Y-52828070D01*
X204055370Y-53078928D01*
X203760392Y-53276026D01*
X203432631Y-53411789D01*
X203084684Y-53481000D01*
X202729916Y-53481000D01*
X202381969Y-53411789D01*
X202054208Y-53276026D01*
X201759230Y-53078928D01*
X201508372Y-52828070D01*
X201311274Y-52533092D01*
X201175511Y-52205331D01*
X201106300Y-51857384D01*
X201106300Y-51502616D01*
X201175511Y-51154669D01*
X201311274Y-50826908D01*
X201508372Y-50531930D01*
X201759230Y-50281072D01*
X202054208Y-50083974D01*
X202381969Y-49948211D01*
X202729916Y-49879000D01*
X203084684Y-49879000D01*
X203432631Y-49948211D01*
X203432631Y-49948211D01*
G37*
G36*
X145671169Y-52226199D02*
G01*
X145753244Y-52260196D01*
X145753246Y-52260197D01*
X145790430Y-52285043D01*
X145827112Y-52309553D01*
X145889932Y-52372373D01*
X145939289Y-52446241D01*
X145973286Y-52528316D01*
X145990617Y-52615447D01*
X145990617Y-52704289D01*
X145973286Y-52791420D01*
X145939289Y-52873495D01*
X145939288Y-52873497D01*
X145889931Y-52947364D01*
X145827113Y-53010182D01*
X145753246Y-53059539D01*
X145753245Y-53059540D01*
X145753244Y-53059540D01*
X145671169Y-53093537D01*
X145584038Y-53110868D01*
X145495196Y-53110868D01*
X145408065Y-53093537D01*
X145325990Y-53059540D01*
X145325989Y-53059540D01*
X145325988Y-53059539D01*
X145252121Y-53010182D01*
X145189303Y-52947364D01*
X145139946Y-52873497D01*
X145139945Y-52873495D01*
X145105948Y-52791420D01*
X145088617Y-52704289D01*
X145088617Y-52615447D01*
X145105948Y-52528316D01*
X145139945Y-52446241D01*
X145189302Y-52372373D01*
X145252122Y-52309553D01*
X145288804Y-52285043D01*
X145325988Y-52260197D01*
X145325990Y-52260196D01*
X145408065Y-52226199D01*
X145495196Y-52208868D01*
X145584038Y-52208868D01*
X145671169Y-52226199D01*
X145671169Y-52226199D01*
G37*
G36*
X101211286Y-52226199D02*
G01*
X101293361Y-52260196D01*
X101293363Y-52260197D01*
X101330547Y-52285043D01*
X101367229Y-52309553D01*
X101430049Y-52372373D01*
X101479406Y-52446241D01*
X101513403Y-52528316D01*
X101530734Y-52615447D01*
X101530734Y-52704289D01*
X101513403Y-52791420D01*
X101479406Y-52873495D01*
X101479405Y-52873497D01*
X101430048Y-52947364D01*
X101367230Y-53010182D01*
X101293363Y-53059539D01*
X101293362Y-53059540D01*
X101293361Y-53059540D01*
X101211286Y-53093537D01*
X101124155Y-53110868D01*
X101035313Y-53110868D01*
X100948182Y-53093537D01*
X100866107Y-53059540D01*
X100866106Y-53059540D01*
X100866105Y-53059539D01*
X100792238Y-53010182D01*
X100729420Y-52947364D01*
X100680063Y-52873497D01*
X100680062Y-52873495D01*
X100646065Y-52791420D01*
X100628734Y-52704289D01*
X100628734Y-52615447D01*
X100646065Y-52528316D01*
X100680062Y-52446241D01*
X100729419Y-52372373D01*
X100792239Y-52309553D01*
X100828921Y-52285043D01*
X100866105Y-52260197D01*
X100866107Y-52260196D01*
X100948182Y-52226199D01*
X101035313Y-52208868D01*
X101124155Y-52208868D01*
X101211286Y-52226199D01*
X101211286Y-52226199D01*
G37*
G36*
X120211236Y-52226199D02*
G01*
X120293311Y-52260196D01*
X120293313Y-52260197D01*
X120330497Y-52285043D01*
X120367179Y-52309553D01*
X120429999Y-52372373D01*
X120479356Y-52446241D01*
X120513353Y-52528316D01*
X120530684Y-52615447D01*
X120530684Y-52704289D01*
X120513353Y-52791420D01*
X120479356Y-52873495D01*
X120479355Y-52873497D01*
X120429998Y-52947364D01*
X120367180Y-53010182D01*
X120293313Y-53059539D01*
X120293312Y-53059540D01*
X120293311Y-53059540D01*
X120211236Y-53093537D01*
X120124105Y-53110868D01*
X120035263Y-53110868D01*
X119948132Y-53093537D01*
X119866057Y-53059540D01*
X119866056Y-53059540D01*
X119866055Y-53059539D01*
X119792188Y-53010182D01*
X119729370Y-52947364D01*
X119680013Y-52873497D01*
X119680012Y-52873495D01*
X119646015Y-52791420D01*
X119628684Y-52704289D01*
X119628684Y-52615447D01*
X119646015Y-52528316D01*
X119680012Y-52446241D01*
X119729369Y-52372373D01*
X119792189Y-52309553D01*
X119828871Y-52285043D01*
X119866055Y-52260197D01*
X119866057Y-52260196D01*
X119948132Y-52226199D01*
X120035263Y-52208868D01*
X120124105Y-52208868D01*
X120211236Y-52226199D01*
X120211236Y-52226199D01*
G37*
G36*
X120211236Y-50976199D02*
G01*
X120293311Y-51010196D01*
X120293313Y-51010197D01*
X120330497Y-51035043D01*
X120367179Y-51059553D01*
X120429999Y-51122373D01*
X120479356Y-51196241D01*
X120513353Y-51278316D01*
X120530684Y-51365447D01*
X120530684Y-51454289D01*
X120513353Y-51541420D01*
X120479356Y-51623495D01*
X120479355Y-51623497D01*
X120429998Y-51697364D01*
X120367180Y-51760182D01*
X120293313Y-51809539D01*
X120293312Y-51809540D01*
X120293311Y-51809540D01*
X120211236Y-51843537D01*
X120124105Y-51860868D01*
X120035263Y-51860868D01*
X119948132Y-51843537D01*
X119866057Y-51809540D01*
X119866056Y-51809540D01*
X119866055Y-51809539D01*
X119792188Y-51760182D01*
X119729370Y-51697364D01*
X119680013Y-51623497D01*
X119680012Y-51623495D01*
X119646015Y-51541420D01*
X119628684Y-51454289D01*
X119628684Y-51365447D01*
X119646015Y-51278316D01*
X119680012Y-51196241D01*
X119729369Y-51122373D01*
X119792189Y-51059553D01*
X119828871Y-51035043D01*
X119866055Y-51010197D01*
X119866057Y-51010196D01*
X119948132Y-50976199D01*
X120035263Y-50958868D01*
X120124105Y-50958868D01*
X120211236Y-50976199D01*
X120211236Y-50976199D01*
G37*
G36*
X101211286Y-50976199D02*
G01*
X101293361Y-51010196D01*
X101293363Y-51010197D01*
X101330547Y-51035043D01*
X101367229Y-51059553D01*
X101430049Y-51122373D01*
X101479406Y-51196241D01*
X101513403Y-51278316D01*
X101530734Y-51365447D01*
X101530734Y-51454289D01*
X101513403Y-51541420D01*
X101479406Y-51623495D01*
X101479405Y-51623497D01*
X101430048Y-51697364D01*
X101367230Y-51760182D01*
X101293363Y-51809539D01*
X101293362Y-51809540D01*
X101293361Y-51809540D01*
X101211286Y-51843537D01*
X101124155Y-51860868D01*
X101035313Y-51860868D01*
X100948182Y-51843537D01*
X100866107Y-51809540D01*
X100866106Y-51809540D01*
X100866105Y-51809539D01*
X100792238Y-51760182D01*
X100729420Y-51697364D01*
X100680063Y-51623497D01*
X100680062Y-51623495D01*
X100646065Y-51541420D01*
X100628734Y-51454289D01*
X100628734Y-51365447D01*
X100646065Y-51278316D01*
X100680062Y-51196241D01*
X100729419Y-51122373D01*
X100792239Y-51059553D01*
X100828921Y-51035043D01*
X100866105Y-51010197D01*
X100866107Y-51010196D01*
X100948182Y-50976199D01*
X101035313Y-50958868D01*
X101124155Y-50958868D01*
X101211286Y-50976199D01*
X101211286Y-50976199D01*
G37*
G36*
X145671169Y-50976199D02*
G01*
X145753244Y-51010196D01*
X145753246Y-51010197D01*
X145790430Y-51035043D01*
X145827112Y-51059553D01*
X145889932Y-51122373D01*
X145939289Y-51196241D01*
X145973286Y-51278316D01*
X145990617Y-51365447D01*
X145990617Y-51454289D01*
X145973286Y-51541420D01*
X145939289Y-51623495D01*
X145939288Y-51623497D01*
X145889931Y-51697364D01*
X145827113Y-51760182D01*
X145753246Y-51809539D01*
X145753245Y-51809540D01*
X145753244Y-51809540D01*
X145671169Y-51843537D01*
X145584038Y-51860868D01*
X145495196Y-51860868D01*
X145408065Y-51843537D01*
X145325990Y-51809540D01*
X145325989Y-51809540D01*
X145325988Y-51809539D01*
X145252121Y-51760182D01*
X145189303Y-51697364D01*
X145139946Y-51623497D01*
X145139945Y-51623495D01*
X145105948Y-51541420D01*
X145088617Y-51454289D01*
X145088617Y-51365447D01*
X145105948Y-51278316D01*
X145139945Y-51196241D01*
X145189302Y-51122373D01*
X145252122Y-51059553D01*
X145288804Y-51035043D01*
X145325988Y-51010197D01*
X145325990Y-51010196D01*
X145408065Y-50976199D01*
X145495196Y-50958868D01*
X145584038Y-50958868D01*
X145671169Y-50976199D01*
X145671169Y-50976199D01*
G37*
G36*
X101211286Y-49726199D02*
G01*
X101293361Y-49760196D01*
X101293363Y-49760197D01*
X101330547Y-49785043D01*
X101367229Y-49809553D01*
X101430049Y-49872373D01*
X101479406Y-49946241D01*
X101513403Y-50028316D01*
X101530734Y-50115447D01*
X101530734Y-50204289D01*
X101513403Y-50291420D01*
X101479406Y-50373495D01*
X101479405Y-50373497D01*
X101430048Y-50447364D01*
X101367230Y-50510182D01*
X101293363Y-50559539D01*
X101293362Y-50559540D01*
X101293361Y-50559540D01*
X101211286Y-50593537D01*
X101124155Y-50610868D01*
X101035313Y-50610868D01*
X100948182Y-50593537D01*
X100866107Y-50559540D01*
X100866106Y-50559540D01*
X100866105Y-50559539D01*
X100792238Y-50510182D01*
X100729420Y-50447364D01*
X100680063Y-50373497D01*
X100680062Y-50373495D01*
X100646065Y-50291420D01*
X100628734Y-50204289D01*
X100628734Y-50115447D01*
X100646065Y-50028316D01*
X100680062Y-49946241D01*
X100729419Y-49872373D01*
X100792239Y-49809553D01*
X100828921Y-49785043D01*
X100866105Y-49760197D01*
X100866107Y-49760196D01*
X100948182Y-49726199D01*
X101035313Y-49708868D01*
X101124155Y-49708868D01*
X101211286Y-49726199D01*
X101211286Y-49726199D01*
G37*
G36*
X120211236Y-49726199D02*
G01*
X120293311Y-49760196D01*
X120293313Y-49760197D01*
X120330497Y-49785043D01*
X120367179Y-49809553D01*
X120429999Y-49872373D01*
X120479356Y-49946241D01*
X120513353Y-50028316D01*
X120530684Y-50115447D01*
X120530684Y-50204289D01*
X120513353Y-50291420D01*
X120479356Y-50373495D01*
X120479355Y-50373497D01*
X120429998Y-50447364D01*
X120367180Y-50510182D01*
X120293313Y-50559539D01*
X120293312Y-50559540D01*
X120293311Y-50559540D01*
X120211236Y-50593537D01*
X120124105Y-50610868D01*
X120035263Y-50610868D01*
X119948132Y-50593537D01*
X119866057Y-50559540D01*
X119866056Y-50559540D01*
X119866055Y-50559539D01*
X119792188Y-50510182D01*
X119729370Y-50447364D01*
X119680013Y-50373497D01*
X119680012Y-50373495D01*
X119646015Y-50291420D01*
X119628684Y-50204289D01*
X119628684Y-50115447D01*
X119646015Y-50028316D01*
X119680012Y-49946241D01*
X119729369Y-49872373D01*
X119792189Y-49809553D01*
X119828871Y-49785043D01*
X119866055Y-49760197D01*
X119866057Y-49760196D01*
X119948132Y-49726199D01*
X120035263Y-49708868D01*
X120124105Y-49708868D01*
X120211236Y-49726199D01*
X120211236Y-49726199D01*
G37*
G36*
X145671169Y-49726199D02*
G01*
X145753244Y-49760196D01*
X145753246Y-49760197D01*
X145790430Y-49785043D01*
X145827112Y-49809553D01*
X145889932Y-49872373D01*
X145939289Y-49946241D01*
X145973286Y-50028316D01*
X145990617Y-50115447D01*
X145990617Y-50204289D01*
X145973286Y-50291420D01*
X145939289Y-50373495D01*
X145939288Y-50373497D01*
X145889931Y-50447364D01*
X145827113Y-50510182D01*
X145753246Y-50559539D01*
X145753245Y-50559540D01*
X145753244Y-50559540D01*
X145671169Y-50593537D01*
X145584038Y-50610868D01*
X145495196Y-50610868D01*
X145408065Y-50593537D01*
X145325990Y-50559540D01*
X145325989Y-50559540D01*
X145325988Y-50559539D01*
X145252121Y-50510182D01*
X145189303Y-50447364D01*
X145139946Y-50373497D01*
X145139945Y-50373495D01*
X145105948Y-50291420D01*
X145088617Y-50204289D01*
X145088617Y-50115447D01*
X145105948Y-50028316D01*
X145139945Y-49946241D01*
X145189302Y-49872373D01*
X145252122Y-49809553D01*
X145288804Y-49785043D01*
X145325988Y-49760197D01*
X145325990Y-49760196D01*
X145408065Y-49726199D01*
X145495196Y-49708868D01*
X145584038Y-49708868D01*
X145671169Y-49726199D01*
X145671169Y-49726199D01*
G37*
G36*
X101211286Y-48476199D02*
G01*
X101293361Y-48510196D01*
X101293363Y-48510197D01*
X101330547Y-48535043D01*
X101367229Y-48559553D01*
X101430049Y-48622373D01*
X101479406Y-48696241D01*
X101513403Y-48778316D01*
X101530734Y-48865447D01*
X101530734Y-48954289D01*
X101513403Y-49041420D01*
X101479406Y-49123495D01*
X101479405Y-49123497D01*
X101430048Y-49197364D01*
X101367230Y-49260182D01*
X101293363Y-49309539D01*
X101293362Y-49309540D01*
X101293361Y-49309540D01*
X101211286Y-49343537D01*
X101124155Y-49360868D01*
X101035313Y-49360868D01*
X100948182Y-49343537D01*
X100866107Y-49309540D01*
X100866106Y-49309540D01*
X100866105Y-49309539D01*
X100792238Y-49260182D01*
X100729420Y-49197364D01*
X100680063Y-49123497D01*
X100680062Y-49123495D01*
X100646065Y-49041420D01*
X100628734Y-48954289D01*
X100628734Y-48865447D01*
X100646065Y-48778316D01*
X100680062Y-48696241D01*
X100729419Y-48622373D01*
X100792239Y-48559553D01*
X100828921Y-48535043D01*
X100866105Y-48510197D01*
X100866107Y-48510196D01*
X100948182Y-48476199D01*
X101035313Y-48458868D01*
X101124155Y-48458868D01*
X101211286Y-48476199D01*
X101211286Y-48476199D01*
G37*
G36*
X145671169Y-48476199D02*
G01*
X145753244Y-48510196D01*
X145753246Y-48510197D01*
X145790430Y-48535043D01*
X145827112Y-48559553D01*
X145889932Y-48622373D01*
X145939289Y-48696241D01*
X145973286Y-48778316D01*
X145990617Y-48865447D01*
X145990617Y-48954289D01*
X145973286Y-49041420D01*
X145939289Y-49123495D01*
X145939288Y-49123497D01*
X145889931Y-49197364D01*
X145827113Y-49260182D01*
X145753246Y-49309539D01*
X145753245Y-49309540D01*
X145753244Y-49309540D01*
X145671169Y-49343537D01*
X145584038Y-49360868D01*
X145495196Y-49360868D01*
X145408065Y-49343537D01*
X145325990Y-49309540D01*
X145325989Y-49309540D01*
X145325988Y-49309539D01*
X145252121Y-49260182D01*
X145189303Y-49197364D01*
X145139946Y-49123497D01*
X145139945Y-49123495D01*
X145105948Y-49041420D01*
X145088617Y-48954289D01*
X145088617Y-48865447D01*
X145105948Y-48778316D01*
X145139945Y-48696241D01*
X145189302Y-48622373D01*
X145252122Y-48559553D01*
X145288804Y-48535043D01*
X145325988Y-48510197D01*
X145325990Y-48510196D01*
X145408065Y-48476199D01*
X145495196Y-48458868D01*
X145584038Y-48458868D01*
X145671169Y-48476199D01*
X145671169Y-48476199D01*
G37*
G36*
X120211236Y-48476199D02*
G01*
X120293311Y-48510196D01*
X120293313Y-48510197D01*
X120330497Y-48535043D01*
X120367179Y-48559553D01*
X120429999Y-48622373D01*
X120479356Y-48696241D01*
X120513353Y-48778316D01*
X120530684Y-48865447D01*
X120530684Y-48954289D01*
X120513353Y-49041420D01*
X120479356Y-49123495D01*
X120479355Y-49123497D01*
X120429998Y-49197364D01*
X120367180Y-49260182D01*
X120293313Y-49309539D01*
X120293312Y-49309540D01*
X120293311Y-49309540D01*
X120211236Y-49343537D01*
X120124105Y-49360868D01*
X120035263Y-49360868D01*
X119948132Y-49343537D01*
X119866057Y-49309540D01*
X119866056Y-49309540D01*
X119866055Y-49309539D01*
X119792188Y-49260182D01*
X119729370Y-49197364D01*
X119680013Y-49123497D01*
X119680012Y-49123495D01*
X119646015Y-49041420D01*
X119628684Y-48954289D01*
X119628684Y-48865447D01*
X119646015Y-48778316D01*
X119680012Y-48696241D01*
X119729369Y-48622373D01*
X119792189Y-48559553D01*
X119828871Y-48535043D01*
X119866055Y-48510197D01*
X119866057Y-48510196D01*
X119948132Y-48476199D01*
X120035263Y-48458868D01*
X120124105Y-48458868D01*
X120211236Y-48476199D01*
X120211236Y-48476199D01*
G37*
G36*
X101211286Y-47226199D02*
G01*
X101293361Y-47260196D01*
X101293363Y-47260197D01*
X101330547Y-47285043D01*
X101367229Y-47309553D01*
X101430049Y-47372373D01*
X101479406Y-47446241D01*
X101513403Y-47528316D01*
X101530734Y-47615447D01*
X101530734Y-47704289D01*
X101513403Y-47791420D01*
X101479406Y-47873495D01*
X101479405Y-47873497D01*
X101430048Y-47947364D01*
X101367230Y-48010182D01*
X101293363Y-48059539D01*
X101293362Y-48059540D01*
X101293361Y-48059540D01*
X101211286Y-48093537D01*
X101124155Y-48110868D01*
X101035313Y-48110868D01*
X100948182Y-48093537D01*
X100866107Y-48059540D01*
X100866106Y-48059540D01*
X100866105Y-48059539D01*
X100792238Y-48010182D01*
X100729420Y-47947364D01*
X100680063Y-47873497D01*
X100680062Y-47873495D01*
X100646065Y-47791420D01*
X100628734Y-47704289D01*
X100628734Y-47615447D01*
X100646065Y-47528316D01*
X100680062Y-47446241D01*
X100729419Y-47372373D01*
X100792239Y-47309553D01*
X100828921Y-47285043D01*
X100866105Y-47260197D01*
X100866107Y-47260196D01*
X100948182Y-47226199D01*
X101035313Y-47208868D01*
X101124155Y-47208868D01*
X101211286Y-47226199D01*
X101211286Y-47226199D01*
G37*
G36*
X120211236Y-47226199D02*
G01*
X120293311Y-47260196D01*
X120293313Y-47260197D01*
X120330497Y-47285043D01*
X120367179Y-47309553D01*
X120429999Y-47372373D01*
X120479356Y-47446241D01*
X120513353Y-47528316D01*
X120530684Y-47615447D01*
X120530684Y-47704289D01*
X120513353Y-47791420D01*
X120479356Y-47873495D01*
X120479355Y-47873497D01*
X120429998Y-47947364D01*
X120367180Y-48010182D01*
X120293313Y-48059539D01*
X120293312Y-48059540D01*
X120293311Y-48059540D01*
X120211236Y-48093537D01*
X120124105Y-48110868D01*
X120035263Y-48110868D01*
X119948132Y-48093537D01*
X119866057Y-48059540D01*
X119866056Y-48059540D01*
X119866055Y-48059539D01*
X119792188Y-48010182D01*
X119729370Y-47947364D01*
X119680013Y-47873497D01*
X119680012Y-47873495D01*
X119646015Y-47791420D01*
X119628684Y-47704289D01*
X119628684Y-47615447D01*
X119646015Y-47528316D01*
X119680012Y-47446241D01*
X119729369Y-47372373D01*
X119792189Y-47309553D01*
X119828871Y-47285043D01*
X119866055Y-47260197D01*
X119866057Y-47260196D01*
X119948132Y-47226199D01*
X120035263Y-47208868D01*
X120124105Y-47208868D01*
X120211236Y-47226199D01*
X120211236Y-47226199D01*
G37*
G36*
X145671169Y-47226199D02*
G01*
X145753244Y-47260196D01*
X145753246Y-47260197D01*
X145790430Y-47285043D01*
X145827112Y-47309553D01*
X145889932Y-47372373D01*
X145939289Y-47446241D01*
X145973286Y-47528316D01*
X145990617Y-47615447D01*
X145990617Y-47704289D01*
X145973286Y-47791420D01*
X145939289Y-47873495D01*
X145939288Y-47873497D01*
X145889931Y-47947364D01*
X145827113Y-48010182D01*
X145753246Y-48059539D01*
X145753245Y-48059540D01*
X145753244Y-48059540D01*
X145671169Y-48093537D01*
X145584038Y-48110868D01*
X145495196Y-48110868D01*
X145408065Y-48093537D01*
X145325990Y-48059540D01*
X145325989Y-48059540D01*
X145325988Y-48059539D01*
X145252121Y-48010182D01*
X145189303Y-47947364D01*
X145139946Y-47873497D01*
X145139945Y-47873495D01*
X145105948Y-47791420D01*
X145088617Y-47704289D01*
X145088617Y-47615447D01*
X145105948Y-47528316D01*
X145139945Y-47446241D01*
X145189302Y-47372373D01*
X145252122Y-47309553D01*
X145288804Y-47285043D01*
X145325988Y-47260197D01*
X145325990Y-47260196D01*
X145408065Y-47226199D01*
X145495196Y-47208868D01*
X145584038Y-47208868D01*
X145671169Y-47226199D01*
X145671169Y-47226199D01*
G37*
M02*
