M48
METRIC
T1C0.800
%
G90
G05
T1
X145.92Y-90.22
X145.92Y-91.47
X145.92Y-92.72
X145.92Y-93.97
X145.92Y-95.22
X145.92Y-76.16
X145.92Y-77.41
X145.92Y-78.66
X145.92Y-79.91
X145.92Y-81.16
X145.92Y-62.1
X145.92Y-63.35
X145.92Y-64.6
X145.92Y-65.85
X145.92Y-67.1
X145.92Y-47.66
X145.92Y-48.91
X145.92Y-50.16
X145.92Y-51.41
X145.92Y-52.66
X145.92Y-104.66
X145.92Y-105.91
X145.92Y-107.16
X145.92Y-108.41
X145.92Y-109.66
T0
M30
