M48
METRIC
T1C4.000
%
G90
G05
T1
X150.1Y-80.18
X105.64Y-99.18
X105.64Y-61.18
X188.1Y-61.18
X188.1Y-99.18
X302.1Y-61.18
X302.1Y-99.18
X340.1Y-80.18
X67.64Y-61.18
X124.64Y-61.18
X67.64Y-99.18
X207.1Y-99.18
X124.64Y-99.18
X340.1Y-61.18
X150.1Y-61.18
X340.1Y-99.18
X150.1Y-99.18
X283.1Y-61.18
X207.1Y-61.18
X283.1Y-99.18
T0
M30
